<svg width="166" height="44" viewBox="0 0 166 44" fill="none" xmlns="http://www.w3.org/2000/svg">
<path d="M2.53903 43.0927C1.08625 43.0927 0 42.0931 0 40.6803V40.6669C0 39.3075 1.06626 38.2412 2.51237 38.2412C3.33206 38.2412 3.91183 38.4944 4.40498 38.921L3.64527 39.8339C3.31206 39.554 2.97886 39.3941 2.51903 39.3941C1.84596 39.3941 1.32616 39.9606 1.32616 40.6736V40.6869C1.32616 41.44 1.85262 41.9798 2.59234 41.9798C2.90555 41.9798 3.14546 41.9131 3.33872 41.7865V41.2201H2.41907V40.2738H4.56492V42.373C4.07177 42.7795 3.38537 43.0927 2.53903 43.0927Z" fill="#F6465D"/>
<path d="M12.1924 43.0927C10.7529 43.0927 9.68665 42.0198 9.68665 40.6803V40.6669C9.68665 39.3275 10.7662 38.2412 12.2057 38.2412C13.6451 38.2412 14.7114 39.3141 14.7114 40.6536V40.6669C14.7114 42.0064 13.6318 43.0927 12.1924 43.0927ZM12.2057 41.9265C12.9187 41.9265 13.3919 41.3534 13.3919 40.6803V40.6669C13.3919 39.9939 12.9054 39.4074 12.1924 39.4074C11.486 39.4074 11.0128 39.9805 11.0128 40.6536V40.6669C11.0128 41.34 11.4993 41.9265 12.2057 41.9265Z" fill="#F6465D"/>
<path d="M19.2772 42.9994L21.2631 38.3012H22.5093L24.4952 42.9994H23.1091L22.7692 42.1664H20.9699L20.6367 42.9994H19.2772ZM21.3497 41.1601H22.396L21.8762 39.8339L21.3497 41.1601Z" fill="#F6465D"/>
<path d="M29.5127 42.9994V38.3345H30.8056V41.8665H33.0647V42.9994H29.5127Z" fill="#F6465D"/>
<path d="M38.2108 42.9994V38.3345H39.5103V42.9994H38.2108Z" fill="#F6465D"/>
<path d="M44.7826 42.9994V42.0597L47.1217 39.4274H44.8626V38.3345H48.9077V39.2741L46.5686 41.9065H48.9077V42.9994H44.7826Z" fill="#F6465D"/>
<path d="M54.1473 42.9994V38.3345H57.8992V39.4341H55.4268V40.1405H57.666V41.1601H55.4268V41.8998H57.9325V42.9994H54.1473Z" fill="#F6465D"/>
<path d="M70.9165 42.9994V41.2534L69.1438 38.3345H70.6166L71.5762 40.0339L72.5425 38.3345H73.9886L72.216 41.2334V42.9994H70.9165Z" fill="#F6465D"/>
<path d="M80.8608 43.0927C79.4214 43.0927 78.3551 42.0198 78.3551 40.6803V40.6669C78.3551 39.3275 79.4347 38.2412 80.8742 38.2412C82.3136 38.2412 83.3799 39.3141 83.3799 40.6536V40.6669C83.3799 42.0064 82.3003 43.0927 80.8608 43.0927ZM80.8742 41.9265C81.5872 41.9265 82.0604 41.3534 82.0604 40.6803V40.6669C82.0604 39.9939 81.5739 39.4074 80.8608 39.4074C80.1544 39.4074 79.6813 39.9805 79.6813 40.6536V40.6669C79.6813 41.34 80.1678 41.9265 80.8742 41.9265Z" fill="#F6465D"/>
<path d="M90.7174 43.086C89.3913 43.086 88.5582 42.4129 88.5582 40.9535V38.3345H89.8711V40.9268C89.8711 41.5999 90.2109 41.9198 90.7307 41.9198C91.2505 41.9198 91.5904 41.6133 91.5904 40.9602V38.3345H92.9032V40.9202C92.9032 42.4263 92.0436 43.086 90.7174 43.086Z" fill="#F6465D"/>
<path d="M98.2333 42.9994V38.3345H100.439C101.152 38.3345 101.645 38.5211 101.959 38.841C102.232 39.1075 102.372 39.4674 102.372 39.9272V39.9406C102.372 40.6536 101.992 41.1268 101.412 41.3733L102.525 42.9994H101.032L100.093 41.5866H99.5261V42.9994H98.2333ZM99.5261 40.5737H100.379C100.819 40.5737 101.072 40.3604 101.072 40.0205V40.0072C101.072 39.6407 100.806 39.4541 100.372 39.4541H99.5261V40.5737Z" fill="#F6465D"/>
<path d="M114.001 42.9994V38.3345H115.8C117.467 38.3345 118.433 39.2941 118.433 40.6403V40.6536C118.433 41.9998 117.453 42.9994 115.774 42.9994H114.001ZM115.294 41.8532H115.82C116.594 41.8532 117.107 41.4267 117.107 40.6736V40.6603C117.107 39.9139 116.594 39.4807 115.82 39.4807H115.294V41.8532Z" fill="#F6465D"/>
<path d="M123.662 42.9994V38.3345H125.868C126.581 38.3345 127.074 38.5211 127.387 38.841C127.66 39.1075 127.8 39.4674 127.8 39.9272V39.9406C127.8 40.6536 127.42 41.1268 126.841 41.3733L127.953 42.9994H126.461L125.521 41.5866H124.955V42.9994H123.662ZM124.955 40.5737H125.808C126.247 40.5737 126.501 40.3604 126.501 40.0205V40.0072C126.501 39.6407 126.234 39.4541 125.801 39.4541H124.955V40.5737Z" fill="#F6465D"/>
<path d="M133.017 42.9994V38.3345H136.768V39.4341H134.296V40.1405H136.535V41.1601H134.296V41.8998H136.802V42.9994H133.017Z" fill="#F6465D"/>
<path d="M141.653 42.9994L143.639 38.3012H144.885L146.871 42.9994H145.485L145.145 42.1664H143.346L143.013 42.9994H141.653ZM143.726 41.1601H144.772L144.252 39.8339L143.726 41.1601Z" fill="#F6465D"/>
<path d="M151.889 42.9994V38.3345H153.255L154.368 40.1405L155.481 38.3345H156.847V42.9994H155.561V40.3204L154.368 42.1464H154.341L153.155 40.3337V42.9994H151.889Z" fill="#F6465D"/>
<path d="M164.072 43.0794C163.245 43.0794 162.459 42.8195 161.886 42.3063L162.606 41.4466C163.066 41.8132 163.579 42.0064 164.118 42.0064C164.465 42.0064 164.652 41.8865 164.652 41.6866V41.6732C164.652 41.48 164.498 41.3733 163.865 41.2267C162.872 41.0002 162.106 40.7203 162.106 39.7606V39.7473C162.106 38.881 162.792 38.2545 163.912 38.2545C164.705 38.2545 165.325 38.4678 165.831 38.8743L165.185 39.7873C164.758 39.4874 164.292 39.3275 163.879 39.3275C163.565 39.3275 163.412 39.4607 163.412 39.6273V39.6407C163.412 39.8539 163.572 39.9472 164.218 40.0938C165.291 40.3271 165.958 40.6736 165.958 41.5466V41.5599C165.958 42.5129 165.205 43.0794 164.072 43.0794Z" fill="#F6465D"/>
<path d="M38.0784 20.4778C39.6585 22.1629 41.6619 23.0076 44.086 23.0076C46.5109 23.0076 48.4993 22.1778 50.0566 20.5192C51.6111 18.857 52.388 16.8166 52.388 14.3917V14.3132C52.388 11.8883 51.5962 9.8337 50.016 8.14507C48.4358 6.45998 46.4324 5.61522 44.0084 5.61522C41.5835 5.61522 39.5924 6.44499 38.0387 8.10716C36.4841 9.76668 35.7072 11.8098 35.7072 14.2347V14.3132C35.7055 16.7346 36.4973 18.7891 38.0784 20.4778ZM54.5422 24.4511C51.7364 27.2314 48.2224 28.6219 44.0075 28.6219C39.7899 28.6219 36.291 27.2455 33.5107 24.4917C30.7304 21.7378 29.3398 18.3703 29.3398 14.3908V14.3123C29.3398 10.3328 30.7428 6.95378 33.5486 4.17086C36.3553 1.39146 39.8684 0 44.0833 0C48.2983 0 51.7972 1.37647 54.5801 4.13029C57.3604 6.88412 58.751 10.2517 58.751 14.2312V14.3097C58.7536 18.2892 57.3481 21.6682 54.5422 24.4511Z" fill="white"/>
<path d="M68.6193 16.2893H75.9726L72.2955 7.31531L68.6193 16.2893ZM57.709 27.8715L69.5681 0H75.1834L87.0416 27.8715H80.676L78.1462 21.6655H66.4449L63.915 27.8715H57.709Z" fill="white"/>
<path d="M88.875 27.6731V0H94.9611V22.1373H108.759V27.6705H88.875V27.6731Z" fill="white"/>
<path d="M116.926 0H110.836V27.6731H116.926V0Z" fill="white"/>
<path d="M144.887 27.6731V0H165.76V5.41682H150.936V11.032H163.982V16.4489H150.936V22.259H165.959V27.6767H144.887V27.6731Z" fill="white"/>
<path d="M21.7829 5.36295C21.6691 5.39557 21.4046 5.47405 21.2494 5.53489C21.237 5.58075 21.2088 5.68303 21.1832 5.81089C21.1488 5.98461 21.1215 6.20241 21.1409 6.37876C21.2961 6.65124 21.5121 6.7791 21.6162 6.83024V6.82671C21.9301 6.8082 22.2229 6.66799 22.349 6.59833C22.3613 6.59128 22.3728 6.58598 22.3816 6.58158L22.4363 5.98725C22.177 5.78709 21.8807 5.46876 21.7829 5.36295ZM22.8551 4.26865L23.0288 3.87184C22.9301 3.76956 22.722 3.65404 22.5738 3.58526C22.5209 3.55793 22.4768 3.53941 22.446 3.5253C22.3419 3.53853 22.0553 3.5835 21.834 3.69019V3.69196L21.8305 3.69549V3.69725L21.8287 3.69901L21.8261 3.70342L21.8243 3.70695C21.8208 3.71224 21.8155 3.71929 21.8093 3.72899C21.797 3.74575 21.7784 3.77132 21.7582 3.80394C21.7176 3.86743 21.6647 3.95385 21.6215 4.04291C21.5721 4.14343 21.536 4.25101 21.5395 4.32244L21.9874 4.53759C22.2996 4.41502 22.7361 4.29951 22.8551 4.26865ZM23.3595 4.91676C23.3665 4.85327 23.371 4.81447 23.371 4.81447L23.3798 4.81624C23.2792 4.68485 22.9997 4.46176 22.8824 4.37182C22.8331 4.38416 22.722 4.41238 22.5897 4.45206C22.4089 4.5032 22.1858 4.57286 22.0104 4.63988L21.8534 5.28888C21.8922 5.33296 21.976 5.42379 22.08 5.52784C22.2061 5.65394 22.3578 5.79679 22.4962 5.9026C22.6347 5.87174 23.0112 5.78003 23.1708 5.71478C23.2352 5.56487 23.2863 5.34972 23.3207 5.16983C23.3374 5.06931 23.3507 4.98113 23.3595 4.91676ZM23.9573 4.72541L23.4697 4.86474C23.453 4.99965 23.393 5.44231 23.274 5.73241C23.3507 5.84352 23.5226 6.09042 23.6099 6.20593C23.6205 6.20593 23.632 6.20417 23.647 6.20417C23.6875 6.20064 23.7439 6.19535 23.8127 6.18565C23.9424 6.16537 24.1143 6.12745 24.2765 6.05779L24.4432 5.39998C24.3665 5.2633 24.251 5.09841 24.1487 4.9635C24.0684 4.86033 23.9988 4.77303 23.9573 4.72541ZM24.3577 6.54542V6.52867C24.3612 6.38053 24.3153 6.24209 24.2863 6.16714C24.0067 6.28089 23.7254 6.30646 23.6267 6.31175C23.5702 6.40698 23.4274 6.62831 23.192 6.84347C23.2122 6.94223 23.2616 7.18913 23.2669 7.31522C23.3383 7.3117 23.4512 7.302 23.5773 7.27466C23.5879 7.2729 23.5976 7.27113 23.6082 7.26761C23.3119 7.43162 22.9741 7.52332 22.632 7.52509C22.6426 7.52332 22.6523 7.51803 22.6646 7.51627C22.8234 7.47042 23.0465 7.39899 23.1655 7.33374V7.33198C23.1655 7.31522 23.1637 7.29141 23.1602 7.26408C23.1532 7.21117 23.1435 7.14327 23.1311 7.07626C23.1188 7.00131 23.1038 6.93165 23.095 6.8805C22.9874 6.85669 22.6893 6.78703 22.4354 6.66711C22.3331 6.72531 22.0368 6.88138 21.6903 6.92106C21.7229 7.16973 21.7961 7.28612 21.7961 7.28612L21.6224 7.25879L21.6003 7.25526C21.2494 7.05421 20.9787 6.76234 20.805 6.4255L20.8138 6.42374L21.0369 6.34526C21.0148 6.01988 21.1242 5.61602 21.1541 5.50668C21.11 5.39557 21.0157 5.15396 20.9566 4.9344C20.924 4.94145 20.887 4.95115 20.8446 4.96526C20.7714 4.98554 20.6894 5.01111 20.6365 5.03668C20.6198 5.04374 20.6074 5.04991 20.5977 5.05697L20.5413 4.96967C20.5739 4.94762 20.618 4.92911 20.6674 4.91147C20.7132 4.89472 20.7662 4.87884 20.8155 4.86562C20.894 4.84357 20.9637 4.8277 20.9875 4.82153C21.0774 4.70072 21.2891 4.43001 21.4407 4.33743C21.4337 4.22808 21.4769 4.10904 21.5307 3.99617C21.5765 3.90094 21.6329 3.80835 21.677 3.74398C21.6515 3.74046 21.6206 3.74046 21.5889 3.73869C21.5836 3.73693 21.5774 3.73693 21.5721 3.73693C21.6285 3.7043 21.6876 3.67256 21.7458 3.64522L21.7511 3.63993C21.7564 3.63111 21.7643 3.62494 21.7749 3.62141C21.7837 3.61965 21.7917 3.61965 21.8023 3.61965C22.0015 3.53412 22.2114 3.48033 22.4274 3.45917L22.446 3.41508C22.446 3.41508 22.4786 3.4283 22.5297 3.45299C22.5518 3.45123 22.5756 3.45123 22.5994 3.45123L22.5879 3.46005L22.5712 3.47239C22.5879 3.48121 22.6056 3.48738 22.6241 3.49796C22.789 3.57997 23.0244 3.7043 23.139 3.83922C23.3233 3.86302 23.669 4.00411 23.7713 4.04732L23.93 3.9415L23.9882 3.90271L24.0464 3.99L24.0103 4.01381L23.8401 4.12932C23.9512 4.3339 23.9953 4.5226 24.012 4.62842C24.0482 4.67074 24.3462 5.02698 24.5164 5.31886L24.6372 5.26771L24.646 5.26419C24.6866 5.63189 24.631 6.01723 24.4582 6.377C24.4247 6.42991 24.3921 6.48899 24.3577 6.54542ZM23.7025 3.29074C22.8234 2.85955 21.9372 2.8957 21.1312 3.49003C20.2847 4.11345 20.0034 4.98289 20.1189 6.00841C20.1357 6.16714 20.1224 6.37347 20.0334 6.49075C19.5652 7.11418 19.0863 7.73319 18.4056 8.1538C18.2434 8.25256 18.0935 8.37337 17.9453 8.49329C17.2928 9.0109 16.5309 9.27191 15.7091 9.48883C15.6923 9.31335 15.6447 9.16521 15.6703 9.0303C15.7576 8.59558 15.6738 8.18819 15.4984 7.79844C15.4252 7.63355 15.3123 7.46072 15.1712 7.35402C14.755 7.03834 14.1483 7.04363 13.7427 7.33021C13.3221 7.62649 13.0699 8.24198 13.218 8.72079C13.2965 8.97475 13.4579 9.20489 13.5858 9.45179C12.6863 9.47031 11.9536 9.97293 11.1776 10.3821C10.3549 10.8168 9.5163 11.2277 8.6742 11.6263C8.28356 11.8106 7.87794 11.9843 7.46086 12.0866C6.84184 12.24 6.32247 12.4957 6.01561 13.0803C5.84013 13.4145 5.91508 13.6923 6.229 13.9013C6.49177 14.075 6.60729 14.0186 6.67166 13.717C6.69723 13.6033 6.7907 13.5036 6.85419 13.3987C6.88505 13.508 6.91238 13.6182 6.94589 13.7258C6.96794 13.7955 7.00409 13.8607 7.03319 13.9286C7.09668 13.9013 7.16457 13.8828 7.21748 13.8431C7.25804 13.8122 7.28538 13.7593 7.31448 13.7117C7.82415 12.8969 8.56662 12.4816 9.51278 12.3352C10.2076 12.2277 10.8884 12.0249 11.5726 11.8564C11.7428 11.8141 11.9086 11.7453 12.0497 11.6977C11.9051 12.1183 11.7137 12.5222 11.6352 12.9472C11.5515 13.3916 11.3231 13.6905 10.9624 13.9136C10.7235 14.0618 10.4801 14.2037 10.2297 14.3281C9.7341 14.5732 9.21209 14.7699 8.7368 15.0476C8.22007 15.3492 7.60194 15.477 7.17251 15.9321C7.14165 15.9647 7.07375 15.9594 7.02261 15.97C6.78364 16.0193 6.54027 16.0502 6.30836 16.1216C6.09497 16.186 5.49535 16.3994 4.91602 16.6243C5.02888 17.2054 5.18232 17.7477 5.37807 18.2547C6.16375 17.9901 7.05171 17.6665 7.38061 17.4761C7.69629 17.2918 7.98023 17.2371 8.36204 17.3941C8.7271 17.544 9.168 17.5078 9.51189 17.5475C9.33113 17.9222 9.13008 18.3534 8.91404 18.7776C8.86819 18.8658 8.78089 18.9442 8.69448 19.0007C8.24476 19.289 7.77565 19.5509 7.34005 19.8578C7.21395 19.9459 6.84272 20.1135 6.505 20.2704C6.83743 20.7016 7.2069 21.0949 7.61252 21.4459C8.63628 20.9671 9.89106 20.2652 10.6732 19.7669C11.6 19.1753 12.2304 18.2609 12.8592 17.3623C13.1695 16.9197 13.5029 16.4867 13.8697 16.089C14.904 14.9656 15.8449 13.7814 16.3272 12.3079C16.6156 11.4288 17.1949 10.8097 17.9647 10.3512C18.6058 9.9694 19.1375 9.4756 19.611 8.90244C19.947 8.49858 20.3235 8.12911 20.6824 7.74201C20.8614 7.54978 21.0386 7.52597 21.282 7.66882C22.9574 8.64849 25.0261 7.47924 25.0534 5.53489C25.0737 4.51202 24.6152 3.73869 23.7025 3.29074Z" fill="white"/>
<path d="M22.0714 19.0025C21.9065 19.0333 21.6552 18.9804 21.4083 18.9637C21.8087 18.267 22.1834 17.6586 22.7345 17.1657C22.7663 17.9029 22.1481 18.9883 22.0714 19.0025ZM20.2638 21.7748C20.1086 21.6875 19.725 21.4406 19.5477 21.3286C19.9331 20.833 20.3026 20.371 20.6553 19.8975C21.0953 19.304 21.1085 19.2979 21.7575 19.7529C21.6729 19.9513 20.8801 21.1567 20.2638 21.7748ZM17.3477 23.4264C17.3882 23.377 17.4191 23.3276 17.4614 23.2897C17.9693 22.8418 18.4773 22.3929 18.9887 21.9503C19.0266 21.9176 19.0892 21.8806 19.128 21.8885C19.3652 21.9432 19.7497 22.0825 19.9851 22.1478C19.986 22.1787 17.9376 23.5066 17.3477 23.4264ZM16.2005 23.1795C15.8372 23.0146 15.4695 22.8576 15.0515 22.6769C15.167 22.5472 15.2376 22.4573 15.3187 22.3823C15.6732 22.0552 16.0515 21.7519 16.3804 21.4009C16.6493 21.1126 16.9447 21.0632 17.2851 21.1655C17.6255 21.2678 17.9596 21.3903 18.2938 21.5182C18.4861 21.5914 18.509 21.6849 18.3503 21.8215C17.8441 22.258 17.3292 22.6839 16.8116 23.1063C16.6317 23.2527 16.4245 23.2809 16.2005 23.1795ZM13.1486 24.0957C13.1398 24.0701 13.1319 24.0445 13.1248 24.0207C13.2968 23.9052 13.4687 23.7906 13.6415 23.675C13.8479 23.5357 14.0763 23.4193 14.2535 23.2509C14.4748 23.0428 14.6829 23.019 14.9369 23.1592C15.2041 23.3056 15.4792 23.444 15.7808 23.601C14.9228 24.1962 14.0419 24.1812 13.1486 24.0957ZM11.9203 24.0022C11.2951 23.8214 10.6726 23.6257 10.0527 23.4334C10.7449 23.0569 11.4212 22.6804 12.1081 22.3206C12.2192 22.2624 12.3806 22.2307 12.4952 22.2642C12.9652 22.4088 13.4273 22.5825 13.9643 22.7721C13.7068 22.9599 13.5146 23.1133 13.3117 23.2456C12.9467 23.4855 12.579 23.7191 12.206 23.9422C12.1231 23.9898 12.0023 24.026 11.9203 24.0022ZM10.0509 23.4317C10.0368 23.4088 10.0403 23.4264 10.0509 23.4317V23.4317ZM13.4775 21.3268C13.7279 21.117 13.9837 20.9106 14.2191 20.684C14.3928 20.5191 14.5859 20.4389 14.8108 20.4918C15.2332 20.5906 15.6511 20.7096 16.07 20.8242C16.1044 20.833 16.1308 20.8683 16.2146 20.93C15.8892 21.2404 15.5876 21.5491 15.2623 21.833C15.0286 22.0376 14.7702 22.213 14.5127 22.3885C14.4484 22.4326 14.332 22.4599 14.2658 22.4326C13.7985 22.243 13.3391 22.0393 12.8532 21.8277C13.0684 21.6558 13.2765 21.4953 13.4775 21.3268ZM15.078 19.9195C15.4801 19.4442 15.8786 18.9654 16.2966 18.5034C16.3768 18.4152 16.5356 18.3385 16.6511 18.3464C17.1369 18.3826 17.621 18.454 18.1051 18.5148C18.1492 18.5201 18.1889 18.5457 18.2789 18.5792C18.1819 18.7141 18.114 18.8243 18.0302 18.9249C17.7198 19.3049 17.3979 19.6744 17.0964 20.0615C16.9068 20.3049 16.689 20.3595 16.3998 20.2863C15.9571 20.1752 15.5065 20.0906 15.0497 19.9918C15.0524 19.9839 15.0577 19.9451 15.078 19.9195ZM17.6404 16.5158C17.6713 16.477 17.7498 16.4559 17.8045 16.4541C18.3961 16.4506 18.9869 16.4523 19.6359 16.4523C19.5645 16.611 19.5266 16.7336 19.4569 16.8359C19.2321 17.1719 19.0019 17.5043 18.7585 17.8279C18.6942 17.9134 18.5778 18.0175 18.4861 18.0157C17.8741 18.0069 17.2639 17.9716 16.5876 17.9425C16.9606 17.4364 17.2983 16.9743 17.6404 16.5158ZM20.2937 19.319C19.8828 19.9054 19.471 20.49 19.0478 21.0676C19.0054 21.1258 18.8705 21.1734 18.8062 21.1514C18.3344 20.9812 17.8706 20.7934 17.3574 20.5923C17.5911 20.3234 17.7939 20.1082 17.9729 19.8763C18.2339 19.5386 18.4843 19.1912 18.7277 18.8402C18.8247 18.7009 18.934 18.6303 19.0989 18.6753C19.4587 18.7723 19.8167 18.8764 20.1738 18.9751C20.3863 19.0333 20.4066 19.1576 20.2937 19.319ZM20.5124 16.455C21.112 16.4417 21.7125 16.4479 22.3122 16.4479C22.3342 16.4682 22.3562 16.4867 22.3765 16.5061C22.0459 16.992 21.7187 17.4787 21.3827 17.9611C21.2584 18.1401 21.1288 18.3208 20.9718 18.469C20.8819 18.5545 20.7214 18.6409 20.6138 18.6189C20.128 18.5219 19.6509 18.387 19.106 18.2512C19.4975 17.6648 19.8493 17.1269 20.2188 16.5996C20.277 16.5193 20.4137 16.4567 20.5124 16.455ZM26.7608 12.0822C24.7653 12.0804 22.768 12.0822 20.7726 12.0804H17.9782C17.8133 12.3873 17.6634 12.6853 17.4941 12.9737C16.9059 13.9754 16.1564 14.8484 15.354 15.6816C15.19 15.8501 15.0594 16.0511 14.8884 16.2698C15.6264 16.3518 16.301 16.4268 17.0047 16.5035C16.7613 16.9823 16.4597 17.4135 16.1149 17.8138C16.0726 17.8632 15.9747 17.8852 15.9033 17.887C15.3972 17.9055 14.891 17.9179 14.3849 17.9311C14.0489 17.9399 13.7376 18.021 13.4149 18.2635H15.8522C15.3548 18.8323 14.9034 19.3578 14.4378 19.8701C14.3831 19.9319 14.2553 19.9504 14.1618 19.9486C13.6795 19.9398 13.1953 19.901 12.713 19.9045C12.2968 19.9081 11.8797 19.9433 11.4468 20.1497C12.2968 20.2158 13.0966 20.2775 13.959 20.3454C13.8532 20.4424 13.802 20.4988 13.7429 20.5412C13.2571 20.8807 12.7703 21.2122 12.2862 21.5552C12.1055 21.6831 11.9282 21.714 11.7157 21.6408C11.5023 21.5676 11.281 21.5182 11.0614 21.4688C10.5808 21.3577 10.0985 21.3577 9.61265 21.4741C10.2652 21.6637 10.9177 21.8524 11.6214 22.0552C10.9565 22.4353 10.3692 22.8426 9.6682 23.0402C9.03772 23.2174 8.13301 22.4458 7.66213 22.079C7.02283 21.5817 6.45584 20.99 5.98144 20.334C4.76987 18.6586 4.30957 16.6551 4.23462 14.6182C4.11382 11.3221 5.31658 8.49331 8.09068 6.32411C11.378 3.75282 14.9871 3.53942 18.7347 5.41058C18.8044 4.61785 19.0328 3.88509 19.5186 3.24843C20.0045 2.60737 20.6553 2.21057 21.4392 1.95662C18.3088 0.197449 15.0065 -0.374832 11.5111 0.237129C8.67883 0.73093 6.19395 1.9672 4.1729 4.01206C0.945554 7.27732 -0.373601 11.2427 0.0902195 15.7972C0.245414 17.3174 0.657209 18.7794 1.35647 20.1408C3.6403 24.5851 7.16039 27.3592 12.1857 28.0328C14.3805 28.3274 16.5223 28.0417 18.576 27.2013C21.6755 25.9333 23.9708 23.7623 25.6056 20.8639C26.5377 19.2106 27.0526 17.4249 27.1849 15.5388C27.2546 14.5521 27.229 13.5601 27.2431 12.5707C27.2449 12.1845 27.1391 12.0822 26.7608 12.0822Z" fill="#F6465D"/>
<path d="M119.5 27.7093V23.0781L134.741 5.34363H119.975V0H142.578V4.63115L127.338 22.3657H142.578V27.7093H119.5Z" fill="white"/>
</svg>
