<svg width="52" height="53" viewBox="0 0 52 53" fill="none" xmlns="http://www.w3.org/2000/svg">
<path d="M41.0169 10.0988C40.8027 10.1602 40.3046 10.308 40.0124 10.4225C39.9891 10.5089 39.936 10.7015 39.8878 10.9422C39.8231 11.2693 39.7716 11.6794 39.8081 12.0115C40.1004 12.5245 40.5071 12.7653 40.7031 12.8616V12.8549C41.2941 12.8201 41.8454 12.5561 42.0828 12.4249C42.1061 12.4116 42.1276 12.4017 42.1442 12.3934L42.2472 11.2743C41.759 10.8974 41.2012 10.298 41.0169 10.0988ZM43.0358 8.03827L43.3629 7.29112C43.177 7.09852 42.7851 6.88101 42.5062 6.75151C42.4066 6.70004 42.3236 6.66517 42.2654 6.6386C42.0695 6.66351 41.5299 6.74819 41.1132 6.94909V6.95241L41.1065 6.95905V6.96237L41.1032 6.96569L41.0982 6.97399L41.0949 6.98063C41.0883 6.9906 41.0783 7.00388 41.0667 7.02214C41.0434 7.05369 41.0086 7.10184 40.9704 7.16327C40.894 7.28282 40.7944 7.44553 40.713 7.61322C40.62 7.8025 40.552 8.00507 40.5586 8.13955L41.4021 8.54468C41.9898 8.31389 42.8117 8.09638 43.0358 8.03827ZM43.9856 9.25862C43.9988 9.13908 44.0071 9.06603 44.0071 9.06603L44.0238 9.06935C43.8345 8.82195 43.3081 8.40189 43.0873 8.23253C42.9943 8.25578 42.7851 8.30891 42.5361 8.38362C42.1957 8.47992 41.7756 8.61109 41.4452 8.73728L41.1497 9.95929C41.2228 10.0423 41.3805 10.2133 41.5764 10.4092C41.8138 10.6467 42.0994 10.9156 42.3601 11.1149C42.6208 11.0568 43.3297 10.8841 43.6302 10.7612C43.7515 10.479 43.8478 10.0739 43.9125 9.73514C43.9441 9.54586 43.969 9.37983 43.9856 9.25862ZM45.1113 8.89833L44.1931 9.16066C44.1616 9.4147 44.0487 10.2482 43.8245 10.7944C43.969 11.0036 44.2927 11.4685 44.4571 11.686C44.477 11.686 44.4986 11.6827 44.5268 11.6827C44.6032 11.6761 44.7095 11.6661 44.839 11.6479C45.083 11.6097 45.4068 11.5383 45.7123 11.4071L46.0261 10.1685C45.8817 9.91114 45.6642 9.60066 45.4716 9.34662C45.3205 9.15236 45.1893 8.98799 45.1113 8.89833ZM45.8651 12.3253V12.2937C45.8717 12.0148 45.7854 11.7541 45.7306 11.613C45.2043 11.8272 44.6746 11.8753 44.4886 11.8853C44.3824 12.0646 44.1134 12.4814 43.6701 12.8865C43.7083 13.0724 43.8013 13.5373 43.8112 13.7748C43.9457 13.7681 44.1582 13.7499 44.3957 13.6984C44.4156 13.6951 44.4339 13.6917 44.4538 13.6851C43.8959 13.9939 43.26 14.1666 42.6158 14.1699C42.6357 14.1666 42.654 14.1566 42.6772 14.1533C42.9761 14.067 43.3961 13.9325 43.6203 13.8096V13.8063C43.6203 13.7748 43.617 13.7299 43.6103 13.6785C43.597 13.5788 43.5788 13.451 43.5555 13.3248C43.5323 13.1837 43.5041 13.0525 43.4875 12.9562C43.2849 12.9114 42.7237 12.7802 42.2455 12.5544C42.0529 12.664 41.495 12.9579 40.8425 13.0326C40.904 13.5008 41.0418 13.72 41.0418 13.72L40.7147 13.6685L40.6732 13.6619C40.0124 13.2833 39.5026 12.7337 39.1755 12.0995L39.1922 12.0962L39.6122 11.9484C39.5707 11.3357 39.7766 10.5753 39.833 10.3694C39.75 10.1602 39.5724 9.70526 39.4611 9.29183C39.3997 9.30511 39.33 9.32338 39.2503 9.34994C39.1125 9.38813 38.958 9.43628 38.8584 9.48443C38.8269 9.49771 38.8036 9.50934 38.7854 9.52262L38.6791 9.35825C38.7405 9.31674 38.8236 9.28187 38.9165 9.24866C39.0029 9.21712 39.1025 9.18723 39.1955 9.16233C39.3432 9.12082 39.4744 9.09093 39.5192 9.07931C39.6886 8.85184 40.0871 8.34212 40.3727 8.16778C40.3594 7.9619 40.4407 7.73775 40.542 7.52523C40.6283 7.34591 40.7346 7.17157 40.8176 7.05037C40.7695 7.04373 40.7114 7.04373 40.6516 7.04041C40.6416 7.03709 40.63 7.03709 40.62 7.03709C40.7263 6.97565 40.8376 6.91588 40.9471 6.86441L40.9571 6.85445C40.9671 6.83784 40.982 6.82622 41.0019 6.81958C41.0185 6.81626 41.0335 6.81626 41.0534 6.81626C41.4286 6.65521 41.8238 6.55393 42.2306 6.51408L42.2654 6.43106C42.2654 6.43106 42.3269 6.45596 42.4232 6.50245C42.4647 6.49913 42.5095 6.49913 42.5543 6.49913L42.5328 6.51574L42.5012 6.53898C42.5328 6.55559 42.566 6.56721 42.6008 6.58713C42.9113 6.74154 43.3546 6.97565 43.5705 7.22969C43.9175 7.27451 44.5683 7.54017 44.7609 7.62153L45.0598 7.42229L45.1694 7.34923L45.279 7.5136L45.2109 7.55843L44.8904 7.77594C45.0997 8.16114 45.1827 8.51645 45.2142 8.71569C45.2823 8.79539 45.8435 9.46617 46.1639 10.0157L46.3914 9.91944L46.408 9.9128C46.4844 10.6052 46.3798 11.3307 46.0544 12.0082C45.9913 12.1078 45.9298 12.219 45.8651 12.3253ZM44.6314 6.19695C42.9761 5.38504 41.3074 5.45312 39.7899 6.57219C38.1959 7.74605 37.6663 9.38315 37.8838 11.3141C37.9153 11.613 37.8904 12.0015 37.7227 12.2223C36.8411 13.3962 35.9395 14.5618 34.6578 15.3537C34.3522 15.5397 34.07 15.7672 33.7911 15.993C32.5624 16.9676 31.1279 17.4591 29.5804 17.8675C29.5489 17.5371 29.4592 17.2582 29.5074 17.0041C29.6717 16.1856 29.514 15.4185 29.1836 14.6846C29.0458 14.3741 28.8333 14.0487 28.5676 13.8478C27.7839 13.2534 26.6416 13.2634 25.8779 13.803C25.0859 14.3609 24.611 15.5198 24.8899 16.4213C25.0377 16.8995 25.3416 17.3329 25.5823 17.7978C23.8888 17.8326 22.509 18.779 21.0479 19.5494C19.4988 20.368 17.9198 21.1417 16.3342 21.8922C15.5987 22.2392 14.8349 22.5663 14.0496 22.7589C12.884 23.0478 11.9061 23.5293 11.3283 24.6301C10.9979 25.2594 11.139 25.7824 11.7301 26.1759C12.2248 26.503 12.4424 26.3967 12.5636 25.8289C12.6117 25.6147 12.7877 25.4271 12.9072 25.2295C12.9654 25.4354 13.0168 25.6429 13.0799 25.8455C13.1214 25.9766 13.1895 26.0995 13.2443 26.2273C13.3638 26.1759 13.4917 26.141 13.5913 26.0663C13.6677 26.0082 13.7192 25.9086 13.7739 25.8189C14.7336 24.2847 16.1316 23.5027 17.9132 23.2271C19.2215 23.0245 20.5033 22.6427 21.7917 22.3255C22.1122 22.2458 22.4243 22.1163 22.69 22.0267C22.4177 22.8187 22.0574 23.5791 21.9096 24.3794C21.7519 25.2162 21.3219 25.779 20.6428 26.1991C20.1928 26.478 19.7346 26.7454 19.263 26.9795C18.3299 27.4411 17.347 27.8113 16.4521 28.3343C15.4791 28.9022 14.3152 29.1429 13.5066 29.9996C13.4485 30.0611 13.3207 30.0511 13.2244 30.071C12.7744 30.164 12.3162 30.2221 11.8795 30.3566C11.4777 30.4778 10.3487 30.8796 9.25781 31.303C9.47034 32.3972 9.75924 33.4183 10.1278 34.373C11.6072 33.8749 13.2792 33.2655 13.8985 32.9069C14.4929 32.5599 15.0275 32.4569 15.7464 32.7525C16.4338 33.0347 17.264 32.9667 17.9115 33.0414C17.5712 33.747 17.1926 34.5589 16.7858 35.3576C16.6995 35.5236 16.5351 35.6714 16.3724 35.7776C15.5256 36.3206 14.6423 36.8137 13.8221 37.3915C13.5847 37.5575 12.8857 37.873 12.2498 38.1685C12.8757 38.9804 13.5714 39.721 14.3351 40.3818C16.2628 39.4802 18.6255 38.1586 20.0982 37.2205C21.8432 36.1064 23.0304 34.3846 24.2142 32.6927C24.7986 31.8592 25.4262 31.044 26.1169 30.2952C28.0645 28.1799 29.8361 25.9501 30.7443 23.1756C31.2873 21.5203 32.3781 20.3547 33.8276 19.4913C35.0347 18.7724 36.0358 17.8426 36.9274 16.7634C37.56 16.0029 38.269 15.3073 38.9448 14.5784C39.2818 14.2164 39.6155 14.1716 40.0738 14.4406C43.2284 16.2852 47.1236 14.0836 47.1751 10.4225C47.2133 8.49653 46.3499 7.04041 44.6314 6.19695Z" fill="white"/>
<path d="M41.5589 35.7803C41.2484 35.8384 40.7752 35.7388 40.3103 35.7072C41.0641 34.3955 41.7698 33.2499 42.8075 32.3218C42.8673 33.7098 41.7034 35.7537 41.5589 35.7803ZM38.1552 41.0004C37.863 40.836 37.1407 40.3711 36.807 40.1603C37.5326 39.2271 38.2283 38.3571 38.8924 37.4655C39.7209 36.3481 39.7458 36.3365 40.9678 37.1932C40.8084 37.5668 39.3158 39.8365 38.1552 41.0004ZM32.6645 44.1102C32.7408 44.0172 32.7989 43.9243 32.8786 43.8529C33.835 43.0094 34.7914 42.1643 35.7544 41.3308C35.8258 41.2694 35.9436 41.1996 36.0167 41.2146C36.4633 41.3175 37.1872 41.5799 37.6305 41.7027C37.6322 41.7608 33.7752 44.2613 32.6645 44.1102ZM30.5044 43.6453C29.8203 43.3348 29.1279 43.0393 28.3409 42.6989C28.5584 42.4549 28.6913 42.2855 28.844 42.1444C29.5115 41.5284 30.2238 40.9572 30.8431 40.2964C31.3495 39.7535 31.9057 39.6605 32.5466 39.8531C33.1875 40.0457 33.8167 40.2765 34.446 40.5172C34.808 40.655 34.8511 40.831 34.5523 41.0884C33.5992 41.9103 32.6296 42.7122 31.655 43.5075C31.3163 43.7831 30.9261 43.8363 30.5044 43.6453ZM24.7579 45.3704C24.7413 45.3223 24.7264 45.2741 24.7131 45.2293C25.0368 45.0118 25.3606 44.7959 25.686 44.5784C26.0746 44.3161 26.5046 44.0969 26.8383 43.7798C27.2551 43.388 27.6469 43.3431 28.1251 43.6071C28.6282 43.8828 29.1462 44.1434 29.714 44.439C28.0985 45.5597 26.4398 45.5315 24.7579 45.3704ZM22.445 45.1944C21.2679 44.854 20.0957 44.4855 18.9284 44.1235C20.2318 43.4145 21.5053 42.7056 22.7987 42.0281C23.0079 41.9186 23.3117 41.8588 23.5276 41.9219C24.4125 42.1942 25.2826 42.5213 26.2937 42.8782C25.8089 43.2319 25.4469 43.5208 25.0651 43.7698C24.3777 44.2215 23.6853 44.6614 22.983 45.0815C22.8269 45.1712 22.5995 45.2393 22.445 45.1944ZM18.9251 44.1202C18.8986 44.077 18.9052 44.1102 18.9251 44.1202V44.1202ZM25.3772 40.1569C25.8487 39.7618 26.3302 39.3733 26.7736 38.9465C27.1006 38.6361 27.4643 38.485 27.8877 38.5846C28.683 38.7705 29.47 38.9947 30.2586 39.2105C30.3234 39.2271 30.3732 39.2936 30.5309 39.4098C29.9183 39.9942 29.3504 40.5753 28.7377 41.11C28.2978 41.4952 27.8113 41.8256 27.3265 42.156C27.2052 42.239 26.9861 42.2905 26.8616 42.239C25.9816 41.882 25.1165 41.4985 24.2017 41.1C24.6068 40.7762 24.9987 40.4741 25.3772 40.1569ZM28.3907 37.507C29.1479 36.6121 29.8983 35.7105 30.6853 34.8405C30.8364 34.6745 31.1353 34.53 31.3528 34.545C32.2676 34.6131 33.1792 34.7475 34.0907 34.8621C34.1737 34.8721 34.2484 34.9202 34.4178 34.9833C34.2351 35.2373 34.1073 35.4449 33.9496 35.6342C33.3651 36.3498 32.7591 37.0455 32.1913 37.7743C31.8343 38.2326 31.4242 38.3355 30.8796 38.1977C30.0461 37.9885 29.1977 37.8291 28.3376 37.6432C28.3426 37.6282 28.3525 37.5552 28.3907 37.507ZM33.2157 31.0981C33.2738 31.025 33.4216 30.9852 33.5245 30.9819C34.6386 30.9752 35.751 30.9786 36.973 30.9786C36.8386 31.2774 36.7672 31.5082 36.636 31.7008C36.2126 32.3334 35.7793 32.9593 35.321 33.5687C35.1998 33.7297 34.9806 33.9257 34.808 33.9223C33.6557 33.9057 32.5067 33.8393 31.2332 33.7845C31.9356 32.8315 32.5715 31.9615 33.2157 31.0981ZM38.2117 36.3763C37.4379 37.4805 36.6626 38.5813 35.8656 39.6688C35.7859 39.7784 35.5319 39.868 35.4107 39.8265C34.5224 39.5061 33.649 39.1524 32.6827 38.7739C33.1227 38.2675 33.5046 37.8623 33.8416 37.4257C34.3331 36.7898 34.8046 36.1356 35.2629 35.4748C35.4455 35.2124 35.6514 35.0796 35.9619 35.1643C36.6393 35.3469 37.3134 35.5428 37.9859 35.7288C38.386 35.8384 38.4242 36.0725 38.2117 36.3763ZM38.6234 30.9835C39.7525 30.9586 40.8832 30.9703 42.0122 30.9703C42.0537 31.0084 42.0952 31.0433 42.1334 31.0798C41.5108 31.9947 40.8948 32.9112 40.2622 33.8194C40.0281 34.1565 39.784 34.4968 39.4885 34.7758C39.3191 34.9368 39.0169 35.0995 38.8144 35.058C37.8995 34.8754 37.0013 34.6214 35.9752 34.3657C36.7124 33.2615 37.3749 32.2487 38.0705 31.2558C38.1801 31.1047 38.4375 30.9869 38.6234 30.9835ZM50.3886 22.7499C46.6313 22.7466 42.8706 22.7499 39.1132 22.7466H33.8516C33.5411 23.3244 33.2589 23.8856 32.9401 24.4285C31.8326 26.3147 30.4213 27.9584 28.9104 29.5274C28.6016 29.8445 28.3559 30.2231 28.0338 30.6349C29.4235 30.7893 30.6936 30.9304 32.0186 31.0749C31.5603 31.9764 30.9925 32.7883 30.3433 33.5421C30.2636 33.6351 30.0793 33.6766 29.9448 33.6799C28.9918 33.7148 28.0387 33.7381 27.0857 33.763C26.4531 33.7796 25.867 33.9323 25.2593 34.3889H29.8485C28.9121 35.4598 28.062 36.4494 27.1853 37.4141C27.0824 37.5303 26.8416 37.5651 26.6656 37.5618C25.7574 37.5452 24.8459 37.4722 23.9377 37.4788C23.154 37.4854 22.3687 37.5519 21.5534 37.9404C23.154 38.0649 24.6599 38.1811 26.2838 38.309C26.0845 38.4916 25.9882 38.5979 25.877 38.6776C24.9621 39.3168 24.0456 39.9411 23.1341 40.587C22.7937 40.8277 22.46 40.8858 22.0598 40.748C21.658 40.6102 21.2413 40.5172 20.8279 40.4243C19.923 40.215 19.0148 40.215 18.0999 40.4342C19.3286 40.7912 20.5572 41.1465 21.8822 41.5284C20.6303 42.244 19.5245 43.0111 18.2045 43.383C17.0174 43.7167 15.3139 42.2639 14.4272 41.5732C13.2235 40.6368 12.1559 39.5227 11.2626 38.2874C8.98132 35.1327 8.11462 31.3604 7.97349 27.525C7.74602 21.3187 10.0107 15.9923 15.2342 11.9078C21.4239 7.06629 28.2197 6.66448 35.2762 10.1877C35.4073 8.69508 35.8374 7.31534 36.7522 6.11657C37.6671 4.9095 38.8924 4.16235 40.3685 3.68417C34.4742 0.371782 28.2562 -0.705781 21.6746 0.446497C16.3416 1.37629 11.6628 3.70409 7.85727 7.55443C1.78041 13.7027 -0.703464 21.1692 0.169877 29.7449C0.462097 32.6074 1.23748 35.3602 2.55413 37.9238C6.85442 46.2919 13.4825 51.5153 22.9448 52.7839C27.0774 53.3384 31.1104 52.8005 34.9773 51.2181C40.8134 48.8306 45.1353 44.7428 48.2136 39.2853C49.9686 36.1721 50.9382 32.8099 51.1873 29.2584C51.3184 27.4005 51.2703 25.5326 51.2968 23.6697C51.3002 22.9425 51.1009 22.7499 50.3886 22.7499Z" fill="#F6465D"/>
</svg>
