<svg width="27" height="27" viewBox="0 0 27 27" fill="none" xmlns="http://www.w3.org/2000/svg">
<mask id="mask0_16309_2082" style="mask-type:luminance" maskUnits="userSpaceOnUse" x="4" y="4" width="19" height="19">
<path d="M21.75 21.75V5.25H5.25V21.75H21.75Z" fill="white" stroke="white" stroke-width="1.5"/>
</mask>
<g mask="url(#mask0_16309_2082)">
<path d="M16.3203 10.8276C16.3203 12.3809 15.0611 13.6401 13.5078 13.6401C11.9545 13.6401 10.6953 12.3809 10.6953 10.8276C10.6953 9.27433 11.9545 8.01514 13.5078 8.01514C15.0611 8.01514 16.3203 9.27433 16.3203 10.8276Z" stroke="#4B4B4B" stroke-width="1.5" stroke-miterlimit="10"/>
<path d="M13.5 5.20312C16.6066 5.20312 19.125 7.72151 19.125 10.8281C19.125 15.0469 13.5 19.9688 13.5 19.9688C13.5 19.9688 7.875 15.0469 7.875 10.8281C7.875 7.72151 10.3934 5.20312 13.5 5.20312Z" stroke="#4B4B4B" stroke-width="1.5" stroke-miterlimit="10"/>
<path d="M18.6757 18.2571C19.8324 18.6331 20.5391 19.1355 20.5391 19.6875C20.5391 20.8525 17.3911 21.7969 13.5078 21.7969C9.62456 21.7969 6.47656 20.8525 6.47656 19.6875C6.47656 19.1355 7.18324 18.6331 8.33995 18.2571" stroke="#4B4B4B" stroke-width="1.5" stroke-miterlimit="10"/>
</g>
</svg>
