<svg width="18" height="18" viewBox="0 0 18 18" fill="none" xmlns="http://www.w3.org/2000/svg">
<mask id="mask0_15684_3106" style="mask-type:luminance" maskUnits="userSpaceOnUse" x="0" y="0" width="18" height="18">
<path d="M0 0H18V18H0V0Z" fill="white"/>
</mask>
<g mask="url(#mask0_15684_3106)">
<path d="M9.00075 4.76429C9.00075 6.63597 7.48347 8.15332 5.61172 8.15332C3.73989 8.15332 2.22266 6.63597 2.22266 4.76429C2.22266 2.89257 3.73989 1.37523 5.61172 1.37523C7.48347 1.37523 9.00075 2.89257 9.00075 4.76429Z" stroke="white" stroke-miterlimit="10" stroke-linecap="round" stroke-linejoin="round"/>
<path d="M5.61097 8.15332C2.80339 8.15332 0.527344 10.4294 0.527344 13.2369V15.2139C0.527344 15.9906 1.16283 16.626 1.93946 16.626H9.28241C10.0591 16.626 10.6946 15.9906 10.6946 15.2139V13.2369C10.6946 10.4294 8.41855 8.15332 5.61097 8.15332Z" stroke="white" stroke-miterlimit="10" stroke-linecap="round" stroke-linejoin="round"/>
<path d="M15.7782 4.76429C15.7782 6.63597 14.2609 8.15332 12.3891 8.15332C10.5173 8.15332 9 6.63597 9 4.76429C9 2.89257 10.5173 1.37523 12.3891 1.37523C14.2609 1.37523 15.7782 2.89257 15.7782 4.76429Z" stroke="white" stroke-miterlimit="10" stroke-linecap="round" stroke-linejoin="round"/>
<path d="M8.7168 16.626H16.0598C16.8364 16.626 17.4719 15.9906 17.4719 15.2139V13.2369C17.4719 10.4294 15.1958 8.15332 12.3883 8.15332C11.0862 8.15332 9.89843 8.6429 8.999 9.44795" stroke="white" stroke-miterlimit="10" stroke-linecap="round" stroke-linejoin="round"/>
</g>
</svg>
