<svg width="311" height="284" viewBox="0 0 311 284" fill="none" xmlns="http://www.w3.org/2000/svg">
<path d="M311 281.517C291.018 282.261 241.04 282.673 221.058 282.983C201.076 283.315 161.097 283.464 141.115 283.533C131.124 283.581 101.133 283.566 91.1457 283.479C81.1548 283.395 71.1638 283.224 61.1729 283.034C41.191 282.647 21.2124 282.174 1.2305 282.071L1.19449e-07 282.064L0.576905 280.883C11.8751 257.699 22.9098 234.362 33.7645 210.919L50.0648 175.77C55.5171 164.063 61.0228 152.389 66.5452 140.722C77.6066 117.4 88.6447 94.0664 99.8061 70.8022C110.978 47.5454 122.316 24.3797 133.727 1.26146L134.348 1.361e-05L135.618 0.0109695C144.399 0.0838769 163.182 0.229722 171.963 0.34273C180.743 0.448474 229.527 0.634392 238.307 0.776574L261.48 1.04638L284.655 1.35263C293.436 1.56042 302.22 1.80472 311 2.10004L311 2.61044C302.22 2.90576 293.436 3.15002 284.655 3.35785L261.483 3.65679L238.311 3.9266C229.53 4.06878 180.747 4.25472 171.966 4.36043C163.186 4.47347 144.402 4.62291 135.621 4.69218L137.516 3.44166C126.531 26.8079 115.47 50.1267 104.241 73.3543C93.0032 96.5747 81.645 119.726 70.3068 142.888C64.6311 154.467 58.9386 166.032 53.1895 177.567L35.892 212.144C24.3504 235.19 12.9856 258.337 1.88412 281.634L1.2305 280.453C21.2124 280.351 41.191 279.88 61.1729 279.49C71.1638 279.304 81.1548 279.129 91.1457 279.045C101.137 278.958 131.128 278.943 141.115 278.991C161.097 279.06 201.076 279.213 221.058 279.541C241.04 279.851 291.018 280.263 311 281.007L311 281.517Z" fill="url(#paint0_linear_16526_90)"/>
<defs>
<linearGradient id="paint0_linear_16526_90" x1="311" y1="283.56" x2="74.8792" y2="34.3396" gradientUnits="userSpaceOnUse">
<stop stop-color="white"/>
<stop offset="0.25" stop-color="#EEEBEC"/>
<stop offset="0.5" stop-color="white"/>
<stop offset="0.75" stop-color="#EEEBEC"/>
<stop offset="1" stop-color="white"/>
</linearGradient>
</defs>
</svg>
