<svg width="311" height="284" viewBox="0 0 311 284" fill="none" xmlns="http://www.w3.org/2000/svg">
<path d="M0 2.04275C19.9819 1.299 69.9605 0.887019 89.9424 0.577123C109.924 0.245351 149.903 0.0958716 169.885 0.0266006C179.876 -0.0207954 209.867 -0.00621199 219.854 0.0812882C229.845 0.165143 239.836 0.336497 249.827 0.526081C269.809 0.91254 289.788 1.3865 309.77 1.48858L311 1.49587L310.423 2.67713C299.125 25.861 288.09 49.1981 277.236 72.6408L260.935 107.79C255.483 119.497 249.977 131.171 244.455 142.838C233.393 166.16 222.355 189.494 211.194 212.758C200.022 236.015 188.684 259.18 177.273 282.299L176.652 283.56L175.382 283.549C166.601 283.476 147.818 283.33 139.037 283.217C130.257 283.112 81.473 282.926 72.6926 282.783L49.5203 282.514L26.3446 282.207C17.5642 282 8.78043 281.755 0 281.46V280.95C8.78043 280.654 17.5642 280.41 26.3446 280.202L49.5169 279.903L72.6893 279.633C81.4697 279.491 130.253 279.305 139.034 279.2C147.814 279.087 166.598 278.937 175.379 278.868L173.484 280.118C184.469 256.752 195.531 233.433 206.759 210.206C217.997 186.985 229.355 163.834 240.693 140.672C246.369 129.093 252.061 117.528 257.811 105.993L275.108 71.4158C286.65 48.3705 298.014 25.223 309.116 1.92608L309.77 3.10734C289.788 3.20942 269.809 3.67973 249.827 4.06984C239.836 4.25578 229.845 4.43078 219.854 4.51463C209.863 4.60213 179.872 4.61671 169.885 4.56932C149.903 4.50005 109.924 4.34692 89.9424 4.0188C69.9605 3.7089 19.9819 3.29692 0 2.55317V2.04275Z" fill="url(#paint0_linear_16526_85)"/>
<defs>
<linearGradient id="paint0_linear_16526_85" x1="0" y1="0" x2="236.121" y2="249.22" gradientUnits="userSpaceOnUse">
<stop stop-color="white"/>
<stop offset="0.25" stop-color="#EEEBEC"/>
<stop offset="0.5" stop-color="white"/>
<stop offset="0.75" stop-color="#EEEBEC"/>
<stop offset="1" stop-color="white"/>
</linearGradient>
</defs>
</svg>
