<svg width="44" height="57" viewBox="0 0 44 57" fill="none" xmlns="http://www.w3.org/2000/svg">
<g clip-path="url(#clip0_16441_1306)">
<path d="M35.5911 0L15.6444 35.7724H3.91111L0 0H9.58222L11.3422 28.6966L26.0089 0H35.5911Z" fill="url(#paint0_linear_16441_1306)"/>
<path d="M13.4922 52.8725L17.4033 47.5656C19.5544 49.3346 22.0966 50.1208 24.6389 50.1208C28.9411 50.1208 30.7011 48.5484 30.7011 46.3863C30.7011 44.6173 29.7233 43.0449 25.4211 40.4897C21.9011 38.3277 19.5544 35.7725 19.5544 31.8415C19.5544 24.569 25.6166 19.8518 33.4389 19.8518C38.1322 19.8518 41.6522 21.0311 43.8033 22.6035L40.2833 28.3035C38.7189 27.3208 36.1766 26.5346 33.83 26.5346C30.5055 26.5346 28.7455 27.9104 28.7455 30.4656C28.7455 32.038 29.9189 33.2173 32.4611 34.7897C37.1544 37.738 39.8922 40.4897 39.8922 45.0104C39.8922 52.6759 33.0477 57.0001 24.8344 57.0001C19.9455 57.0001 16.4255 55.6242 13.4922 52.8725Z" fill="url(#paint1_linear_16441_1306)"/>
</g>
<defs>
<linearGradient id="paint0_linear_16441_1306" x1="0.951964" y1="-0.956813" x2="26.7658" y2="24.7261" gradientUnits="userSpaceOnUse">
<stop stop-color="#FCFCFC"/>
<stop offset="0.2596" stop-color="#F9F9F9"/>
<stop offset="0.4163" stop-color="#F1F1F1"/>
<stop offset="0.5456" stop-color="#E3E3E3"/>
<stop offset="0.6601" stop-color="#CECECE"/>
<stop offset="0.7648" stop-color="#B4B4B4"/>
<stop offset="0.8623" stop-color="#949494"/>
<stop offset="0.9526" stop-color="#6E6E6E"/>
<stop offset="1" stop-color="#575757"/>
</linearGradient>
<linearGradient id="paint1_linear_16441_1306" x1="18.9883" y1="27.8084" x2="40.5228" y2="49.2338" gradientUnits="userSpaceOnUse">
<stop stop-color="#FCFCFC"/>
<stop offset="0.2008" stop-color="#F6F6F6"/>
<stop offset="0.4675" stop-color="#E5E5E5"/>
<stop offset="0.7698" stop-color="#CACACA"/>
<stop offset="1" stop-color="#B0B0B0"/>
</linearGradient>
<clipPath id="clip0_16441_1306">
<rect width="44" height="57" fill="white"/>
</clipPath>
</defs>
</svg>
