<svg width="18" height="18" viewBox="0 0 18 18" fill="none" xmlns="http://www.w3.org/2000/svg">
<mask id="mask0_15684_3554" style="mask-type:luminance" maskUnits="userSpaceOnUse" x="0" y="0" width="18" height="18">
<path d="M0 18L18 18L18 1.57361e-06L1.57361e-06 0L0 18Z" fill="white"/>
<path d="M8.29688 6.18775C8.29688 5.79941 8.6117 5.48462 9 5.48462C9.38834 5.48462 9.70312 5.79941 9.70312 6.18775C9.70312 6.57608 9.38834 6.89087 9 6.89087C8.6117 6.89087 8.29688 6.57608 8.29688 6.18775Z" fill="white"/>
<path d="M5.48438 6.1875C5.48438 5.79917 5.7992 5.48438 6.1875 5.48438C6.57584 5.48438 6.89062 5.79917 6.89062 6.1875C6.89062 6.57584 6.57584 6.89063 6.1875 6.89063C5.7992 6.89063 5.48438 6.57584 5.48438 6.1875Z" fill="white"/>
<path d="M2.67188 6.1875C2.67188 5.79917 2.9867 5.48438 3.375 5.48438C3.76334 5.48438 4.07812 5.79917 4.07812 6.1875C4.07812 6.57584 3.76334 6.89063 3.375 6.89063C2.9867 6.89063 2.67188 6.57584 2.67188 6.1875Z" fill="white"/>
</mask>
<g mask="url(#mask0_15684_3554)">
<mask id="mask1_15684_3554" style="mask-type:luminance" maskUnits="userSpaceOnUse" x="0" y="0" width="18" height="18">
<path d="M18 18L3.33739e-07 18L1.90735e-06 0L18 1.57361e-06L18 18Z" fill="white"/>
</mask>
<g mask="url(#mask1_15684_3554)">
<path d="M4.78125 17.2969C4.00461 17.2969 3.375 16.6673 3.375 15.8906L3.375 2.10938C3.375 1.33274 4.00461 0.703127 4.78125 0.703127L13.2187 0.703127C13.9954 0.703127 14.625 1.33274 14.625 2.10938L14.625 15.8906C14.625 16.6673 13.9954 17.2969 13.2187 17.2969L4.78125 17.2969Z" stroke="white" stroke-width="1.41" stroke-miterlimit="10" stroke-linecap="round" stroke-linejoin="round"/>
</g>
</g>
</svg>
