<svg width="18" height="18" viewBox="0 0 18 18" fill="none" xmlns="http://www.w3.org/2000/svg">
<mask id="mask0_15684_2816" style="mask-type:luminance" maskUnits="userSpaceOnUse" x="0" y="0" width="18" height="18">
<path d="M17.9912 0.00878906V17.9912H0.00878906V0.00878906H17.9912Z" fill="white" stroke="white" stroke-width="0.0175159"/>
</mask>
<g mask="url(#mask0_15684_2816)">
<mask id="mask1_15684_2816" style="mask-type:luminance" maskUnits="userSpaceOnUse" x="0" y="0" width="18" height="18">
<path d="M17.9883 17.9883V0.0117188H0.0117188V17.9883H17.9883Z" fill="white" stroke="white" stroke-width="0.0233545"/>
</mask>
<g mask="url(#mask1_15684_2816)">
<path d="M14.2445 16.9321H3.75737C2.27226 16.9321 1.06836 15.7282 1.06836 14.2431V5.1005C1.06836 3.6154 2.27226 2.4115 3.75737 2.4115H14.2445C15.7296 2.4115 16.9335 3.6154 16.9335 5.1005V14.2431C16.9335 15.7282 15.7296 16.9321 14.2445 16.9321Z" stroke="white" stroke-miterlimit="10" stroke-linecap="round" stroke-linejoin="round"/>
<path d="M5.10156 3.75635V1.06734" stroke="white" stroke-miterlimit="10" stroke-linecap="round" stroke-linejoin="round"/>
<path d="M12.9004 3.75635V1.06734" stroke="white" stroke-miterlimit="10" stroke-linecap="round" stroke-linejoin="round"/>
<path d="M3.75781 6.44531H14.2449" stroke="white" stroke-miterlimit="10" stroke-linecap="round" stroke-linejoin="round"/>
</g>
</g>
</svg>
