<svg width="5" height="22" viewBox="0 0 5 22" fill="none" xmlns="http://www.w3.org/2000/svg">
<path fill-rule="evenodd" clip-rule="evenodd" d="M2.19999 17.6C3.41501 17.6 4.39998 18.585 4.39998 19.8C4.39998 21.015 3.41501 22 2.19999 22C0.984978 22 0 21.015 0 19.8C0 18.585 0.984978 17.6 2.19999 17.6ZM2.19999 8.80005C3.41501 8.80005 4.39998 9.78502 4.39998 11C4.39998 12.2151 3.41501 13.2 2.19999 13.2C0.984978 13.2 0 12.2151 0 11C0 9.78502 0.984978 8.80005 2.19999 8.80005ZM2.19999 0C3.41501 0 4.39998 0.984978 4.39998 2.19999C4.39998 3.41501 3.41501 4.39998 2.19999 4.39998C0.984978 4.39998 0 3.41501 0 2.19999C0 0.984978 0.984978 0 2.19999 0Z" fill="white" fill-opacity="0.31"/>
</svg>
