<svg width="92" height="43" viewBox="0 0 92 43" fill="none" xmlns="http://www.w3.org/2000/svg">
<g opacity="0.3" filter="url(#filter0_f_15372_1295)">
<path d="M81.8174 13.4273L12.3108 10.1797C10.7526 10.1069 9.69497 11.7419 10.4003 13.1333L18.6673 29.4407C19.5803 31.2416 21.4716 32.3323 23.4876 32.2206L81.8174 28.9885L81.8174 13.4273Z" fill="white"/>
</g>
<path d="M81.8174 13.3911L17.4938 13.3911C16.7422 13.3911 16.2499 14.1778 16.5785 14.8538L22.072 26.1546C22.9236 27.9065 24.7006 29.0185 26.6486 29.0185L81.8174 29.0185L81.8174 13.3911Z" fill="white"/>
<path d="M35.199 25.1025L35.199 18.5129L37.6841 18.5129C38.3729 18.5129 38.9592 18.6432 39.4432 18.9038C39.9334 19.1644 40.3057 19.5398 40.5601 20.03C40.8207 20.5202 40.951 21.119 40.951 21.8263C40.951 22.5213 40.8238 23.1139 40.5694 23.604C40.3212 24.088 39.9551 24.4603 39.4711 24.7209C38.9872 24.9753 38.3946 25.1025 37.6934 25.1025L35.199 25.1025ZM36.53 23.874L37.6841 23.874C38.1433 23.874 38.5125 23.7871 38.7917 23.6134C39.0709 23.4396 39.2757 23.1976 39.406 22.8874C39.5363 22.5771 39.6014 22.2203 39.6014 21.817C39.6014 21.4261 39.5363 21.0755 39.406 20.7653C39.2819 20.4488 39.0771 20.2006 38.7917 20.0207C38.5125 19.8407 38.134 19.7508 37.6562 19.7508L36.53 19.7508L36.53 23.874ZM42.7424 25.1025L42.7424 18.5129L45.395 18.5129C45.7239 18.5129 46.0372 18.547 46.3351 18.6153C46.6391 18.6773 46.9121 18.7859 47.1541 18.941C47.3961 19.0962 47.5854 19.3133 47.7219 19.5925C47.8646 19.8656 47.9359 20.2161 47.9359 20.6443C47.9359 20.9607 47.8832 21.2462 47.7777 21.5006C47.6722 21.755 47.5171 21.9721 47.3123 22.1521C47.1076 22.332 46.8625 22.4716 46.5771 22.5709L48.0383 25.1025H46.5398L45.2554 22.785L44.0734 22.785L44.0734 25.1025H42.7424ZM44.0734 21.603H45.3019C45.4943 21.603 45.668 21.5874 45.8232 21.5564C45.9845 21.5192 46.121 21.4633 46.2327 21.3889C46.3506 21.3144 46.4406 21.2151 46.5026 21.091C46.5709 20.9669 46.605 20.8149 46.605 20.635C46.6112 20.4054 46.5615 20.2286 46.4561 20.1045C46.3568 19.9742 46.2141 19.8842 46.0279 19.8345C45.848 19.7787 45.6339 19.7508 45.3857 19.7508H44.0734L44.0734 21.603ZM49.2153 25.1025L51.7841 18.5129L53.2733 18.5129L55.8142 25.1025H54.3809L53.9714 23.9763L51.0581 23.9763L50.6486 25.1025L49.2153 25.1025ZM51.4863 22.7757L53.5525 22.7757L52.5287 19.9276L51.4863 22.7757ZM57.9518 25.1025L56.3416 18.5129H57.8215L58.9756 23.6413L60.1391 18.5129L61.8982 18.5129L63.043 23.6413L64.1692 18.5129L65.5746 18.5129L63.983 25.1025L62.1402 25.1025L60.986 20.1138L59.8505 25.1025L57.9518 25.1025Z" fill="black"/>
<defs>
<filter id="filter0_f_15372_1295" x="0.000450134" y="-3.8147e-05" width="91.9942" height="42.4058" filterUnits="userSpaceOnUse" color-interpolation-filters="sRGB">
<feFlood flood-opacity="0" result="BackgroundImageFix"/>
<feBlend mode="normal" in="SourceGraphic" in2="BackgroundImageFix" result="shape"/>
<feGaussianBlur stdDeviation="5.08864" result="effect1_foregroundBlur_15372_1295"/>
</filter>
</defs>
</svg>
