<svg width="92" height="43" viewBox="0 0 92 43" fill="none" xmlns="http://www.w3.org/2000/svg">
<g opacity="0.3" filter="url(#filter0_f_15372_1291)">
<path d="M10.1777 13.4273L79.6843 10.1797C81.2425 10.1069 82.3001 11.7419 81.5948 13.1333L73.3278 29.4407C72.4148 31.2416 70.5235 32.3323 68.5075 32.2206L10.1777 28.9885L10.1777 13.4273Z" fill="white"/>
</g>
<path d="M10.1777 13.3911L74.5013 13.3911C75.2529 13.3911 75.7452 14.1778 75.4166 14.8538L69.9231 26.1546C69.0715 27.9065 67.2945 29.0185 65.3466 29.0185L10.1777 29.0185L10.1777 13.3911Z" fill="white"/>
<path d="M26.1922 25.1025L26.1922 18.5129L28.6773 18.5129C29.366 18.5129 29.9524 18.6432 30.4364 18.9038C30.9266 19.1644 31.2989 19.5398 31.5533 20.03C31.8139 20.5202 31.9442 21.119 31.9442 21.8263C31.9442 22.5213 31.817 23.1139 31.5626 23.604C31.3144 24.088 30.9483 24.4603 30.4643 24.7209C29.9803 24.9753 29.3877 25.1025 28.6866 25.1025L26.1922 25.1025ZM27.5232 23.874L28.6773 23.874C29.1364 23.874 29.5056 23.7871 29.7849 23.6134C30.0641 23.4396 30.2688 23.1976 30.3991 22.8874C30.5295 22.5771 30.5946 22.2203 30.5946 21.817C30.5946 21.4261 30.5295 21.0755 30.3991 20.7653C30.2751 20.4488 30.0703 20.2006 29.7849 20.0207C29.5056 19.8407 29.1271 19.7508 28.6494 19.7508L27.5232 19.7508L27.5232 23.874ZM33.7356 25.1025L33.7356 18.5129L36.3882 18.5129C36.717 18.5129 37.0304 18.547 37.3282 18.6153C37.6323 18.6773 37.9053 18.7859 38.1473 18.941C38.3893 19.0962 38.5785 19.3133 38.715 19.5925C38.8577 19.8656 38.9291 20.2161 38.9291 20.6443C38.9291 20.9607 38.8764 21.2462 38.7709 21.5006C38.6654 21.755 38.5103 21.9721 38.3055 22.1521C38.1007 22.332 37.8557 22.4716 37.5702 22.5709L39.0315 25.1025H37.533L36.2486 22.785L35.0665 22.785L35.0665 25.1025H33.7356ZM35.0665 21.603H36.2951C36.4875 21.603 36.6612 21.5874 36.8163 21.5564C36.9777 21.5192 37.1142 21.4633 37.2258 21.3889C37.3437 21.3144 37.4337 21.2151 37.4958 21.091C37.564 20.9669 37.5981 20.8149 37.5981 20.635C37.6044 20.4054 37.5547 20.2286 37.4492 20.1045C37.3499 19.9742 37.2072 19.8842 37.0211 19.8345C36.8411 19.7787 36.6271 19.7508 36.3789 19.7508H35.0665L35.0665 21.603ZM40.2084 25.1025L42.7773 18.5129L44.2665 18.5129L46.8074 25.1025H45.3741L44.9645 23.9763L42.0513 23.9763L41.6418 25.1025L40.2084 25.1025ZM42.4794 22.7757L44.5457 22.7757L43.5219 19.9276L42.4794 22.7757ZM48.945 25.1025L47.3348 18.5129H48.8147L49.9688 23.6413L51.1322 18.5129L52.8913 18.5129L54.0361 23.6413L55.1623 18.5129L56.5678 18.5129L54.9762 25.1025L53.1333 25.1025L51.9792 20.1138L50.8437 25.1025L48.945 25.1025Z" fill="black"/>
<defs>
<filter id="filter0_f_15372_1291" x="0.000450134" y="-3.8147e-05" width="91.9942" height="42.4058" filterUnits="userSpaceOnUse" color-interpolation-filters="sRGB">
<feFlood flood-opacity="0" result="BackgroundImageFix"/>
<feBlend mode="normal" in="SourceGraphic" in2="BackgroundImageFix" result="shape"/>
<feGaussianBlur stdDeviation="5.08864" result="effect1_foregroundBlur_15372_1291"/>
</filter>
</defs>
</svg>
