<svg width="20" height="20" viewBox="0 0 20 20" fill="none" xmlns="http://www.w3.org/2000/svg">
<g clip-path="url(#clip0_15384_8408)">
<path d="M19.2188 8.51441V16.0938C19.2188 17.8196 17.8196 19.2188 16.0938 19.2188H3.90625C2.18035 19.2188 0.78125 17.8196 0.78125 16.0938V3.90625C0.78125 2.18035 2.18035 0.78125 3.90625 0.78125H11.4856" stroke="white" stroke-width="1.5" stroke-miterlimit="10" stroke-linecap="round" stroke-linejoin="round"/>
<path d="M4.94995 15.0497C4.60483 13.3241 5.14495 11.5401 6.38932 10.2957L14.8936 1.79144C15.8089 0.876162 17.2929 0.876162 18.2082 1.79144C19.1235 2.70671 19.1235 4.19069 18.2082 5.10601L9.70389 13.6103C8.45952 14.8547 6.67557 15.3948 4.94995 15.0497Z" stroke="white" stroke-width="1.5" stroke-miterlimit="10" stroke-linecap="round" stroke-linejoin="round"/>
<path d="M14.6635 4.22992L13.5586 3.125" stroke="white" stroke-width="1.5" stroke-miterlimit="10" stroke-linecap="round" stroke-linejoin="round"/>
</g>
<defs>
<clipPath id="clip0_15384_8408">
<rect width="20" height="20" fill="white"/>
</clipPath>
</defs>
</svg>
