<svg width="447" height="135" viewBox="0 0 447 135" fill="none" xmlns="http://www.w3.org/2000/svg">
<g opacity="0.2">
<mask id="path-1-outside-1_16010_10372" maskUnits="userSpaceOnUse" x="-0.304688" y="-0.665527" width="447" height="135" fill="black">
<rect fill="white" x="-0.304688" y="-0.665527" width="447" height="135"/>
<path d="M0.645272 132.334V0.646861H95.505V25.3848H27.2432V55.1447H85.833V78.9526H27.2432V107.783H95.505V132.334H0.645272ZM125.468 132.334L91.0584 34.3128H119.516L142.952 111.131L166.202 34.3128H194.846L160.436 132.334H125.468ZM238.671 133.636C228.379 133.636 219.637 131.59 212.445 127.498C205.253 123.406 199.735 117.641 195.891 110.201C192.047 102.637 190.125 93.8326 190.125 83.7886C190.125 73.6206 192.109 64.7547 196.077 57.1907C200.045 49.5027 205.625 43.4887 212.817 39.1487C220.133 34.8088 228.751 32.6388 238.671 32.6388C246.111 32.6388 252.621 33.8788 258.201 36.3588C263.905 38.8387 268.679 42.3107 272.523 46.7747C276.491 51.2387 279.405 56.4467 281.265 62.3987C283.249 68.2267 284.179 74.5506 284.055 81.3706C284.055 83.1066 283.993 84.7806 283.869 86.3926C283.745 88.0046 283.497 89.6166 283.125 91.2286H215.979C216.351 94.9486 217.405 98.3586 219.141 101.459C220.877 104.559 223.295 107.039 226.395 108.899C229.619 110.635 233.587 111.503 238.299 111.503C241.399 111.503 244.251 111.193 246.855 110.573C249.459 109.829 251.691 108.713 253.551 107.225C255.411 105.737 256.713 104.001 257.457 102.017H283.125C281.513 109.333 278.475 115.347 274.011 120.059C269.671 124.77 264.401 128.242 258.201 130.474C252.001 132.582 245.491 133.636 238.671 133.636ZM216.537 73.0006H259.131C259.007 69.6527 258.139 66.5527 256.527 63.7007C255.039 60.7247 252.745 58.3687 249.645 56.6327C246.669 54.7727 242.825 53.8427 238.113 53.8427C233.401 53.8427 229.433 54.7727 226.209 56.6327C223.109 58.4927 220.753 60.9107 219.141 63.8867C217.653 66.7387 216.785 69.7767 216.537 73.0006ZM289.671 132.334V34.3128H314.037L315.339 45.6587C318.067 42.3107 321.167 39.7067 324.639 37.8467C328.235 35.8628 331.831 34.4988 335.427 33.7548C339.147 33.0108 342.495 32.6388 345.471 32.6388C354.895 32.6388 362.211 34.6848 367.419 38.7767C372.751 42.8687 376.533 48.3867 378.765 55.3307C381.121 62.1507 382.299 69.7767 382.299 78.2086V132.334H356.259V81.5566C356.259 78.5806 356.011 75.6046 355.515 72.6286C355.019 69.6527 354.089 66.9247 352.725 64.4447C351.485 61.9647 349.687 59.9807 347.331 58.4927C344.975 57.0047 341.875 56.2607 338.031 56.2607C333.071 56.2607 328.917 57.5007 325.569 59.9807C322.221 62.4607 319.741 65.8087 318.129 70.0247C316.517 74.2406 315.711 78.8906 315.711 83.9746V132.334H289.671ZM435.582 132.334C427.398 132.334 420.516 131.342 414.936 129.358C409.48 127.374 405.326 124.026 402.474 119.315C399.746 114.479 398.382 107.907 398.382 99.5986V57.5627H383.874V34.3128H398.382V8.08683H424.422V34.3128H445.812V57.5627H424.422V95.8786C424.422 99.9706 425.166 103.195 426.654 105.551C428.142 107.907 431.49 109.085 436.698 109.085H444.882V132.334H435.582Z"/>
</mask>
<path d="M0.645272 132.334H-0.00159168V132.981H0.645272V132.334ZM0.645272 0.646861V-2.44379e-06H-0.00159168V0.646861H0.645272ZM95.505 0.646861H96.1519V-2.44379e-06H95.505V0.646861ZM95.505 25.3848V26.0316H96.1519V25.3848H95.505ZM27.2432 25.3848V24.7379H26.5963V25.3848H27.2432ZM27.2432 55.1447H26.5963V55.7916H27.2432V55.1447ZM85.833 55.1447H86.4799V54.4978H85.833V55.1447ZM85.833 78.9526V79.5995H86.4799V78.9526H85.833ZM27.2432 78.9526V78.3058H26.5963V78.9526H27.2432ZM27.2432 107.783H26.5963V108.429H27.2432V107.783ZM95.505 107.783H96.1519V107.136H95.505V107.783ZM95.505 132.334V132.981H96.1519V132.334H95.505ZM0.645272 132.334H1.29214V0.646861H0.645272H-0.00159168V132.334H0.645272ZM0.645272 0.646861V1.29372H95.505V0.646861V-2.44379e-06H0.645272V0.646861ZM95.505 0.646861H94.8581V25.3848H95.505H96.1519V0.646861H95.505ZM95.505 25.3848V24.7379H27.2432V25.3848V26.0316H95.505V25.3848ZM27.2432 25.3848H26.5963V55.1447H27.2432H27.8901V25.3848H27.2432ZM27.2432 55.1447V55.7916H85.833V55.1447V54.4978H27.2432V55.1447ZM85.833 55.1447H85.1862V78.9526H85.833H86.4799V55.1447H85.833ZM85.833 78.9526V78.3058H27.2432V78.9526V79.5995H85.833V78.9526ZM27.2432 78.9526H26.5963V107.783H27.2432H27.8901V78.9526H27.2432ZM27.2432 107.783V108.429H95.505V107.783V107.136H27.2432V107.783ZM95.505 107.783H94.8581V132.334H95.505H96.1519V107.783H95.505ZM95.505 132.334V131.688H0.645272V132.334V132.981H95.505V132.334ZM125.468 132.334L124.858 132.549L125.01 132.981H125.468V132.334ZM91.0584 34.3128V33.6659H90.1458L90.4481 34.527L91.0584 34.3128ZM119.516 34.3128L120.135 34.124L119.995 33.6659H119.516V34.3128ZM142.952 111.131L142.334 111.319L142.955 113.355L143.571 111.318L142.952 111.131ZM166.202 34.3128V33.6659H165.722L165.583 34.1254L166.202 34.3128ZM194.846 34.3128L195.456 34.527L195.759 33.6659H194.846V34.3128ZM160.436 132.334V132.981H160.895L161.047 132.549L160.436 132.334ZM125.468 132.334L126.079 132.12L91.6688 34.0985L91.0584 34.3128L90.4481 34.527L124.858 132.549L125.468 132.334ZM91.0584 34.3128V34.9596H119.516V34.3128V33.6659H91.0584V34.3128ZM119.516 34.3128L118.898 34.5015L142.334 111.319L142.952 111.131L143.571 110.942L120.135 34.124L119.516 34.3128ZM142.952 111.131L143.571 111.318L166.821 34.5001L166.202 34.3128L165.583 34.1254L142.333 110.943L142.952 111.131ZM166.202 34.3128V34.9596H194.846V34.3128V33.6659H166.202V34.3128ZM194.846 34.3128L194.236 34.0985L159.826 132.12L160.436 132.334L161.047 132.549L195.456 34.527L194.846 34.3128ZM160.436 132.334V131.688H125.468V132.334V132.981H160.436V132.334ZM212.445 127.498L212.125 128.061V128.061L212.445 127.498ZM195.891 110.201L195.314 110.494L195.316 110.497L195.891 110.201ZM196.077 57.1907L196.65 57.4912L196.652 57.4874L196.077 57.1907ZM212.817 39.1487L212.487 38.5924L212.483 38.5949L212.817 39.1487ZM258.201 36.3587L257.938 36.9499L257.943 36.952L258.201 36.3587ZM272.523 46.7747L272.032 47.1969L272.039 47.2045L272.523 46.7747ZM281.265 62.3987L280.647 62.5916L280.65 62.5994L280.652 62.6071L281.265 62.3987ZM284.055 81.3706L283.408 81.3589V81.3706H284.055ZM283.869 86.3926L284.514 86.4422V86.4422L283.869 86.3926ZM283.125 91.2286V91.8755H283.639L283.755 91.374L283.125 91.2286ZM215.979 91.2286V90.5817H215.264L215.335 91.293L215.979 91.2286ZM219.141 101.459L219.705 101.143V101.143L219.141 101.459ZM226.395 108.899L226.062 109.453L226.075 109.461L226.088 109.468L226.395 108.899ZM246.855 110.573L247.005 111.202L247.019 111.198L247.032 111.195L246.855 110.573ZM253.551 107.225L253.147 106.719V106.719L253.551 107.225ZM257.457 102.017V101.37H257.008L256.851 101.789L257.457 102.017ZM283.125 102.017L283.756 102.156L283.93 101.37H283.125V102.017ZM274.011 120.059L273.541 119.614L273.535 119.62L274.011 120.059ZM258.201 130.474L258.409 131.087L258.42 131.083L258.201 130.474ZM216.537 73.0006L215.892 72.951L215.838 73.6475H216.537V73.0006ZM259.131 73.0006V73.6475H259.802L259.777 72.9767L259.131 73.0006ZM256.527 63.7007L255.948 63.99L255.956 64.0047L255.964 64.019L256.527 63.7007ZM249.645 56.6327L249.302 57.1812L249.315 57.1895L249.329 57.1971L249.645 56.6327ZM226.209 56.6327L225.886 56.0723L225.876 56.078L226.209 56.6327ZM219.141 63.8867L218.572 63.5785L218.567 63.5875L219.141 63.8867ZM238.671 133.636V132.99C228.464 132.99 219.838 130.961 212.765 126.936L212.445 127.498L212.125 128.061C219.436 132.22 228.294 134.283 238.671 134.283V133.636ZM212.445 127.498L212.765 126.936C205.683 122.907 200.253 117.234 196.466 109.904L195.891 110.201L195.316 110.497C199.217 118.047 204.823 123.906 212.125 128.061L212.445 127.498ZM195.891 110.201L196.468 109.907C192.678 102.45 190.772 93.7494 190.772 83.7886H190.125H189.478C189.478 93.9158 191.416 102.824 195.314 110.494L195.891 110.201ZM190.125 83.7886H190.772C190.772 73.7055 192.739 64.9464 196.65 57.4912L196.077 57.1907L195.504 56.8902C191.479 64.563 189.478 73.5358 189.478 83.7886H190.125ZM196.077 57.1907L196.652 57.4874C200.567 49.9024 206.065 43.9788 213.151 39.7026L212.817 39.1487L212.483 38.5949C205.185 42.9986 199.523 49.1031 195.502 56.894L196.077 57.1907ZM212.817 39.1487L213.147 39.7051C220.347 35.4336 228.847 33.2856 238.671 33.2856V32.6388V31.9919C228.654 31.9919 219.918 34.1839 212.487 38.5924L212.817 39.1487ZM238.671 32.6388V33.2856C246.04 33.2856 252.457 34.5137 257.938 36.9499L258.201 36.3587L258.463 35.7676C252.785 33.2438 246.182 31.9919 238.671 31.9919V32.6388ZM258.201 36.3587L257.943 36.952C263.563 39.3954 268.256 42.8107 272.033 47.1968L272.523 46.7747L273.013 46.3526C269.102 41.8107 264.247 38.2821 258.459 35.7655L258.201 36.3587ZM272.523 46.7747L272.039 47.2045C275.944 51.5969 278.813 56.7232 280.647 62.5916L281.265 62.3987L281.882 62.2057C279.996 56.1702 277.038 50.8805 273.006 46.345L272.523 46.7747ZM281.265 62.3987L280.652 62.6071C282.61 68.357 283.531 74.6057 283.408 81.3589L284.055 81.3706L284.701 81.3824C284.827 74.4956 283.888 68.0963 281.877 62.1902L281.265 62.3987ZM284.055 81.3706H283.408C283.408 83.0913 283.346 84.7487 283.224 86.343L283.869 86.3926L284.514 86.4422C284.639 84.8126 284.702 83.122 284.702 81.3706H284.055ZM283.869 86.3926L283.224 86.343C283.102 87.922 282.859 89.5019 282.494 91.0831L283.125 91.2286L283.755 91.374C284.134 89.7312 284.387 88.0872 284.514 86.4422L283.869 86.3926ZM283.125 91.2286V90.5817H215.979V91.2286V91.8755H283.125V91.2286ZM215.979 91.2286L215.335 91.293C215.716 95.0967 216.795 98.593 218.576 101.775L219.141 101.459L219.705 101.143C218.015 98.1241 216.986 94.8005 216.623 91.1642L215.979 91.2286ZM219.141 101.459L218.576 101.775C220.369 104.975 222.867 107.536 226.062 109.453L226.395 108.899L226.728 108.344C223.723 106.541 221.385 104.142 219.705 101.143L219.141 101.459ZM226.395 108.899L226.088 109.468C229.43 111.267 233.51 112.149 238.299 112.149V111.503V110.856C233.664 110.856 229.808 110.002 226.702 108.329L226.395 108.899ZM238.299 111.503V112.149C241.441 112.149 244.345 111.835 247.005 111.202L246.855 110.573L246.705 109.943C244.157 110.55 241.356 110.856 238.299 110.856V111.503ZM246.855 110.573L247.032 111.195C249.708 110.43 252.019 109.278 253.955 107.73L253.551 107.225L253.147 106.719C251.362 108.147 249.21 109.227 246.677 109.951L246.855 110.573ZM253.551 107.225L253.955 107.73C255.894 106.178 257.273 104.35 258.062 102.244L257.457 102.017L256.851 101.789C256.153 103.651 254.927 105.295 253.147 106.719L253.551 107.225ZM257.457 102.017V102.663H283.125V102.017V101.37H257.457V102.017ZM283.125 102.017L282.493 101.877C280.902 109.097 277.913 114.999 273.541 119.614L274.011 120.059L274.48 120.503C279.037 115.694 282.123 109.568 283.756 102.156L283.125 102.017ZM274.011 120.059L273.535 119.62C269.268 124.253 264.086 127.668 257.982 129.866L258.201 130.474L258.42 131.083C264.715 128.817 270.074 125.288 274.486 120.497L274.011 120.059ZM258.201 130.474L257.993 129.862C251.862 131.946 245.423 132.99 238.671 132.99V133.636V134.283C245.559 134.283 252.139 133.219 258.409 131.087L258.201 130.474ZM216.537 73.0006V73.6475H259.131V73.0006V72.3538H216.537V73.0006ZM259.131 73.0006L259.777 72.9767C259.649 69.5278 258.754 66.3265 257.09 63.3824L256.527 63.7007L255.964 64.019C257.524 66.7788 258.364 69.7775 258.484 73.0246L259.131 73.0006ZM256.527 63.7007L257.105 63.4114C255.555 60.3115 253.166 57.8631 249.961 56.0683L249.645 56.6327L249.329 57.1971C252.324 58.8743 254.522 61.1379 255.948 63.99L256.527 63.7007ZM249.645 56.6327L249.988 56.0842C246.879 54.1414 242.906 53.1958 238.113 53.1958V53.8427V54.4896C242.744 54.4896 246.458 55.404 249.302 57.1812L249.645 56.6327ZM238.113 53.8427V53.1958C233.317 53.1958 229.231 54.1425 225.886 56.0724L226.209 56.6327L226.532 57.193C229.635 55.4029 233.485 54.4896 238.113 54.4896V53.8427ZM226.209 56.6327L225.876 56.078C222.684 57.9934 220.243 60.4938 218.572 63.5786L219.141 63.8867L219.71 64.1948C221.263 61.3276 223.534 58.992 226.542 57.1874L226.209 56.6327ZM219.141 63.8867L218.567 63.5875C217.039 66.5174 216.147 69.6403 215.892 72.951L216.537 73.0006L217.182 73.0503C217.423 69.913 218.267 66.9599 219.714 64.1859L219.141 63.8867ZM289.671 132.334H289.024V132.981H289.671V132.334ZM289.671 34.3128V33.6659H289.024V34.3128H289.671ZM314.037 34.3128L314.68 34.239L314.614 33.6659H314.037V34.3128ZM315.339 45.6587L314.696 45.7325L314.871 47.2568L315.84 46.0673L315.339 45.6587ZM324.639 37.8467L324.944 38.417L324.951 38.4131L324.639 37.8467ZM335.427 33.7548L335.3 33.1204L335.296 33.1213L335.427 33.7548ZM367.419 38.7767L367.019 39.2854L367.025 39.2899L367.419 38.7767ZM378.765 55.3307L378.149 55.5287L378.153 55.5419L378.765 55.3307ZM382.299 132.334V132.981H382.946V132.334H382.299ZM356.259 132.334H355.612V132.981H356.259V132.334ZM355.515 72.6286L354.877 72.735V72.735L355.515 72.6286ZM352.725 64.4447L352.146 64.734L352.152 64.7453L352.158 64.7564L352.725 64.4447ZM325.569 59.9807L325.184 59.4609V59.4609L325.569 59.9807ZM318.129 70.0247L317.525 69.7936V69.7936L318.129 70.0247ZM315.711 132.334V132.981H316.358V132.334H315.711ZM289.671 132.334H290.318V34.3128H289.671H289.024V132.334H289.671ZM289.671 34.3128V34.9596H314.037V34.3128V33.6659H289.671V34.3128ZM314.037 34.3128L313.394 34.3865L314.696 45.7325L315.339 45.6587L315.982 45.585L314.68 34.239L314.037 34.3128ZM315.339 45.6587L315.84 46.0673C318.52 42.7792 321.555 40.2328 324.944 38.4169L324.639 37.8467L324.333 37.2766C320.779 39.1807 317.614 41.8423 314.837 45.2501L315.339 45.6587ZM324.639 37.8467L324.951 38.4131C328.497 36.4568 332.032 35.1176 335.558 34.3882L335.427 33.7548L335.296 33.1213C331.629 33.8799 327.973 35.2687 324.326 37.2804L324.639 37.8467ZM335.427 33.7548L335.554 34.3891C339.243 33.6513 342.547 33.2856 345.471 33.2856V32.6388V31.9919C342.443 31.9919 339.051 32.3703 335.3 33.1205L335.427 33.7548ZM345.471 32.6388V33.2856C354.81 33.2856 361.965 35.314 367.019 39.2854L367.419 38.7767L367.818 38.2681C362.457 34.0556 354.98 31.9919 345.471 31.9919V32.6388ZM367.419 38.7767L367.025 39.2899C372.244 43.295 375.954 48.6987 378.149 55.5286L378.765 55.3307L379.381 55.1327C377.112 48.0748 373.258 42.4425 367.813 38.2636L367.419 38.7767ZM378.765 55.3307L378.153 55.5419C380.482 62.2836 381.652 69.8367 381.652 78.2086H382.299H382.946C382.946 69.7166 381.759 62.0178 379.376 55.1195L378.765 55.3307ZM382.299 78.2086H381.652V132.334H382.299H382.946V78.2086H382.299ZM382.299 132.334V131.688H356.259V132.334V132.981H382.299V132.334ZM356.259 132.334H356.906V81.5566H356.259H355.612V132.334H356.259ZM356.259 81.5566H356.906C356.906 78.5445 356.655 75.533 356.153 72.5223L355.515 72.6286L354.877 72.735C355.367 75.6763 355.612 78.6167 355.612 81.5566H356.259ZM355.515 72.6286L356.153 72.5223C355.646 69.4791 354.693 66.681 353.292 64.1329L352.725 64.4447L352.158 64.7564C353.485 67.1683 354.392 69.8262 354.877 72.735L355.515 72.6286ZM352.725 64.4447L353.303 64.1554C352.01 61.5693 350.131 59.4964 347.676 57.9458L347.331 58.4927L346.985 59.0396C349.242 60.4649 350.959 62.3601 352.146 64.734L352.725 64.4447ZM347.331 58.4927L347.676 57.9458C345.185 56.3721 341.952 55.6138 338.031 55.6138V56.2607V56.9076C341.797 56.9076 344.765 57.6372 346.985 59.0396L347.331 58.4927ZM338.031 56.2607V55.6138C332.959 55.6138 328.663 56.8835 325.184 59.4609L325.569 59.9807L325.954 60.5005C329.17 58.1178 333.182 56.9076 338.031 56.9076V56.2607ZM325.569 59.9807L325.184 59.4609C321.729 62.0204 319.177 65.4725 317.525 69.7936L318.129 70.0247L318.733 70.2557C320.305 66.1449 322.713 62.9009 325.954 60.5005L325.569 59.9807ZM318.129 70.0247L317.525 69.7936C315.881 74.0921 315.064 78.8216 315.064 83.9746H315.711H316.358C316.358 78.9597 317.153 74.3892 318.733 70.2557L318.129 70.0247ZM315.711 83.9746H315.064V132.334H315.711H316.358V83.9746H315.711ZM315.711 132.334V131.688H289.671V132.334V132.981H315.711V132.334ZM414.936 129.358L414.715 129.966L414.719 129.968L414.936 129.358ZM402.474 119.315L401.91 119.632L401.915 119.641L401.92 119.649L402.474 119.315ZM398.382 57.5627H399.029V56.9158H398.382V57.5627ZM383.874 57.5627H383.227V58.2096H383.874V57.5627ZM383.874 34.3128V33.6659H383.227V34.3128H383.874ZM398.382 34.3128V34.9596H399.029V34.3128H398.382ZM398.382 8.08683V7.43997H397.735V8.08683H398.382ZM424.422 8.08683H425.069V7.43997H424.422V8.08683ZM424.422 34.3128H423.775V34.9596H424.422V34.3128ZM445.812 34.3128H446.459V33.6659H445.812V34.3128ZM445.812 57.5627V58.2096H446.459V57.5627H445.812ZM424.422 57.5627V56.9158H423.775V57.5627H424.422ZM426.654 105.551L426.107 105.896V105.896L426.654 105.551ZM444.882 109.085H445.529V108.438H444.882V109.085ZM444.882 132.334V132.981H445.529V132.334H444.882ZM435.582 132.334V131.688C427.445 131.688 420.642 130.701 415.152 128.749L414.936 129.358L414.719 129.968C420.39 131.984 427.35 132.981 435.582 132.981V132.334ZM414.936 129.358L415.157 128.751C409.831 126.814 405.798 123.558 403.027 118.98L402.474 119.315L401.92 119.649C404.853 124.495 409.128 127.935 414.715 129.966L414.936 129.358ZM402.474 119.315L403.037 118.997C400.385 114.294 399.029 107.846 399.029 99.5986H398.382H397.735C397.735 107.967 399.107 114.663 401.91 119.632L402.474 119.315ZM398.382 99.5986H399.029V57.5627H398.382H397.735V99.5986H398.382ZM398.382 57.5627V56.9158H383.874V57.5627V58.2096H398.382V57.5627ZM383.874 57.5627H384.521V34.3128H383.874H383.227V57.5627H383.874ZM383.874 34.3128V34.9596H398.382V34.3128V33.6659H383.874V34.3128ZM398.382 34.3128H399.029V8.08683H398.382H397.735V34.3128H398.382ZM398.382 8.08683V8.7337H424.422V8.08683V7.43997H398.382V8.08683ZM424.422 8.08683H423.775V34.3128H424.422H425.069V8.08683H424.422ZM424.422 34.3128V34.9596H445.812V34.3128V33.6659H424.422V34.3128ZM445.812 34.3128H445.165V57.5627H445.812H446.459V34.3128H445.812ZM445.812 57.5627V56.9158H424.422V57.5627V58.2096H445.812V57.5627ZM424.422 57.5627H423.775V95.8786H424.422H425.069V57.5627H424.422ZM424.422 95.8786H423.775C423.775 100.039 424.53 103.399 426.107 105.896L426.654 105.551L427.201 105.205C425.802 102.99 425.069 99.9022 425.069 95.8786H424.422ZM426.654 105.551L426.107 105.896C427.787 108.556 431.454 109.731 436.698 109.731V109.085V108.438C431.525 108.438 428.497 107.257 427.201 105.205L426.654 105.551ZM436.698 109.085V109.731H444.882V109.085V108.438H436.698V109.085ZM444.882 109.085H444.235V132.334H444.882H445.529V109.085H444.882ZM444.882 132.334V131.688H435.582V132.334V132.981H444.882V132.334Z" fill="url(#paint0_linear_16010_10372)" mask="url(#path-1-outside-1_16010_10372)"/>
</g>
<defs>
<linearGradient id="paint0_linear_16010_10372" x1="218.195" y1="0.334473" x2="218.195" y2="132.334" gradientUnits="userSpaceOnUse">
<stop stop-color="#E8E8E8"/>
<stop offset="1" stop-color="#101215"/>
</linearGradient>
</defs>
</svg>
