<svg width="25" height="25" viewBox="0 0 25 25" fill="none" xmlns="http://www.w3.org/2000/svg">
<path d="M11.8867 22.8191C17.4096 22.8191 21.8867 18.3419 21.8867 12.8191C21.8867 7.29624 17.4096 2.81909 11.8867 2.81909C6.36387 2.81909 1.88672 7.29624 1.88672 12.8191C1.88672 18.3419 6.36387 22.8191 11.8867 22.8191Z" stroke="white" stroke-width="1.18027" stroke-miterlimit="10"/>
<path d="M11.8867 9.04319V5.93115" stroke="white" stroke-width="1.18027" stroke-miterlimit="10"/>
<path d="M8.29565 11.6531L5.33594 10.6914" stroke="white" stroke-width="1.18027" stroke-miterlimit="10"/>
<path d="M9.6671 15.8748L7.83789 18.3924" stroke="white" stroke-width="1.18027" stroke-miterlimit="10"/>
<path d="M8.29492 11.6523L11.886 9.04321" stroke="white" stroke-width="1.18027" stroke-miterlimit="10"/>
<path d="M11.8867 9.04321L15.4778 11.6523" stroke="white" stroke-width="1.18027" stroke-miterlimit="10"/>
<path d="M11.8882 5.93153L8.44336 3.42871" stroke="white" stroke-width="1.18027" stroke-miterlimit="10"/>
<path d="M4.02148 6.64355L5.33646 10.6906" stroke="white" stroke-width="1.18027" stroke-miterlimit="10"/>
<path d="M5.3369 10.6914L1.89453 13.1924" stroke="white" stroke-width="1.18027" stroke-miterlimit="10"/>
<path d="M3.58398 18.3918H7.84004" stroke="white" stroke-width="1.18027" stroke-miterlimit="10"/>
<path d="M7.83789 18.3918L9.15366 22.4413" stroke="white" stroke-width="1.18027" stroke-miterlimit="10"/>
<path d="M15.4785 11.6531L18.4382 10.6914" stroke="white" stroke-width="1.18027" stroke-miterlimit="10"/>
<path d="M14.1074 15.8748L15.9366 18.3924" stroke="white" stroke-width="1.18027" stroke-miterlimit="10"/>
<path d="M11.8867 5.93153L15.3316 3.42871" stroke="white" stroke-width="1.18027" stroke-miterlimit="10"/>
<path d="M19.7525 6.64355L18.4375 10.6906" stroke="white" stroke-width="1.18027" stroke-miterlimit="10"/>
<path d="M18.4375 10.6914L21.8799 13.1924" stroke="white" stroke-width="1.18027" stroke-miterlimit="10"/>
<path d="M20.1936 18.3918H15.9375" stroke="white" stroke-width="1.18027" stroke-miterlimit="10"/>
<path d="M15.9369 18.3918L14.6211 22.4413" stroke="white" stroke-width="1.18027" stroke-miterlimit="10"/>
<path d="M15.4791 11.6526L14.1074 15.8742" stroke="white" stroke-width="1.18027" stroke-miterlimit="10"/>
<path d="M14.1088 15.8748H9.66992" stroke="white" stroke-width="1.18027" stroke-miterlimit="10"/>
<path d="M9.66662 15.8742L8.29492 11.6526" stroke="white" stroke-width="1.18027" stroke-miterlimit="10"/>
</svg>
