<svg width="20" height="19" viewBox="0 0 20 19" fill="none" xmlns="http://www.w3.org/2000/svg">
<path d="M0.429688 13.3145V0.814453H19.5703V13.3145" stroke="white" stroke-width="0.777778" stroke-miterlimit="2.6131" stroke-linecap="round" stroke-linejoin="round"/>
<path d="M13.8665 13.6008C16.0021 11.4652 16.0021 8.00259 13.8665 5.86693C11.7308 3.73128 8.26824 3.73127 6.13258 5.86693C3.99692 8.00259 3.99692 11.4652 6.13258 13.6008C8.26824 15.7365 11.7308 15.7365 13.8665 13.6008Z" stroke="white" stroke-width="0.777778" stroke-miterlimit="2.6131" stroke-linecap="round" stroke-linejoin="round"/>
<path fill-rule="evenodd" clip-rule="evenodd" d="M10 7.88623L11.7578 9.16334L11.0864 11.2298H8.91363L8.24219 9.16334L10 7.88623Z" stroke="white" stroke-width="0.777778" stroke-miterlimit="2.6131" stroke-linecap="round" stroke-linejoin="round"/>
<path d="M10 7.88561V6.02295" stroke="white" stroke-width="0.777778" stroke-miterlimit="2.6131" stroke-linecap="round" stroke-linejoin="round"/>
<path d="M8.24219 4.74609L10 6.02324L11.7578 4.74609" stroke="white" stroke-width="0.777778" stroke-miterlimit="2.6131" stroke-linecap="round" stroke-linejoin="round"/>
<path d="M8.24219 9.16299L6.4707 8.5874" stroke="white" stroke-width="0.777778" stroke-miterlimit="2.6131" stroke-linecap="round" stroke-linejoin="round"/>
<path d="M4.71289 9.86455L6.4707 8.58744L5.79926 6.521" stroke="white" stroke-width="0.777778" stroke-miterlimit="2.6131" stroke-linecap="round" stroke-linejoin="round"/>
<path d="M8.91316 11.229L7.81836 12.7359" stroke="white" stroke-width="0.777778" stroke-miterlimit="2.6131" stroke-linecap="round" stroke-linejoin="round"/>
<path d="M8.4907 14.8028L7.8193 12.7363H5.64648" stroke="white" stroke-width="0.777778" stroke-miterlimit="2.6131" stroke-linecap="round" stroke-linejoin="round"/>
<path d="M11.0879 11.229L12.1827 12.7359" stroke="white" stroke-width="0.777778" stroke-miterlimit="2.6131" stroke-linecap="round" stroke-linejoin="round"/>
<path d="M14.3539 12.7363H12.1812L11.5098 14.8028" stroke="white" stroke-width="0.777778" stroke-miterlimit="2.6131" stroke-linecap="round" stroke-linejoin="round"/>
<path d="M11.7578 9.16299L13.5293 8.5874" stroke="white" stroke-width="0.777778" stroke-miterlimit="2.6131" stroke-linecap="round" stroke-linejoin="round"/>
<path d="M14.2007 6.521L13.5293 8.58744L15.2871 9.86455" stroke="white" stroke-width="0.777778" stroke-miterlimit="2.6131" stroke-linecap="round" stroke-linejoin="round"/>
</svg>
