<svg width="320" height="198" viewBox="0 0 320 198" fill="none" xmlns="http://www.w3.org/2000/svg">
<g opacity="0.15">
<mask id="mask0_15934_3443" style="mask-type:alpha" maskUnits="userSpaceOnUse" x="0" y="0" width="320" height="152">
<path d="M294.629 17.5361H26.5234V18.0646H294.629V17.5361Z" fill="#C8D7F4"/>
<path d="M74.8082 27.9912C47.2858 27.9912 28.5306 27.9539 27.9141 27.9539V27.4254C29.9761 27.4389 234.562 27.8409 291.393 25.8877L291.414 26.4162C251.59 27.785 139.219 27.9912 74.8082 27.9912Z" fill="#C8D7F4"/>
<path d="M74.8082 37.4395C47.2858 37.4395 28.5306 37.4012 27.9141 37.4012V36.8727C29.9761 36.8831 234.562 37.2883 291.393 35.334L291.414 35.8625C251.59 37.2344 139.219 37.4395 74.8082 37.4395Z" fill="#C8D7F4"/>
<path d="M74.8082 47.5498C47.2858 47.5498 28.5306 47.5125 27.9141 47.5125V46.9841C29.9761 46.9944 234.562 47.4027 291.393 45.4453L291.414 45.9738C251.59 47.3436 139.219 47.5498 74.8082 47.5498Z" fill="#C8D7F4"/>
<path d="M74.8082 57.6592C47.2858 57.6592 28.5306 57.6219 27.9141 57.6219V57.0934C29.9761 57.1069 234.562 57.509 291.393 55.5547L291.414 56.0832C251.59 57.453 139.219 57.6592 74.8082 57.6592Z" fill="#C8D7F4"/>
<path d="M75.9568 67.7567C48.911 67.7567 30.4812 67.7184 29.875 67.7184V67.1899C31.9132 67.2034 233.425 67.6054 289.398 65.6719L289.419 66.2003C250.168 67.5505 139.382 67.7567 75.9568 67.7567Z" fill="#C8D7F4"/>
<path d="M78.5293 78.5004C52.3073 78.5004 34.4391 78.4631 33.8516 78.4631V77.9347C35.8172 77.945 231.193 78.3336 285.463 76.4653L285.484 76.9938C247.432 78.3015 140.021 78.5004 78.5293 78.5004Z" fill="#C8D7F4"/>
<path d="M78.5293 88.1694C52.3073 88.1694 34.4391 88.1311 33.8516 88.1311V87.6026C35.8172 87.613 231.193 87.9974 285.463 86.1333L285.484 86.6618C247.432 87.9705 140.021 88.1694 78.5293 88.1694Z" fill="#C8D7F4"/>
<path d="M78.5293 98.4262C52.3073 98.4262 34.4391 98.3889 33.8516 98.3889V97.8605C35.8172 97.8708 231.193 98.2552 285.463 96.3911L285.484 96.9196C247.432 98.2273 140.021 98.4262 78.5293 98.4262Z" fill="#C8D7F4"/>
<path d="M78.5293 108.096C52.3073 108.096 34.4391 108.059 33.8516 108.059V107.53C35.8172 107.538 231.193 107.925 285.463 106.061L285.484 106.589C247.432 107.897 140.021 108.096 78.5293 108.096Z" fill="#C8D7F4"/>
<path d="M78.5293 117.913C52.3073 117.913 34.4391 117.874 33.8516 117.874V117.346C35.8172 117.356 231.193 117.741 285.463 115.876L285.484 116.405C247.432 117.713 140.021 117.913 78.5293 117.913Z" fill="#C8D7F4"/>
<path d="M83.3319 127.682C58.6196 127.682 41.7721 127.648 41.2188 127.648V127.12C43.0767 127.133 227.013 127.498 278.107 125.735L278.128 126.264C242.307 127.497 141.235 127.682 83.3319 127.682Z" fill="#C8D7F4"/>
<path d="M197.334 134.94C127.54 134.94 44.206 134.106 42.9688 134.096L42.976 133.567C44.808 133.588 227.012 135.408 278.103 133.646L278.124 134.175C261.497 134.746 230.985 134.94 197.334 134.94Z" fill="#C8D7F4"/>
<path d="M50.8414 133.972L37.7781 17.7137L24.3438 6.46475L24.6836 6.05957L38.2796 17.4453L38.292 17.5489L51.3668 133.91L50.8414 133.972Z" fill="#C8D7F4"/>
<path d="M60.1648 134.079L48.0879 17.7036L35.6328 5.90543L35.9965 5.521L48.5925 17.4559L48.6029 17.5523L60.6901 134.024L60.1648 134.079Z" fill="#C8D7F4"/>
<path d="M69.194 134.187L58.8735 17.6953L47.8359 5.7832L48.2245 5.42676L59.3823 17.4684L59.3906 17.5575L69.7194 134.139L69.194 134.187Z" fill="#C8D7F4"/>
<path d="M78.2886 133.852L68.5162 17.68L59.4453 6.0943L59.8598 5.771L69.0281 17.4811L69.0353 17.5598L78.815 133.811L78.2886 133.852Z" fill="#C8D7F4"/>
<path d="M87.7518 134.073L79.0768 17.681L68.3594 4.2685L68.7718 3.93896L79.5918 17.4821L79.5969 17.5609L88.2772 134.032L87.7518 134.073Z" fill="#C8D7F4"/>
<path d="M97.4173 134.069L90.28 17.6804L79.7812 4.26468L80.1968 3.94141L90.795 17.4814L90.8002 17.5633L97.9417 134.035L97.4173 134.069Z" fill="#C8D7F4"/>
<path d="M106.758 134.065L101.267 17.6836L90.6328 5.44607L91.0318 5.10205L101.785 17.4774L101.79 17.5665L107.283 134.038L106.758 134.065Z" fill="#C8D7F4"/>
<path d="M116.203 133.953L112.251 17.6738L103.07 5.43218L103.493 5.11719L112.772 17.4884L112.775 17.5712L116.732 133.932L116.203 133.953Z" fill="#C8D7F4"/>
<path d="M126.213 134.171L122.37 17.6547L115.664 6.13843L116.121 5.87109L122.896 17.5697L126.742 134.15L126.213 134.171Z" fill="#C8D7F4"/>
<path d="M135.985 134.718L132.69 17.642L127.219 5.60347L127.7 5.38379L133.217 17.5736L136.513 134.704L135.985 134.718Z" fill="#C8D7F4"/>
<path d="M145.429 134.714L143.231 17.5835L139.945 5.34184L140.454 5.20508L143.75 17.5109L145.958 134.707L145.429 134.714Z" fill="#C8D7F4"/>
<path d="M155.111 134.711L154.671 17.5808L152.477 4.4397L152.999 4.35059L155.197 17.5362L155.639 134.711H155.111Z" fill="#C8D7F4"/>
<path d="M269.686 134.08L269.164 134.025L281.921 17.4503L281.995 17.3809L295.912 5.22217L296.263 5.62111L282.421 17.7104L269.686 134.08Z" fill="#C8D7F4"/>
<path d="M260.124 134.189L259.602 134.135L271.589 17.4534L271.661 17.3851L283.895 6.24902L284.253 6.6407L272.091 17.7073L260.124 134.189Z" fill="#C8D7F4"/>
<path d="M251.224 134.405L250.695 134.356L260.815 17.4552L260.889 17.3837L273.784 5.51611L274.14 5.90779L261.323 17.7028L251.224 134.405Z" fill="#C8D7F4"/>
<path d="M241.834 134.456L241.305 134.415L251.15 17.4588L251.218 17.3904L262.498 6.25537L262.869 6.63256L251.657 17.7002L241.834 134.456Z" fill="#C8D7F4"/>
<path d="M232.388 134.676L231.859 134.635L240.602 17.4662L240.667 17.4009L251.946 5.24219L252.331 5.59968L241.117 17.6932L232.388 134.676Z" fill="#C8D7F4"/>
<path d="M222.747 134.837L222.219 134.803L229.399 17.4806L229.449 17.4143L238.46 6.13525L238.871 6.46479L229.914 17.6796L222.747 134.837Z" fill="#C8D7F4"/>
<path d="M213.513 134.916L212.984 134.889L218.399 17.4863L218.45 17.421L227.9 4.89551L228.319 5.2105L218.921 17.6718L213.513 134.916Z" fill="#C8D7F4"/>
<path d="M203.983 135.379L203.453 135.359L207.412 17.4891L207.461 17.4238L215.592 6.21631L216.018 6.52614L207.935 17.6684L203.983 135.379Z" fill="#C8D7F4"/>
<path d="M193.872 135.38L193.344 135.36L197.333 17.4496L204.146 5.3623L204.606 5.62344L197.824 17.6516L193.872 135.38Z" fill="#C8D7F4"/>
<path d="M184.209 134.717L183.68 134.704L186.997 17.4768L192.051 5.39062L192.539 5.59683L187.502 17.6343L184.209 134.717Z" fill="#C8D7F4"/>
<path d="M174.739 134.714L174.211 134.707L176.409 17.5762L179.715 5.20508L180.223 5.34184L176.927 17.6488L174.739 134.714Z" fill="#C8D7F4"/>
<path d="M165.084 134.711H164.555L164.994 17.5809L166.756 6.1123L167.278 6.19414L165.519 17.6214L165.084 134.711Z" fill="#C8D7F4"/>
<path d="M306.021 147.095L305.492 147.081L308.716 9.66064L309.244 9.67412L306.021 147.095Z" fill="#C8D7F4"/>
<path d="M298.263 142.56L297.734 142.539L303.448 11.5635L303.976 11.5842L298.263 142.56Z" fill="#C8D7F4"/>
<path d="M291.819 138.899L291.289 138.873L297.003 21.9614L297.532 21.9884L291.819 138.899Z" fill="#C8D7F4"/>
<path d="M312.861 151.312L282.039 133.952L282.3 133.492L313.122 150.852L312.861 151.312Z" fill="#C8D7F4"/>
<path d="M314.431 141.612L283.812 127.108L284.038 126.635L314.657 141.138L314.431 141.612Z" fill="#C8D7F4"/>
<path d="M284.607 117.701L284.414 118.188L314.445 130.055L314.637 129.568L284.607 117.701Z" fill="#C8D7F4"/>
<path d="M313.727 117.307L285.891 107.93L286.062 107.429L313.899 116.806L313.727 117.307Z" fill="#C8D7F4"/>
<path d="M312.992 106.173L286.766 97.9698L286.923 97.4683L313.149 105.672L312.992 106.173Z" fill="#C8D7F4"/>
<path d="M313.587 94.3099L288.242 87.8647L288.373 87.356L313.717 93.8011L313.587 94.3099Z" fill="#C8D7F4"/>
<path d="M314.956 82.5964L289.172 77.9065L289.267 77.3843L315.051 82.0752L314.956 82.5964Z" fill="#C8D7F4"/>
<path d="M314.517 69.5573L290.344 66.7762L290.406 66.2539L314.579 69.0351L314.517 69.5573Z" fill="#C8D7F4"/>
<path d="M314.224 57.6938L292.836 56.8141L292.857 56.2856L314.245 57.1654L314.224 57.6938Z" fill="#C8D7F4"/>
<path d="M293.193 47.8765L293.117 47.3543L313.483 44.2778L313.558 44.8001L293.193 47.8765Z" fill="#C8D7F4"/>
<path d="M295.29 37.7559L295.125 37.2544L314.612 30.8062L314.777 31.3076L295.29 37.7559Z" fill="#C8D7F4"/>
<path d="M295.454 27.639L295.234 27.1572L316.48 17.3413L316.699 17.821L295.454 27.639Z" fill="#C8D7F4"/>
<path d="M286.388 136.258L285.859 136.238L288.057 84.522L288.586 84.5427L286.388 136.258Z" fill="#C8D7F4"/>
<path d="M13.6455 146.436L10.4219 9.67412L10.9503 9.66064L14.175 146.422L13.6455 146.436Z" fill="#C8D7F4"/>
<path d="M21.4167 142.56L15.7031 11.5842L16.2285 11.5635L21.9421 142.539L21.4167 142.56Z" fill="#C8D7F4"/>
<path d="M27.8777 138.899L22.1641 21.9884L22.6894 21.9614L28.403 138.873L27.8777 138.899Z" fill="#C8D7F4"/>
<path d="M7.00857 150.619L6.75781 150.152L36.0573 134.257L36.3081 134.725L7.00857 150.619Z" fill="#C8D7F4"/>
<path d="M5.22692 141.612L5 141.138L35.6186 126.635L35.8445 127.108L5.22692 141.612Z" fill="#C8D7F4"/>
<path d="M35.0615 117.713L5.02344 129.568L5.21591 130.056L35.254 118.201L35.0615 117.713Z" fill="#C8D7F4"/>
<path d="M5.9413 117.307L5.77344 116.806L33.6099 107.429L33.7788 107.93L5.9413 117.307Z" fill="#C8D7F4"/>
<path d="M6.66635 106.172L6.50781 105.671L32.7329 97.4673L32.8915 97.9688L6.66635 106.172Z" fill="#C8D7F4"/>
<path d="M6.09253 94.3099L5.96094 93.8011L31.3053 87.356L31.4359 87.8647L6.09253 94.3099Z" fill="#C8D7F4"/>
<path d="M4.7495 82.5964L4.65625 82.0752L30.44 77.3843L30.5332 77.9065L4.7495 82.5964Z" fill="#C8D7F4"/>
<path d="M5.17155 69.5559L5.10938 69.0336L29.2828 66.2524L29.345 66.7747L5.17155 69.5559Z" fill="#C8D7F4"/>
<path d="M5.43479 57.6938L5.41406 57.1654L26.8043 56.2856L26.825 56.8141L5.43479 57.6938Z" fill="#C8D7F4"/>
<path d="M6.19599 44.2768L6.11719 44.7983L26.481 47.8751L26.5598 47.3536L6.19599 44.2768Z" fill="#C8D7F4"/>
<path d="M24.393 37.7559L4.90625 31.3076L5.071 30.8062L24.5577 37.2544L24.393 37.7559Z" fill="#C8D7F4"/>
<path d="M24.2118 27.639L2.96875 17.821L3.18843 17.3413L24.4315 27.1572L24.2118 27.639Z" fill="#C8D7F4"/>
<path d="M33.2759 136.258L31.0781 84.5427L31.6035 84.522L33.8013 136.238L33.2759 136.258Z" fill="#C8D7F4"/>
<path d="M319.801 151.633H312.768V8.13106C312.768 7.52696 312.274 7.0327 311.67 7.0327H8.13001C7.52383 7.0327 7.03164 7.52696 7.03164 8.13106V150.753H0V8.13106C0 3.6464 3.64845 0 8.13105 0H311.671C316.155 0 319.802 3.6464 319.802 8.13106V151.633H319.801Z" fill="#C8D7F4"/>
<path d="M36.5209 134.937L22.1633 22.5685C22.1032 22.2359 20.1531 11.9382 3.5625 8.57262L4.96033 1.67773C26.6179 6.07639 29.0374 20.9821 29.1307 21.6142L43.4955 134.044L36.5209 134.937Z" fill="#C8D7F4"/>
<path d="M283.32 134.937L276.344 134.044L290.703 21.6753C290.806 20.9821 293.22 6.07639 314.88 1.67773L316.281 8.57262C299.412 11.9962 297.687 22.524 297.671 22.6307L283.32 134.937Z" fill="#C8D7F4"/>
<path d="M283.323 131.913H37.625V134.939H283.323V131.913Z" fill="#C8D7F4"/>
<path d="M7.03673 150.754L6.89062 146.451L37.618 131.913V134.938L7.03673 150.754Z" fill="#C8D7F4"/>
<path d="M312.763 151.634L312.908 147.33L282.711 131.913V134.938L312.763 151.634Z" fill="#C8D7F4"/>
</mask>
<g mask="url(#mask0_15934_3443)">
<path d="M294.629 17.5361H26.5234V18.0646H294.629V17.5361Z" fill="#C8D7F4"/>
<path d="M74.8082 27.9912C47.2858 27.9912 28.5306 27.9539 27.9141 27.9539V27.4254C29.9761 27.4389 234.562 27.8409 291.393 25.8877L291.414 26.4162C251.59 27.785 139.219 27.9912 74.8082 27.9912Z" fill="#C8D7F4"/>
<path d="M74.8082 37.4395C47.2858 37.4395 28.5306 37.4012 27.9141 37.4012V36.8727C29.9761 36.8831 234.562 37.2883 291.393 35.334L291.414 35.8625C251.59 37.2344 139.219 37.4395 74.8082 37.4395Z" fill="#C8D7F4"/>
<path d="M74.8082 47.5498C47.2858 47.5498 28.5306 47.5125 27.9141 47.5125V46.9841C29.9761 46.9944 234.562 47.4027 291.393 45.4453L291.414 45.9738C251.59 47.3436 139.219 47.5498 74.8082 47.5498Z" fill="#C8D7F4"/>
<path d="M74.8082 57.6592C47.2858 57.6592 28.5306 57.6219 27.9141 57.6219V57.0934C29.9761 57.1069 234.562 57.509 291.393 55.5547L291.414 56.0832C251.59 57.453 139.219 57.6592 74.8082 57.6592Z" fill="#C8D7F4"/>
<path d="M75.9568 67.7567C48.911 67.7567 30.4812 67.7184 29.875 67.7184V67.1899C31.9132 67.2034 233.425 67.6054 289.398 65.6719L289.419 66.2003C250.168 67.5505 139.382 67.7567 75.9568 67.7567Z" fill="#C8D7F4"/>
<path d="M78.5293 78.5004C52.3073 78.5004 34.4391 78.4631 33.8516 78.4631V77.9347C35.8172 77.945 231.193 78.3336 285.463 76.4653L285.484 76.9938C247.432 78.3015 140.021 78.5004 78.5293 78.5004Z" fill="#C8D7F4"/>
<path d="M78.5293 88.1694C52.3073 88.1694 34.4391 88.1311 33.8516 88.1311V87.6026C35.8172 87.613 231.193 87.9974 285.463 86.1333L285.484 86.6618C247.432 87.9705 140.021 88.1694 78.5293 88.1694Z" fill="#C8D7F4"/>
<path d="M78.5293 98.4262C52.3073 98.4262 34.4391 98.3889 33.8516 98.3889V97.8605C35.8172 97.8708 231.193 98.2552 285.463 96.3911L285.484 96.9196C247.432 98.2273 140.021 98.4262 78.5293 98.4262Z" fill="#C8D7F4"/>
<path d="M78.5293 108.096C52.3073 108.096 34.4391 108.059 33.8516 108.059V107.53C35.8172 107.538 231.193 107.925 285.463 106.061L285.484 106.589C247.432 107.897 140.021 108.096 78.5293 108.096Z" fill="#C8D7F4"/>
<path d="M78.5293 117.913C52.3073 117.913 34.4391 117.874 33.8516 117.874V117.346C35.8172 117.356 231.193 117.741 285.463 115.876L285.484 116.405C247.432 117.713 140.021 117.913 78.5293 117.913Z" fill="#C8D7F4"/>
<path d="M83.3319 127.682C58.6196 127.682 41.7721 127.648 41.2188 127.648V127.12C43.0767 127.133 227.013 127.498 278.107 125.735L278.128 126.264C242.307 127.497 141.235 127.682 83.3319 127.682Z" fill="#C8D7F4"/>
<path d="M197.334 134.94C127.54 134.94 44.206 134.106 42.9688 134.096L42.976 133.567C44.808 133.588 227.012 135.408 278.103 133.646L278.124 134.175C261.497 134.746 230.985 134.94 197.334 134.94Z" fill="#C8D7F4"/>
<path d="M50.8414 133.972L37.7781 17.7137L24.3438 6.46475L24.6836 6.05957L38.2796 17.4453L38.292 17.5489L51.3668 133.91L50.8414 133.972Z" fill="#C8D7F4"/>
<path d="M60.1648 134.079L48.0879 17.7036L35.6328 5.90543L35.9965 5.521L48.5925 17.4559L48.6029 17.5523L60.6901 134.024L60.1648 134.079Z" fill="#C8D7F4"/>
<path d="M69.194 134.187L58.8735 17.6953L47.8359 5.7832L48.2245 5.42676L59.3823 17.4684L59.3906 17.5575L69.7194 134.139L69.194 134.187Z" fill="#C8D7F4"/>
<path d="M78.2886 133.852L68.5162 17.68L59.4453 6.0943L59.8598 5.771L69.0281 17.4811L69.0353 17.5598L78.815 133.811L78.2886 133.852Z" fill="#C8D7F4"/>
<path d="M87.7518 134.073L79.0768 17.681L68.3594 4.2685L68.7718 3.93896L79.5918 17.4821L79.5969 17.5609L88.2772 134.032L87.7518 134.073Z" fill="#C8D7F4"/>
<path d="M97.4173 134.069L90.28 17.6804L79.7812 4.26468L80.1968 3.94141L90.795 17.4814L90.8002 17.5633L97.9417 134.035L97.4173 134.069Z" fill="#C8D7F4"/>
<path d="M106.758 134.065L101.267 17.6836L90.6328 5.44607L91.0318 5.10205L101.785 17.4774L101.79 17.5665L107.283 134.038L106.758 134.065Z" fill="#C8D7F4"/>
<path d="M116.203 133.953L112.251 17.6738L103.07 5.43218L103.493 5.11719L112.772 17.4884L112.775 17.5712L116.732 133.932L116.203 133.953Z" fill="#C8D7F4"/>
<path d="M126.213 134.171L122.37 17.6547L115.664 6.13843L116.121 5.87109L122.896 17.5697L126.742 134.15L126.213 134.171Z" fill="#C8D7F4"/>
<path d="M135.985 134.718L132.69 17.642L127.219 5.60347L127.7 5.38379L133.217 17.5736L136.513 134.704L135.985 134.718Z" fill="#C8D7F4"/>
<path d="M145.429 134.714L143.231 17.5835L139.945 5.34184L140.454 5.20508L143.75 17.5109L145.958 134.707L145.429 134.714Z" fill="#C8D7F4"/>
<path d="M155.111 134.711L154.671 17.5808L152.477 4.4397L152.999 4.35059L155.197 17.5362L155.639 134.711H155.111Z" fill="#C8D7F4"/>
<path d="M269.686 134.08L269.164 134.025L281.921 17.4503L281.995 17.3809L295.912 5.22217L296.263 5.62111L282.421 17.7104L269.686 134.08Z" fill="#C8D7F4"/>
<path d="M260.124 134.189L259.602 134.135L271.589 17.4534L271.661 17.3851L283.895 6.24902L284.253 6.6407L272.091 17.7073L260.124 134.189Z" fill="#C8D7F4"/>
<path d="M251.224 134.405L250.695 134.356L260.815 17.4552L260.889 17.3837L273.784 5.51611L274.14 5.90779L261.323 17.7028L251.224 134.405Z" fill="#C8D7F4"/>
<path d="M241.834 134.456L241.305 134.415L251.15 17.4588L251.218 17.3904L262.498 6.25537L262.869 6.63256L251.657 17.7002L241.834 134.456Z" fill="#C8D7F4"/>
<path d="M232.388 134.676L231.859 134.635L240.602 17.4662L240.667 17.4009L251.946 5.24219L252.331 5.59968L241.117 17.6932L232.388 134.676Z" fill="#C8D7F4"/>
<path d="M222.747 134.837L222.219 134.803L229.399 17.4806L229.449 17.4143L238.46 6.13525L238.871 6.46479L229.914 17.6796L222.747 134.837Z" fill="#C8D7F4"/>
<path d="M213.513 134.916L212.984 134.889L218.399 17.4863L218.45 17.421L227.9 4.89551L228.319 5.2105L218.921 17.6718L213.513 134.916Z" fill="#C8D7F4"/>
<path d="M203.983 135.379L203.453 135.359L207.412 17.4891L207.461 17.4238L215.592 6.21631L216.018 6.52614L207.935 17.6684L203.983 135.379Z" fill="#C8D7F4"/>
<path d="M193.872 135.38L193.344 135.36L197.333 17.4496L204.146 5.3623L204.606 5.62344L197.824 17.6516L193.872 135.38Z" fill="#C8D7F4"/>
<path d="M184.209 134.717L183.68 134.704L186.997 17.4768L192.051 5.39062L192.539 5.59683L187.502 17.6343L184.209 134.717Z" fill="#C8D7F4"/>
<path d="M174.739 134.714L174.211 134.707L176.409 17.5762L179.715 5.20508L180.223 5.34184L176.927 17.6488L174.739 134.714Z" fill="#C8D7F4"/>
<path d="M165.084 134.711H164.555L164.994 17.5809L166.756 6.1123L167.278 6.19414L165.519 17.6214L165.084 134.711Z" fill="#C8D7F4"/>
<path d="M306.021 147.095L305.492 147.081L308.716 9.66064L309.244 9.67412L306.021 147.095Z" fill="#C8D7F4"/>
<path d="M298.263 142.56L297.734 142.539L303.448 11.5635L303.976 11.5842L298.263 142.56Z" fill="#C8D7F4"/>
<path d="M291.819 138.899L291.289 138.873L297.003 21.9614L297.532 21.9884L291.819 138.899Z" fill="#C8D7F4"/>
<path d="M312.861 151.312L282.039 133.952L282.3 133.492L313.122 150.852L312.861 151.312Z" fill="#C8D7F4"/>
<path d="M314.431 141.612L283.812 127.108L284.038 126.635L314.657 141.138L314.431 141.612Z" fill="#C8D7F4"/>
<path d="M284.607 117.701L284.414 118.188L314.445 130.055L314.637 129.568L284.607 117.701Z" fill="#C8D7F4"/>
<path d="M313.727 117.307L285.891 107.93L286.062 107.429L313.899 116.806L313.727 117.307Z" fill="#C8D7F4"/>
<path d="M312.992 106.173L286.766 97.9698L286.923 97.4683L313.149 105.672L312.992 106.173Z" fill="#C8D7F4"/>
<path d="M313.587 94.3099L288.242 87.8647L288.373 87.356L313.717 93.8011L313.587 94.3099Z" fill="#C8D7F4"/>
<path d="M314.956 82.5964L289.172 77.9065L289.267 77.3843L315.051 82.0752L314.956 82.5964Z" fill="#C8D7F4"/>
<path d="M314.517 69.5573L290.344 66.7762L290.406 66.2539L314.579 69.0351L314.517 69.5573Z" fill="#C8D7F4"/>
<path d="M314.224 57.6938L292.836 56.8141L292.857 56.2856L314.245 57.1654L314.224 57.6938Z" fill="#C8D7F4"/>
<path d="M293.193 47.8765L293.117 47.3543L313.483 44.2778L313.558 44.8001L293.193 47.8765Z" fill="#C8D7F4"/>
<path d="M295.29 37.7559L295.125 37.2544L314.612 30.8062L314.777 31.3076L295.29 37.7559Z" fill="#C8D7F4"/>
<path d="M295.454 27.639L295.234 27.1572L316.48 17.3413L316.699 17.821L295.454 27.639Z" fill="#C8D7F4"/>
<path d="M286.388 136.258L285.859 136.238L288.057 84.522L288.586 84.5427L286.388 136.258Z" fill="#C8D7F4"/>
<path d="M13.6455 146.436L10.4219 9.67412L10.9503 9.66064L14.175 146.422L13.6455 146.436Z" fill="#C8D7F4"/>
<path d="M21.4167 142.56L15.7031 11.5842L16.2285 11.5635L21.9421 142.539L21.4167 142.56Z" fill="#C8D7F4"/>
<path d="M27.8777 138.899L22.1641 21.9884L22.6894 21.9614L28.403 138.873L27.8777 138.899Z" fill="#C8D7F4"/>
<path d="M7.00857 150.619L6.75781 150.152L36.0573 134.257L36.3081 134.725L7.00857 150.619Z" fill="#C8D7F4"/>
<path d="M5.22692 141.612L5 141.138L35.6186 126.635L35.8445 127.108L5.22692 141.612Z" fill="#C8D7F4"/>
<path d="M35.0615 117.713L5.02344 129.568L5.21591 130.056L35.254 118.201L35.0615 117.713Z" fill="#C8D7F4"/>
<path d="M5.9413 117.307L5.77344 116.806L33.6099 107.429L33.7788 107.93L5.9413 117.307Z" fill="#C8D7F4"/>
<path d="M6.66635 106.172L6.50781 105.671L32.7329 97.4673L32.8915 97.9688L6.66635 106.172Z" fill="#C8D7F4"/>
<path d="M6.09253 94.3099L5.96094 93.8011L31.3053 87.356L31.4359 87.8647L6.09253 94.3099Z" fill="#C8D7F4"/>
<path d="M4.7495 82.5964L4.65625 82.0752L30.44 77.3843L30.5332 77.9065L4.7495 82.5964Z" fill="#C8D7F4"/>
<path d="M5.17155 69.5559L5.10938 69.0336L29.2828 66.2524L29.345 66.7747L5.17155 69.5559Z" fill="#C8D7F4"/>
<path d="M5.43479 57.6938L5.41406 57.1654L26.8043 56.2856L26.825 56.8141L5.43479 57.6938Z" fill="#C8D7F4"/>
<path d="M6.19599 44.2768L6.11719 44.7983L26.481 47.8751L26.5598 47.3536L6.19599 44.2768Z" fill="#C8D7F4"/>
<path d="M24.393 37.7559L4.90625 31.3076L5.071 30.8062L24.5577 37.2544L24.393 37.7559Z" fill="#C8D7F4"/>
<path d="M24.2118 27.639L2.96875 17.821L3.18843 17.3413L24.4315 27.1572L24.2118 27.639Z" fill="#C8D7F4"/>
<path d="M33.2759 136.258L31.0781 84.5427L31.6035 84.522L33.8013 136.238L33.2759 136.258Z" fill="#C8D7F4"/>
<path d="M319.801 151.633H312.768V8.13106C312.768 7.52696 312.274 7.0327 311.67 7.0327H8.13001C7.52383 7.0327 7.03164 7.52696 7.03164 8.13106V150.753H0V8.13106C0 3.6464 3.64845 0 8.13105 0H311.671C316.155 0 319.802 3.6464 319.802 8.13106V151.633H319.801Z" fill="#C8D7F4"/>
<path d="M36.5209 134.937L22.1633 22.5685C22.1032 22.2359 20.1531 11.9382 3.5625 8.57262L4.96033 1.67773C26.6179 6.07639 29.0374 20.9821 29.1307 21.6142L43.4955 134.044L36.5209 134.937Z" fill="#C8D7F4"/>
<path d="M283.32 134.937L276.344 134.044L290.703 21.6753C290.806 20.9821 293.22 6.07639 314.88 1.67773L316.281 8.57262C299.412 11.9962 297.687 22.524 297.671 22.6307L283.32 134.937Z" fill="#C8D7F4"/>
<path d="M283.323 131.913H37.625V134.939H283.323V131.913Z" fill="#C8D7F4"/>
<path d="M7.03673 150.754L6.89062 146.451L37.618 131.913V134.938L7.03673 150.754Z" fill="#C8D7F4"/>
<path d="M312.763 151.634L312.908 147.33L282.711 131.913V134.938L312.763 151.634Z" fill="#C8D7F4"/>
<g style="mix-blend-mode:color">
<path d="M294.629 17.5361H26.5234V18.0646H294.629V17.5361Z" fill="#A6CCF0" fill-opacity="0.65098"/>
<path d="M74.8082 27.9912C47.2858 27.9912 28.5306 27.9539 27.9141 27.9539V27.4254C29.9761 27.4389 234.562 27.8409 291.393 25.8877L291.414 26.4162C251.59 27.785 139.219 27.9912 74.8082 27.9912Z" fill="#A6CCF0" fill-opacity="0.65098"/>
<path d="M74.8082 37.4395C47.2858 37.4395 28.5306 37.4012 27.9141 37.4012V36.8727C29.9761 36.8831 234.562 37.2883 291.393 35.334L291.414 35.8625C251.59 37.2344 139.219 37.4395 74.8082 37.4395Z" fill="#A6CCF0" fill-opacity="0.65098"/>
<path d="M74.8082 47.5498C47.2858 47.5498 28.5306 47.5125 27.9141 47.5125V46.9841C29.9761 46.9944 234.562 47.4027 291.393 45.4453L291.414 45.9738C251.59 47.3436 139.219 47.5498 74.8082 47.5498Z" fill="#A6CCF0" fill-opacity="0.65098"/>
<path d="M74.8082 57.6592C47.2858 57.6592 28.5306 57.6219 27.9141 57.6219V57.0934C29.9761 57.1069 234.562 57.509 291.393 55.5547L291.414 56.0832C251.59 57.453 139.219 57.6592 74.8082 57.6592Z" fill="#A6CCF0" fill-opacity="0.65098"/>
<path d="M75.9568 67.7567C48.911 67.7567 30.4812 67.7184 29.875 67.7184V67.1899C31.9132 67.2034 233.425 67.6054 289.398 65.6719L289.419 66.2003C250.168 67.5505 139.382 67.7567 75.9568 67.7567Z" fill="#A6CCF0" fill-opacity="0.65098"/>
<path d="M78.5293 78.5004C52.3073 78.5004 34.4391 78.4631 33.8516 78.4631V77.9347C35.8172 77.945 231.193 78.3336 285.463 76.4653L285.484 76.9938C247.432 78.3015 140.021 78.5004 78.5293 78.5004Z" fill="#A6CCF0" fill-opacity="0.65098"/>
<path d="M78.5293 88.1694C52.3073 88.1694 34.4391 88.1311 33.8516 88.1311V87.6026C35.8172 87.613 231.193 87.9974 285.463 86.1333L285.484 86.6618C247.432 87.9705 140.021 88.1694 78.5293 88.1694Z" fill="#A6CCF0" fill-opacity="0.65098"/>
<path d="M78.5293 98.4262C52.3073 98.4262 34.4391 98.3889 33.8516 98.3889V97.8605C35.8172 97.8708 231.193 98.2552 285.463 96.3911L285.484 96.9196C247.432 98.2273 140.021 98.4262 78.5293 98.4262Z" fill="#A6CCF0" fill-opacity="0.65098"/>
<path d="M78.5293 108.096C52.3073 108.096 34.4391 108.059 33.8516 108.059V107.53C35.8172 107.538 231.193 107.925 285.463 106.061L285.484 106.589C247.432 107.897 140.021 108.096 78.5293 108.096Z" fill="#A6CCF0" fill-opacity="0.65098"/>
<path d="M78.5293 117.913C52.3073 117.913 34.4391 117.874 33.8516 117.874V117.346C35.8172 117.356 231.193 117.741 285.463 115.876L285.484 116.405C247.432 117.713 140.021 117.913 78.5293 117.913Z" fill="#A6CCF0" fill-opacity="0.65098"/>
<path d="M83.3319 127.682C58.6196 127.682 41.7721 127.648 41.2188 127.648V127.12C43.0767 127.133 227.013 127.498 278.107 125.735L278.128 126.264C242.307 127.497 141.235 127.682 83.3319 127.682Z" fill="#A6CCF0" fill-opacity="0.65098"/>
<path d="M197.334 134.94C127.54 134.94 44.206 134.106 42.9688 134.096L42.976 133.567C44.808 133.588 227.012 135.408 278.103 133.646L278.124 134.175C261.497 134.746 230.985 134.94 197.334 134.94Z" fill="#A6CCF0" fill-opacity="0.65098"/>
<path d="M50.8414 133.972L37.7781 17.7137L24.3438 6.46475L24.6836 6.05957L38.2796 17.4453L38.292 17.5489L51.3668 133.91L50.8414 133.972Z" fill="#A6CCF0" fill-opacity="0.65098"/>
<path d="M60.1648 134.079L48.0879 17.7036L35.6328 5.90543L35.9965 5.521L48.5925 17.4559L48.6029 17.5523L60.6901 134.024L60.1648 134.079Z" fill="#A6CCF0" fill-opacity="0.65098"/>
<path d="M69.194 134.187L58.8735 17.6953L47.8359 5.7832L48.2245 5.42676L59.3823 17.4684L59.3906 17.5575L69.7194 134.139L69.194 134.187Z" fill="#A6CCF0" fill-opacity="0.65098"/>
<path d="M78.2886 133.852L68.5162 17.68L59.4453 6.0943L59.8598 5.771L69.0281 17.4811L69.0353 17.5598L78.815 133.811L78.2886 133.852Z" fill="#A6CCF0" fill-opacity="0.65098"/>
<path d="M87.7518 134.073L79.0768 17.681L68.3594 4.2685L68.7718 3.93896L79.5918 17.4821L79.5969 17.5609L88.2772 134.032L87.7518 134.073Z" fill="#A6CCF0" fill-opacity="0.65098"/>
<path d="M97.4173 134.069L90.28 17.6804L79.7812 4.26468L80.1968 3.94141L90.795 17.4814L90.8002 17.5633L97.9417 134.035L97.4173 134.069Z" fill="#A6CCF0" fill-opacity="0.65098"/>
<path d="M106.758 134.065L101.267 17.6836L90.6328 5.44607L91.0318 5.10205L101.785 17.4774L101.79 17.5665L107.283 134.038L106.758 134.065Z" fill="#A6CCF0" fill-opacity="0.65098"/>
<path d="M116.203 133.953L112.251 17.6738L103.07 5.43218L103.493 5.11719L112.772 17.4884L112.775 17.5712L116.732 133.932L116.203 133.953Z" fill="#A6CCF0" fill-opacity="0.65098"/>
<path d="M126.213 134.171L122.37 17.6547L115.664 6.13843L116.121 5.87109L122.896 17.5697L126.742 134.15L126.213 134.171Z" fill="#A6CCF0" fill-opacity="0.65098"/>
<path d="M135.985 134.718L132.69 17.642L127.219 5.60347L127.7 5.38379L133.217 17.5736L136.513 134.704L135.985 134.718Z" fill="#A6CCF0" fill-opacity="0.65098"/>
<path d="M145.429 134.714L143.231 17.5835L139.945 5.34184L140.454 5.20508L143.75 17.5109L145.958 134.707L145.429 134.714Z" fill="#A6CCF0" fill-opacity="0.65098"/>
<path d="M155.111 134.711L154.671 17.5808L152.477 4.4397L152.999 4.35059L155.197 17.5362L155.639 134.711H155.111Z" fill="#A6CCF0" fill-opacity="0.65098"/>
<path d="M269.686 134.08L269.164 134.025L281.921 17.4503L281.995 17.3809L295.912 5.22217L296.263 5.62111L282.421 17.7104L269.686 134.08Z" fill="#A6CCF0" fill-opacity="0.65098"/>
<path d="M260.124 134.189L259.602 134.135L271.589 17.4534L271.661 17.3851L283.895 6.24902L284.253 6.6407L272.091 17.7073L260.124 134.189Z" fill="#A6CCF0" fill-opacity="0.65098"/>
<path d="M251.224 134.405L250.695 134.356L260.815 17.4552L260.889 17.3837L273.784 5.51611L274.14 5.90779L261.323 17.7028L251.224 134.405Z" fill="#A6CCF0" fill-opacity="0.65098"/>
<path d="M241.834 134.456L241.305 134.415L251.15 17.4588L251.218 17.3904L262.498 6.25537L262.869 6.63256L251.657 17.7002L241.834 134.456Z" fill="#A6CCF0" fill-opacity="0.65098"/>
<path d="M232.388 134.676L231.859 134.635L240.602 17.4662L240.667 17.4009L251.946 5.24219L252.331 5.59968L241.117 17.6932L232.388 134.676Z" fill="#A6CCF0" fill-opacity="0.65098"/>
<path d="M222.747 134.837L222.219 134.803L229.399 17.4806L229.449 17.4143L238.46 6.13525L238.871 6.46479L229.914 17.6796L222.747 134.837Z" fill="#A6CCF0" fill-opacity="0.65098"/>
<path d="M213.513 134.916L212.984 134.889L218.399 17.4863L218.45 17.421L227.9 4.89551L228.319 5.2105L218.921 17.6718L213.513 134.916Z" fill="#A6CCF0" fill-opacity="0.65098"/>
<path d="M203.983 135.379L203.453 135.359L207.412 17.4891L207.461 17.4238L215.592 6.21631L216.018 6.52614L207.935 17.6684L203.983 135.379Z" fill="#A6CCF0" fill-opacity="0.65098"/>
<path d="M193.872 135.38L193.344 135.36L197.333 17.4496L204.146 5.3623L204.606 5.62344L197.824 17.6516L193.872 135.38Z" fill="#A6CCF0" fill-opacity="0.65098"/>
<path d="M184.209 134.717L183.68 134.704L186.997 17.4768L192.051 5.39062L192.539 5.59683L187.502 17.6343L184.209 134.717Z" fill="#A6CCF0" fill-opacity="0.65098"/>
<path d="M174.739 134.714L174.211 134.707L176.409 17.5762L179.715 5.20508L180.223 5.34184L176.927 17.6488L174.739 134.714Z" fill="#A6CCF0" fill-opacity="0.65098"/>
<path d="M165.084 134.711H164.555L164.994 17.5809L166.756 6.1123L167.278 6.19414L165.519 17.6214L165.084 134.711Z" fill="#A6CCF0" fill-opacity="0.65098"/>
<path d="M306.021 147.095L305.492 147.081L308.716 9.66064L309.244 9.67412L306.021 147.095Z" fill="#A6CCF0" fill-opacity="0.65098"/>
<path d="M298.263 142.56L297.734 142.539L303.448 11.5635L303.976 11.5842L298.263 142.56Z" fill="#A6CCF0" fill-opacity="0.65098"/>
<path d="M291.819 138.899L291.289 138.873L297.003 21.9614L297.532 21.9884L291.819 138.899Z" fill="#A6CCF0" fill-opacity="0.65098"/>
<path d="M312.861 151.312L282.039 133.952L282.3 133.492L313.122 150.852L312.861 151.312Z" fill="#A6CCF0" fill-opacity="0.65098"/>
<path d="M314.431 141.612L283.812 127.108L284.038 126.635L314.657 141.138L314.431 141.612Z" fill="#A6CCF0" fill-opacity="0.65098"/>
<path d="M284.607 117.701L284.414 118.188L314.445 130.055L314.637 129.568L284.607 117.701Z" fill="#A6CCF0" fill-opacity="0.65098"/>
<path d="M313.727 117.307L285.891 107.93L286.062 107.429L313.899 116.806L313.727 117.307Z" fill="#A6CCF0" fill-opacity="0.65098"/>
<path d="M312.992 106.173L286.766 97.9698L286.923 97.4683L313.149 105.672L312.992 106.173Z" fill="#A6CCF0" fill-opacity="0.65098"/>
<path d="M313.587 94.3099L288.242 87.8647L288.373 87.356L313.717 93.8011L313.587 94.3099Z" fill="#A6CCF0" fill-opacity="0.65098"/>
<path d="M314.956 82.5964L289.172 77.9065L289.267 77.3843L315.051 82.0752L314.956 82.5964Z" fill="#A6CCF0" fill-opacity="0.65098"/>
<path d="M314.517 69.5573L290.344 66.7762L290.406 66.2539L314.579 69.0351L314.517 69.5573Z" fill="#A6CCF0" fill-opacity="0.65098"/>
<path d="M314.224 57.6938L292.836 56.8141L292.857 56.2856L314.245 57.1654L314.224 57.6938Z" fill="#A6CCF0" fill-opacity="0.65098"/>
<path d="M293.193 47.8765L293.117 47.3543L313.483 44.2778L313.558 44.8001L293.193 47.8765Z" fill="#A6CCF0" fill-opacity="0.65098"/>
<path d="M295.29 37.7559L295.125 37.2544L314.612 30.8062L314.777 31.3076L295.29 37.7559Z" fill="#A6CCF0" fill-opacity="0.65098"/>
<path d="M295.454 27.639L295.234 27.1572L316.48 17.3413L316.699 17.821L295.454 27.639Z" fill="#A6CCF0" fill-opacity="0.65098"/>
<path d="M286.388 136.258L285.859 136.238L288.057 84.522L288.586 84.5427L286.388 136.258Z" fill="#A6CCF0" fill-opacity="0.65098"/>
<path d="M13.6455 146.436L10.4219 9.67412L10.9503 9.66064L14.175 146.422L13.6455 146.436Z" fill="#A6CCF0" fill-opacity="0.65098"/>
<path d="M21.4167 142.56L15.7031 11.5842L16.2285 11.5635L21.9421 142.539L21.4167 142.56Z" fill="#A6CCF0" fill-opacity="0.65098"/>
<path d="M27.8777 138.899L22.1641 21.9884L22.6894 21.9614L28.403 138.873L27.8777 138.899Z" fill="#A6CCF0" fill-opacity="0.65098"/>
<path d="M7.00857 150.619L6.75781 150.152L36.0573 134.257L36.3081 134.725L7.00857 150.619Z" fill="#A6CCF0" fill-opacity="0.65098"/>
<path d="M5.22692 141.612L5 141.138L35.6186 126.635L35.8445 127.108L5.22692 141.612Z" fill="#A6CCF0" fill-opacity="0.65098"/>
<path d="M35.0615 117.713L5.02344 129.568L5.21591 130.056L35.254 118.201L35.0615 117.713Z" fill="#A6CCF0" fill-opacity="0.65098"/>
<path d="M5.9413 117.307L5.77344 116.806L33.6099 107.429L33.7788 107.93L5.9413 117.307Z" fill="#A6CCF0" fill-opacity="0.65098"/>
<path d="M6.66635 106.172L6.50781 105.671L32.7329 97.4673L32.8915 97.9688L6.66635 106.172Z" fill="#A6CCF0" fill-opacity="0.65098"/>
<path d="M6.09253 94.3099L5.96094 93.8011L31.3053 87.356L31.4359 87.8647L6.09253 94.3099Z" fill="#A6CCF0" fill-opacity="0.65098"/>
<path d="M4.7495 82.5964L4.65625 82.0752L30.44 77.3843L30.5332 77.9065L4.7495 82.5964Z" fill="#A6CCF0" fill-opacity="0.65098"/>
<path d="M5.17155 69.5559L5.10938 69.0336L29.2828 66.2524L29.345 66.7747L5.17155 69.5559Z" fill="#A6CCF0" fill-opacity="0.65098"/>
<path d="M5.43479 57.6938L5.41406 57.1654L26.8043 56.2856L26.825 56.8141L5.43479 57.6938Z" fill="#A6CCF0" fill-opacity="0.65098"/>
<path d="M6.19599 44.2768L6.11719 44.7983L26.481 47.8751L26.5598 47.3536L6.19599 44.2768Z" fill="#A6CCF0" fill-opacity="0.65098"/>
<path d="M24.393 37.7559L4.90625 31.3076L5.071 30.8062L24.5577 37.2544L24.393 37.7559Z" fill="#A6CCF0" fill-opacity="0.65098"/>
<path d="M24.2118 27.639L2.96875 17.821L3.18843 17.3413L24.4315 27.1572L24.2118 27.639Z" fill="#A6CCF0" fill-opacity="0.65098"/>
<path d="M33.2759 136.258L31.0781 84.5427L31.6035 84.522L33.8013 136.238L33.2759 136.258Z" fill="#A6CCF0" fill-opacity="0.65098"/>
<path d="M319.801 151.633H312.768V8.13106C312.768 7.52696 312.274 7.0327 311.67 7.0327H8.13001C7.52383 7.0327 7.03164 7.52696 7.03164 8.13106V150.753H0V8.13106C0 3.6464 3.64845 0 8.13105 0H311.671C316.155 0 319.802 3.6464 319.802 8.13106V151.633H319.801Z" fill="#A6CCF0" fill-opacity="0.65098"/>
<path d="M36.5209 134.937L22.1633 22.5685C22.1032 22.2359 20.1531 11.9382 3.5625 8.57262L4.96033 1.67773C26.6179 6.07639 29.0374 20.9821 29.1307 21.6142L43.4955 134.044L36.5209 134.937Z" fill="#A6CCF0" fill-opacity="0.65098"/>
<path d="M283.32 134.937L276.344 134.044L290.703 21.6753C290.806 20.9821 293.22 6.07639 314.88 1.67773L316.281 8.57262C299.412 11.9962 297.687 22.524 297.671 22.6307L283.32 134.937Z" fill="#A6CCF0" fill-opacity="0.65098"/>
<path d="M283.323 131.913H37.625V134.939H283.323V131.913Z" fill="#A6CCF0" fill-opacity="0.65098"/>
<path d="M7.03673 150.754L6.89062 146.451L37.618 131.913V134.938L7.03673 150.754Z" fill="#A6CCF0" fill-opacity="0.65098"/>
<path d="M312.763 151.634L312.908 147.33L282.711 131.913V134.938L312.763 151.634Z" fill="#A6CCF0" fill-opacity="0.65098"/>
</g>
</g>
<mask id="mask1_15934_3443" style="mask-type:alpha" maskUnits="userSpaceOnUse" x="88" y="27" width="153" height="171">
<path d="M116.18 102.493C116.153 107.428 136.383 108.514 136.383 108.514L132.031 93.9321C132.031 93.9321 116.216 95.8187 116.18 102.493Z" fill="#202838"/>
<path d="M180.683 60.2725C182.056 60.8165 180.683 64.1215 180.683 64.1215L176.344 62.5878C176.344 62.5878 178.255 59.3106 180.683 60.2725Z" fill="#202838"/>
<path d="M170.984 73.2032L182.246 77.8059C186.331 79.4758 190.981 77.385 192.444 73.221C193.889 69.1059 191.639 64.6115 187.478 63.3038L177.948 60.3091L170.984 73.2032Z" fill="#FF734D"/>
<path d="M179.468 60.9316C178.333 62.8128 177.635 63.9557 177.228 66.1394L174.234 67.1207C174.234 67.1207 176.033 63.0124 179.468 60.9316Z" fill="#A34A32"/>
<path d="M175.927 65.9917L171.578 73.4366L176.803 75.5724C178.798 76.388 181.016 74.8991 180.951 72.7448C180.855 69.5397 178.704 67.2747 175.927 65.9917Z" fill="#A34A32"/>
<path d="M158.758 50.1485C158.758 50.1485 165.338 50.0796 169.957 55.4786C170.874 56.5495 172.083 57.3357 173.418 57.7892C177.514 59.1797 180.682 60.2708 180.682 60.2708C180.682 60.2708 176.366 61.2799 172.703 73.4018L160.37 66.945L158.758 50.1485Z" fill="#EBA910"/>
<path d="M171.07 72.55L172.697 73.4012C176.36 61.2793 180.677 60.2702 180.677 60.2702C180.677 60.2702 179.86 59.9886 178.522 59.5312C175.724 61.4379 171.933 67.5589 171.07 72.55Z" fill="white"/>
<path d="M162.289 59.6841C162.289 59.6841 164.785 67.8254 170.139 72.0613L160.367 66.9456L162.289 59.6841Z" fill="#202838"/>
<path d="M172.344 121.75L178.849 134.842C180.738 138.644 180.461 143.163 178.122 146.706L156.615 179.271C155.949 180.279 155.696 181.505 155.907 182.695L156.738 187.371C156.738 187.371 150.731 192.481 143.477 182.905L144.886 181.459C147.011 179.279 148.599 176.643 149.529 173.745C150.81 169.755 152.615 163.747 153.71 158.437C154.622 154.014 156.806 149.957 160.01 146.774L163.982 142.828L151.873 130.326L172.344 121.75Z" fill="#FF734D"/>
<path d="M173.093 123.253L162.829 125.737L151.875 130.326L158.139 136.793C163.212 134 168.167 125.49 174.297 125.675L173.093 123.253Z" fill="#A34A32"/>
<path d="M168.202 113.41L174.296 125.674C168.202 122.95 157.611 137.169 149.05 137.169C149.196 132.236 134.977 113.41 134.977 113.41H168.202Z" fill="#EBA910"/>
<path d="M151.874 121.749C156.367 122.224 156.305 125.084 160.005 125.489L161.787 114.618L155.756 113.411H134.977C134.977 113.411 137.522 116.782 140.447 121.042C143.285 121.159 148.675 121.411 151.874 121.749Z" fill="#202838"/>
<path d="M170.293 158.561C163.902 156.984 159.676 154.436 157.317 150.02C155.574 152.547 154.336 155.402 153.71 158.438C152.615 163.748 150.81 169.756 149.529 173.745C148.599 176.643 147.011 179.28 144.886 181.46L143.477 182.906C150.731 192.482 156.738 187.372 156.738 187.372L155.907 182.695C155.696 181.505 155.949 180.28 156.615 179.272L170.293 158.561Z" fill="#F5FAFF"/>
<path d="M145.5 180.159L148.289 182.906C149.2 183.803 150.518 184.151 151.752 183.819L156.141 182.639L157.751 186.836C158.063 187.652 158.569 188.38 159.225 188.958L162.733 192.053L167.109 193.471C168.994 194.083 168.833 196.8 166.889 197.184L164.922 197.572C161.03 198.341 156.995 197.426 153.813 195.054L150.563 192.631C148.705 191.246 146.543 190.324 144.257 189.943L143.717 189.854C140.72 189.354 139.602 185.63 141.83 183.562L145.5 180.159Z" fill="#D93B67"/>
<path d="M152.336 183.656L153.827 186.015C154.337 186.822 155.382 187.103 156.227 186.66L157.996 185.733C158.667 185.381 158.874 184.519 158.437 183.902L157.068 181.97C156.672 181.412 155.906 181.27 155.337 181.65L152.336 183.656Z" fill="#D93B67"/>
<path d="M160.007 125.489C162.51 127.013 168.66 118.742 169.72 115.696L159.572 113.411C159.572 113.411 156.962 123.636 160.007 125.489Z" fill="#202838"/>
<path d="M156.75 118.634L179.275 120.919C181.537 128.182 186.158 134.452 192.34 138.884C197.3 142.441 202.037 146.517 206.528 151.166C208.055 152.748 209.207 154.657 209.911 156.74L211.485 161.399L220.952 151.388L217.713 150.704C214.49 150.024 211.716 147.99 210.1 145.121L192.659 114.172L192.133 112.068C191.563 109.787 189.996 107.888 187.861 106.905C183.684 104.982 176.223 101.739 168.828 99.4814C168.829 99.4822 157.839 106.882 156.75 118.634Z" fill="#FF734D"/>
<path d="M174.972 101.558C172.967 100.823 170.896 100.113 168.829 99.4824C168.829 99.4824 157.838 106.882 156.75 118.634L164.499 119.421C163.13 113.884 169.745 103.8 174.972 101.558Z" fill="#A34A32"/>
<path d="M128.546 91.8653L128.188 100.288C127.814 109.106 133.941 116.851 142.597 118.571C146.577 119.362 150.784 120.036 154.451 120.279C155.834 120.371 157.029 121.28 157.475 122.593C158.212 124.764 159.994 125.49 159.994 125.49C159.994 125.49 156.838 111.417 175.554 101.224L161.104 96.2258C159.298 95.6013 157.867 94.2014 157.203 92.4093L155.749 88.4922C155.749 88.4922 135.183 88.7096 128.546 91.8653Z" fill="#EBA910"/>
<path d="M156.58 90.7183L155.754 88.4912C155.754 88.4912 135.187 88.7086 128.549 91.8643L128.192 100.287C128.191 100.302 128.19 100.317 128.19 100.331C128.086 102.942 131.027 104.581 133.235 103.185C138.786 99.6737 140.954 90.9071 156.58 90.7183Z" fill="#D6830F"/>
<path d="M135.275 53.2508C141.15 51.6057 150.353 49.6448 159.298 50.2662C161.994 50.4535 164.052 52.7347 163.978 55.4369C163.808 61.6197 162.603 72.5004 156.591 78.2615C158.115 81.3808 155.503 84.7902 155.503 84.7902C155.503 84.7902 157.897 87.4019 156.664 90.7386C151.15 88.4899 140.834 91.2942 135.045 95.8164C125.76 103.071 117.707 96.6869 116.184 102.491C116.184 102.491 115.735 99.9377 118.042 98.175C119.493 97.0661 120.418 95.4225 120.497 93.5986C120.608 91.0125 121.22 89.5964 121.724 88.8566C122.154 88.226 122.337 87.4669 122.297 86.7054C122.132 83.4917 122.287 74.8652 126.869 61.1972C128.169 57.3173 131.333 54.3551 135.275 53.2508Z" fill="#EBA910"/>
<path d="M148.322 50.8149C144.044 51.314 143.893 54.6353 145.143 57.1812C146.337 59.6125 150.042 60.8761 152.816 60.3074C155.591 59.7386 156.872 56.5783 155.83 54.9502C154.787 53.3221 153.685 50.1889 148.322 50.8149Z" fill="white"/>
<path d="M123.565 73.4429C122.875 76.8964 122.534 79.7495 122.379 81.9944C122.287 83.34 123.752 84.2524 124.899 83.542C128.925 81.048 131.944 76.2905 133.613 73.1457C134.275 71.8983 133.199 70.4435 131.816 70.726L124.862 72.1467C124.211 72.2798 123.696 72.7905 123.565 73.4429Z" fill="#202838"/>
<path d="M152.972 79.7861C152.972 79.7861 145.199 85.9527 137.297 86.5331" stroke="#D6830F" stroke-width="0.965295" stroke-miterlimit="10" stroke-linecap="round" stroke-linejoin="round"/>
<path d="M133.586 80.584C133.586 80.584 136.887 82.8435 146.961 81.8105" stroke="#D6830F" stroke-width="0.965295" stroke-miterlimit="10" stroke-linecap="round" stroke-linejoin="round"/>
<path d="M128.178 75.9088L118.047 83.3638L100.331 108.932V114.495C100.331 116.052 99.5204 117.496 98.191 118.307L97.2616 118.874C96.1937 119.526 94.8643 119.578 93.7485 119.012L89.4259 116.82C88.4749 116.338 87.9618 115.282 88.1715 114.236C88.3542 113.325 89.0514 112.603 89.956 112.391L90.3204 112.305C90.3204 112.305 90.9016 107.208 94.1663 106.229L106.017 78.7263C107.311 75.7208 109.428 73.1417 112.121 71.2837L115.2 69.1611L128.178 75.9088Z" fill="#FF734D"/>
<path d="M124.003 78.9927C124.057 77.3762 122.075 74.3753 119.92 71.6089L115.213 69.1621L112.135 71.2855C111.377 71.8086 110.669 72.3944 110.008 73.0258C112.201 77.4714 116.707 80.056 122.381 80.1867L124.003 78.9927Z" fill="#A34A32"/>
<path d="M112.332 68.3963C111.317 78.6974 123.794 80.584 123.794 80.584L134.337 72.8264C137.141 70.7626 138.076 66.9941 136.563 63.8586L132.11 54.6362L112.332 68.3963Z" fill="#EBA910"/>
<path d="M187.271 67.4097C183.851 65.6956 179.911 65.3335 176.236 66.396L174.391 66.9291" stroke="#A34A32" stroke-width="0.71243" stroke-miterlimit="10" stroke-linecap="round" stroke-linejoin="round"/>
<path d="M174.341 64.5326L176.592 66.6041L177.974 67.8747C179.488 69.2676 179.625 71.6107 178.283 73.1707L177.769 73.7681C176.473 75.2763 174.328 75.7351 172.528 74.8886L172.315 75.096C171.597 75.7947 170.472 75.8481 169.692 75.2206L166.596 73.057C165.427 72.2398 165.322 70.5482 166.38 69.5918C165.621 68.51 165.857 67.0219 166.914 66.228L169.491 64.2903C170.954 63.1915 172.993 63.2929 174.341 64.5326Z" fill="#FF734D"/>
<path d="M167.047 69.9849L171.762 74.0838" stroke="#A34A32" stroke-width="0.71243" stroke-miterlimit="10" stroke-linecap="round" stroke-linejoin="round"/>
<path d="M167.43 70.3322L167.497 70.0528C167.711 69.1676 168.213 68.379 168.922 67.808L171.991 65.3418" stroke="#A34A32" stroke-width="0.71243" stroke-miterlimit="10" stroke-linecap="round" stroke-linejoin="round"/>
<path d="M174.233 66.8008L170.411 69.8047C169.934 70.1793 169.593 70.6993 169.439 71.2858L169.281 71.8863" stroke="#A34A32" stroke-width="0.71243" stroke-miterlimit="10" stroke-linecap="round" stroke-linejoin="round"/>
<path d="M176.736 68.8242L172.901 71.5179C172.419 71.856 172.033 72.3142 171.781 72.8458L171.359 73.7372" stroke="#A34A32" stroke-width="0.71243" stroke-miterlimit="10" stroke-linecap="round" stroke-linejoin="round"/>
<path d="M174.508 73.4008C174.508 73.4008 175.949 73.2855 176.739 72.1968" stroke="#A34A32" stroke-width="0.71243" stroke-miterlimit="10" stroke-linecap="round" stroke-linejoin="round"/>
<path d="M176 72.8809C176 72.8809 176.584 73.6849 175.859 74.6281" stroke="#A34A32" stroke-width="0.71243" stroke-miterlimit="10" stroke-linecap="round" stroke-linejoin="round"/>
<path d="M113.645 67.4819L112.332 68.3958C111.316 78.6969 123.795 80.5835 123.795 80.5835L126.071 78.9082C117.453 76.9628 114.257 72.5365 113.645 67.4819Z" fill="white"/>
<path d="M175.585 101.222L172.503 100.156C163.365 103.986 156.652 113.897 157.074 121.745C157.252 122.002 157.401 122.285 157.505 122.591C158.242 124.762 160.024 125.488 160.024 125.488C160.024 125.488 156.868 111.415 175.585 101.222Z" fill="white"/>
<path d="M174.303 125.676L172.828 122.706C164.86 122.538 155.751 134.043 148.359 134.4C148.814 135.53 149.077 136.487 149.057 137.17C157.617 137.17 168.209 122.951 174.303 125.676Z" fill="white"/>
<path d="M220.939 151.389L217.701 150.705C214.478 150.025 211.703 147.991 210.087 145.121L196.477 120.97C194.198 123.163 189.584 127.219 183.828 130.252C186.127 133.574 188.998 136.497 192.327 138.884C197.287 142.441 202.025 146.517 206.515 151.167C208.043 152.748 209.194 154.657 209.898 156.74L211.473 161.4L220.939 151.389Z" fill="#F5FAFF"/>
<path d="M209.07 157.265L212.883 156.374C214.128 156.083 215.125 155.155 215.504 153.933L216.851 149.593L221.259 150.474C222.116 150.646 223.002 150.608 223.841 150.362L228.331 149.049L231.869 146.107C233.392 144.84 235.604 146.428 234.89 148.277L234.167 150.146C232.738 153.848 229.809 156.77 226.104 158.193L222.319 159.646C220.155 160.477 218.222 161.812 216.679 163.541L216.315 163.949C214.291 166.216 210.546 165.172 209.988 162.184L209.07 157.265Z" fill="#D93B67"/>
<path d="M215.703 153.341H218.494C219.449 153.341 220.244 152.607 220.321 151.656L220.482 149.665C220.543 148.911 219.925 148.276 219.169 148.316L216.805 148.44C216.122 148.477 215.592 149.049 215.61 149.733L215.703 153.341Z" fill="#D93B67"/>
<path d="M181.867 110.774C181.921 114.256 184.533 116.378 188.07 116.215" stroke="#A34A32" stroke-width="0.71243" stroke-miterlimit="10" stroke-linecap="round" stroke-linejoin="round"/>
<path d="M171.212 137.953C169.409 140.318 169.627 144.237 171.804 145.651" stroke="#A34A32" stroke-width="0.71243" stroke-miterlimit="10" stroke-linecap="round" stroke-linejoin="round"/>
<path d="M90.1641 116.277C90.1641 116.277 92.3045 115.297 93.6826 114.391" stroke="#A34A32" stroke-width="0.71243" stroke-miterlimit="10" stroke-linecap="round" stroke-linejoin="round"/>
<path d="M92.5 117.219C92.5 117.219 94.6404 116.239 96.0186 115.333" stroke="#A34A32" stroke-width="0.71243" stroke-miterlimit="10" stroke-linecap="round" stroke-linejoin="round"/>
<path d="M94.5781 118.337C94.5781 118.337 96.7185 117.358 98.0967 116.451" stroke="#A34A32" stroke-width="0.71243" stroke-miterlimit="10" stroke-linecap="round" stroke-linejoin="round"/>
<path d="M90.1562 112.896C90.1562 112.896 89.7685 113.957 90.0076 114.64" stroke="#A34A32" stroke-width="0.71243" stroke-miterlimit="10" stroke-linecap="round" stroke-linejoin="round"/>
<path d="M89.1484 114.292L89.9455 113.769" stroke="#A34A32" stroke-width="0.71243" stroke-miterlimit="10" stroke-linecap="round" stroke-linejoin="round"/>
<path d="M150.818 46.4688L147.04 51.2494C146.114 52.421 145.819 53.9709 146.248 55.4002C146.829 57.3332 148.608 58.6564 150.626 58.6564H151.751C153.47 58.6564 155.045 57.6915 155.825 56.1585L157.904 52.0743L150.818 46.4688Z" fill="#FF734D"/>
<path d="M156.248 53.7159L154.363 49.285L150.801 46.4668L148.016 49.9908C152.041 54.1052 156.248 53.7159 156.248 53.7159Z" fill="#0E2F4D"/>
<path d="M154.782 31.3516C159.045 30.7914 163.519 33.9184 163.777 38.21L163.934 40.8348L163.741 42.9458C164.202 45.1156 163.83 47.3798 162.699 49.288L161.638 51.0771C160.751 52.5744 159.204 53.5595 157.472 53.7305C155.783 53.8977 154.113 53.2709 152.951 52.0351L151.418 50.4054C149.786 48.6705 148.811 46.4218 148.66 44.0454L148.351 39.168C148.105 35.2764 150.916 31.8592 154.782 31.3516Z" fill="#FF734D"/>
<path d="M155.046 48.2624C156.292 48.2624 157.302 47.2522 157.302 46.006C157.302 44.7598 156.292 43.7495 155.046 43.7495C153.799 43.7495 152.789 44.7598 152.789 46.006C152.789 47.2522 153.799 48.2624 155.046 48.2624Z" fill="#FF5B45"/>
<path d="M160.133 43.7495C160.363 44.2788 160.688 44.7864 161.116 45.2701C161.454 45.6523 161.367 46.2451 160.921 46.4919L160.298 46.8363" stroke="#A34A32" stroke-width="0.71243" stroke-miterlimit="10" stroke-linecap="round" stroke-linejoin="round"/>
<path d="M149.511 43.1509L150.996 37.1568C150.996 37.1568 153.373 38.0545 154.626 36.7761C155.741 37.5925 157.428 37.3472 158.135 36.667C159.25 37.6738 160.91 37.5917 161.508 37.1019C162.269 37.755 164.201 38.0537 165.126 37.5376C166.052 37.0214 166.241 35.6332 165.806 34.953C167.113 33.8101 166.84 29.5394 163.439 30.1104C160.583 27.7162 158.08 27.5259 157.019 28.6688C154.054 27.4446 151.214 28.0706 150.539 29.975C147.416 29.8938 146.001 31.4716 146.328 33.5385C144.206 35.035 145.376 36.9115 146.627 37.211L147.144 42.9783L149.511 43.1509Z" fill="#0E2F4D"/>
<path d="M154.033 39.1895L148.997 40.6272C148.3 40.8261 147.861 41.5117 147.97 42.2275L148.111 43.1514H154.033V39.1895Z" fill="#E1F1FF"/>
<path d="M162.552 38.7612H155.069C153.45 38.7612 152.004 39.9444 151.851 41.5563C151.674 43.4049 153.123 44.9603 154.936 44.9603H157.677C158.266 44.9603 158.84 44.7707 159.314 44.4194C159.75 44.0959 160.346 44.0959 160.782 44.4194C161.256 44.7707 161.83 44.9603 162.419 44.9603C163.919 44.9603 165.303 43.9574 165.591 42.4856C165.979 40.5 164.468 38.7612 162.552 38.7612Z" fill="#E1F1FF"/>
<path d="M150.322 43.5237L149.144 42.6446C148.295 42.0109 147.104 42.1223 146.387 42.9031C145.688 43.6645 145.66 44.826 146.321 45.6208L147.92 47.5414C148.512 48.2518 149.578 48.3222 150.258 47.6954L150.817 47.1792L150.322 43.5237Z" fill="#FF734D"/>
<path d="M146.727 44.96L146.775 44.2775C146.836 43.4332 147.832 43.0192 148.473 43.5725L148.904 43.9447C149.378 44.3541 149.56 44.9909 149.43 45.6046C149.261 46.4086 149.522 46.7815 150.343 46.4681" stroke="#A34A32" stroke-width="0.71243" stroke-miterlimit="10" stroke-linecap="round" stroke-linejoin="round"/>
<path d="M147.953 45.0488L148.333 43.4756" stroke="#A34A32" stroke-width="0.71243" stroke-miterlimit="10" stroke-linecap="round" stroke-linejoin="round"/>
<path d="M160.736 48.2832C159.675 49.0175 156.882 48.9363 155.703 47.1333" stroke="#A34A32" stroke-width="0.71243" stroke-miterlimit="10" stroke-linecap="round" stroke-linejoin="round"/>
<path d="M156.258 46.54L155.297 47.4833" stroke="#A34A32" stroke-width="0.71243" stroke-miterlimit="10" stroke-linecap="round" stroke-linejoin="round"/>
<path d="M162.305 41.5439H157.412C157.029 41.5439 156.719 41.2336 156.719 40.8506C156.719 40.4675 157.029 40.1572 157.412 40.1572H162.305C162.688 40.1572 162.998 40.4675 162.998 40.8506C162.999 41.2336 162.688 41.5439 162.305 41.5439Z" fill="#38A5FF"/>
<path d="M226.882 131.842C234.311 131.842 240.334 125.819 240.334 118.39C240.334 110.961 234.311 104.938 226.882 104.938C219.452 104.938 213.43 110.961 213.43 118.39C213.43 125.819 219.452 131.842 226.882 131.842Z" fill="#F5FAFF"/>
<path d="M238.509 111.653C237.857 111.566 237.162 111.488 236.427 111.419C236.413 111.381 236.399 111.344 236.384 111.306C234.817 110.031 233.082 108.816 231.371 107.773C231.332 107.771 231.292 107.77 231.252 107.768C230.8 106.819 230.351 105.988 229.917 105.296C228.939 105.07 227.925 104.938 226.878 104.938C225.831 104.938 224.816 105.07 223.838 105.296C223.404 105.989 222.955 106.819 222.503 107.768C222.464 107.77 222.424 107.771 222.384 107.773C220.674 108.816 218.939 110.031 217.372 111.306C217.358 111.344 217.344 111.381 217.33 111.419C216.594 111.488 215.9 111.566 215.247 111.653C214.106 113.619 213.441 115.895 213.43 118.329C213.853 118.793 214.32 119.277 214.838 119.779C214.829 119.817 214.82 119.854 214.812 119.892C215.313 121.818 215.914 123.8 216.613 125.675C216.643 125.7 216.674 125.725 216.704 125.75C216.618 126.14 216.536 126.519 216.457 126.892C218.05 128.843 220.183 130.331 222.624 131.145C223.017 130.942 223.417 130.734 223.833 130.512C223.849 130.52 223.866 130.529 223.882 130.538C223.899 130.547 223.916 130.555 223.932 130.564C225.886 130.608 227.872 130.608 229.826 130.564C229.859 130.547 229.892 130.529 229.925 130.512C230.342 130.735 230.742 130.943 231.134 131.145C233.575 130.331 235.708 128.843 237.301 126.893C237.222 126.52 237.141 126.14 237.054 125.751C237.07 125.739 237.085 125.726 237.1 125.713C237.115 125.701 237.13 125.688 237.145 125.675C237.844 123.8 238.445 121.819 238.946 119.893C238.938 119.855 238.929 119.817 238.92 119.78C239.438 119.277 239.905 118.794 240.328 118.33C240.316 115.894 239.651 113.619 238.509 111.653ZM231.086 108.069C231.151 108.071 231.215 108.074 231.28 108.076C232.928 109.099 234.596 110.273 236.116 111.5C236.139 111.561 236.161 111.622 236.185 111.683C235.84 113.146 235.436 114.72 234.977 116.356C233.887 116.718 232.725 117.102 231.52 117.498C230.074 116.417 228.566 115.319 227.082 114.265C227.081 112.989 227.078 111.755 227.076 110.604C228.484 109.672 229.835 108.824 231.086 108.069ZM217.64 111.5C219.16 110.274 220.828 109.1 222.476 108.077C222.541 108.075 222.605 108.072 222.67 108.069C223.92 108.825 225.271 109.673 226.681 110.604C226.677 111.756 226.676 112.99 226.674 114.266C225.191 115.32 223.683 116.419 222.237 117.5C221.032 117.104 219.869 116.72 218.78 116.358C218.319 114.721 217.917 113.147 217.572 111.685C217.594 111.623 217.617 111.562 217.64 111.5ZM217.017 125.609C216.968 125.568 216.918 125.527 216.869 125.486C216.195 123.675 215.606 121.764 215.11 119.903C215.125 119.841 215.14 119.78 215.155 119.718C216.178 118.79 217.363 117.778 218.661 116.732C219.748 117.1 220.909 117.488 222.114 117.887C222.657 119.622 223.239 121.384 223.827 123.069C223.093 124.074 222.391 125.036 221.732 125.935C220.061 125.864 218.465 125.755 217.017 125.609ZM229.893 130.215C229.839 130.244 229.785 130.273 229.732 130.301C227.84 130.345 225.917 130.345 224.025 130.301C223.971 130.273 223.918 130.243 223.864 130.215C223.272 129.065 222.657 127.677 222.052 126.16C222.715 125.265 223.421 124.306 224.158 123.304C225.956 123.331 227.8 123.331 229.599 123.304C230.335 124.306 231.042 125.264 231.704 126.16C231.099 127.678 230.484 129.065 229.893 130.215ZM236.886 125.486C236.837 125.528 236.787 125.569 236.738 125.61C235.291 125.755 233.694 125.864 232.022 125.937C231.364 125.038 230.661 124.076 229.928 123.071C230.516 121.385 231.097 119.623 231.64 117.888C232.845 117.489 234.006 117.101 235.094 116.734C236.391 117.778 237.577 118.791 238.6 119.72C238.614 119.781 238.629 119.843 238.644 119.904C238.149 121.765 237.56 123.675 236.886 125.486Z" fill="#202838"/>
<path opacity="0.23" d="M228.567 128.413C221.62 128.413 215.988 122.781 215.988 115.834C215.988 112.478 217.31 109.436 219.453 107.18C215.825 109.59 213.43 113.709 213.43 118.391C213.43 125.821 219.452 131.843 226.882 131.843C233.469 131.843 238.941 127.105 240.099 120.852C238.16 125.3 233.729 128.413 228.567 128.413Z" fill="#202838"/>
<path d="M226.684 146.619C226.47 146.619 226.297 146.446 226.297 146.232V135.754C226.297 135.541 226.47 135.367 226.684 135.367C226.897 135.367 227.071 135.541 227.071 135.754V146.232C227.071 146.447 226.897 146.619 226.684 146.619Z" fill="#78AFFF"/>
<path d="M223.629 144.297C223.416 144.297 223.242 144.124 223.242 143.911V134.447C223.242 134.234 223.416 134.061 223.629 134.061C223.843 134.061 224.016 134.234 224.016 134.447V143.911C224.016 144.125 223.843 144.297 223.629 144.297Z" fill="#78AFFF"/>
<path d="M229.723 144.297C229.509 144.297 229.336 144.124 229.336 143.911V134.447C229.336 134.234 229.509 134.061 229.723 134.061C229.936 134.061 230.11 134.234 230.11 134.447V143.911C230.11 144.125 229.936 144.297 229.723 144.297Z" fill="#78AFFF"/>
</mask>
<g mask="url(#mask1_15934_3443)">
<path d="M116.18 102.493C116.153 107.428 136.383 108.514 136.383 108.514L132.031 93.9321C132.031 93.9321 116.216 95.8187 116.18 102.493Z" fill="#202838"/>
<path d="M180.683 60.2725C182.056 60.8165 180.683 64.1215 180.683 64.1215L176.344 62.5878C176.344 62.5878 178.255 59.3106 180.683 60.2725Z" fill="#202838"/>
<path d="M170.984 73.2032L182.246 77.8059C186.331 79.4758 190.981 77.385 192.444 73.221C193.889 69.1059 191.639 64.6115 187.478 63.3038L177.948 60.3091L170.984 73.2032Z" fill="#FF734D"/>
<path d="M179.468 60.9316C178.333 62.8128 177.635 63.9557 177.228 66.1394L174.234 67.1207C174.234 67.1207 176.033 63.0124 179.468 60.9316Z" fill="#092F53"/>
<path d="M175.927 65.9917L171.578 73.4366L176.803 75.5724C178.798 76.388 181.016 74.8991 180.951 72.7448C180.855 69.5397 178.704 67.2747 175.927 65.9917Z" fill="#092F53"/>
<path d="M158.758 50.1485C158.758 50.1485 165.338 50.0796 169.957 55.4786C170.874 56.5495 172.083 57.3357 173.418 57.7892C177.514 59.1797 180.682 60.2708 180.682 60.2708C180.682 60.2708 176.366 61.2799 172.703 73.4018L160.37 66.945L158.758 50.1485Z" fill="#EBA910"/>
<path d="M171.07 72.55L172.697 73.4012C176.36 61.2793 180.677 60.2702 180.677 60.2702C180.677 60.2702 179.86 59.9886 178.522 59.5312C175.724 61.4379 171.933 67.5589 171.07 72.55Z" fill="white"/>
<path d="M162.289 59.6841C162.289 59.6841 164.785 67.8254 170.139 72.0613L160.367 66.9456L162.289 59.6841Z" fill="#202838"/>
<path d="M172.344 121.75L178.849 134.842C180.738 138.644 180.461 143.163 178.122 146.706L156.615 179.271C155.949 180.279 155.696 181.505 155.907 182.695L156.738 187.371C156.738 187.371 150.731 192.481 143.477 182.905L144.886 181.459C147.011 179.279 148.599 176.643 149.529 173.745C150.81 169.755 152.615 163.747 153.71 158.437C154.622 154.014 156.806 149.957 160.01 146.774L163.982 142.828L151.873 130.326L172.344 121.75Z" fill="#FF734D"/>
<path d="M173.093 123.253L162.829 125.737L151.875 130.326L158.139 136.793C163.212 134 168.167 125.49 174.297 125.675L173.093 123.253Z" fill="#092F53"/>
<path d="M168.202 113.41L174.296 125.674C168.202 122.95 157.611 137.169 149.05 137.169C149.196 132.236 134.977 113.41 134.977 113.41H168.202Z" fill="#EBA910"/>
<path d="M151.874 121.749C156.367 122.224 156.305 125.084 160.005 125.489L161.787 114.618L155.756 113.411H134.977C134.977 113.411 137.522 116.782 140.447 121.042C143.285 121.159 148.675 121.411 151.874 121.749Z" fill="#202838"/>
<path d="M170.293 158.561C163.902 156.984 159.676 154.436 157.317 150.02C155.574 152.547 154.336 155.402 153.71 158.438C152.615 163.748 150.81 169.756 149.529 173.745C148.599 176.643 147.011 179.28 144.886 181.46L143.477 182.906C150.731 192.482 156.738 187.372 156.738 187.372L155.907 182.695C155.696 181.505 155.949 180.28 156.615 179.272L170.293 158.561Z" fill="#F5FAFF"/>
<path d="M145.5 180.159L148.289 182.906C149.2 183.803 150.518 184.151 151.752 183.819L156.141 182.639L157.751 186.836C158.063 187.652 158.569 188.38 159.225 188.958L162.733 192.053L167.109 193.471C168.994 194.083 168.833 196.8 166.889 197.184L164.922 197.572C161.03 198.341 156.995 197.426 153.813 195.054L150.563 192.631C148.705 191.246 146.543 190.324 144.257 189.943L143.717 189.854C140.72 189.354 139.602 185.63 141.83 183.562L145.5 180.159Z" fill="#D93B67"/>
<path d="M152.336 183.656L153.827 186.015C154.337 186.822 155.382 187.103 156.227 186.66L157.996 185.733C158.667 185.381 158.874 184.519 158.437 183.902L157.068 181.97C156.672 181.412 155.906 181.27 155.337 181.65L152.336 183.656Z" fill="#D93B67"/>
<path d="M160.007 125.489C162.51 127.013 168.66 118.742 169.72 115.696L159.572 113.411C159.572 113.411 156.962 123.636 160.007 125.489Z" fill="#202838"/>
<path d="M156.75 118.634L179.275 120.919C181.537 128.182 186.158 134.452 192.34 138.884C197.3 142.441 202.037 146.517 206.528 151.166C208.055 152.748 209.207 154.657 209.911 156.74L211.485 161.399L220.952 151.388L217.713 150.704C214.49 150.024 211.716 147.99 210.1 145.121L192.659 114.172L192.133 112.068C191.563 109.787 189.996 107.888 187.861 106.905C183.684 104.982 176.223 101.739 168.828 99.4814C168.829 99.4822 157.839 106.882 156.75 118.634Z" fill="#FF734D"/>
<path d="M174.972 101.558C172.967 100.823 170.896 100.113 168.829 99.4824C168.829 99.4824 157.838 106.882 156.75 118.634L164.499 119.421C163.13 113.884 169.745 103.8 174.972 101.558Z" fill="#092F53"/>
<path d="M128.546 91.8653L128.188 100.288C127.814 109.106 133.941 116.851 142.597 118.571C146.577 119.362 150.784 120.036 154.451 120.279C155.834 120.371 157.029 121.28 157.475 122.593C158.212 124.764 159.994 125.49 159.994 125.49C159.994 125.49 156.838 111.417 175.554 101.224L161.104 96.2258C159.298 95.6013 157.867 94.2014 157.203 92.4093L155.749 88.4922C155.749 88.4922 135.183 88.7096 128.546 91.8653Z" fill="#EBA910"/>
<path d="M156.58 90.7183L155.754 88.4912C155.754 88.4912 135.187 88.7086 128.549 91.8643L128.192 100.287C128.191 100.302 128.19 100.317 128.19 100.331C128.086 102.942 131.027 104.581 133.235 103.185C138.786 99.6737 140.954 90.9071 156.58 90.7183Z" fill="#D6830F"/>
<path d="M135.275 53.2508C141.15 51.6057 150.353 49.6448 159.298 50.2662C161.994 50.4535 164.052 52.7347 163.978 55.4369C163.808 61.6197 162.603 72.5004 156.591 78.2615C158.115 81.3808 155.503 84.7902 155.503 84.7902C155.503 84.7902 157.897 87.4019 156.664 90.7386C151.15 88.4899 140.834 91.2942 135.045 95.8164C125.76 103.071 117.707 96.6869 116.184 102.491C116.184 102.491 115.735 99.9377 118.042 98.175C119.493 97.0661 120.418 95.4225 120.497 93.5986C120.608 91.0125 121.22 89.5964 121.724 88.8566C122.154 88.226 122.337 87.4669 122.297 86.7054C122.132 83.4917 122.287 74.8652 126.869 61.1972C128.169 57.3173 131.333 54.3551 135.275 53.2508Z" fill="#EBA910"/>
<path d="M148.322 50.8149C144.044 51.314 143.893 54.6353 145.143 57.1812C146.337 59.6125 150.042 60.8761 152.816 60.3074C155.591 59.7386 156.872 56.5783 155.83 54.9502C154.787 53.3221 153.685 50.1889 148.322 50.8149Z" fill="white"/>
<path d="M123.565 73.4429C122.875 76.8964 122.534 79.7495 122.379 81.9944C122.287 83.34 123.752 84.2524 124.899 83.542C128.925 81.048 131.944 76.2905 133.613 73.1457C134.275 71.8983 133.199 70.4435 131.816 70.726L124.862 72.1467C124.211 72.2798 123.696 72.7905 123.565 73.4429Z" fill="#202838"/>
<path d="M152.972 79.7861C152.972 79.7861 145.199 85.9527 137.297 86.5331" stroke="#D6830F" stroke-width="0.965295" stroke-miterlimit="10" stroke-linecap="round" stroke-linejoin="round"/>
<path d="M133.586 80.584C133.586 80.584 136.887 82.8435 146.961 81.8105" stroke="#D6830F" stroke-width="0.965295" stroke-miterlimit="10" stroke-linecap="round" stroke-linejoin="round"/>
<path d="M128.178 75.9088L118.047 83.3638L100.331 108.932V114.495C100.331 116.052 99.5204 117.496 98.191 118.307L97.2616 118.874C96.1937 119.526 94.8643 119.578 93.7485 119.012L89.4259 116.82C88.4749 116.338 87.9618 115.282 88.1715 114.236C88.3542 113.325 89.0514 112.603 89.956 112.391L90.3204 112.305C90.3204 112.305 90.9016 107.208 94.1663 106.229L106.017 78.7263C107.311 75.7208 109.428 73.1417 112.121 71.2837L115.2 69.1611L128.178 75.9088Z" fill="#FF734D"/>
<path d="M124.003 78.9927C124.057 77.3762 122.075 74.3753 119.92 71.6089L115.213 69.1621L112.135 71.2855C111.377 71.8086 110.669 72.3944 110.008 73.0258C112.201 77.4714 116.707 80.056 122.381 80.1867L124.003 78.9927Z" fill="#092F53"/>
<path d="M112.332 68.3963C111.317 78.6974 123.794 80.584 123.794 80.584L134.337 72.8264C137.141 70.7626 138.076 66.9941 136.563 63.8586L132.11 54.6362L112.332 68.3963Z" fill="#EBA910"/>
<path d="M187.271 67.4097C183.851 65.6956 179.911 65.3335 176.236 66.396L174.391 66.9291" stroke="#092F53" stroke-width="0.71243" stroke-miterlimit="10" stroke-linecap="round" stroke-linejoin="round"/>
<path d="M174.341 64.5326L176.592 66.6041L177.974 67.8747C179.488 69.2676 179.625 71.6107 178.283 73.1707L177.769 73.7681C176.473 75.2763 174.328 75.7351 172.528 74.8886L172.315 75.096C171.597 75.7947 170.472 75.8481 169.692 75.2206L166.596 73.057C165.427 72.2398 165.322 70.5482 166.38 69.5918C165.621 68.51 165.857 67.0219 166.914 66.228L169.491 64.2903C170.954 63.1915 172.993 63.2929 174.341 64.5326Z" fill="#FF734D"/>
<path d="M167.047 69.9849L171.762 74.0838" stroke="#092F53" stroke-width="0.71243" stroke-miterlimit="10" stroke-linecap="round" stroke-linejoin="round"/>
<path d="M167.43 70.3322L167.497 70.0528C167.711 69.1676 168.213 68.379 168.922 67.808L171.991 65.3418" stroke="#092F53" stroke-width="0.71243" stroke-miterlimit="10" stroke-linecap="round" stroke-linejoin="round"/>
<path d="M174.233 66.8008L170.411 69.8047C169.934 70.1793 169.593 70.6993 169.439 71.2858L169.281 71.8863" stroke="#092F53" stroke-width="0.71243" stroke-miterlimit="10" stroke-linecap="round" stroke-linejoin="round"/>
<path d="M176.736 68.8242L172.901 71.5179C172.419 71.856 172.033 72.3142 171.781 72.8458L171.359 73.7372" stroke="#092F53" stroke-width="0.71243" stroke-miterlimit="10" stroke-linecap="round" stroke-linejoin="round"/>
<path d="M174.508 73.4008C174.508 73.4008 175.949 73.2855 176.739 72.1968" stroke="#092F53" stroke-width="0.71243" stroke-miterlimit="10" stroke-linecap="round" stroke-linejoin="round"/>
<path d="M176 72.8809C176 72.8809 176.584 73.6849 175.859 74.6281" stroke="#092F53" stroke-width="0.71243" stroke-miterlimit="10" stroke-linecap="round" stroke-linejoin="round"/>
<path d="M113.645 67.4819L112.332 68.3958C111.316 78.6969 123.795 80.5835 123.795 80.5835L126.071 78.9082C117.453 76.9628 114.257 72.5365 113.645 67.4819Z" fill="white"/>
<path d="M175.585 101.222L172.503 100.156C163.365 103.986 156.652 113.897 157.074 121.745C157.252 122.002 157.401 122.285 157.505 122.591C158.242 124.762 160.024 125.488 160.024 125.488C160.024 125.488 156.868 111.415 175.585 101.222Z" fill="white"/>
<path d="M174.303 125.676L172.828 122.706C164.86 122.538 155.751 134.043 148.359 134.4C148.814 135.53 149.077 136.487 149.057 137.17C157.617 137.17 168.209 122.951 174.303 125.676Z" fill="white"/>
<path d="M220.939 151.389L217.701 150.705C214.478 150.025 211.703 147.991 210.087 145.121L196.477 120.97C194.198 123.163 189.584 127.219 183.828 130.252C186.127 133.574 188.998 136.497 192.327 138.884C197.287 142.441 202.025 146.517 206.515 151.167C208.043 152.748 209.194 154.657 209.898 156.74L211.473 161.4L220.939 151.389Z" fill="#F5FAFF"/>
<path d="M209.07 157.265L212.883 156.374C214.128 156.083 215.125 155.155 215.504 153.933L216.851 149.593L221.259 150.474C222.116 150.646 223.002 150.608 223.841 150.362L228.331 149.049L231.869 146.107C233.392 144.84 235.604 146.428 234.89 148.277L234.167 150.146C232.738 153.848 229.809 156.77 226.104 158.193L222.319 159.646C220.155 160.477 218.222 161.812 216.679 163.541L216.315 163.949C214.291 166.216 210.546 165.172 209.988 162.184L209.07 157.265Z" fill="#D93B67"/>
<path d="M215.703 153.341H218.494C219.449 153.341 220.244 152.607 220.321 151.656L220.482 149.665C220.543 148.911 219.925 148.276 219.169 148.316L216.805 148.44C216.122 148.477 215.592 149.049 215.61 149.733L215.703 153.341Z" fill="#D93B67"/>
<path d="M181.867 110.774C181.921 114.256 184.533 116.378 188.07 116.215" stroke="#092F53" stroke-width="0.71243" stroke-miterlimit="10" stroke-linecap="round" stroke-linejoin="round"/>
<path d="M171.212 137.953C169.409 140.318 169.627 144.237 171.804 145.651" stroke="#092F53" stroke-width="0.71243" stroke-miterlimit="10" stroke-linecap="round" stroke-linejoin="round"/>
<path d="M90.1641 116.277C90.1641 116.277 92.3045 115.297 93.6826 114.391" stroke="#092F53" stroke-width="0.71243" stroke-miterlimit="10" stroke-linecap="round" stroke-linejoin="round"/>
<path d="M92.5 117.219C92.5 117.219 94.6404 116.239 96.0186 115.333" stroke="#092F53" stroke-width="0.71243" stroke-miterlimit="10" stroke-linecap="round" stroke-linejoin="round"/>
<path d="M94.5781 118.337C94.5781 118.337 96.7185 117.358 98.0967 116.451" stroke="#092F53" stroke-width="0.71243" stroke-miterlimit="10" stroke-linecap="round" stroke-linejoin="round"/>
<path d="M90.1562 112.896C90.1562 112.896 89.7685 113.957 90.0076 114.64" stroke="#092F53" stroke-width="0.71243" stroke-miterlimit="10" stroke-linecap="round" stroke-linejoin="round"/>
<path d="M89.1484 114.292L89.9455 113.769" stroke="#092F53" stroke-width="0.71243" stroke-miterlimit="10" stroke-linecap="round" stroke-linejoin="round"/>
<path d="M150.818 46.4688L147.04 51.2494C146.114 52.421 145.819 53.9709 146.248 55.4002C146.829 57.3332 148.608 58.6564 150.626 58.6564H151.751C153.47 58.6564 155.045 57.6915 155.825 56.1585L157.904 52.0743L150.818 46.4688Z" fill="#FF734D"/>
<path d="M156.248 53.7159L154.363 49.285L150.801 46.4668L148.016 49.9908C152.041 54.1052 156.248 53.7159 156.248 53.7159Z" fill="#0E2F4D"/>
<path d="M154.782 31.3516C159.045 30.7914 163.519 33.9184 163.777 38.21L163.934 40.8348L163.741 42.9458C164.202 45.1156 163.83 47.3798 162.699 49.288L161.638 51.0771C160.751 52.5744 159.204 53.5595 157.472 53.7305C155.783 53.8977 154.113 53.2709 152.951 52.0351L151.418 50.4054C149.786 48.6705 148.811 46.4218 148.66 44.0454L148.351 39.168C148.105 35.2764 150.916 31.8592 154.782 31.3516Z" fill="#FF734D"/>
<path d="M155.046 48.2624C156.292 48.2624 157.302 47.2522 157.302 46.006C157.302 44.7598 156.292 43.7495 155.046 43.7495C153.799 43.7495 152.789 44.7598 152.789 46.006C152.789 47.2522 153.799 48.2624 155.046 48.2624Z" fill="#FF5B45"/>
<path d="M160.133 43.7495C160.363 44.2788 160.688 44.7864 161.116 45.2701C161.454 45.6523 161.367 46.2451 160.921 46.4919L160.298 46.8363" stroke="#092F53" stroke-width="0.71243" stroke-miterlimit="10" stroke-linecap="round" stroke-linejoin="round"/>
<path d="M149.511 43.1509L150.996 37.1568C150.996 37.1568 153.373 38.0545 154.626 36.7761C155.741 37.5925 157.428 37.3472 158.135 36.667C159.25 37.6738 160.91 37.5917 161.508 37.1019C162.269 37.755 164.201 38.0537 165.126 37.5376C166.052 37.0214 166.241 35.6332 165.806 34.953C167.113 33.8101 166.84 29.5394 163.439 30.1104C160.583 27.7162 158.08 27.5259 157.019 28.6688C154.054 27.4446 151.214 28.0706 150.539 29.975C147.416 29.8938 146.001 31.4716 146.328 33.5385C144.206 35.035 145.376 36.9115 146.627 37.211L147.144 42.9783L149.511 43.1509Z" fill="#0E2F4D"/>
<path d="M154.033 39.1895L148.997 40.6272C148.3 40.8261 147.861 41.5117 147.97 42.2275L148.111 43.1514H154.033V39.1895Z" fill="#E1F1FF"/>
<path d="M162.552 38.7612H155.069C153.45 38.7612 152.004 39.9444 151.851 41.5563C151.674 43.4049 153.123 44.9603 154.936 44.9603H157.677C158.266 44.9603 158.84 44.7707 159.314 44.4194C159.75 44.0959 160.346 44.0959 160.782 44.4194C161.256 44.7707 161.83 44.9603 162.419 44.9603C163.919 44.9603 165.303 43.9574 165.591 42.4856C165.979 40.5 164.468 38.7612 162.552 38.7612Z" fill="#E1F1FF"/>
<path d="M150.322 43.5237L149.144 42.6446C148.295 42.0109 147.104 42.1223 146.387 42.9031C145.688 43.6645 145.66 44.826 146.321 45.6208L147.92 47.5414C148.512 48.2518 149.578 48.3222 150.258 47.6954L150.817 47.1792L150.322 43.5237Z" fill="#FF734D"/>
<path d="M146.727 44.96L146.775 44.2775C146.836 43.4332 147.832 43.0192 148.473 43.5725L148.904 43.9447C149.378 44.3541 149.56 44.9909 149.43 45.6046C149.261 46.4086 149.522 46.7815 150.343 46.4681" stroke="#092F53" stroke-width="0.71243" stroke-miterlimit="10" stroke-linecap="round" stroke-linejoin="round"/>
<path d="M147.953 45.0488L148.333 43.4756" stroke="#092F53" stroke-width="0.71243" stroke-miterlimit="10" stroke-linecap="round" stroke-linejoin="round"/>
<path d="M160.736 48.2832C159.675 49.0175 156.882 48.9363 155.703 47.1333" stroke="#092F53" stroke-width="0.71243" stroke-miterlimit="10" stroke-linecap="round" stroke-linejoin="round"/>
<path d="M156.258 46.54L155.297 47.4833" stroke="#092F53" stroke-width="0.71243" stroke-miterlimit="10" stroke-linecap="round" stroke-linejoin="round"/>
<path d="M162.305 41.5439H157.412C157.029 41.5439 156.719 41.2336 156.719 40.8506C156.719 40.4675 157.029 40.1572 157.412 40.1572H162.305C162.688 40.1572 162.998 40.4675 162.998 40.8506C162.999 41.2336 162.688 41.5439 162.305 41.5439Z" fill="#38A5FF"/>
<path d="M226.882 131.842C234.311 131.842 240.334 125.819 240.334 118.39C240.334 110.961 234.311 104.938 226.882 104.938C219.452 104.938 213.43 110.961 213.43 118.39C213.43 125.819 219.452 131.842 226.882 131.842Z" fill="#F5FAFF"/>
<path d="M238.509 111.653C237.857 111.566 237.162 111.488 236.427 111.419C236.413 111.381 236.399 111.344 236.384 111.306C234.817 110.031 233.082 108.816 231.371 107.773C231.332 107.771 231.292 107.77 231.252 107.768C230.8 106.819 230.351 105.988 229.917 105.296C228.939 105.07 227.925 104.938 226.878 104.938C225.831 104.938 224.816 105.07 223.838 105.296C223.404 105.989 222.955 106.819 222.503 107.768C222.464 107.77 222.424 107.771 222.384 107.773C220.674 108.816 218.939 110.031 217.372 111.306C217.358 111.344 217.344 111.381 217.33 111.419C216.594 111.488 215.9 111.566 215.247 111.653C214.106 113.619 213.441 115.895 213.43 118.329C213.853 118.793 214.32 119.277 214.838 119.779C214.829 119.817 214.82 119.854 214.812 119.892C215.313 121.818 215.914 123.8 216.613 125.675C216.643 125.7 216.674 125.725 216.704 125.75C216.618 126.14 216.536 126.519 216.457 126.892C218.05 128.843 220.183 130.331 222.624 131.145C223.017 130.942 223.417 130.734 223.833 130.512C223.849 130.52 223.866 130.529 223.882 130.538C223.899 130.547 223.916 130.555 223.932 130.564C225.886 130.608 227.872 130.608 229.826 130.564C229.859 130.547 229.892 130.529 229.925 130.512C230.342 130.735 230.742 130.943 231.134 131.145C233.575 130.331 235.708 128.843 237.301 126.893C237.222 126.52 237.141 126.14 237.054 125.751C237.07 125.739 237.085 125.726 237.1 125.713C237.115 125.701 237.13 125.688 237.145 125.675C237.844 123.8 238.445 121.819 238.946 119.893C238.938 119.855 238.929 119.817 238.92 119.78C239.438 119.277 239.905 118.794 240.328 118.33C240.316 115.894 239.651 113.619 238.509 111.653ZM231.086 108.069C231.151 108.071 231.215 108.074 231.28 108.076C232.928 109.099 234.596 110.273 236.116 111.5C236.139 111.561 236.161 111.622 236.185 111.683C235.84 113.146 235.436 114.72 234.977 116.356C233.887 116.718 232.725 117.102 231.52 117.498C230.074 116.417 228.566 115.319 227.082 114.265C227.081 112.989 227.078 111.755 227.076 110.604C228.484 109.672 229.835 108.824 231.086 108.069ZM217.64 111.5C219.16 110.274 220.828 109.1 222.476 108.077C222.541 108.075 222.605 108.072 222.67 108.069C223.92 108.825 225.271 109.673 226.681 110.604C226.677 111.756 226.676 112.99 226.674 114.266C225.191 115.32 223.683 116.419 222.237 117.5C221.032 117.104 219.869 116.72 218.78 116.358C218.319 114.721 217.917 113.147 217.572 111.685C217.594 111.623 217.617 111.562 217.64 111.5ZM217.017 125.609C216.968 125.568 216.918 125.527 216.869 125.486C216.195 123.675 215.606 121.764 215.11 119.903C215.125 119.841 215.14 119.78 215.155 119.718C216.178 118.79 217.363 117.778 218.661 116.732C219.748 117.1 220.909 117.488 222.114 117.887C222.657 119.622 223.239 121.384 223.827 123.069C223.093 124.074 222.391 125.036 221.732 125.935C220.061 125.864 218.465 125.755 217.017 125.609ZM229.893 130.215C229.839 130.244 229.785 130.273 229.732 130.301C227.84 130.345 225.917 130.345 224.025 130.301C223.971 130.273 223.918 130.243 223.864 130.215C223.272 129.065 222.657 127.677 222.052 126.16C222.715 125.265 223.421 124.306 224.158 123.304C225.956 123.331 227.8 123.331 229.599 123.304C230.335 124.306 231.042 125.264 231.704 126.16C231.099 127.678 230.484 129.065 229.893 130.215ZM236.886 125.486C236.837 125.528 236.787 125.569 236.738 125.61C235.291 125.755 233.694 125.864 232.022 125.937C231.364 125.038 230.661 124.076 229.928 123.071C230.516 121.385 231.097 119.623 231.64 117.888C232.845 117.489 234.006 117.101 235.094 116.734C236.391 117.778 237.577 118.791 238.6 119.72C238.614 119.781 238.629 119.843 238.644 119.904C238.149 121.765 237.56 123.675 236.886 125.486Z" fill="#202838"/>
<path opacity="0.23" d="M228.567 128.413C221.62 128.413 215.988 122.781 215.988 115.834C215.988 112.478 217.31 109.436 219.453 107.18C215.825 109.59 213.43 113.709 213.43 118.391C213.43 125.821 219.452 131.843 226.882 131.843C233.469 131.843 238.941 127.105 240.099 120.852C238.16 125.3 233.729 128.413 228.567 128.413Z" fill="#202838"/>
<path d="M226.684 146.618C226.47 146.618 226.297 146.445 226.297 146.231V135.753C226.297 135.54 226.47 135.366 226.684 135.366C226.897 135.366 227.071 135.54 227.071 135.753V146.231C227.071 146.446 226.897 146.618 226.684 146.618Z" fill="#78AFFF"/>
<path d="M223.629 144.297C223.416 144.297 223.242 144.124 223.242 143.911V134.447C223.242 134.234 223.416 134.061 223.629 134.061C223.843 134.061 224.016 134.234 224.016 134.447V143.911C224.016 144.125 223.843 144.297 223.629 144.297Z" fill="#78AFFF"/>
<path d="M229.723 144.297C229.509 144.297 229.336 144.124 229.336 143.911V134.447C229.336 134.234 229.509 134.061 229.723 134.061C229.936 134.061 230.11 134.234 230.11 134.447V143.911C230.11 144.125 229.936 144.297 229.723 144.297Z" fill="#78AFFF"/>
<g style="mix-blend-mode:color">
<path d="M116.18 102.493C116.153 107.428 136.383 108.514 136.383 108.514L132.031 93.9321C132.031 93.9321 116.216 95.8187 116.18 102.493Z" fill="#A6CCF0"/>
<path d="M180.683 60.2725C182.056 60.8165 180.683 64.1215 180.683 64.1215L176.344 62.5878C176.344 62.5878 178.255 59.3106 180.683 60.2725Z" fill="#A6CCF0"/>
<path d="M170.984 73.2032L182.246 77.8059C186.331 79.4758 190.981 77.385 192.444 73.221C193.889 69.1059 191.639 64.6115 187.478 63.3038L177.948 60.3091L170.984 73.2032Z" fill="#A6CCF0"/>
<path d="M179.468 60.9316C178.333 62.8128 177.635 63.9557 177.228 66.1394L174.234 67.1207C174.234 67.1207 176.033 63.0124 179.468 60.9316Z" fill="#A6CCF0"/>
<path d="M175.927 65.9917L171.578 73.4366L176.803 75.5724C178.798 76.388 181.016 74.8991 180.951 72.7448C180.855 69.5397 178.704 67.2747 175.927 65.9917Z" fill="#A6CCF0"/>
<path d="M158.758 50.1485C158.758 50.1485 165.338 50.0796 169.957 55.4786C170.874 56.5495 172.083 57.3357 173.418 57.7892C177.514 59.1797 180.682 60.2708 180.682 60.2708C180.682 60.2708 176.366 61.2799 172.703 73.4018L160.37 66.945L158.758 50.1485Z" fill="#A6CCF0"/>
<path d="M171.07 72.55L172.697 73.4012C176.36 61.2793 180.677 60.2702 180.677 60.2702C180.677 60.2702 179.86 59.9886 178.522 59.5312C175.724 61.4379 171.933 67.5589 171.07 72.55Z" fill="#A6CCF0"/>
<path d="M162.289 59.6841C162.289 59.6841 164.785 67.8254 170.139 72.0613L160.367 66.9456L162.289 59.6841Z" fill="#A6CCF0"/>
<path d="M172.344 121.75L178.849 134.842C180.738 138.644 180.461 143.163 178.122 146.706L156.615 179.271C155.949 180.279 155.696 181.505 155.907 182.695L156.738 187.371C156.738 187.371 150.731 192.481 143.477 182.905L144.886 181.459C147.011 179.279 148.599 176.643 149.529 173.745C150.81 169.755 152.615 163.747 153.71 158.437C154.622 154.014 156.806 149.957 160.01 146.774L163.982 142.828L151.873 130.326L172.344 121.75Z" fill="#A6CCF0"/>
<path d="M173.093 123.253L162.829 125.737L151.875 130.326L158.139 136.793C163.212 134 168.167 125.49 174.297 125.675L173.093 123.253Z" fill="#A6CCF0"/>
<path d="M168.202 113.41L174.296 125.674C168.202 122.95 157.611 137.169 149.05 137.169C149.196 132.236 134.977 113.41 134.977 113.41H168.202Z" fill="#A6CCF0"/>
<path d="M151.874 121.749C156.367 122.224 156.305 125.084 160.005 125.489L161.787 114.618L155.756 113.411H134.977C134.977 113.411 137.522 116.782 140.447 121.042C143.285 121.159 148.675 121.411 151.874 121.749Z" fill="#A6CCF0"/>
<path d="M170.293 158.561C163.902 156.984 159.676 154.436 157.317 150.02C155.574 152.547 154.336 155.402 153.71 158.438C152.615 163.748 150.81 169.756 149.529 173.745C148.599 176.643 147.011 179.28 144.886 181.46L143.477 182.906C150.731 192.482 156.738 187.372 156.738 187.372L155.907 182.695C155.696 181.505 155.949 180.28 156.615 179.272L170.293 158.561Z" fill="#A6CCF0"/>
<path d="M145.5 180.159L148.289 182.906C149.2 183.803 150.518 184.151 151.752 183.819L156.141 182.639L157.751 186.836C158.063 187.652 158.569 188.38 159.225 188.958L162.733 192.053L167.109 193.471C168.994 194.083 168.833 196.8 166.889 197.184L164.922 197.572C161.03 198.341 156.995 197.426 153.813 195.054L150.563 192.631C148.705 191.246 146.543 190.324 144.257 189.943L143.717 189.854C140.72 189.354 139.602 185.63 141.83 183.562L145.5 180.159Z" fill="#A6CCF0"/>
<path d="M152.336 183.656L153.827 186.015C154.337 186.822 155.382 187.103 156.227 186.66L157.996 185.733C158.667 185.381 158.874 184.519 158.437 183.902L157.068 181.97C156.672 181.412 155.906 181.27 155.337 181.65L152.336 183.656Z" fill="#A6CCF0"/>
<path d="M160.007 125.489C162.51 127.013 168.66 118.742 169.72 115.696L159.572 113.411C159.572 113.411 156.962 123.636 160.007 125.489Z" fill="#A6CCF0"/>
<path d="M156.75 118.634L179.275 120.919C181.537 128.182 186.158 134.452 192.34 138.884C197.3 142.441 202.037 146.517 206.528 151.166C208.055 152.748 209.207 154.657 209.911 156.74L211.485 161.399L220.952 151.388L217.713 150.704C214.49 150.024 211.716 147.99 210.1 145.121L192.659 114.172L192.133 112.068C191.563 109.787 189.996 107.888 187.861 106.905C183.684 104.982 176.223 101.739 168.828 99.4814C168.829 99.4822 157.839 106.882 156.75 118.634Z" fill="#A6CCF0"/>
<path d="M174.972 101.558C172.967 100.823 170.896 100.113 168.829 99.4824C168.829 99.4824 157.838 106.882 156.75 118.634L164.499 119.421C163.13 113.884 169.745 103.8 174.972 101.558Z" fill="#A6CCF0"/>
<path d="M128.546 91.8653L128.188 100.288C127.814 109.106 133.941 116.851 142.597 118.571C146.577 119.362 150.784 120.036 154.451 120.279C155.834 120.371 157.029 121.28 157.475 122.593C158.212 124.764 159.994 125.49 159.994 125.49C159.994 125.49 156.838 111.417 175.554 101.224L161.104 96.2258C159.298 95.6013 157.867 94.2014 157.203 92.4093L155.749 88.4922C155.749 88.4922 135.183 88.7096 128.546 91.8653Z" fill="#A6CCF0"/>
<path d="M156.58 90.7183L155.754 88.4912C155.754 88.4912 135.187 88.7086 128.549 91.8643L128.192 100.287C128.191 100.302 128.19 100.317 128.19 100.331C128.086 102.942 131.027 104.581 133.235 103.185C138.786 99.6737 140.954 90.9071 156.58 90.7183Z" fill="#A6CCF0"/>
<path d="M135.275 53.2508C141.15 51.6057 150.353 49.6448 159.298 50.2662C161.994 50.4535 164.052 52.7347 163.978 55.4369C163.808 61.6197 162.603 72.5004 156.591 78.2615C158.115 81.3808 155.503 84.7902 155.503 84.7902C155.503 84.7902 157.897 87.4019 156.664 90.7386C151.15 88.4899 140.834 91.2942 135.045 95.8164C125.76 103.071 117.707 96.6869 116.184 102.491C116.184 102.491 115.735 99.9377 118.042 98.175C119.493 97.0661 120.418 95.4225 120.497 93.5986C120.608 91.0125 121.22 89.5964 121.724 88.8566C122.154 88.226 122.337 87.4669 122.297 86.7054C122.132 83.4917 122.287 74.8652 126.869 61.1972C128.169 57.3173 131.333 54.3551 135.275 53.2508Z" fill="#A6CCF0"/>
<path d="M148.322 50.8149C144.044 51.314 143.893 54.6353 145.143 57.1812C146.337 59.6125 150.042 60.8761 152.816 60.3074C155.591 59.7386 156.872 56.5783 155.83 54.9502C154.787 53.3221 153.685 50.1889 148.322 50.8149Z" fill="#A6CCF0"/>
<path d="M123.565 73.4429C122.875 76.8964 122.534 79.7495 122.379 81.9944C122.287 83.34 123.752 84.2524 124.899 83.542C128.925 81.048 131.944 76.2905 133.613 73.1457C134.275 71.8983 133.199 70.4435 131.816 70.726L124.862 72.1467C124.211 72.2798 123.696 72.7905 123.565 73.4429Z" fill="#A6CCF0"/>
<path d="M152.972 79.7861C152.972 79.7861 145.199 85.9527 137.297 86.5331L152.972 79.7861Z" fill="#A6CCF0"/>
<path d="M152.972 79.7861C152.972 79.7861 145.199 85.9527 137.297 86.5331" stroke="#092F53" stroke-width="0.965295" stroke-miterlimit="10" stroke-linecap="round" stroke-linejoin="round"/>
<path d="M133.586 80.584C133.586 80.584 136.887 82.8435 146.961 81.8105L133.586 80.584Z" fill="#A6CCF0"/>
<path d="M133.586 80.584C133.586 80.584 136.887 82.8435 146.961 81.8105" stroke="#092F53" stroke-width="0.965295" stroke-miterlimit="10" stroke-linecap="round" stroke-linejoin="round"/>
<path d="M128.178 75.9088L118.047 83.3638L100.331 108.932V114.495C100.331 116.052 99.5204 117.496 98.191 118.307L97.2616 118.874C96.1937 119.526 94.8643 119.578 93.7485 119.012L89.4259 116.82C88.4749 116.338 87.9618 115.282 88.1715 114.236C88.3542 113.325 89.0514 112.603 89.956 112.391L90.3204 112.305C90.3204 112.305 90.9016 107.208 94.1663 106.229L106.017 78.7263C107.311 75.7208 109.428 73.1417 112.121 71.2837L115.2 69.1611L128.178 75.9088Z" fill="#A6CCF0"/>
<path d="M124.003 78.9927C124.057 77.3762 122.075 74.3753 119.92 71.6089L115.213 69.1621L112.135 71.2855C111.377 71.8086 110.669 72.3944 110.008 73.0258C112.201 77.4714 116.707 80.056 122.381 80.1867L124.003 78.9927Z" fill="#A6CCF0"/>
<path d="M112.332 68.3963C111.317 78.6974 123.794 80.584 123.794 80.584L134.337 72.8264C137.141 70.7626 138.076 66.9941 136.563 63.8586L132.11 54.6362L112.332 68.3963Z" fill="#A6CCF0"/>
<path d="M187.271 67.4097C183.851 65.6956 179.911 65.3335 176.236 66.396L174.391 66.9291" fill="#A6CCF0"/>
<path d="M187.271 67.4097C183.851 65.6956 179.911 65.3335 176.236 66.396L174.391 66.9291" stroke="#092F53" stroke-width="0.71243" stroke-miterlimit="10" stroke-linecap="round" stroke-linejoin="round"/>
<path d="M174.341 64.5326L176.592 66.6041L177.974 67.8747C179.488 69.2676 179.625 71.6107 178.283 73.1707L177.769 73.7681C176.473 75.2763 174.328 75.7351 172.528 74.8886L172.315 75.096C171.597 75.7947 170.472 75.8481 169.692 75.2206L166.596 73.057C165.427 72.2398 165.322 70.5482 166.38 69.5918C165.621 68.51 165.857 67.0219 166.914 66.228L169.491 64.2903C170.954 63.1915 172.993 63.2929 174.341 64.5326Z" fill="#A6CCF0"/>
<path d="M167.047 69.9849L171.762 74.0838" stroke="#092F53" stroke-width="0.71243" stroke-miterlimit="10" stroke-linecap="round" stroke-linejoin="round"/>
<path d="M167.43 70.3322L167.497 70.0528C167.711 69.1676 168.213 68.379 168.922 67.808L171.991 65.3418" fill="#A6CCF0"/>
<path d="M167.43 70.3322L167.497 70.0528C167.711 69.1676 168.213 68.379 168.922 67.808L171.991 65.3418" stroke="#092F53" stroke-width="0.71243" stroke-miterlimit="10" stroke-linecap="round" stroke-linejoin="round"/>
<path d="M174.233 66.8008L170.411 69.8047C169.934 70.1793 169.593 70.6993 169.439 71.2858L169.281 71.8863" fill="#A6CCF0"/>
<path d="M174.233 66.8008L170.411 69.8047C169.934 70.1793 169.593 70.6993 169.439 71.2858L169.281 71.8863" stroke="#092F53" stroke-width="0.71243" stroke-miterlimit="10" stroke-linecap="round" stroke-linejoin="round"/>
<path d="M176.736 68.8242L172.901 71.5179C172.419 71.856 172.033 72.3142 171.781 72.8458L171.359 73.7372" fill="#A6CCF0"/>
<path d="M176.736 68.8242L172.901 71.5179C172.419 71.856 172.033 72.3142 171.781 72.8458L171.359 73.7372" stroke="#092F53" stroke-width="0.71243" stroke-miterlimit="10" stroke-linecap="round" stroke-linejoin="round"/>
<path d="M174.508 73.4008C174.508 73.4008 175.949 73.2855 176.739 72.1968L174.508 73.4008Z" fill="#A6CCF0"/>
<path d="M174.508 73.4008C174.508 73.4008 175.949 73.2855 176.739 72.1968" stroke="#092F53" stroke-width="0.71243" stroke-miterlimit="10" stroke-linecap="round" stroke-linejoin="round"/>
<path d="M176 72.8809C176 72.8809 176.584 73.6849 175.859 74.6281L176 72.8809Z" fill="#A6CCF0"/>
<path d="M176 72.8809C176 72.8809 176.584 73.6849 175.859 74.6281" stroke="#092F53" stroke-width="0.71243" stroke-miterlimit="10" stroke-linecap="round" stroke-linejoin="round"/>
<path d="M113.645 67.4819L112.332 68.3958C111.316 78.6969 123.795 80.5835 123.795 80.5835L126.071 78.9082C117.453 76.9628 114.257 72.5365 113.645 67.4819Z" fill="#A6CCF0"/>
<path d="M175.585 101.222L172.503 100.156C163.365 103.986 156.652 113.897 157.074 121.745C157.252 122.002 157.401 122.285 157.505 122.591C158.242 124.762 160.024 125.488 160.024 125.488C160.024 125.488 156.868 111.415 175.585 101.222Z" fill="#A6CCF0"/>
<path d="M174.303 125.676L172.828 122.706C164.86 122.538 155.751 134.043 148.359 134.4C148.814 135.53 149.077 136.487 149.057 137.17C157.617 137.17 168.209 122.951 174.303 125.676Z" fill="#A6CCF0"/>
<path d="M220.939 151.389L217.701 150.705C214.478 150.025 211.703 147.991 210.087 145.121L196.477 120.97C194.198 123.163 189.584 127.219 183.828 130.252C186.127 133.574 188.998 136.497 192.327 138.884C197.287 142.441 202.025 146.517 206.515 151.167C208.043 152.748 209.194 154.657 209.898 156.74L211.473 161.4L220.939 151.389Z" fill="#A6CCF0"/>
<path d="M209.07 157.265L212.883 156.374C214.128 156.083 215.125 155.155 215.504 153.933L216.851 149.593L221.259 150.474C222.116 150.646 223.002 150.608 223.841 150.362L228.331 149.049L231.869 146.107C233.392 144.84 235.604 146.428 234.89 148.277L234.167 150.146C232.738 153.848 229.809 156.77 226.104 158.193L222.319 159.646C220.155 160.477 218.222 161.812 216.679 163.541L216.315 163.949C214.291 166.216 210.546 165.172 209.988 162.184L209.07 157.265Z" fill="#A6CCF0"/>
<path d="M215.703 153.341H218.494C219.449 153.341 220.244 152.607 220.321 151.656L220.482 149.665C220.543 148.911 219.925 148.276 219.169 148.316L216.805 148.44C216.122 148.477 215.592 149.049 215.61 149.733L215.703 153.341Z" fill="#A6CCF0"/>
<path d="M181.867 110.774C181.921 114.256 184.533 116.378 188.07 116.215L181.867 110.774Z" fill="#A6CCF0"/>
<path d="M181.867 110.774C181.921 114.256 184.533 116.378 188.07 116.215" stroke="#092F53" stroke-width="0.71243" stroke-miterlimit="10" stroke-linecap="round" stroke-linejoin="round"/>
<path d="M171.212 137.953C169.409 140.318 169.627 144.237 171.804 145.651L171.212 137.953Z" fill="#A6CCF0"/>
<path d="M171.212 137.953C169.409 140.318 169.627 144.237 171.804 145.651" stroke="#092F53" stroke-width="0.71243" stroke-miterlimit="10" stroke-linecap="round" stroke-linejoin="round"/>
<path d="M90.1641 116.277C90.1641 116.277 92.3045 115.297 93.6826 114.391L90.1641 116.277Z" fill="#A6CCF0"/>
<path d="M90.1641 116.277C90.1641 116.277 92.3045 115.297 93.6826 114.391" stroke="#092F53" stroke-width="0.71243" stroke-miterlimit="10" stroke-linecap="round" stroke-linejoin="round"/>
<path d="M92.5 117.219C92.5 117.219 94.6404 116.239 96.0186 115.333L92.5 117.219Z" fill="#A6CCF0"/>
<path d="M92.5 117.219C92.5 117.219 94.6404 116.239 96.0186 115.333" stroke="#092F53" stroke-width="0.71243" stroke-miterlimit="10" stroke-linecap="round" stroke-linejoin="round"/>
<path d="M94.5781 118.337C94.5781 118.337 96.7185 117.358 98.0967 116.451L94.5781 118.337Z" fill="#A6CCF0"/>
<path d="M94.5781 118.337C94.5781 118.337 96.7185 117.358 98.0967 116.451" stroke="#092F53" stroke-width="0.71243" stroke-miterlimit="10" stroke-linecap="round" stroke-linejoin="round"/>
<path d="M90.1562 112.896C90.1562 112.896 89.7685 113.957 90.0076 114.64L90.1562 112.896Z" fill="#A6CCF0"/>
<path d="M90.1562 112.896C90.1562 112.896 89.7685 113.957 90.0076 114.64" stroke="#092F53" stroke-width="0.71243" stroke-miterlimit="10" stroke-linecap="round" stroke-linejoin="round"/>
<path d="M89.1484 114.292L89.9455 113.769" stroke="#092F53" stroke-width="0.71243" stroke-miterlimit="10" stroke-linecap="round" stroke-linejoin="round"/>
<path d="M150.818 46.4688L147.04 51.2494C146.114 52.421 145.819 53.9709 146.248 55.4002C146.829 57.3332 148.608 58.6564 150.626 58.6564H151.751C153.47 58.6564 155.045 57.6915 155.825 56.1585L157.904 52.0743L150.818 46.4688Z" fill="#A6CCF0"/>
<path d="M156.248 53.7159L154.363 49.285L150.801 46.4668L148.016 49.9908C152.041 54.1052 156.248 53.7159 156.248 53.7159Z" fill="#A6CCF0"/>
<path d="M154.782 31.3516C159.045 30.7914 163.519 33.9184 163.777 38.21L163.934 40.8348L163.741 42.9458C164.202 45.1156 163.83 47.3798 162.699 49.288L161.638 51.0771C160.751 52.5744 159.204 53.5595 157.472 53.7305C155.783 53.8977 154.113 53.2709 152.951 52.0351L151.418 50.4054C149.786 48.6705 148.811 46.4218 148.66 44.0454L148.351 39.168C148.105 35.2764 150.916 31.8592 154.782 31.3516Z" fill="#A6CCF0"/>
<path d="M155.046 48.2624C156.292 48.2624 157.302 47.2522 157.302 46.006C157.302 44.7598 156.292 43.7495 155.046 43.7495C153.799 43.7495 152.789 44.7598 152.789 46.006C152.789 47.2522 153.799 48.2624 155.046 48.2624Z" fill="#A6CCF0"/>
<path d="M160.133 43.7495C160.363 44.2788 160.688 44.7864 161.116 45.2701C161.454 45.6523 161.367 46.2451 160.921 46.4919L160.298 46.8363" fill="#A6CCF0"/>
<path d="M160.133 43.7495C160.363 44.2788 160.688 44.7864 161.116 45.2701C161.454 45.6523 161.367 46.2451 160.921 46.4919L160.298 46.8363" stroke="#092F53" stroke-width="0.71243" stroke-miterlimit="10" stroke-linecap="round" stroke-linejoin="round"/>
<path d="M149.511 43.1509L150.996 37.1568C150.996 37.1568 153.373 38.0545 154.626 36.7761C155.741 37.5925 157.428 37.3472 158.135 36.667C159.25 37.6738 160.91 37.5917 161.508 37.1019C162.269 37.755 164.201 38.0537 165.126 37.5376C166.052 37.0214 166.241 35.6332 165.806 34.953C167.113 33.8101 166.84 29.5394 163.439 30.1104C160.583 27.7162 158.08 27.5259 157.019 28.6688C154.054 27.4446 151.214 28.0706 150.539 29.975C147.416 29.8938 146.001 31.4716 146.328 33.5385C144.206 35.035 145.376 36.9115 146.627 37.211L147.144 42.9783L149.511 43.1509Z" fill="#A6CCF0"/>
<path d="M154.033 39.1895L148.997 40.6272C148.3 40.8261 147.861 41.5117 147.97 42.2275L148.111 43.1514H154.033V39.1895Z" fill="#A6CCF0"/>
<path d="M162.552 38.7612H155.069C153.45 38.7612 152.004 39.9444 151.851 41.5563C151.674 43.4049 153.123 44.9603 154.936 44.9603H157.677C158.266 44.9603 158.84 44.7707 159.314 44.4194C159.75 44.0959 160.346 44.0959 160.782 44.4194C161.256 44.7707 161.83 44.9603 162.419 44.9603C163.919 44.9603 165.303 43.9574 165.591 42.4856C165.979 40.5 164.468 38.7612 162.552 38.7612Z" fill="#A6CCF0"/>
<path d="M150.322 43.5237L149.144 42.6446C148.295 42.0109 147.104 42.1223 146.387 42.9031C145.688 43.6645 145.66 44.826 146.321 45.6208L147.92 47.5414C148.512 48.2518 149.578 48.3222 150.258 47.6954L150.817 47.1792L150.322 43.5237Z" fill="#A6CCF0"/>
<path d="M146.727 44.96L146.775 44.2775C146.836 43.4332 147.832 43.0192 148.473 43.5725L148.904 43.9447C149.378 44.3541 149.56 44.9909 149.43 45.6046C149.261 46.4086 149.522 46.7815 150.343 46.4681" fill="#A6CCF0"/>
<path d="M146.727 44.96L146.775 44.2775C146.836 43.4332 147.832 43.0192 148.473 43.5725L148.904 43.9447C149.378 44.3541 149.56 44.9909 149.43 45.6046C149.261 46.4086 149.522 46.7815 150.343 46.4681" stroke="#092F53" stroke-width="0.71243" stroke-miterlimit="10" stroke-linecap="round" stroke-linejoin="round"/>
<path d="M147.953 45.0488L148.333 43.4756" stroke="#092F53" stroke-width="0.71243" stroke-miterlimit="10" stroke-linecap="round" stroke-linejoin="round"/>
<path d="M160.736 48.2832C159.675 49.0175 156.882 48.9363 155.703 47.1333L160.736 48.2832Z" fill="#A6CCF0"/>
<path d="M160.736 48.2832C159.675 49.0175 156.882 48.9363 155.703 47.1333" stroke="#092F53" stroke-width="0.71243" stroke-miterlimit="10" stroke-linecap="round" stroke-linejoin="round"/>
<path d="M156.258 46.54L155.297 47.4833" stroke="#092F53" stroke-width="0.71243" stroke-miterlimit="10" stroke-linecap="round" stroke-linejoin="round"/>
<path d="M162.305 41.5439H157.412C157.029 41.5439 156.719 41.2336 156.719 40.8506C156.719 40.4675 157.029 40.1572 157.412 40.1572H162.305C162.688 40.1572 162.998 40.4675 162.998 40.8506C162.999 41.2336 162.688 41.5439 162.305 41.5439Z" fill="#A6CCF0"/>
<path d="M226.882 131.842C234.311 131.842 240.334 125.819 240.334 118.39C240.334 110.961 234.311 104.938 226.882 104.938C219.452 104.938 213.43 110.961 213.43 118.39C213.43 125.819 219.452 131.842 226.882 131.842Z" fill="#A6CCF0"/>
<path d="M238.509 111.653C237.857 111.566 237.162 111.488 236.427 111.419C236.413 111.381 236.399 111.344 236.384 111.306C234.817 110.031 233.082 108.816 231.371 107.773C231.332 107.771 231.292 107.77 231.252 107.768C230.8 106.819 230.351 105.988 229.917 105.296C228.939 105.07 227.925 104.938 226.878 104.938C225.831 104.938 224.816 105.07 223.838 105.296C223.404 105.989 222.955 106.819 222.503 107.768C222.464 107.77 222.424 107.771 222.384 107.773C220.674 108.816 218.939 110.031 217.372 111.306C217.358 111.344 217.344 111.381 217.33 111.419C216.594 111.488 215.9 111.566 215.247 111.653C214.106 113.619 213.441 115.895 213.43 118.329C213.853 118.793 214.32 119.277 214.838 119.779C214.829 119.817 214.82 119.854 214.812 119.892C215.313 121.818 215.914 123.8 216.613 125.675C216.643 125.7 216.674 125.725 216.704 125.75C216.618 126.14 216.536 126.519 216.457 126.892C218.05 128.843 220.183 130.331 222.624 131.145C223.017 130.942 223.417 130.734 223.833 130.512C223.849 130.52 223.866 130.529 223.882 130.538C223.899 130.547 223.916 130.555 223.932 130.564C225.886 130.608 227.872 130.608 229.826 130.564C229.859 130.547 229.892 130.529 229.925 130.512C230.342 130.735 230.742 130.943 231.134 131.145C233.575 130.331 235.708 128.843 237.301 126.893C237.222 126.52 237.141 126.14 237.054 125.751C237.07 125.739 237.085 125.726 237.1 125.713C237.115 125.701 237.13 125.688 237.145 125.675C237.844 123.8 238.445 121.819 238.946 119.893C238.938 119.855 238.929 119.817 238.92 119.78C239.438 119.277 239.905 118.794 240.328 118.33C240.316 115.894 239.651 113.619 238.509 111.653ZM231.086 108.069C231.151 108.071 231.215 108.074 231.28 108.076C232.928 109.099 234.596 110.273 236.116 111.5C236.139 111.561 236.161 111.622 236.185 111.683C235.84 113.146 235.436 114.72 234.977 116.356C233.887 116.718 232.725 117.102 231.52 117.498C230.074 116.417 228.566 115.319 227.082 114.265C227.081 112.989 227.078 111.755 227.076 110.604C228.484 109.672 229.835 108.824 231.086 108.069ZM217.64 111.5C219.16 110.274 220.828 109.1 222.476 108.077C222.541 108.075 222.605 108.072 222.67 108.069C223.92 108.825 225.271 109.673 226.681 110.604C226.677 111.756 226.676 112.99 226.674 114.266C225.191 115.32 223.683 116.419 222.237 117.5C221.032 117.104 219.869 116.72 218.78 116.358C218.319 114.721 217.917 113.147 217.572 111.685C217.594 111.623 217.617 111.562 217.64 111.5ZM217.017 125.609C216.968 125.568 216.918 125.527 216.869 125.486C216.195 123.675 215.606 121.764 215.11 119.903C215.125 119.841 215.14 119.78 215.155 119.718C216.178 118.79 217.363 117.778 218.661 116.732C219.748 117.1 220.909 117.488 222.114 117.887C222.657 119.622 223.239 121.384 223.827 123.069C223.093 124.074 222.391 125.036 221.732 125.935C220.061 125.864 218.465 125.755 217.017 125.609ZM229.893 130.215C229.839 130.244 229.785 130.273 229.732 130.301C227.84 130.345 225.917 130.345 224.025 130.301C223.971 130.273 223.918 130.243 223.864 130.215C223.272 129.065 222.657 127.677 222.052 126.16C222.715 125.265 223.421 124.306 224.158 123.304C225.956 123.331 227.8 123.331 229.599 123.304C230.335 124.306 231.042 125.264 231.704 126.16C231.099 127.678 230.484 129.065 229.893 130.215ZM236.886 125.486C236.837 125.528 236.787 125.569 236.738 125.61C235.291 125.755 233.694 125.864 232.022 125.937C231.364 125.038 230.661 124.076 229.928 123.071C230.516 121.385 231.097 119.623 231.64 117.888C232.845 117.489 234.006 117.101 235.094 116.734C236.391 117.778 237.577 118.791 238.6 119.72C238.614 119.781 238.629 119.843 238.644 119.904C238.149 121.765 237.56 123.675 236.886 125.486Z" fill="#A6CCF0"/>
<path opacity="0.23" d="M228.567 128.413C221.62 128.413 215.988 122.781 215.988 115.834C215.988 112.478 217.31 109.436 219.453 107.18C215.825 109.59 213.43 113.709 213.43 118.391C213.43 125.821 219.452 131.843 226.882 131.843C233.469 131.843 238.941 127.105 240.099 120.852C238.16 125.3 233.729 128.413 228.567 128.413Z" fill="#A6CCF0"/>
<path d="M226.684 146.618C226.47 146.618 226.297 146.445 226.297 146.231V135.753C226.297 135.54 226.47 135.366 226.684 135.366C226.897 135.366 227.071 135.54 227.071 135.753V146.231C227.071 146.446 226.897 146.618 226.684 146.618Z" fill="#A6CCF0"/>
<path d="M223.629 144.297C223.416 144.297 223.242 144.124 223.242 143.911V134.447C223.242 134.234 223.416 134.061 223.629 134.061C223.843 134.061 224.016 134.234 224.016 134.447V143.911C224.016 144.125 223.843 144.297 223.629 144.297Z" fill="#A6CCF0"/>
<path d="M229.723 144.297C229.509 144.297 229.336 144.124 229.336 143.911V134.447C229.336 134.234 229.509 134.061 229.723 134.061C229.936 134.061 230.11 134.234 230.11 134.447V143.911C230.11 144.125 229.936 144.297 229.723 144.297Z" fill="#A6CCF0"/>
</g>
</g>
</g>
</svg>
