<svg width="82" height="49" viewBox="0 0 82 49" fill="none" xmlns="http://www.w3.org/2000/svg">
<g filter="url(#filter0_f_16176_17851)">
<path d="M17.3465 18.0444C17.5758 16.5372 18.8716 15.4236 20.3961 15.4236H61.1877C62.7122 15.4236 64.0081 16.5372 64.2374 18.0444L66.138 30.5379C66.3274 31.7826 65.3639 32.9037 64.1049 32.9037H17.4789C16.2199 32.9037 15.2565 31.7826 15.4458 30.5379L17.3465 18.0444Z" fill="#F5B03A"/>
</g>
<path d="M13.6594 17.0226C13.8859 15.5126 15.1831 14.3955 16.71 14.3955H64.8654C66.3923 14.3955 67.6895 15.5126 67.916 17.0226L70.2524 32.5988C70.4389 33.8421 69.4759 34.9603 68.2187 34.9603H13.3567C12.0994 34.9603 11.1365 33.8421 11.323 32.5988L13.6594 17.0226Z" fill="#F5B03A"/>
<path d="M26.5044 29.5366V19.3591H28.3038V23.7065H33.0543V19.3591H34.8393V29.5366H33.0543V25.3476H28.3038V29.5366H26.5044ZM40.1556 29.6374C39.3783 29.6374 38.7065 29.479 38.1403 29.1623C37.5836 28.8456 37.1518 28.3946 36.8447 27.8092C36.5472 27.2238 36.3984 26.5376 36.3984 25.7506C36.3984 24.9541 36.552 24.2679 36.8591 23.6921C37.1662 23.1067 37.598 22.6508 38.1546 22.3245C38.7113 21.9983 39.3783 21.8351 40.1556 21.8351C40.9234 21.8351 41.5855 21.9983 42.1422 22.3245C42.6988 22.6508 43.1258 23.1115 43.4233 23.7065C43.7209 24.2919 43.8696 24.9829 43.8696 25.7794C43.8696 26.5568 43.7209 27.2382 43.4233 27.8236C43.1354 28.3994 42.7132 28.8456 42.1566 29.1623C41.5999 29.479 40.933 29.6374 40.1556 29.6374ZM40.1412 28.0395C40.6211 28.0395 41.0049 27.9339 41.2928 27.7228C41.5903 27.5117 41.8063 27.2334 41.9406 26.8879C42.075 26.5424 42.1422 26.1681 42.1422 25.765C42.1422 25.362 42.075 24.9829 41.9406 24.6278C41.8063 24.2727 41.5903 23.9896 41.2928 23.7785C41.0049 23.5578 40.6211 23.4474 40.1412 23.4474C39.6614 23.4474 39.2727 23.5578 38.9752 23.7785C38.6777 23.9896 38.4617 24.2727 38.3274 24.6278C38.193 24.9733 38.1259 25.3524 38.1259 25.765C38.1259 26.1681 38.193 26.5472 38.3274 26.9023C38.4713 27.2478 38.6873 27.5261 38.9752 27.7372C39.2727 27.9387 39.6614 28.0395 40.1412 28.0395ZM48.0396 29.6374C47.675 29.6374 47.3103 29.599 46.9456 29.5222C46.5905 29.4455 46.2546 29.3207 45.9379 29.1479C45.6212 28.9656 45.3573 28.7209 45.1462 28.4138C44.935 28.1067 44.7959 27.7228 44.7287 27.2622H46.4993C46.5761 27.4733 46.6961 27.646 46.8592 27.7804C47.032 27.9051 47.2287 28.0011 47.4494 28.0683C47.6798 28.1259 47.9053 28.1547 48.126 28.1547C48.2604 28.1547 48.4043 28.1451 48.5579 28.1259C48.721 28.1067 48.8698 28.0683 49.0041 28.0107C49.1481 27.9531 49.2632 27.8716 49.3496 27.766C49.436 27.6508 49.4792 27.5021 49.4792 27.3197C49.4792 27.147 49.4312 27.0126 49.3352 26.9167C49.2393 26.8111 49.1097 26.7295 48.9466 26.6719C48.7834 26.6048 48.5867 26.552 48.3563 26.5136C47.9437 26.4272 47.5022 26.3361 47.032 26.2401C46.5617 26.1345 46.1539 25.9714 45.8084 25.7506C45.6644 25.6643 45.5397 25.5635 45.4341 25.4483C45.3285 25.3332 45.2373 25.2084 45.1606 25.0741C45.0934 24.9301 45.0406 24.7766 45.0022 24.6134C44.9734 24.4503 44.959 24.2727 44.959 24.0808C44.959 23.6777 45.0406 23.337 45.2038 23.0587C45.3765 22.7708 45.602 22.5405 45.8803 22.3677C46.1682 22.1854 46.4945 22.051 46.8592 21.9647C47.2239 21.8783 47.5982 21.8351 47.9821 21.8351C48.5003 21.8351 48.9705 21.9167 49.3928 22.0798C49.8151 22.243 50.1654 22.4925 50.4437 22.8284C50.7316 23.1643 50.9043 23.5913 50.9619 24.1096H49.292C49.2441 23.8697 49.0953 23.6777 48.8458 23.5338C48.6059 23.3898 48.2988 23.3178 47.9245 23.3178C47.7901 23.3178 47.651 23.3322 47.507 23.361C47.3631 23.3802 47.2239 23.4186 47.0896 23.4762C46.9648 23.5242 46.8592 23.6009 46.7729 23.7065C46.6961 23.8121 46.6577 23.9416 46.6577 24.0952C46.6577 24.2391 46.6913 24.3639 46.7585 24.4695C46.8352 24.575 46.9456 24.6662 47.0896 24.743C47.2431 24.8101 47.4206 24.8677 47.6222 24.9157C47.9485 24.9829 48.2892 25.0501 48.6442 25.1172C48.9993 25.1844 49.3064 25.2516 49.5656 25.3188C49.8727 25.4052 50.151 25.5299 50.4005 25.6931C50.65 25.8466 50.8419 26.0529 50.9763 26.3121C51.1203 26.5616 51.1922 26.8831 51.1922 27.2766C51.1922 27.7372 51.0963 28.1211 50.9043 28.4282C50.722 28.7353 50.4773 28.9752 50.1702 29.1479C49.8631 29.3207 49.5224 29.4455 49.1481 29.5222C48.7738 29.599 48.4043 29.6374 48.0396 29.6374ZM55.5105 29.5366C54.8963 29.5366 54.3877 29.455 53.9846 29.2919C53.5911 29.1288 53.2936 28.8648 53.0921 28.5002C52.9001 28.1355 52.8042 27.646 52.8042 27.0318V23.505H51.6381V21.9503H52.8042V19.8342H54.5604V21.9503H56.331V23.505H54.5604V26.8015C54.5604 27.1854 54.6276 27.4781 54.7619 27.6796C54.8963 27.8812 55.1986 27.9819 55.6688 27.9819H56.2734V29.5366H55.5105Z" fill="black"/>
<defs>
<filter id="filter0_f_16176_17851" x="-0.00171757" y="-8.58307e-06" width="81.5894" height="48.3272" filterUnits="userSpaceOnUse" color-interpolation-filters="sRGB">
<feFlood flood-opacity="0" result="BackgroundImageFix"/>
<feBlend mode="normal" in="SourceGraphic" in2="BackgroundImageFix" result="shape"/>
<feGaussianBlur stdDeviation="7.7118" result="effect1_foregroundBlur_16176_17851"/>
</filter>
</defs>
</svg>
