<svg width="36" height="17" viewBox="0 0 36 17" fill="none" xmlns="http://www.w3.org/2000/svg">
<path d="M15.9138 10.2309C16.4468 10.7359 17.1342 10.9884 17.9759 10.9884C18.7895 10.9884 19.4628 10.7359 19.9959 10.2309C20.557 9.69785 20.8376 9.0245 20.8376 8.21088C20.8376 7.39726 20.543 6.73795 19.9538 6.23294C19.3927 5.69988 18.7334 5.43335 17.9759 5.43335C17.1622 5.43335 16.4889 5.69988 15.9558 6.23294C15.4228 6.73795 15.1562 7.39726 15.1562 8.21088C15.1562 9.0245 15.4088 9.69785 15.9138 10.2309Z" fill="white"/>
<path d="M22.1566 4.87939C24.5362 6.46048 24.5515 9.98279 22.1566 11.5405" stroke="white" stroke-opacity="0.5" stroke-width="0.783359"/>
<path d="M24.4474 2.83496C27.9103 5.57566 27.9384 10.8824 24.4474 13.5872" stroke="white" stroke-opacity="0.7" stroke-width="0.783359"/>
<path d="M26.82 0.220459C31.6213 4.45142 31.6657 12.0217 26.82 16.2018" stroke="white" stroke-width="0.587519"/>
<path d="M13.8356 4.87939C11.456 6.46048 11.4407 9.98279 13.8356 11.5405" stroke="white" stroke-opacity="0.5" stroke-width="0.783359"/>
<path d="M11.5448 2.83496C8.08189 5.57566 8.05376 10.8824 11.5448 13.5872" stroke="white" stroke-opacity="0.7" stroke-width="0.783359"/>
<path d="M9.16435 0.220459C4.36303 4.45142 4.31869 12.0217 9.16435 16.2018" stroke="white" stroke-width="0.587519"/>
</svg>
