<svg width="17" height="17" viewBox="0 0 17 17" fill="none" xmlns="http://www.w3.org/2000/svg">
<g clip-path="url(#clip0_16445_15)">
<path d="M8.47381 13.5028C8.78696 13.5028 9.10011 13.3916 9.35267 13.1691C10.8577 11.8435 13.7679 8.89964 13.7679 5.95574C13.7679 3.03187 11.3977 0.661621 8.47381 0.661621C5.54993 0.661621 3.17969 3.03187 3.17969 5.95574C3.17969 8.89964 6.08993 11.8435 7.59495 13.1692C7.84752 13.3916 8.16066 13.5028 8.47381 13.5028Z" stroke="white" stroke-width="1.32353" stroke-miterlimit="10" stroke-linecap="round" stroke-linejoin="round"/>
<path d="M12.872 12.812C14.2311 13.1756 15.0869 13.7049 15.0869 14.2942C15.0869 15.3906 12.124 16.2795 8.46922 16.2795C4.81438 16.2795 1.85156 15.3906 1.85156 14.2942C1.85156 13.7049 2.70736 13.1756 4.06646 12.812" stroke="white" stroke-width="1.32353" stroke-miterlimit="10" stroke-linecap="round" stroke-linejoin="round"/>
<path d="M8.46967 7.94105C9.56612 7.94105 10.455 7.0522 10.455 5.95575C10.455 4.85931 9.56612 3.97046 8.46967 3.97046C7.37322 3.97046 6.48438 4.85931 6.48438 5.95575C6.48438 7.0522 7.37322 7.94105 8.46967 7.94105Z" stroke="white" stroke-width="1.32353" stroke-miterlimit="10" stroke-linecap="round" stroke-linejoin="round"/>
</g>
<defs>
<clipPath id="clip0_16445_15">
<rect width="16.9412" height="16.9412" fill="white"/>
</clipPath>
</defs>
</svg>
