<svg width="231" height="210" viewBox="0 0 231 210" fill="none" xmlns="http://www.w3.org/2000/svg">
<g opacity="0.18">
<mask id="mask0_15433_1160" style="mask-type:alpha" maskUnits="userSpaceOnUse" x="0" y="0" width="231" height="210">
<path d="M103.393 187.892C103.747 189.127 103.951 189.835 103.951 189.835L97.2278 190.473C97.2278 190.473 96.7891 189.9 96.008 188.866C95.9661 188.812 95.9249 188.755 95.8816 188.698C90.892 182.072 73.2779 158.348 64.9052 142.551C64.1196 141.069 63.4157 139.66 62.8109 138.337C60.9863 134.348 60.0648 131.183 60.5432 129.408C63.1607 119.688 117.241 95.6914 117.241 95.6914L135.204 126.947C120.532 133.6 102.504 136.033 87.805 136.9C87.805 136.9 88.6978 137.731 89.8787 139.918C91.0853 142.156 92.5954 145.812 93.7638 151.449C95.703 160.808 101.557 181.474 103.393 187.892Z" fill="#D47C5F"/>
<path d="M92.9102 106.07L106.33 138.409C106.33 138.409 130.854 133.571 137.085 129.953C143.316 126.334 123.569 91.2451 123.569 91.2451L92.9102 106.07Z" fill="#2C2F3F"/>
<path d="M95.6316 105.108C99.5108 115.887 103.792 126.519 108.465 136.978C108.61 137.304 109.148 137.138 109 136.808C104.327 126.348 100.046 115.716 96.1673 104.937C96.0453 104.598 95.5081 104.766 95.6316 105.108Z" fill="#D9C4A0"/>
<path d="M103.405 187.893C101.651 189.531 99.2077 189.889 96.0207 188.867C95.9789 188.813 95.9377 188.756 95.8944 188.7C90.9048 182.073 73.2907 158.349 64.918 142.553C71.242 140.88 82.3623 136.229 89.8907 139.92C91.0973 142.158 92.6074 145.814 93.7758 151.452C95.7151 160.809 101.569 181.474 103.405 187.893Z" fill="#D9C4A0"/>
<path d="M67.4089 145.741C74.6919 143.25 82.3959 142.233 90.0765 142.749C90.4373 142.773 90.4358 142.211 90.0765 142.187C82.3504 141.668 74.5861 142.693 67.2597 145.199C66.9195 145.316 67.0657 145.859 67.4089 145.741Z" fill="#2C2F3F"/>
<path d="M87.6111 136.289C85.5462 135.911 83.5364 135.338 81.5869 134.558C81.254 134.425 80.9873 134.92 81.3224 135.054C83.3174 135.852 85.3691 136.45 87.4832 136.837C87.8382 136.902 87.9675 136.355 87.6111 136.289Z" fill="#A95249"/>
<path d="M99.5051 189.125C99.5051 189.125 97.2653 187.645 96.2674 188.828C95.2695 190.011 94.1518 194.141 94.1518 194.141C94.1518 194.141 90.734 201.533 88.9689 202.77C87.2039 204.008 86.2302 206.023 87.7175 209.999L109.967 196.385C109.967 196.385 105.224 186.362 104.517 184.902C103.811 183.443 102.544 187.125 102.544 187.125L99.5051 189.125Z" fill="#2C2F3F"/>
<path d="M109.968 196.386L104.624 199.656L87.719 210C87.719 210 86.6527 207.84 86.9988 206.881C87.6109 205.184 92.2838 205.42 93.4874 203.51C95.692 200.011 98.261 201.995 100.012 200.388C101.763 198.781 101.013 196.844 103.638 194.241C106.263 191.637 107.743 191.686 107.743 191.686C107.743 191.686 110.372 194.25 109.968 196.386Z" fill="#D9C4A0"/>
<path d="M95.467 190.157C96.2363 189.995 97.0256 190.123 97.6899 190.55C97.9427 190.712 97.7244 191.127 97.4702 190.964C96.9102 190.605 96.2533 190.469 95.5993 190.608C95.3061 190.669 95.1701 190.22 95.467 190.157Z" fill="#D9C4A0"/>
<path d="M104.585 194.846C100.323 195.156 96.9218 198.39 96.3611 202.614C96.3214 202.914 95.8651 202.804 95.9048 202.507C96.4941 198.069 100.115 194.701 104.573 194.376C104.874 194.355 104.886 194.824 104.585 194.846Z" fill="#D9C4A0"/>
<path d="M149.939 31.6008C149.939 31.6008 130.132 20.4614 120.504 17.9489C110.876 15.4373 88.413 12.1694 88.413 12.1694L86.8867 15.7995L116.573 27.9156L143.446 48.0847L149.939 31.6008Z" fill="#D47C5F"/>
<path d="M74.8986 11.9619C74.8986 11.9619 72.1459 13.3272 72.4862 14.1363C72.8264 14.9454 74.8487 13.6814 76.0619 13.4786C77.2751 13.2765 80.3592 12.5182 80.3592 12.5182L74.8986 11.9619Z" fill="#A95249"/>
<path d="M88.0856 16.0315C88.0856 16.0315 86.0736 17.1389 84.0514 17.948C82.0291 18.7571 80.6637 20.7198 80.4617 19.0098C80.2596 17.2999 82.7088 15.6428 82.7367 14.9146C82.7874 13.6 80.6388 13.284 76.955 13.0929C72.119 12.8416 71.1608 11.7805 71.4114 11.5696C72.374 10.7598 75.4729 11.2411 79.2477 10.7686C83.0226 10.2969 86.8011 11.2727 88.7867 12.2243C88.7867 12.2243 88.7323 14.5707 88.0856 16.0315Z" fill="#D47C5F"/>
<path d="M158.604 36.1617L141.967 25.458L129.352 41.2813L143.813 58.5382L158.604 36.1617Z" fill="#BA7B1F"/>
<path d="M166.015 127.444C163.992 126.483 161.567 126.393 159.633 125.41L159.632 125.41C159.429 125.307 159.227 125.205 159.025 125.101C148.975 119.964 140.239 114.535 133.719 108.616L133.718 108.616C133.595 108.505 133.473 108.392 133.352 108.281C131.477 106.551 129.794 104.78 128.321 102.962C128.223 102.841 128.126 102.72 128.031 102.6C125.412 99.2905 123.493 95.8258 122.41 92.1751C124.341 90.0213 126.165 87.7866 127.888 85.5028C128.004 85.3514 128.118 85.1993 128.232 85.0472C130.172 82.4495 131.982 79.7923 133.673 77.1234C133.745 77.011 133.817 76.8963 133.888 76.7832C135.728 73.8614 137.424 70.9272 138.987 68.0467C138.987 68.0452 138.987 68.0437 138.987 68.0437C139.198 67.6557 139.406 67.2685 139.611 66.8827L139.611 66.8812C141.614 63.1247 143.393 59.4718 144.973 56.0644C145.056 55.8851 145.139 55.7065 145.22 55.5287C150.659 43.7382 155.11 34.9576 156.865 35.3809C159.417 35.9959 160.675 36.6007 163.24 37.0497L163.241 37.0504C163.413 37.0798 163.583 37.11 163.753 37.1401C171.231 38.4231 177.705 39.0147 177.705 39.0147C177.705 39.0147 184.973 45.8972 189.74 51.3269C189.849 51.4496 189.957 51.5723 190.062 51.6958C190.883 52.6415 191.621 53.538 192.217 54.3375C192.342 54.5036 192.461 54.666 192.572 54.8225C193.185 55.6845 193.601 56.4076 193.744 56.9241C194.701 60.4007 195.006 64.0903 194.803 67.8916L194.802 67.8931C194.79 68.1253 194.776 68.3582 194.759 68.5919C194.509 72.2058 193.809 75.9109 192.788 79.6218L192.787 79.6233C192.747 79.771 192.706 79.9165 192.664 80.0627C185.851 104.163 166.015 127.444 166.015 127.444Z" fill="#D99A26"/>
<path d="M161.526 91.3269C149.705 92.4777 137.912 91.4232 126.482 88.1892C126.277 88.1311 126.189 88.45 126.394 88.5081C137.856 91.7509 149.667 92.8113 161.526 91.6576C161.736 91.637 161.739 91.3063 161.526 91.3269Z" fill="#2C2F3F"/>
<path d="M171.206 63.4453L168.35 67.5648L147.467 81.3269L140.457 78.3001L161.308 64.5241L155.985 62.2262L154.589 64.2397L149.397 61.9977L153.649 55.8647L171.206 63.4453Z" fill="#BA7B1F"/>
<path d="M165.118 43.0246C164.367 44.7639 165.96 46.0771 167.375 46.7355C169.385 47.6709 171.591 48.1236 173.803 48.1251C174.088 48.1251 174.139 47.6805 173.851 47.6805C172.132 47.679 170.429 47.4123 168.806 46.8362C167.351 46.3203 164.663 45.2041 165.534 43.1884C165.648 42.9246 165.232 42.7607 165.118 43.0246Z" fill="#2C2F3F"/>
<path d="M184.145 86.3571C180.902 94.5572 176.358 102.042 171.328 109.26C169.183 112.337 166.97 115.368 164.731 118.378C164.558 118.611 164.197 118.341 164.37 118.107C170.522 109.837 176.699 101.396 181.171 92.0675C182.094 90.1408 182.94 88.1788 183.725 86.1918C183.832 85.9214 184.251 86.0867 184.145 86.3571Z" fill="#2C2F3F"/>
<path d="M180.057 41.7478C179.117 43.2645 166.364 49.867 166.234 41.1915L168.52 37.0389L169.904 33.5602L170.873 31.1249L181.182 30.4004C180.235 35.0071 180.817 38.1566 180.057 41.7478Z" fill="#D47C5F"/>
<path d="M178.425 33.912C173.356 38.834 169.262 39.0434 167.996 38.3666L169.909 33.5615L178.425 33.912Z" fill="#2C2F3F"/>
<path d="M167.295 17.5965C167.295 17.5965 165.785 16.2334 166.113 15.0334C166.441 13.8334 167.111 12.9325 167.111 12.9325C167.111 12.9325 165.326 8.37867 166.881 7.06846C166.881 7.06846 167.982 9.12821 168.396 9.02901C168.396 9.02901 168.772 6.36962 170.95 6.15872C170.95 6.15872 171.427 8.74315 171.901 8.89159C171.901 8.89159 172.738 6.08892 174.994 6C174.994 6 174.641 9.45007 177.028 9.79397C179.416 10.1379 184.51 11.4995 185.972 14.2537C187.434 17.0079 186.713 19.8554 186.245 21.2097L167.295 17.5965Z" fill="#742823"/>
<path d="M182.56 27.7377C182.483 28.1433 182.392 28.5137 182.281 28.8613C182.025 29.6644 181.669 30.342 181.174 31.0151C180.523 31.9013 179.631 32.7846 178.411 33.9405C176.494 35.7555 173.786 36.106 171.296 35.6887C164.682 34.5805 164.851 29.9723 166.555 23.2589C167.614 19.0909 166.821 16.5439 168.155 15.0816L168.158 15.0823C168.241 15.0184 168.327 14.9567 168.411 14.8971C170.436 13.4569 172.966 12.9028 175.426 13.2695C175.9 13.3407 176.35 13.423 176.78 13.5178C176.878 13.5362 176.976 13.5583 177.07 13.5825C177.111 13.5899 177.151 13.5994 177.189 13.6104C177.297 13.6347 177.404 13.6611 177.51 13.6905C177.586 13.7089 177.662 13.7287 177.735 13.7508C177.908 13.7971 178.073 13.8463 178.235 13.8963C183.398 15.5181 184.165 18.9608 183.809 22.1691C183.568 24.3494 182.807 26.4209 182.56 27.7377Z" fill="#D47C5F"/>
<path d="M170.91 28.1499C170.859 28.956 170.276 29.5755 169.605 29.5336C168.935 29.4917 168.433 28.8039 168.484 27.9978C168.535 27.1916 169.118 26.5714 169.788 26.6133C170.458 26.656 170.96 27.343 170.91 28.1499Z" fill="#F4F0DE"/>
<path d="M169.12 23.108C169.053 23.4791 168.773 23.7385 168.495 23.6886C168.217 23.6386 168.045 23.2976 168.112 22.9265C168.179 22.5554 168.458 22.296 168.737 22.346C169.015 22.3967 169.186 22.7377 169.12 23.108Z" fill="#2C2F3F"/>
<path d="M173.639 23.5695C173.572 23.9405 173.293 24.1999 173.014 24.15C172.737 24.1 172.565 23.759 172.632 23.388C172.698 23.0169 172.978 22.7575 173.256 22.8074C173.535 22.8574 173.706 23.1991 173.639 23.5695Z" fill="#2C2F3F"/>
<path d="M175.722 25.9485C175.654 26.3101 175.037 26.4974 174.342 26.3674C173.649 26.2373 173.141 25.8383 173.209 25.4768C173.277 25.1152 173.895 24.9278 174.589 25.0579C175.282 25.1887 175.79 25.587 175.722 25.9485Z" fill="#A95249"/>
<path d="M166.152 24.9522C166.354 25.1492 166.693 25.3138 167.094 25.3895C167.787 25.5195 168.404 25.3329 168.472 24.9699C168.54 24.6091 168.032 24.2108 167.339 24.0807C166.958 24.0094 166.599 24.0337 166.342 24.1307L166.152 24.9522Z" fill="#A95249"/>
<path d="M173.251 21.7536C173.624 21.5126 174.214 21.4141 174.499 21.8491C174.671 22.1129 174.989 22.2577 175.289 22.1004C175.549 21.9652 175.716 21.5772 175.541 21.3098C174.921 20.3618 173.676 20.0884 172.711 20.7123C172.446 20.8835 172.303 21.2032 172.46 21.503C172.596 21.7624 172.983 21.927 173.251 21.7536Z" fill="#742823"/>
<path d="M168.067 20.7791C168.555 20.5932 168.967 20.6234 169.358 20.9944C169.906 21.5147 170.728 20.6777 170.18 20.1567C169.507 19.5167 168.617 19.319 167.744 19.6512C167.043 19.9179 167.361 21.0481 168.067 20.7791Z" fill="#742823"/>
<path d="M170.682 25.7222C170.791 25.7237 170.886 25.6443 170.901 25.5341C170.917 25.4151 170.833 25.3063 170.714 25.2902C170.302 25.235 170.01 25.0859 169.837 24.9683C170.542 24.3812 170.842 23.2657 170.856 23.2128C170.886 23.0967 170.817 22.9783 170.701 22.9475C170.584 22.9174 170.466 22.9864 170.435 23.1025C170.432 23.115 170.097 24.3554 169.372 24.764C169.316 24.7963 169.276 24.8522 169.265 24.9169C169.254 24.9815 169.272 25.0469 169.316 25.0962C169.333 25.1167 169.767 25.601 170.657 25.72C170.665 25.7215 170.674 25.7222 170.682 25.7222Z" fill="#2C2F3F"/>
<path d="M179.855 29.1491C180.783 29.3373 181.6 29.2057 182.289 28.8618C182.033 29.665 181.677 30.3425 181.183 31.0156C180.587 30.5696 180.122 29.9626 179.855 29.1491Z" fill="#2C2F3F"/>
<path d="M182.345 21.8453C179.589 22.0679 178.488 26.4931 177.287 25.4717C176.086 24.4503 179.955 17.6163 176.46 17.1592C172.965 16.7021 173.27 17.4377 171.668 17.254C168.942 16.941 169.194 15.5955 168.164 15.0818C168.248 15.0179 168.333 14.9562 168.418 14.8966C170.443 13.4564 172.972 12.9023 175.432 13.269C175.906 13.3403 176.357 13.4226 176.787 13.5173C176.884 13.5357 176.982 13.5578 177.077 13.582C177.117 13.5894 177.157 13.5989 177.195 13.6099C177.304 13.6342 177.411 13.6606 177.516 13.69C177.593 13.7084 177.668 13.7282 177.742 13.7503C177.912 13.7944 178.081 13.8436 178.242 13.8958C183.405 15.5176 184.171 18.9603 183.815 22.1686C183.437 21.921 182.949 21.7953 182.345 21.8453Z" fill="#742823"/>
<path d="M177.292 25.4717C178.492 26.4924 179.592 22.0679 182.349 21.8453C182.954 21.796 183.442 21.9202 183.818 22.1686C183.577 24.3488 182.816 26.4211 182.569 27.7372C182.494 28.1318 182.406 28.4948 182.299 28.8336C183.82 26.2947 185.553 23.2877 186.041 21.9724C186.141 21.7071 186.212 21.4529 186.26 21.2089C186.21 21.1303 186.16 21.0531 186.107 20.9789C185.879 20.6504 185.611 20.3587 185.315 20.0956C184.844 19.6834 184.295 19.3475 183.705 19.0771C181.79 18.1953 179.418 17.9866 177.716 17.9727C178.716 19.917 176.309 24.6354 177.292 25.4717Z" fill="#742823"/>
<path d="M168.779 31.2437C169.246 31.5031 169.775 31.603 170.247 31.301C170.486 31.1482 170.238 30.7852 169.999 30.938C169.662 31.1533 169.295 31.0269 168.972 30.8484C168.724 30.711 168.532 31.107 168.779 31.2437Z" fill="#A95249"/>
<path d="M178.072 27.1263C177.915 26.0013 178.33 24.8748 179.117 24.0562C180.137 22.9958 181.949 21.4093 183.313 21.8671C185.319 22.5402 185.218 24.4221 184.665 26.2533C184.111 28.0845 182.425 30.303 179.929 29.4249C178.682 28.9869 178.2 28.0478 178.072 27.1263Z" fill="#D47C5F"/>
<path d="M180.585 27.2554C180.63 26.4537 180.733 25.6256 181.167 24.9289C181.553 24.3065 182.487 23.4747 183.294 23.9185C183.565 24.0677 183.844 23.6716 183.571 23.521C182.794 23.0933 181.912 23.4328 181.297 24.0089C180.409 24.84 180.168 26.0569 180.102 27.2209C180.084 27.5317 180.567 27.5678 180.585 27.2554Z" fill="#2C2F3F"/>
<path d="M142.705 133.1C129.217 132.35 103.618 106.199 103.163 89.8837C100.469 89.348 97.6921 88.4192 94.8842 87.1869C73.1286 77.6641 49.5932 50.2186 49.5932 50.2186L47.0117 43.2832L103.025 70.6199L115.181 76.553C115.181 76.553 157.423 106.512 163.392 114.604C169.361 122.695 159.194 134.815 142.705 133.1Z" fill="#D47C5F"/>
<path d="M103.025 70.6199C102.214 74.8695 100.129 81.9916 94.8842 87.1869C73.1286 77.6641 49.5932 50.2186 49.5932 50.2186L47.0117 43.2832L103.025 70.6199Z" fill="#D9C4A0"/>
<path d="M99.4178 69.831C98.1729 75.4789 95.3791 80.6661 91.3426 84.8092C91.0899 85.0686 91.4874 85.4661 91.7402 85.2067C95.8406 80.999 98.6947 75.7192 99.9601 69.9809C100.037 69.6274 99.4957 69.4768 99.4178 69.831Z" fill="#2C2F3F"/>
<path d="M103.129 89.833C104.403 89.0262 105.385 87.8747 105.968 86.4829C106.107 86.1515 105.611 85.8848 105.472 86.2184C104.923 87.5271 104.026 88.5992 102.826 89.3591C102.521 89.5531 102.823 90.027 103.129 89.833Z" fill="#A95249"/>
<path d="M48.7473 46.3326C48.7473 46.3326 50.4213 44.2324 49.3308 43.1338C48.2403 42.0352 44.2266 40.556 44.2266 40.556C44.2266 40.556 37.1655 36.496 36.0897 34.6288C35.0132 32.7616 33.0931 31.6123 29 32.7417L40.5891 56.1103C40.5891 56.1103 48.8656 53.8095 50.3823 53.2349C51.8983 52.6603 50.4705 49.5364 50.4705 49.5364L48.7473 46.3326Z" fill="#2C2F3F"/>
<path d="M40.5884 56.1096L37.8048 50.4962L29 32.7418C29 32.7418 31.2457 31.871 32.1716 32.3009C33.8073 33.0607 33.1577 37.6946 34.9537 39.0629C38.2443 41.5687 36.0398 43.9517 37.4852 45.8381C38.9306 47.7251 40.9264 47.149 43.2867 49.9943C45.647 52.8403 45.4677 54.3093 45.4677 54.3093C45.4677 54.3093 42.6798 56.7012 40.5884 56.1096Z" fill="#D9C4A0"/>
<path d="M48.0871 42.216C48.1812 42.9971 47.9835 43.7709 47.5 44.3955C47.3163 44.6329 46.9217 44.3786 47.1069 44.1398C47.514 43.6136 47.7079 42.9714 47.6278 42.3078C47.5911 42.0102 48.0511 41.9154 48.0871 42.216Z" fill="#D9C4A0"/>
<path d="M42.6034 50.8878C42.6724 46.6155 39.7522 42.9413 35.5937 42.008C35.2991 41.9419 35.4482 41.4973 35.7407 41.5627C40.1101 42.543 43.1435 46.4479 43.0715 50.9172C43.0663 51.2192 42.5982 51.1898 42.6034 50.8878Z" fill="#D9C4A0"/>
<path d="M126.803 83.2051L110.426 110.055C110.426 110.055 129.396 135.799 147.091 134.917C164.786 134.035 171.094 121.16 171.094 121.16C156.907 106.615 142.388 93.1629 126.803 83.2051Z" fill="#2C2F3F"/>
<path d="M128.573 85.1481C123.41 94.141 117.935 102.953 112.16 111.566C111.959 111.867 112.456 112.128 112.656 111.831C118.431 103.218 123.906 94.4063 129.069 85.4126C129.249 85.0981 128.752 84.835 128.573 85.1481Z" fill="#D9C4A0"/>
<path d="M166.947 116.522C162.163 122.498 155.37 127.192 147.491 127.398C139.281 127.612 132.963 122.156 127.161 117.039C123.57 113.871 120.09 110.582 116.611 107.292C116.348 107.043 115.966 107.456 116.229 107.705C119.491 110.789 122.753 113.873 126.107 116.856C129.119 119.535 132.172 122.257 135.591 124.414C138.806 126.443 142.362 127.8 146.189 127.951C150.195 128.109 154.192 127.053 157.714 125.173C161.488 123.158 164.697 120.229 167.359 116.903C167.585 116.622 167.173 116.239 166.947 116.522Z" fill="#D9C4A0"/>
<path d="M183.629 79.2178C183.629 79.2178 192.294 99.4017 195.114 106.777C197.934 114.153 204.796 148.691 204.796 148.691L209.608 147.723C209.608 147.723 211.171 119.763 210.536 110.738C209.9 101.713 201.945 70.9546 201.945 70.9546L183.629 79.2178Z" fill="#D47C5F"/>
<path d="M206.021 142.835C208.169 142.148 210.425 143.44 211.183 145.564C211.584 146.684 212.126 147.876 212.808 148.674C214.446 150.587 216.913 152.392 217.467 153.592C218.285 155.364 216.285 154.71 216.048 154.594C214.533 153.856 212.616 152.476 212.616 152.476C212.616 152.476 215.374 155.749 216.881 156.506C218.387 157.262 218.711 158.746 216.901 158.843C215.092 158.94 211.302 155.967 210.475 154.859C210.475 154.859 211.655 157.317 213.662 158.409C215.668 159.502 216.24 160.163 216.724 160.951C217.208 161.74 215.535 162.549 212.774 160.952C210.012 159.355 209.354 158.049 208.528 156.733C208.528 156.733 208.753 157.974 209.553 159.886C210.353 161.797 212.773 162.875 212.702 164.113C212.63 165.378 209.897 164.014 208.727 162.587C207.557 161.161 206.585 160.222 205.894 157.967C205.203 155.713 204.621 153.533 204.532 152.084C204.442 150.635 203.447 145.523 204.598 143.774C204.894 143.327 205.412 143.029 206.021 142.835Z" fill="#D47C5F"/>
<path d="M204.192 148.075C204.192 148.075 202.953 152.334 203.311 153.788C203.669 155.242 203.434 157.626 204.429 157.468C205.425 157.31 205.633 154.37 205.633 154.37L204.192 148.075Z" fill="#D47C5F"/>
<path d="M196.172 108.484C198.093 106.958 200.386 106.122 202.84 106.068C203.201 106.06 203.179 105.498 202.817 105.506C200.274 105.563 197.862 106.427 195.87 108.011C195.59 108.233 195.889 108.709 196.172 108.484Z" fill="#A95249"/>
<path d="M197.372 107.533C198.084 106.6 198.795 105.667 199.507 104.735C199.725 104.449 199.314 104.065 199.095 104.353C198.383 105.287 197.672 106.219 196.96 107.152C196.743 107.437 197.153 107.82 197.372 107.533Z" fill="#A95249"/>
<path d="M180.988 71.0862C181.651 76.4586 182.759 83.577 184.322 87.6098C184.322 87.6098 202.608 83.5505 205.777 78.3486C205.777 78.3486 201.224 58.3845 192.565 54.8228C192.565 54.8228 192.34 54.8632 191.949 54.9624C184.754 56.7855 180.078 63.7194 180.988 71.0862Z" fill="#BA7B1F"/>
<path d="M69.0529 35.8179C69.3395 35.5019 69.6107 35.1779 69.8649 34.845C71.7292 32.4193 72.7587 29.5777 72.9711 26.6978C73.2511 22.9208 72.1304 19.0717 69.6481 15.9905C69.1543 15.3754 68.6047 14.7912 68.0028 14.2445C66.409 12.7984 64.5932 11.7534 62.6767 11.1001C59.9365 10.1647 56.995 10.0376 54.2107 10.6982C51.311 11.383 48.5825 12.9218 46.4294 15.2953C45.857 15.9266 45.347 16.5916 44.9003 17.2845C44.2514 18.2869 43.7348 19.3472 43.3461 20.4421C41.8014 24.7961 42.3055 29.6871 44.7864 33.6545C45.5138 34.8178 46.4126 35.9009 47.4795 36.8687C48.1343 37.4625 48.8258 37.9886 49.5466 38.4479C52.8652 40.5628 56.7988 41.2586 60.5112 40.5752C63.6923 39.9903 66.7125 38.3979 69.0529 35.8179Z" fill="#D9C4A0"/>
<path d="M40.1471 22.4129C39.2741 26.4472 39.9751 30.6556 42.1253 34.1814C42.3134 34.49 42.7991 34.2078 42.6103 33.8977C40.5395 30.502 39.8473 26.4516 40.6887 22.5628C40.7651 22.2101 40.2235 22.0595 40.1471 22.4129Z" fill="#2C2F3F"/>
<path d="M50.1799 30.6999L48.4766 22.5373L55.7132 18.395L61.8896 23.9974L58.4696 31.6015L50.1799 30.6999Z" fill="#2C2F3F"/>
<path d="M69.0567 35.8178C69.3433 35.5018 69.6144 35.1778 69.8686 34.8449L69.5821 34.2769L61.3401 35.5371L60.5156 40.5752C63.696 39.9902 66.7162 38.3978 69.0567 35.8178Z" fill="#2C2F3F"/>
<path d="M44.7419 20.0697L44.894 17.2847C44.2452 18.287 43.7286 19.3474 43.3398 20.4423L44.7419 20.0697Z" fill="#2C2F3F"/>
<path d="M49.5454 38.4469L48.003 33.6543L44.7852 33.6528C45.5126 34.8161 46.4114 35.8992 47.4783 36.867C48.1331 37.4615 48.8246 37.9876 49.5454 38.4469Z" fill="#2C2F3F"/>
<path d="M72.9695 26.6976C73.2495 22.9205 72.1289 19.0714 69.6466 15.9902L67.4531 22.6567L72.9695 26.6976Z" fill="#2C2F3F"/>
<path d="M62.6809 11.1001C59.9407 10.1647 56.9991 10.0376 54.2148 10.6982L56.8654 13.664L62.6809 11.1001Z" fill="#2C2F3F"/>
<path d="M55.2722 19.3342C55.8211 17.2744 56.3693 15.2147 56.9182 13.1549C57.0108 12.8059 57.5612 12.9212 57.4679 13.271C56.919 15.3308 56.3708 17.3905 55.8219 19.4503C55.7293 19.7993 55.1796 19.6847 55.2722 19.3342Z" fill="#2C2F3F"/>
<path d="M48.792 23.0086C47.2782 21.9519 45.7652 20.896 44.2514 19.84C43.956 19.6335 44.3359 19.2191 44.6291 19.4241C46.1429 20.4808 47.6559 21.5368 49.1697 22.5927C49.4651 22.7985 49.0852 23.2129 48.792 23.0086Z" fill="#2C2F3F"/>
<path d="M47.454 34.065C48.5379 32.6027 49.6225 31.1411 50.7064 29.6788C50.9217 29.3885 51.3362 29.7677 51.1223 30.0565C50.0385 31.5188 48.9538 32.9804 47.8699 34.4427C47.6554 34.7323 47.2402 34.3531 47.454 34.065Z" fill="#2C2F3F"/>
<path d="M62.2348 36.8005C60.6204 34.8892 59.0067 32.9786 57.3923 31.0673C57.1622 30.7954 57.537 30.3751 57.7699 30.6514C59.3844 32.5627 60.9981 34.4733 62.6125 36.3846C62.8418 36.6565 62.4678 37.0761 62.2348 36.8005Z" fill="#2C2F3F"/>
<path d="M61.2103 24.0672C63.5368 23.5661 65.8376 22.965 68.1112 22.2625C68.4566 22.1559 68.6271 22.6916 68.2802 22.7982C66.0066 23.5007 63.7059 24.1025 61.3794 24.6029C61.0288 24.6786 60.8562 24.1437 61.2103 24.0672Z" fill="#2C2F3F"/>
<path d="M3.02436 86.0487C1.35677 86.0487 0 84.692 0 83.0244C0 81.3568 1.35677 80 3.02436 80C4.69195 80 6.04872 81.3568 6.04872 83.0244C6.04872 84.692 4.69195 86.0487 3.02436 86.0487ZM3.02436 80.4804C1.62144 80.4804 0.479884 81.6219 0.479884 83.0248C0.479884 84.4277 1.62144 85.5688 3.02436 85.5688C4.42729 85.5688 5.56837 84.4273 5.56837 83.0248C5.56884 81.6214 4.42729 80.4804 3.02436 80.4804Z" fill="#D9C4A0"/>
<path d="M227.024 6.04872C225.357 6.04872 224 4.69195 224 3.02436C224 1.35677 225.357 0 227.024 0C228.692 0 230.049 1.35677 230.049 3.02436C230.049 4.69195 228.692 6.04872 227.024 6.04872ZM227.024 0.480351C225.621 0.480351 224.48 1.6219 224.48 3.02482C224.48 4.42775 225.621 5.56883 227.024 5.56883C228.427 5.56883 229.568 4.42727 229.568 3.02482C229.569 1.62143 228.427 0.480351 227.024 0.480351Z" fill="#D9C4A0"/>
<path d="M167.024 185.049C165.357 185.049 164 183.692 164 182.024C164 180.357 165.357 179 167.024 179C168.692 179 170.049 180.357 170.049 182.024C170.049 183.692 168.692 185.049 167.024 185.049ZM167.024 179.48C165.621 179.48 164.48 180.622 164.48 182.025C164.48 183.428 165.621 184.569 167.024 184.569C168.427 184.569 169.568 183.427 169.568 182.025C169.569 180.621 168.427 179.48 167.024 179.48Z" fill="#D9C4A0"/>
</mask>
<g mask="url(#mask0_15433_1160)">
<path d="M103.393 187.892C103.747 189.127 103.951 189.835 103.951 189.835L97.2278 190.473C97.2278 190.473 96.7891 189.9 96.008 188.866C95.9661 188.812 95.9249 188.755 95.8816 188.698C90.892 182.072 73.2779 158.348 64.9052 142.551C64.1196 141.069 63.4157 139.66 62.8109 138.337C60.9863 134.348 60.0648 131.183 60.5432 129.408C63.1607 119.688 117.241 95.6914 117.241 95.6914L135.204 126.947C120.532 133.6 102.504 136.033 87.805 136.9C87.805 136.9 88.6978 137.731 89.8787 139.918C91.0853 142.156 92.5954 145.812 93.7638 151.449C95.703 160.808 101.557 181.474 103.393 187.892Z" fill="#D47C5F"/>
<path d="M92.9102 106.07L106.33 138.409C106.33 138.409 130.854 133.571 137.085 129.953C143.316 126.334 123.569 91.2451 123.569 91.2451L92.9102 106.07Z" fill="#2C2F3F"/>
<path d="M95.6316 105.108C99.5108 115.887 103.792 126.519 108.465 136.978C108.61 137.304 109.148 137.138 109 136.808C104.327 126.348 100.046 115.716 96.1673 104.937C96.0453 104.598 95.5081 104.766 95.6316 105.108Z" fill="#D9C4A0"/>
<path d="M103.405 187.893C101.651 189.531 99.2077 189.889 96.0207 188.867C95.9789 188.813 95.9377 188.756 95.8944 188.7C90.9048 182.073 73.2907 158.349 64.918 142.553C71.242 140.88 82.3623 136.229 89.8907 139.92C91.0973 142.158 92.6074 145.814 93.7758 151.452C95.7151 160.809 101.569 181.474 103.405 187.893Z" fill="#D9C4A0"/>
<path d="M67.4089 145.741C74.6919 143.25 82.3959 142.233 90.0765 142.749C90.4373 142.773 90.4358 142.211 90.0765 142.187C82.3504 141.668 74.5861 142.693 67.2597 145.199C66.9195 145.316 67.0657 145.859 67.4089 145.741Z" fill="#2C2F3F"/>
<path d="M87.6111 136.289C85.5462 135.911 83.5364 135.338 81.5869 134.558C81.254 134.425 80.9873 134.92 81.3224 135.054C83.3174 135.852 85.3691 136.45 87.4832 136.837C87.8382 136.902 87.9675 136.355 87.6111 136.289Z" fill="#A95249"/>
<path d="M99.5051 189.125C99.5051 189.125 97.2653 187.645 96.2674 188.828C95.2695 190.011 94.1518 194.141 94.1518 194.141C94.1518 194.141 90.734 201.533 88.9689 202.77C87.2039 204.008 86.2302 206.023 87.7175 209.999L109.967 196.385C109.967 196.385 105.224 186.362 104.517 184.902C103.811 183.443 102.544 187.125 102.544 187.125L99.5051 189.125Z" fill="#2C2F3F"/>
<path d="M109.968 196.386L104.624 199.656L87.719 210C87.719 210 86.6527 207.84 86.9988 206.881C87.6109 205.184 92.2838 205.42 93.4874 203.51C95.692 200.011 98.261 201.995 100.012 200.388C101.763 198.781 101.013 196.844 103.638 194.241C106.263 191.637 107.743 191.686 107.743 191.686C107.743 191.686 110.372 194.25 109.968 196.386Z" fill="#D9C4A0"/>
<path d="M95.467 190.157C96.2363 189.995 97.0256 190.123 97.6899 190.55C97.9427 190.712 97.7244 191.127 97.4702 190.964C96.9102 190.605 96.2533 190.469 95.5993 190.608C95.3061 190.669 95.1701 190.22 95.467 190.157Z" fill="#D9C4A0"/>
<path d="M104.585 194.846C100.323 195.156 96.9218 198.39 96.3611 202.614C96.3214 202.914 95.8651 202.804 95.9048 202.507C96.4941 198.069 100.115 194.701 104.573 194.376C104.874 194.355 104.886 194.824 104.585 194.846Z" fill="#D9C4A0"/>
<path d="M149.939 31.6008C149.939 31.6008 130.132 20.4614 120.504 17.9489C110.876 15.4373 88.413 12.1694 88.413 12.1694L86.8867 15.7995L116.573 27.9156L143.446 48.0847L149.939 31.6008Z" fill="#D47C5F"/>
<path d="M74.8986 11.9619C74.8986 11.9619 72.1459 13.3272 72.4862 14.1363C72.8264 14.9454 74.8487 13.6814 76.0619 13.4786C77.2751 13.2765 80.3592 12.5182 80.3592 12.5182L74.8986 11.9619Z" fill="#A95249"/>
<path d="M88.0856 16.0315C88.0856 16.0315 86.0736 17.1389 84.0514 17.948C82.0291 18.7571 80.6637 20.7198 80.4617 19.0098C80.2596 17.2999 82.7088 15.6428 82.7367 14.9146C82.7874 13.6 80.6388 13.284 76.955 13.0929C72.119 12.8416 71.1608 11.7805 71.4114 11.5696C72.374 10.7598 75.4729 11.2411 79.2477 10.7686C83.0226 10.2969 86.8011 11.2727 88.7867 12.2243C88.7867 12.2243 88.7323 14.5707 88.0856 16.0315Z" fill="#D47C5F"/>
<path d="M158.604 36.1617L141.967 25.458L129.352 41.2813L143.813 58.5382L158.604 36.1617Z" fill="#BA7B1F"/>
<path d="M166.015 127.444C163.992 126.483 161.567 126.393 159.633 125.41L159.632 125.41C159.429 125.307 159.227 125.205 159.025 125.101C148.975 119.964 140.239 114.535 133.719 108.616L133.718 108.616C133.595 108.505 133.473 108.392 133.352 108.281C131.477 106.551 129.794 104.78 128.321 102.962C128.223 102.841 128.126 102.72 128.031 102.6C125.412 99.2905 123.493 95.8258 122.41 92.1751C124.341 90.0213 126.165 87.7866 127.888 85.5028C128.004 85.3514 128.118 85.1993 128.232 85.0472C130.172 82.4495 131.982 79.7923 133.673 77.1234C133.745 77.011 133.817 76.8963 133.888 76.7832C135.728 73.8614 137.424 70.9272 138.987 68.0467C138.987 68.0452 138.987 68.0437 138.987 68.0437C139.198 67.6557 139.406 67.2685 139.611 66.8827L139.611 66.8812C141.614 63.1247 143.393 59.4718 144.973 56.0644C145.056 55.8851 145.139 55.7065 145.22 55.5287C150.659 43.7382 155.11 34.9576 156.865 35.3809C159.417 35.9959 160.675 36.6007 163.24 37.0497L163.241 37.0504C163.413 37.0798 163.583 37.11 163.753 37.1401C171.231 38.4231 177.705 39.0147 177.705 39.0147C177.705 39.0147 184.973 45.8972 189.74 51.3269C189.849 51.4496 189.957 51.5723 190.062 51.6958C190.883 52.6415 191.621 53.538 192.217 54.3375C192.342 54.5036 192.461 54.666 192.572 54.8225C193.185 55.6845 193.601 56.4076 193.744 56.9241C194.701 60.4007 195.006 64.0903 194.803 67.8916L194.802 67.8931C194.79 68.1253 194.776 68.3582 194.759 68.5919C194.509 72.2058 193.809 75.9109 192.788 79.6218L192.787 79.6233C192.747 79.771 192.706 79.9165 192.664 80.0627C185.851 104.163 166.015 127.444 166.015 127.444Z" fill="#D99A26"/>
<path d="M161.526 91.3269C149.705 92.4777 137.912 91.4232 126.482 88.1892C126.277 88.1311 126.189 88.45 126.394 88.5081C137.856 91.7509 149.667 92.8113 161.526 91.6576C161.736 91.637 161.739 91.3063 161.526 91.3269Z" fill="#2C2F3F"/>
<path d="M171.206 63.4453L168.35 67.5648L147.467 81.3269L140.457 78.3001L161.308 64.5241L155.985 62.2262L154.589 64.2397L149.397 61.9977L153.649 55.8647L171.206 63.4453Z" fill="#BA7B1F"/>
<path d="M165.118 43.0246C164.367 44.7639 165.96 46.0771 167.375 46.7355C169.385 47.6709 171.591 48.1236 173.803 48.1251C174.088 48.1251 174.139 47.6805 173.851 47.6805C172.132 47.679 170.429 47.4123 168.806 46.8362C167.351 46.3203 164.663 45.2041 165.534 43.1884C165.648 42.9246 165.232 42.7607 165.118 43.0246Z" fill="#2C2F3F"/>
<path d="M184.145 86.3571C180.902 94.5572 176.358 102.042 171.328 109.26C169.183 112.337 166.97 115.368 164.731 118.378C164.558 118.611 164.197 118.341 164.37 118.107C170.522 109.837 176.699 101.396 181.171 92.0675C182.094 90.1408 182.94 88.1788 183.725 86.1918C183.832 85.9214 184.251 86.0867 184.145 86.3571Z" fill="#2C2F3F"/>
<path d="M180.057 41.7478C179.117 43.2645 166.364 49.867 166.234 41.1915L168.52 37.0389L169.904 33.5602L170.873 31.1249L181.182 30.4004C180.235 35.0071 180.817 38.1566 180.057 41.7478Z" fill="#D47C5F"/>
<path d="M178.425 33.912C173.356 38.834 169.262 39.0434 167.996 38.3666L169.909 33.5615L178.425 33.912Z" fill="#2C2F3F"/>
<path d="M167.295 17.5965C167.295 17.5965 165.785 16.2334 166.113 15.0334C166.441 13.8334 167.111 12.9325 167.111 12.9325C167.111 12.9325 165.326 8.37867 166.881 7.06846C166.881 7.06846 167.982 9.12821 168.396 9.02901C168.396 9.02901 168.772 6.36962 170.95 6.15872C170.95 6.15872 171.427 8.74315 171.901 8.89159C171.901 8.89159 172.738 6.08892 174.994 6C174.994 6 174.641 9.45007 177.028 9.79397C179.416 10.1379 184.51 11.4995 185.972 14.2537C187.434 17.0079 186.713 19.8554 186.245 21.2097L167.295 17.5965Z" fill="#742823"/>
<path d="M182.56 27.7377C182.483 28.1433 182.392 28.5137 182.281 28.8613C182.025 29.6644 181.669 30.342 181.174 31.0151C180.523 31.9013 179.631 32.7846 178.411 33.9405C176.494 35.7555 173.786 36.106 171.296 35.6887C164.682 34.5805 164.851 29.9723 166.555 23.2589C167.614 19.0909 166.821 16.5439 168.155 15.0816L168.158 15.0823C168.241 15.0184 168.327 14.9567 168.411 14.8971C170.436 13.4569 172.966 12.9028 175.426 13.2695C175.9 13.3407 176.35 13.423 176.78 13.5178C176.878 13.5362 176.976 13.5583 177.07 13.5825C177.111 13.5899 177.151 13.5994 177.189 13.6104C177.297 13.6347 177.404 13.6611 177.51 13.6905C177.586 13.7089 177.662 13.7287 177.735 13.7508C177.908 13.7971 178.073 13.8463 178.235 13.8963C183.398 15.5181 184.165 18.9608 183.809 22.1691C183.568 24.3494 182.807 26.4209 182.56 27.7377Z" fill="#D47C5F"/>
<path d="M170.91 28.1499C170.859 28.956 170.276 29.5755 169.605 29.5336C168.935 29.4917 168.433 28.8039 168.484 27.9978C168.535 27.1916 169.118 26.5714 169.788 26.6133C170.458 26.656 170.96 27.343 170.91 28.1499Z" fill="#F4F0DE"/>
<path d="M169.12 23.108C169.053 23.4791 168.773 23.7385 168.495 23.6886C168.217 23.6386 168.045 23.2976 168.112 22.9265C168.179 22.5554 168.458 22.296 168.737 22.346C169.015 22.3967 169.186 22.7377 169.12 23.108Z" fill="#2C2F3F"/>
<path d="M173.639 23.5695C173.572 23.9405 173.293 24.1999 173.014 24.15C172.737 24.1 172.565 23.759 172.632 23.388C172.698 23.0169 172.978 22.7575 173.256 22.8074C173.535 22.8574 173.706 23.1991 173.639 23.5695Z" fill="#2C2F3F"/>
<path d="M175.722 25.9485C175.654 26.3101 175.037 26.4974 174.342 26.3674C173.649 26.2373 173.141 25.8383 173.209 25.4768C173.277 25.1152 173.895 24.9278 174.589 25.0579C175.282 25.1887 175.79 25.587 175.722 25.9485Z" fill="#A95249"/>
<path d="M166.152 24.9522C166.354 25.1492 166.693 25.3138 167.094 25.3895C167.787 25.5195 168.404 25.3329 168.472 24.9699C168.54 24.6091 168.032 24.2108 167.339 24.0807C166.958 24.0094 166.599 24.0337 166.342 24.1307L166.152 24.9522Z" fill="#A95249"/>
<path d="M173.251 21.7536C173.624 21.5126 174.214 21.4141 174.499 21.8491C174.671 22.1129 174.989 22.2577 175.289 22.1004C175.549 21.9652 175.716 21.5772 175.541 21.3098C174.921 20.3618 173.676 20.0884 172.711 20.7123C172.446 20.8835 172.303 21.2032 172.46 21.503C172.596 21.7624 172.983 21.927 173.251 21.7536Z" fill="#742823"/>
<path d="M168.067 20.7791C168.555 20.5932 168.967 20.6234 169.358 20.9944C169.906 21.5147 170.728 20.6777 170.18 20.1567C169.507 19.5167 168.617 19.319 167.744 19.6512C167.043 19.9179 167.361 21.0481 168.067 20.7791Z" fill="#742823"/>
<path d="M170.682 25.7222C170.791 25.7237 170.886 25.6443 170.901 25.5341C170.917 25.4151 170.833 25.3063 170.714 25.2902C170.302 25.235 170.01 25.0859 169.837 24.9683C170.542 24.3812 170.842 23.2657 170.856 23.2128C170.886 23.0967 170.817 22.9783 170.701 22.9475C170.584 22.9174 170.466 22.9864 170.435 23.1025C170.432 23.115 170.097 24.3554 169.372 24.764C169.316 24.7963 169.276 24.8522 169.265 24.9169C169.254 24.9815 169.272 25.0469 169.316 25.0962C169.333 25.1167 169.767 25.601 170.657 25.72C170.665 25.7215 170.674 25.7222 170.682 25.7222Z" fill="#2C2F3F"/>
<path d="M179.855 29.1491C180.783 29.3373 181.6 29.2057 182.289 28.8618C182.033 29.665 181.677 30.3425 181.183 31.0156C180.587 30.5696 180.122 29.9626 179.855 29.1491Z" fill="#2C2F3F"/>
<path d="M182.345 21.8453C179.589 22.0679 178.488 26.4931 177.287 25.4717C176.086 24.4503 179.955 17.6163 176.46 17.1592C172.965 16.7021 173.27 17.4377 171.668 17.254C168.942 16.941 169.194 15.5955 168.164 15.0818C168.248 15.0179 168.333 14.9562 168.418 14.8966C170.443 13.4564 172.972 12.9023 175.432 13.269C175.906 13.3403 176.357 13.4226 176.787 13.5173C176.884 13.5357 176.982 13.5578 177.077 13.582C177.117 13.5894 177.157 13.5989 177.195 13.6099C177.304 13.6342 177.411 13.6606 177.516 13.69C177.593 13.7084 177.668 13.7282 177.742 13.7503C177.912 13.7944 178.081 13.8436 178.242 13.8958C183.405 15.5176 184.171 18.9603 183.815 22.1686C183.437 21.921 182.949 21.7953 182.345 21.8453Z" fill="#742823"/>
<path d="M177.292 25.4717C178.492 26.4924 179.592 22.0679 182.349 21.8453C182.954 21.796 183.442 21.9202 183.818 22.1686C183.577 24.3488 182.816 26.4211 182.569 27.7372C182.494 28.1318 182.406 28.4948 182.299 28.8336C183.82 26.2947 185.553 23.2877 186.041 21.9724C186.141 21.7071 186.212 21.4529 186.26 21.2089C186.21 21.1303 186.16 21.0531 186.107 20.9789C185.879 20.6504 185.611 20.3587 185.315 20.0956C184.844 19.6834 184.295 19.3475 183.705 19.0771C181.79 18.1953 179.418 17.9866 177.716 17.9727C178.716 19.917 176.309 24.6354 177.292 25.4717Z" fill="#742823"/>
<path d="M168.779 31.2437C169.246 31.5031 169.775 31.603 170.247 31.301C170.486 31.1482 170.238 30.7852 169.999 30.938C169.662 31.1533 169.295 31.0269 168.972 30.8484C168.724 30.711 168.532 31.107 168.779 31.2437Z" fill="#A95249"/>
<path d="M178.072 27.1263C177.915 26.0013 178.33 24.8748 179.117 24.0562C180.137 22.9958 181.949 21.4093 183.313 21.8671C185.319 22.5402 185.218 24.4221 184.665 26.2533C184.111 28.0845 182.425 30.303 179.929 29.4249C178.682 28.9869 178.2 28.0478 178.072 27.1263Z" fill="#D47C5F"/>
<path d="M180.585 27.2554C180.63 26.4537 180.733 25.6256 181.167 24.9289C181.553 24.3065 182.487 23.4747 183.294 23.9185C183.565 24.0677 183.844 23.6716 183.571 23.521C182.794 23.0933 181.912 23.4328 181.297 24.0089C180.409 24.84 180.168 26.0569 180.102 27.2209C180.084 27.5317 180.567 27.5678 180.585 27.2554Z" fill="#2C2F3F"/>
<path d="M142.705 133.1C129.217 132.35 103.618 106.199 103.163 89.8837C100.469 89.348 97.6921 88.4192 94.8842 87.1869C73.1286 77.6641 49.5932 50.2186 49.5932 50.2186L47.0117 43.2832L103.025 70.6199L115.181 76.553C115.181 76.553 157.423 106.512 163.392 114.604C169.361 122.695 159.194 134.815 142.705 133.1Z" fill="#D47C5F"/>
<path d="M103.025 70.6199C102.214 74.8695 100.129 81.9916 94.8842 87.1869C73.1286 77.6641 49.5932 50.2186 49.5932 50.2186L47.0117 43.2832L103.025 70.6199Z" fill="#D9C4A0"/>
<path d="M99.4178 69.831C98.1729 75.4789 95.3791 80.6661 91.3426 84.8092C91.0899 85.0686 91.4874 85.4661 91.7402 85.2067C95.8406 80.999 98.6947 75.7192 99.9601 69.9809C100.037 69.6274 99.4957 69.4768 99.4178 69.831Z" fill="#2C2F3F"/>
<path d="M103.129 89.833C104.403 89.0262 105.385 87.8747 105.968 86.4829C106.107 86.1515 105.611 85.8848 105.472 86.2184C104.923 87.5271 104.026 88.5992 102.826 89.3591C102.521 89.5531 102.823 90.027 103.129 89.833Z" fill="#A95249"/>
<path d="M48.7473 46.3326C48.7473 46.3326 50.4213 44.2324 49.3308 43.1338C48.2403 42.0352 44.2266 40.556 44.2266 40.556C44.2266 40.556 37.1655 36.496 36.0897 34.6288C35.0132 32.7616 33.0931 31.6123 29 32.7417L40.5891 56.1103C40.5891 56.1103 48.8656 53.8095 50.3823 53.2349C51.8983 52.6603 50.4705 49.5364 50.4705 49.5364L48.7473 46.3326Z" fill="#2C2F3F"/>
<path d="M40.5884 56.1096L37.8048 50.4962L29 32.7418C29 32.7418 31.2457 31.871 32.1716 32.3009C33.8073 33.0607 33.1577 37.6946 34.9537 39.0629C38.2443 41.5687 36.0398 43.9517 37.4852 45.8381C38.9306 47.7251 40.9264 47.149 43.2867 49.9943C45.647 52.8403 45.4677 54.3093 45.4677 54.3093C45.4677 54.3093 42.6798 56.7012 40.5884 56.1096Z" fill="#D9C4A0"/>
<path d="M48.0871 42.216C48.1812 42.9971 47.9835 43.7709 47.5 44.3955C47.3163 44.6329 46.9217 44.3786 47.1069 44.1398C47.514 43.6136 47.7079 42.9714 47.6278 42.3078C47.5911 42.0102 48.0511 41.9154 48.0871 42.216Z" fill="#D9C4A0"/>
<path d="M42.6034 50.8878C42.6724 46.6155 39.7522 42.9413 35.5937 42.008C35.2991 41.9419 35.4482 41.4973 35.7407 41.5627C40.1101 42.543 43.1435 46.4479 43.0715 50.9172C43.0663 51.2192 42.5982 51.1898 42.6034 50.8878Z" fill="#D9C4A0"/>
<path d="M126.803 83.2051L110.426 110.055C110.426 110.055 129.396 135.799 147.091 134.917C164.786 134.035 171.094 121.16 171.094 121.16C156.907 106.615 142.388 93.1629 126.803 83.2051Z" fill="#2C2F3F"/>
<path d="M128.573 85.1481C123.41 94.141 117.935 102.953 112.16 111.566C111.959 111.867 112.456 112.128 112.656 111.831C118.431 103.218 123.906 94.4063 129.069 85.4126C129.249 85.0981 128.752 84.835 128.573 85.1481Z" fill="#D9C4A0"/>
<path d="M166.947 116.522C162.163 122.498 155.37 127.192 147.491 127.398C139.281 127.612 132.963 122.156 127.161 117.039C123.57 113.871 120.09 110.582 116.611 107.292C116.348 107.043 115.966 107.456 116.229 107.705C119.491 110.789 122.753 113.873 126.107 116.856C129.119 119.535 132.172 122.257 135.591 124.414C138.806 126.443 142.362 127.8 146.189 127.951C150.195 128.109 154.192 127.053 157.714 125.173C161.488 123.158 164.697 120.229 167.359 116.903C167.585 116.622 167.173 116.239 166.947 116.522Z" fill="#D9C4A0"/>
<path d="M183.629 79.2178C183.629 79.2178 192.294 99.4017 195.114 106.777C197.934 114.153 204.796 148.691 204.796 148.691L209.608 147.723C209.608 147.723 211.171 119.763 210.536 110.738C209.9 101.713 201.945 70.9546 201.945 70.9546L183.629 79.2178Z" fill="#D47C5F"/>
<path d="M206.021 142.835C208.169 142.148 210.425 143.44 211.183 145.564C211.584 146.684 212.126 147.876 212.808 148.674C214.446 150.587 216.913 152.392 217.467 153.592C218.285 155.364 216.285 154.71 216.048 154.594C214.533 153.856 212.616 152.476 212.616 152.476C212.616 152.476 215.374 155.749 216.881 156.506C218.387 157.262 218.711 158.746 216.901 158.843C215.092 158.94 211.302 155.967 210.475 154.859C210.475 154.859 211.655 157.317 213.662 158.409C215.668 159.502 216.24 160.163 216.724 160.951C217.208 161.74 215.535 162.549 212.774 160.952C210.012 159.355 209.354 158.049 208.528 156.733C208.528 156.733 208.753 157.974 209.553 159.886C210.353 161.797 212.773 162.875 212.702 164.113C212.63 165.378 209.897 164.014 208.727 162.587C207.557 161.161 206.585 160.222 205.894 157.967C205.203 155.713 204.621 153.533 204.532 152.084C204.442 150.635 203.447 145.523 204.598 143.774C204.894 143.327 205.412 143.029 206.021 142.835Z" fill="#D47C5F"/>
<path d="M204.192 148.075C204.192 148.075 202.953 152.334 203.311 153.788C203.669 155.242 203.434 157.626 204.429 157.468C205.425 157.31 205.633 154.37 205.633 154.37L204.192 148.075Z" fill="#D47C5F"/>
<path d="M196.172 108.484C198.093 106.958 200.386 106.122 202.84 106.068C203.201 106.06 203.179 105.498 202.817 105.506C200.274 105.563 197.862 106.427 195.87 108.011C195.59 108.233 195.889 108.709 196.172 108.484Z" fill="#A95249"/>
<path d="M197.372 107.533C198.084 106.6 198.795 105.667 199.507 104.735C199.725 104.449 199.314 104.065 199.095 104.353C198.383 105.287 197.672 106.219 196.96 107.152C196.743 107.437 197.153 107.82 197.372 107.533Z" fill="#A95249"/>
<path d="M180.988 71.0862C181.651 76.4586 182.759 83.577 184.322 87.6098C184.322 87.6098 202.608 83.5505 205.777 78.3486C205.777 78.3486 201.224 58.3845 192.565 54.8228C192.565 54.8228 192.34 54.8632 191.949 54.9624C184.754 56.7855 180.078 63.7194 180.988 71.0862Z" fill="#BA7B1F"/>
<path d="M69.0529 35.8179C69.3395 35.5019 69.6107 35.1779 69.8649 34.845C71.7292 32.4193 72.7587 29.5777 72.9711 26.6978C73.2511 22.9208 72.1304 19.0717 69.6481 15.9905C69.1543 15.3754 68.6047 14.7912 68.0028 14.2445C66.409 12.7984 64.5932 11.7534 62.6767 11.1001C59.9365 10.1647 56.995 10.0376 54.2107 10.6982C51.311 11.383 48.5825 12.9218 46.4294 15.2953C45.857 15.9266 45.347 16.5916 44.9003 17.2845C44.2514 18.2869 43.7348 19.3472 43.3461 20.4421C41.8014 24.7961 42.3055 29.6871 44.7864 33.6545C45.5138 34.8178 46.4126 35.9009 47.4795 36.8687C48.1343 37.4625 48.8258 37.9886 49.5466 38.4479C52.8652 40.5628 56.7988 41.2586 60.5112 40.5752C63.6923 39.9903 66.7125 38.3979 69.0529 35.8179Z" fill="#D9C4A0"/>
<path d="M40.1471 22.4129C39.2741 26.4472 39.9751 30.6556 42.1253 34.1814C42.3134 34.49 42.7991 34.2078 42.6103 33.8977C40.5395 30.502 39.8473 26.4516 40.6887 22.5628C40.7651 22.2101 40.2235 22.0595 40.1471 22.4129Z" fill="#2C2F3F"/>
<path d="M50.1799 30.6999L48.4766 22.5373L55.7132 18.395L61.8896 23.9974L58.4696 31.6015L50.1799 30.6999Z" fill="#2C2F3F"/>
<path d="M69.0567 35.8178C69.3433 35.5018 69.6144 35.1778 69.8686 34.8449L69.5821 34.2769L61.3401 35.5371L60.5156 40.5752C63.696 39.9902 66.7162 38.3978 69.0567 35.8178Z" fill="#2C2F3F"/>
<path d="M44.7419 20.0697L44.894 17.2847C44.2452 18.287 43.7286 19.3474 43.3398 20.4423L44.7419 20.0697Z" fill="#2C2F3F"/>
<path d="M49.5454 38.4469L48.003 33.6543L44.7852 33.6528C45.5126 34.8161 46.4114 35.8992 47.4783 36.867C48.1331 37.4615 48.8246 37.9876 49.5454 38.4469Z" fill="#2C2F3F"/>
<path d="M72.9695 26.6976C73.2495 22.9205 72.1289 19.0714 69.6466 15.9902L67.4531 22.6567L72.9695 26.6976Z" fill="#2C2F3F"/>
<path d="M62.6809 11.1001C59.9407 10.1647 56.9991 10.0376 54.2148 10.6982L56.8654 13.664L62.6809 11.1001Z" fill="#2C2F3F"/>
<path d="M55.2722 19.3342C55.8211 17.2744 56.3693 15.2147 56.9182 13.1549C57.0108 12.8059 57.5612 12.9212 57.4679 13.271C56.919 15.3308 56.3708 17.3905 55.8219 19.4503C55.7293 19.7993 55.1796 19.6847 55.2722 19.3342Z" fill="#2C2F3F"/>
<path d="M48.792 23.0086C47.2782 21.9519 45.7652 20.896 44.2514 19.84C43.956 19.6335 44.3359 19.2191 44.6291 19.4241C46.1429 20.4808 47.6559 21.5368 49.1697 22.5927C49.4651 22.7985 49.0852 23.2129 48.792 23.0086Z" fill="#2C2F3F"/>
<path d="M47.454 34.065C48.5379 32.6027 49.6225 31.1411 50.7064 29.6788C50.9217 29.3885 51.3362 29.7677 51.1223 30.0565C50.0385 31.5188 48.9538 32.9804 47.8699 34.4427C47.6554 34.7323 47.2402 34.3531 47.454 34.065Z" fill="#2C2F3F"/>
<path d="M62.2348 36.8005C60.6204 34.8892 59.0067 32.9786 57.3923 31.0673C57.1622 30.7954 57.537 30.3751 57.7699 30.6514C59.3844 32.5627 60.9981 34.4733 62.6125 36.3846C62.8418 36.6565 62.4678 37.0761 62.2348 36.8005Z" fill="#2C2F3F"/>
<path d="M61.2103 24.0672C63.5368 23.5661 65.8376 22.965 68.1112 22.2625C68.4566 22.1559 68.6271 22.6916 68.2802 22.7982C66.0066 23.5007 63.7059 24.1025 61.3794 24.6029C61.0288 24.6786 60.8562 24.1437 61.2103 24.0672Z" fill="#2C2F3F"/>
<path d="M3.02436 86.0487C1.35677 86.0487 0 84.692 0 83.0244C0 81.3568 1.35677 80 3.02436 80C4.69195 80 6.04872 81.3568 6.04872 83.0244C6.04872 84.692 4.69195 86.0487 3.02436 86.0487ZM3.02436 80.4804C1.62144 80.4804 0.479884 81.6219 0.479884 83.0248C0.479884 84.4277 1.62144 85.5688 3.02436 85.5688C4.42729 85.5688 5.56837 84.4273 5.56837 83.0248C5.56884 81.6214 4.42729 80.4804 3.02436 80.4804Z" fill="#D9C4A0"/>
<path d="M227.024 6.04872C225.357 6.04872 224 4.69195 224 3.02436C224 1.35677 225.357 0 227.024 0C228.692 0 230.049 1.35677 230.049 3.02436C230.049 4.69195 228.692 6.04872 227.024 6.04872ZM227.024 0.480351C225.621 0.480351 224.48 1.6219 224.48 3.02482C224.48 4.42775 225.621 5.56883 227.024 5.56883C228.427 5.56883 229.568 4.42727 229.568 3.02482C229.569 1.62143 228.427 0.480351 227.024 0.480351Z" fill="#D9C4A0"/>
<path d="M167.024 185.049C165.357 185.049 164 183.692 164 182.024C164 180.357 165.357 179 167.024 179C168.692 179 170.049 180.357 170.049 182.024C170.049 183.692 168.692 185.049 167.024 185.049ZM167.024 179.48C165.621 179.48 164.48 180.622 164.48 182.025C164.48 183.428 165.621 184.569 167.024 184.569C168.427 184.569 169.568 183.427 169.568 182.025C169.569 180.621 168.427 179.48 167.024 179.48Z" fill="#D9C4A0"/>
<g style="mix-blend-mode:color">
<path d="M103.393 187.892C103.747 189.127 103.951 189.835 103.951 189.835L97.2278 190.473C97.2278 190.473 96.7891 189.9 96.008 188.866C95.9661 188.812 95.9249 188.755 95.8816 188.698C90.892 182.072 73.2779 158.348 64.9052 142.551C64.1196 141.069 63.4157 139.66 62.8109 138.337C60.9863 134.348 60.0648 131.183 60.5432 129.408C63.1607 119.688 117.241 95.6914 117.241 95.6914L135.204 126.947C120.532 133.6 102.504 136.033 87.805 136.9C87.805 136.9 88.6978 137.731 89.8787 139.918C91.0853 142.156 92.5954 145.812 93.7638 151.449C95.703 160.808 101.557 181.474 103.393 187.892Z" fill="#C8D7F4"/>
<path d="M92.9102 106.07L106.33 138.409C106.33 138.409 130.854 133.571 137.085 129.953C143.316 126.334 123.569 91.2451 123.569 91.2451L92.9102 106.07Z" fill="#C8D7F4"/>
<path d="M95.6316 105.108C99.5108 115.887 103.792 126.519 108.465 136.978C108.61 137.304 109.148 137.138 109 136.808C104.327 126.348 100.046 115.716 96.1673 104.937C96.0453 104.598 95.5081 104.766 95.6316 105.108Z" fill="#C8D7F4"/>
<path d="M103.405 187.893C101.651 189.531 99.2077 189.889 96.0207 188.867C95.9789 188.813 95.9377 188.756 95.8944 188.7C90.9048 182.073 73.2907 158.349 64.918 142.553C71.242 140.88 82.3623 136.229 89.8907 139.92C91.0973 142.158 92.6074 145.814 93.7758 151.452C95.7151 160.809 101.569 181.474 103.405 187.893Z" fill="#C8D7F4"/>
<path d="M67.4089 145.741C74.6919 143.25 82.3959 142.233 90.0765 142.749C90.4373 142.773 90.4358 142.211 90.0765 142.187C82.3504 141.668 74.5861 142.693 67.2597 145.199C66.9195 145.316 67.0657 145.859 67.4089 145.741Z" fill="#C8D7F4"/>
<path d="M87.6111 136.289C85.5462 135.911 83.5364 135.338 81.5869 134.558C81.254 134.425 80.9873 134.92 81.3224 135.054C83.3174 135.852 85.3691 136.45 87.4832 136.837C87.8382 136.902 87.9675 136.355 87.6111 136.289Z" fill="#C8D7F4"/>
<path d="M99.5051 189.125C99.5051 189.125 97.2653 187.645 96.2674 188.828C95.2695 190.011 94.1518 194.141 94.1518 194.141C94.1518 194.141 90.734 201.533 88.9689 202.77C87.2039 204.008 86.2302 206.023 87.7175 209.999L109.967 196.385C109.967 196.385 105.224 186.362 104.517 184.902C103.811 183.443 102.544 187.125 102.544 187.125L99.5051 189.125Z" fill="#C8D7F4"/>
<path d="M109.968 196.386L104.624 199.656L87.719 210C87.719 210 86.6527 207.84 86.9988 206.881C87.6109 205.184 92.2838 205.42 93.4874 203.51C95.692 200.011 98.261 201.995 100.012 200.388C101.763 198.781 101.013 196.844 103.638 194.241C106.263 191.637 107.743 191.686 107.743 191.686C107.743 191.686 110.372 194.25 109.968 196.386Z" fill="#C8D7F4"/>
<path d="M95.467 190.157C96.2363 189.995 97.0256 190.123 97.6899 190.55C97.9427 190.712 97.7244 191.127 97.4702 190.964C96.9102 190.605 96.2533 190.469 95.5993 190.608C95.3061 190.669 95.1701 190.22 95.467 190.157Z" fill="#C8D7F4"/>
<path d="M104.585 194.846C100.323 195.156 96.9218 198.39 96.3611 202.614C96.3214 202.914 95.8651 202.804 95.9048 202.507C96.4941 198.069 100.115 194.701 104.573 194.376C104.874 194.355 104.886 194.824 104.585 194.846Z" fill="#C8D7F4"/>
<path d="M149.939 31.6008C149.939 31.6008 130.132 20.4614 120.504 17.9489C110.876 15.4373 88.413 12.1694 88.413 12.1694L86.8867 15.7995L116.573 27.9156L143.446 48.0847L149.939 31.6008Z" fill="#C8D7F4"/>
<path d="M74.8986 11.9619C74.8986 11.9619 72.1459 13.3272 72.4862 14.1363C72.8264 14.9454 74.8487 13.6814 76.0619 13.4786C77.2751 13.2765 80.3592 12.5182 80.3592 12.5182L74.8986 11.9619Z" fill="#C8D7F4"/>
<path d="M88.0856 16.0315C88.0856 16.0315 86.0736 17.1389 84.0514 17.948C82.0291 18.7571 80.6637 20.7198 80.4617 19.0098C80.2596 17.2999 82.7088 15.6428 82.7367 14.9146C82.7874 13.6 80.6388 13.284 76.955 13.0929C72.119 12.8416 71.1608 11.7805 71.4114 11.5696C72.374 10.7598 75.4729 11.2411 79.2477 10.7686C83.0226 10.2969 86.8011 11.2727 88.7867 12.2243C88.7867 12.2243 88.7323 14.5707 88.0856 16.0315Z" fill="#C8D7F4"/>
<path d="M158.604 36.1617L141.967 25.458L129.352 41.2813L143.813 58.5382L158.604 36.1617Z" fill="#C8D7F4"/>
<path d="M166.015 127.444C163.992 126.483 161.567 126.393 159.633 125.41L159.632 125.41C159.429 125.307 159.227 125.205 159.025 125.101C148.975 119.964 140.239 114.535 133.719 108.616L133.718 108.616C133.595 108.505 133.473 108.392 133.352 108.281C131.477 106.551 129.794 104.78 128.321 102.962C128.223 102.841 128.126 102.72 128.031 102.6C125.412 99.2905 123.493 95.8258 122.41 92.1751C124.341 90.0213 126.165 87.7866 127.888 85.5028C128.004 85.3514 128.118 85.1993 128.232 85.0472C130.172 82.4495 131.982 79.7923 133.673 77.1234C133.745 77.011 133.817 76.8963 133.888 76.7832C135.728 73.8614 137.424 70.9272 138.987 68.0467C138.987 68.0452 138.987 68.0437 138.987 68.0437C139.198 67.6557 139.406 67.2685 139.611 66.8827L139.611 66.8812C141.614 63.1247 143.393 59.4718 144.973 56.0644C145.056 55.8851 145.139 55.7065 145.22 55.5287C150.659 43.7382 155.11 34.9576 156.865 35.3809C159.417 35.9959 160.675 36.6007 163.24 37.0497L163.241 37.0504C163.413 37.0798 163.583 37.11 163.753 37.1401C171.231 38.4231 177.705 39.0147 177.705 39.0147C177.705 39.0147 184.973 45.8972 189.74 51.3269C189.849 51.4496 189.957 51.5723 190.062 51.6958C190.883 52.6415 191.621 53.538 192.217 54.3375C192.342 54.5036 192.461 54.666 192.572 54.8225C193.185 55.6845 193.601 56.4076 193.744 56.9241C194.701 60.4007 195.006 64.0903 194.803 67.8916L194.802 67.8931C194.79 68.1253 194.776 68.3582 194.759 68.5919C194.509 72.2058 193.809 75.9109 192.788 79.6218L192.787 79.6233C192.747 79.771 192.706 79.9165 192.664 80.0627C185.851 104.163 166.015 127.444 166.015 127.444Z" fill="#C8D7F4"/>
<path d="M161.526 91.3269C149.705 92.4777 137.912 91.4232 126.482 88.1892C126.277 88.1311 126.189 88.45 126.394 88.5081C137.856 91.7509 149.667 92.8113 161.526 91.6576C161.736 91.637 161.739 91.3063 161.526 91.3269Z" fill="#C8D7F4"/>
<path d="M171.206 63.4453L168.35 67.5648L147.467 81.3269L140.457 78.3001L161.308 64.5241L155.985 62.2262L154.589 64.2397L149.397 61.9977L153.649 55.8647L171.206 63.4453Z" fill="#C8D7F4"/>
<path d="M165.118 43.0246C164.367 44.7639 165.96 46.0771 167.375 46.7355C169.385 47.6709 171.591 48.1236 173.803 48.1251C174.088 48.1251 174.139 47.6805 173.851 47.6805C172.132 47.679 170.429 47.4123 168.806 46.8362C167.351 46.3203 164.663 45.2041 165.534 43.1884C165.648 42.9246 165.232 42.7607 165.118 43.0246Z" fill="#C8D7F4"/>
<path d="M184.145 86.3571C180.902 94.5572 176.358 102.042 171.328 109.26C169.183 112.337 166.97 115.368 164.731 118.378C164.558 118.611 164.197 118.341 164.37 118.107C170.522 109.837 176.699 101.396 181.171 92.0675C182.094 90.1408 182.94 88.1788 183.725 86.1918C183.832 85.9214 184.251 86.0867 184.145 86.3571Z" fill="#C8D7F4"/>
<path d="M180.057 41.7478C179.117 43.2645 166.364 49.867 166.234 41.1915L168.52 37.0389L169.904 33.5602L170.873 31.1249L181.182 30.4004C180.235 35.0071 180.817 38.1566 180.057 41.7478Z" fill="#C8D7F4"/>
<path d="M178.425 33.912C173.356 38.834 169.262 39.0434 167.996 38.3666L169.909 33.5615L178.425 33.912Z" fill="#C8D7F4"/>
<path d="M167.295 17.5965C167.295 17.5965 165.785 16.2334 166.113 15.0334C166.441 13.8334 167.111 12.9325 167.111 12.9325C167.111 12.9325 165.326 8.37867 166.881 7.06846C166.881 7.06846 167.982 9.12821 168.396 9.02901C168.396 9.02901 168.772 6.36962 170.95 6.15872C170.95 6.15872 171.427 8.74315 171.901 8.89159C171.901 8.89159 172.738 6.08892 174.994 6C174.994 6 174.641 9.45007 177.028 9.79397C179.416 10.1379 184.51 11.4995 185.972 14.2537C187.434 17.0079 186.713 19.8554 186.245 21.2097L167.295 17.5965Z" fill="#C8D7F4"/>
<path d="M182.56 27.7377C182.483 28.1433 182.392 28.5137 182.281 28.8613C182.025 29.6644 181.669 30.342 181.174 31.0151C180.523 31.9013 179.631 32.7846 178.411 33.9405C176.494 35.7555 173.786 36.106 171.296 35.6887C164.682 34.5805 164.851 29.9723 166.555 23.2589C167.614 19.0909 166.821 16.5439 168.155 15.0816L168.158 15.0823C168.241 15.0184 168.327 14.9567 168.411 14.8971C170.436 13.4569 172.966 12.9028 175.426 13.2695C175.9 13.3407 176.35 13.423 176.78 13.5178C176.878 13.5362 176.976 13.5583 177.07 13.5825C177.111 13.5899 177.151 13.5994 177.189 13.6104C177.297 13.6347 177.404 13.6611 177.51 13.6905C177.586 13.7089 177.662 13.7287 177.735 13.7508C177.908 13.7971 178.073 13.8463 178.235 13.8963C183.398 15.5181 184.165 18.9608 183.809 22.1691C183.568 24.3494 182.807 26.4209 182.56 27.7377Z" fill="#C8D7F4"/>
<path d="M170.91 28.1499C170.859 28.956 170.276 29.5755 169.605 29.5336C168.935 29.4917 168.433 28.8039 168.484 27.9978C168.535 27.1916 169.118 26.5714 169.788 26.6133C170.458 26.656 170.96 27.343 170.91 28.1499Z" fill="#C8D7F4"/>
<path d="M169.12 23.108C169.053 23.4791 168.773 23.7385 168.495 23.6886C168.217 23.6386 168.045 23.2976 168.112 22.9265C168.179 22.5554 168.458 22.296 168.737 22.346C169.015 22.3967 169.186 22.7377 169.12 23.108Z" fill="#C8D7F4"/>
<path d="M173.639 23.5695C173.572 23.9405 173.293 24.1999 173.014 24.15C172.737 24.1 172.565 23.759 172.632 23.388C172.698 23.0169 172.978 22.7575 173.256 22.8074C173.535 22.8574 173.706 23.1991 173.639 23.5695Z" fill="#C8D7F4"/>
<path d="M175.722 25.9485C175.654 26.3101 175.037 26.4974 174.342 26.3674C173.649 26.2373 173.141 25.8383 173.209 25.4768C173.277 25.1152 173.895 24.9278 174.589 25.0579C175.282 25.1887 175.79 25.587 175.722 25.9485Z" fill="#C8D7F4"/>
<path d="M166.152 24.9522C166.354 25.1492 166.693 25.3138 167.094 25.3895C167.787 25.5195 168.404 25.3329 168.472 24.9699C168.54 24.6091 168.032 24.2108 167.339 24.0807C166.958 24.0094 166.599 24.0337 166.342 24.1307L166.152 24.9522Z" fill="#C8D7F4"/>
<path d="M173.251 21.7536C173.624 21.5126 174.214 21.4141 174.499 21.8491C174.671 22.1129 174.989 22.2577 175.289 22.1004C175.549 21.9652 175.716 21.5772 175.541 21.3098C174.921 20.3618 173.676 20.0884 172.711 20.7123C172.446 20.8835 172.303 21.2032 172.46 21.503C172.596 21.7624 172.983 21.927 173.251 21.7536Z" fill="#C8D7F4"/>
<path d="M168.067 20.7791C168.555 20.5932 168.967 20.6234 169.358 20.9944C169.906 21.5147 170.728 20.6777 170.18 20.1567C169.507 19.5167 168.617 19.319 167.744 19.6512C167.043 19.9179 167.361 21.0481 168.067 20.7791Z" fill="#C8D7F4"/>
<path d="M170.682 25.7222C170.791 25.7237 170.886 25.6443 170.901 25.5341C170.917 25.4151 170.833 25.3063 170.714 25.2902C170.302 25.235 170.01 25.0859 169.837 24.9683C170.542 24.3812 170.842 23.2657 170.856 23.2128C170.886 23.0967 170.817 22.9783 170.701 22.9475C170.584 22.9174 170.466 22.9864 170.435 23.1025C170.432 23.115 170.097 24.3554 169.372 24.764C169.316 24.7963 169.276 24.8522 169.265 24.9169C169.254 24.9815 169.272 25.0469 169.316 25.0962C169.333 25.1167 169.767 25.601 170.657 25.72C170.665 25.7215 170.674 25.7222 170.682 25.7222Z" fill="#C8D7F4"/>
<path d="M179.855 29.1491C180.783 29.3373 181.6 29.2057 182.289 28.8618C182.033 29.665 181.677 30.3425 181.183 31.0156C180.587 30.5696 180.122 29.9626 179.855 29.1491Z" fill="#C8D7F4"/>
<path d="M182.345 21.8453C179.589 22.0679 178.488 26.4931 177.287 25.4717C176.086 24.4503 179.955 17.6163 176.46 17.1592C172.965 16.7021 173.27 17.4377 171.668 17.254C168.942 16.941 169.194 15.5955 168.164 15.0818C168.248 15.0179 168.333 14.9562 168.418 14.8966C170.443 13.4564 172.972 12.9023 175.432 13.269C175.906 13.3403 176.357 13.4226 176.787 13.5173C176.884 13.5357 176.982 13.5578 177.077 13.582C177.117 13.5894 177.157 13.5989 177.195 13.6099C177.304 13.6342 177.411 13.6606 177.516 13.69C177.593 13.7084 177.668 13.7282 177.742 13.7503C177.912 13.7944 178.081 13.8436 178.242 13.8958C183.405 15.5176 184.171 18.9603 183.815 22.1686C183.437 21.921 182.949 21.7953 182.345 21.8453Z" fill="#C8D7F4"/>
<path d="M177.292 25.4717C178.492 26.4924 179.592 22.0679 182.349 21.8453C182.954 21.796 183.442 21.9202 183.818 22.1686C183.577 24.3488 182.816 26.4211 182.569 27.7372C182.494 28.1318 182.406 28.4948 182.299 28.8336C183.82 26.2947 185.553 23.2877 186.041 21.9724C186.141 21.7071 186.212 21.4529 186.26 21.2089C186.21 21.1303 186.16 21.0531 186.107 20.9789C185.879 20.6504 185.611 20.3587 185.315 20.0956C184.844 19.6834 184.295 19.3475 183.705 19.0771C181.79 18.1953 179.418 17.9866 177.716 17.9727C178.716 19.917 176.309 24.6354 177.292 25.4717Z" fill="#C8D7F4"/>
<path d="M168.779 31.2437C169.246 31.5031 169.775 31.603 170.247 31.301C170.486 31.1482 170.238 30.7852 169.999 30.938C169.662 31.1533 169.295 31.0269 168.972 30.8484C168.724 30.711 168.532 31.107 168.779 31.2437Z" fill="#C8D7F4"/>
<path d="M178.072 27.1263C177.915 26.0013 178.33 24.8748 179.117 24.0562C180.137 22.9958 181.949 21.4093 183.313 21.8671C185.319 22.5402 185.218 24.4221 184.665 26.2533C184.111 28.0845 182.425 30.303 179.929 29.4249C178.682 28.9869 178.2 28.0478 178.072 27.1263Z" fill="#C8D7F4"/>
<path d="M180.585 27.2554C180.63 26.4537 180.733 25.6256 181.167 24.9289C181.553 24.3065 182.487 23.4747 183.294 23.9185C183.565 24.0677 183.844 23.6716 183.571 23.521C182.794 23.0933 181.912 23.4328 181.297 24.0089C180.409 24.84 180.168 26.0569 180.102 27.2209C180.084 27.5317 180.567 27.5678 180.585 27.2554Z" fill="#C8D7F4"/>
<path d="M142.705 133.1C129.217 132.35 103.618 106.199 103.163 89.8837C100.469 89.348 97.6921 88.4192 94.8842 87.1869C73.1286 77.6641 49.5932 50.2186 49.5932 50.2186L47.0117 43.2832L103.025 70.6199L115.181 76.553C115.181 76.553 157.423 106.512 163.392 114.604C169.361 122.695 159.194 134.815 142.705 133.1Z" fill="#C8D7F4"/>
<path d="M103.025 70.6199C102.214 74.8695 100.129 81.9916 94.8842 87.1869C73.1286 77.6641 49.5932 50.2186 49.5932 50.2186L47.0117 43.2832L103.025 70.6199Z" fill="#C8D7F4"/>
<path d="M99.4178 69.831C98.1729 75.4789 95.3791 80.6661 91.3426 84.8092C91.0899 85.0686 91.4874 85.4661 91.7402 85.2067C95.8406 80.999 98.6947 75.7192 99.9601 69.9809C100.037 69.6274 99.4957 69.4768 99.4178 69.831Z" fill="#C8D7F4"/>
<path d="M103.129 89.833C104.403 89.0262 105.385 87.8747 105.968 86.4829C106.107 86.1515 105.611 85.8848 105.472 86.2184C104.923 87.5271 104.026 88.5992 102.826 89.3591C102.521 89.5531 102.823 90.027 103.129 89.833Z" fill="#C8D7F4"/>
<path d="M48.7473 46.3326C48.7473 46.3326 50.4213 44.2324 49.3308 43.1338C48.2403 42.0352 44.2266 40.556 44.2266 40.556C44.2266 40.556 37.1655 36.496 36.0897 34.6288C35.0132 32.7616 33.0931 31.6123 29 32.7417L40.5891 56.1103C40.5891 56.1103 48.8656 53.8095 50.3823 53.2349C51.8983 52.6603 50.4705 49.5364 50.4705 49.5364L48.7473 46.3326Z" fill="#C8D7F4"/>
<path d="M40.5884 56.1096L37.8048 50.4962L29 32.7418C29 32.7418 31.2457 31.871 32.1716 32.3009C33.8073 33.0607 33.1577 37.6946 34.9537 39.0629C38.2443 41.5687 36.0398 43.9517 37.4852 45.8381C38.9306 47.7251 40.9264 47.149 43.2867 49.9943C45.647 52.8403 45.4677 54.3093 45.4677 54.3093C45.4677 54.3093 42.6798 56.7012 40.5884 56.1096Z" fill="#C8D7F4"/>
<path d="M48.0871 42.216C48.1812 42.9971 47.9835 43.7709 47.5 44.3955C47.3163 44.6329 46.9217 44.3786 47.1069 44.1398C47.514 43.6136 47.7079 42.9714 47.6278 42.3078C47.5911 42.0102 48.0511 41.9154 48.0871 42.216Z" fill="#C8D7F4"/>
<path d="M42.6034 50.8878C42.6724 46.6155 39.7522 42.9413 35.5937 42.008C35.2991 41.9419 35.4482 41.4973 35.7407 41.5627C40.1101 42.543 43.1435 46.4479 43.0715 50.9172C43.0663 51.2192 42.5982 51.1898 42.6034 50.8878Z" fill="#C8D7F4"/>
<path d="M126.803 83.2051L110.426 110.055C110.426 110.055 129.396 135.799 147.091 134.917C164.786 134.035 171.094 121.16 171.094 121.16C156.907 106.615 142.388 93.1629 126.803 83.2051Z" fill="#C8D7F4"/>
<path d="M128.573 85.1481C123.41 94.141 117.935 102.953 112.16 111.566C111.959 111.867 112.456 112.128 112.656 111.831C118.431 103.218 123.906 94.4063 129.069 85.4126C129.249 85.0981 128.752 84.835 128.573 85.1481Z" fill="#C8D7F4"/>
<path d="M166.947 116.522C162.163 122.498 155.37 127.192 147.491 127.398C139.281 127.612 132.963 122.156 127.161 117.039C123.57 113.871 120.09 110.582 116.611 107.292C116.348 107.043 115.966 107.456 116.229 107.705C119.491 110.789 122.753 113.873 126.107 116.856C129.119 119.535 132.172 122.257 135.591 124.414C138.806 126.443 142.362 127.8 146.189 127.951C150.195 128.109 154.192 127.053 157.714 125.173C161.488 123.158 164.697 120.229 167.359 116.903C167.585 116.622 167.173 116.239 166.947 116.522Z" fill="#C8D7F4"/>
<path d="M183.629 79.2178C183.629 79.2178 192.294 99.4017 195.114 106.777C197.934 114.153 204.796 148.691 204.796 148.691L209.608 147.723C209.608 147.723 211.171 119.763 210.536 110.738C209.9 101.713 201.945 70.9546 201.945 70.9546L183.629 79.2178Z" fill="#C8D7F4"/>
<path d="M206.021 142.835C208.169 142.148 210.425 143.44 211.183 145.564C211.584 146.684 212.126 147.876 212.808 148.674C214.446 150.587 216.913 152.392 217.467 153.592C218.285 155.364 216.285 154.71 216.048 154.594C214.533 153.856 212.616 152.476 212.616 152.476C212.616 152.476 215.374 155.749 216.881 156.506C218.387 157.262 218.711 158.746 216.901 158.843C215.092 158.94 211.302 155.967 210.475 154.859C210.475 154.859 211.655 157.317 213.662 158.409C215.668 159.502 216.24 160.163 216.724 160.951C217.208 161.74 215.535 162.549 212.774 160.952C210.012 159.355 209.354 158.049 208.528 156.733C208.528 156.733 208.753 157.974 209.553 159.886C210.353 161.797 212.773 162.875 212.702 164.113C212.63 165.378 209.897 164.014 208.727 162.587C207.557 161.161 206.585 160.222 205.894 157.967C205.203 155.713 204.621 153.533 204.532 152.084C204.442 150.635 203.447 145.523 204.598 143.774C204.894 143.327 205.412 143.029 206.021 142.835Z" fill="#C8D7F4"/>
<path d="M204.192 148.075C204.192 148.075 202.953 152.334 203.311 153.788C203.669 155.242 203.434 157.626 204.429 157.468C205.425 157.31 205.633 154.37 205.633 154.37L204.192 148.075Z" fill="#C8D7F4"/>
<path d="M196.172 108.484C198.093 106.958 200.386 106.122 202.84 106.068C203.201 106.06 203.179 105.498 202.817 105.506C200.274 105.563 197.862 106.427 195.87 108.011C195.59 108.233 195.889 108.709 196.172 108.484Z" fill="#C8D7F4"/>
<path d="M197.372 107.533C198.084 106.6 198.795 105.667 199.507 104.735C199.725 104.449 199.314 104.065 199.095 104.353C198.383 105.287 197.672 106.219 196.96 107.152C196.743 107.437 197.153 107.82 197.372 107.533Z" fill="#C8D7F4"/>
<path d="M180.988 71.0862C181.651 76.4586 182.759 83.577 184.322 87.6098C184.322 87.6098 202.608 83.5505 205.777 78.3486C205.777 78.3486 201.224 58.3845 192.565 54.8228C192.565 54.8228 192.34 54.8632 191.949 54.9624C184.754 56.7855 180.078 63.7194 180.988 71.0862Z" fill="#C8D7F4"/>
<path d="M69.0529 35.8179C69.3395 35.5019 69.6107 35.1779 69.8649 34.845C71.7292 32.4193 72.7587 29.5777 72.9711 26.6978C73.2511 22.9208 72.1304 19.0717 69.6481 15.9905C69.1543 15.3754 68.6047 14.7912 68.0028 14.2445C66.409 12.7984 64.5932 11.7534 62.6767 11.1001C59.9365 10.1647 56.995 10.0376 54.2107 10.6982C51.311 11.383 48.5825 12.9218 46.4294 15.2953C45.857 15.9266 45.347 16.5916 44.9003 17.2845C44.2514 18.2869 43.7348 19.3472 43.3461 20.4421C41.8014 24.7961 42.3055 29.6871 44.7864 33.6545C45.5138 34.8178 46.4126 35.9009 47.4795 36.8687C48.1343 37.4625 48.8258 37.9886 49.5466 38.4479C52.8652 40.5628 56.7988 41.2586 60.5112 40.5752C63.6923 39.9903 66.7125 38.3979 69.0529 35.8179Z" fill="#C8D7F4"/>
<path d="M40.1471 22.4129C39.2741 26.4472 39.9751 30.6556 42.1253 34.1814C42.3134 34.49 42.7991 34.2078 42.6103 33.8977C40.5395 30.502 39.8473 26.4516 40.6887 22.5628C40.7651 22.2101 40.2235 22.0595 40.1471 22.4129Z" fill="#C8D7F4"/>
<path d="M50.1799 30.6999L48.4766 22.5373L55.7132 18.395L61.8896 23.9974L58.4696 31.6015L50.1799 30.6999Z" fill="#C8D7F4"/>
<path d="M69.0567 35.8178C69.3433 35.5018 69.6144 35.1778 69.8686 34.8449L69.5821 34.2769L61.3401 35.5371L60.5156 40.5752C63.696 39.9902 66.7162 38.3978 69.0567 35.8178Z" fill="#C8D7F4"/>
<path d="M44.7419 20.0697L44.894 17.2847C44.2452 18.287 43.7286 19.3474 43.3398 20.4423L44.7419 20.0697Z" fill="#C8D7F4"/>
<path d="M49.5454 38.4469L48.003 33.6543L44.7852 33.6528C45.5126 34.8161 46.4114 35.8992 47.4783 36.867C48.1331 37.4615 48.8246 37.9876 49.5454 38.4469Z" fill="#C8D7F4"/>
<path d="M72.9695 26.6976C73.2495 22.9205 72.1289 19.0714 69.6466 15.9902L67.4531 22.6567L72.9695 26.6976Z" fill="#C8D7F4"/>
<path d="M62.6809 11.1001C59.9407 10.1647 56.9991 10.0376 54.2148 10.6982L56.8654 13.664L62.6809 11.1001Z" fill="#C8D7F4"/>
<path d="M55.2722 19.3342C55.8211 17.2744 56.3693 15.2147 56.9182 13.1549C57.0108 12.8059 57.5612 12.9212 57.4679 13.271C56.919 15.3308 56.3708 17.3905 55.8219 19.4503C55.7293 19.7993 55.1796 19.6847 55.2722 19.3342Z" fill="#C8D7F4"/>
<path d="M48.792 23.0086C47.2782 21.9519 45.7652 20.896 44.2514 19.84C43.956 19.6335 44.3359 19.2191 44.6291 19.4241C46.1429 20.4808 47.6559 21.5368 49.1697 22.5927C49.4651 22.7985 49.0852 23.2129 48.792 23.0086Z" fill="#C8D7F4"/>
<path d="M47.454 34.065C48.5379 32.6027 49.6225 31.1411 50.7064 29.6788C50.9217 29.3885 51.3362 29.7677 51.1223 30.0565C50.0385 31.5188 48.9538 32.9804 47.8699 34.4427C47.6554 34.7323 47.2402 34.3531 47.454 34.065Z" fill="#C8D7F4"/>
<path d="M62.2348 36.8005C60.6204 34.8892 59.0067 32.9786 57.3923 31.0673C57.1622 30.7954 57.537 30.3751 57.7699 30.6514C59.3844 32.5627 60.9981 34.4733 62.6125 36.3846C62.8418 36.6565 62.4678 37.0761 62.2348 36.8005Z" fill="#C8D7F4"/>
<path d="M61.2103 24.0672C63.5368 23.5661 65.8376 22.965 68.1112 22.2625C68.4566 22.1559 68.6271 22.6916 68.2802 22.7982C66.0066 23.5007 63.7059 24.1025 61.3794 24.6029C61.0288 24.6786 60.8562 24.1437 61.2103 24.0672Z" fill="#C8D7F4"/>
<path d="M3.02436 86.0487C1.35677 86.0487 0 84.692 0 83.0244C0 81.3568 1.35677 80 3.02436 80C4.69195 80 6.04872 81.3568 6.04872 83.0244C6.04872 84.692 4.69195 86.0487 3.02436 86.0487ZM3.02436 80.4804C1.62144 80.4804 0.479884 81.6219 0.479884 83.0248C0.479884 84.4277 1.62144 85.5688 3.02436 85.5688C4.42729 85.5688 5.56837 84.4273 5.56837 83.0248C5.56884 81.6214 4.42729 80.4804 3.02436 80.4804Z" fill="#C8D7F4"/>
<path d="M227.024 6.04872C225.357 6.04872 224 4.69195 224 3.02436C224 1.35677 225.357 0 227.024 0C228.692 0 230.049 1.35677 230.049 3.02436C230.049 4.69195 228.692 6.04872 227.024 6.04872ZM227.024 0.480351C225.621 0.480351 224.48 1.6219 224.48 3.02482C224.48 4.42775 225.621 5.56883 227.024 5.56883C228.427 5.56883 229.568 4.42727 229.568 3.02482C229.569 1.62143 228.427 0.480351 227.024 0.480351Z" fill="#C8D7F4"/>
<path d="M167.024 185.049C165.357 185.049 164 183.692 164 182.024C164 180.357 165.357 179 167.024 179C168.692 179 170.049 180.357 170.049 182.024C170.049 183.692 168.692 185.049 167.024 185.049ZM167.024 179.48C165.621 179.48 164.48 180.622 164.48 182.025C164.48 183.428 165.621 184.569 167.024 184.569C168.427 184.569 169.568 183.427 169.568 182.025C169.569 180.621 168.427 179.48 167.024 179.48Z" fill="#C8D7F4"/>
</g>
</g>
</g>
</svg>
