<svg width="25" height="25" viewBox="0 0 25 25" fill="none" xmlns="http://www.w3.org/2000/svg">
<path d="M7.31402 16.2647C8.78618 16.2647 9.9796 15.0548 9.9796 13.5624C9.9796 12.07 8.78618 10.8601 7.31402 10.8601C5.84186 10.8601 4.64844 12.07 4.64844 13.5624C4.64844 15.0548 5.84186 16.2647 7.31402 16.2647Z" stroke="white" stroke-width="1.40625" stroke-miterlimit="10" stroke-linecap="round" stroke-linejoin="round"/>
<path d="M10.9637 20.7133H3.66211V19.9166C3.66211 17.9004 5.29663 16.2659 7.31288 16.2659C9.32916 16.2659 10.9636 17.9004 10.9636 19.9166L10.9637 20.7133Z" stroke="white" stroke-width="1.40625" stroke-miterlimit="10" stroke-linecap="round" stroke-linejoin="round"/>
<path d="M16.605 9.52371C18.0772 9.52371 19.2706 8.31386 19.2706 6.82143C19.2706 5.32899 18.0772 4.11914 16.605 4.11914C15.1329 4.11914 13.9395 5.32899 13.9395 6.82143C13.9395 8.31386 15.1329 9.52371 16.605 9.52371Z" stroke="white" stroke-width="1.40625" stroke-miterlimit="10" stroke-linecap="round" stroke-linejoin="round"/>
<path d="M17.2546 18.0906H14.5488" stroke="white" stroke-width="1.40625" stroke-miterlimit="10" stroke-linecap="round" stroke-linejoin="round"/>
<path d="M16.2949 17.0859L17.2994 18.0905L16.2949 19.0949" stroke="white" stroke-width="1.40625" stroke-miterlimit="10" stroke-linecap="round" stroke-linejoin="round"/>
<path d="M6.66406 6.74194H9.36986" stroke="white" stroke-width="1.40625" stroke-miterlimit="10" stroke-linecap="round" stroke-linejoin="round"/>
<path d="M7.62366 5.73755L6.61914 6.74203L7.62366 7.74655" stroke="white" stroke-width="1.40625" stroke-miterlimit="10" stroke-linecap="round" stroke-linejoin="round"/>
<path d="M19.0292 10.4449C18.3846 9.87239 17.5358 9.52466 16.6058 9.52466C14.5896 9.52466 12.9551 11.1592 12.9551 13.1754V13.9721H20.2566" stroke="white" stroke-width="1.40625" stroke-miterlimit="10" stroke-linecap="round" stroke-linejoin="round"/>
</svg>
