<svg width="297" height="221" viewBox="0 0 297 221" fill="none" xmlns="http://www.w3.org/2000/svg">
<g opacity="0.18">
<mask id="mask0_15417_17575" style="mask-type:alpha" maskUnits="userSpaceOnUse" x="0" y="0" width="297" height="222">
<path d="M253.045 124.099H59.3057V124.481H253.045V124.099Z" fill="#E0DCBD"/>
<path d="M94.1993 131.654C74.311 131.654 60.758 131.627 60.3125 131.627V131.245C61.8026 131.255 209.641 131.545 250.709 130.134L250.724 130.516C221.946 131.505 140.744 131.654 94.1993 131.654Z" fill="#E0DCBD"/>
<path d="M94.1993 138.482C74.311 138.482 60.758 138.454 60.3125 138.454V138.072C61.8026 138.08 209.641 138.373 250.709 136.96L250.724 137.342C221.946 138.334 140.744 138.482 94.1993 138.482Z" fill="#E0DCBD"/>
<path d="M94.1993 145.787C74.311 145.787 60.758 145.76 60.3125 145.76V145.379C61.8026 145.386 209.641 145.681 250.709 144.267L250.724 144.648C221.946 145.638 140.744 145.787 94.1993 145.787Z" fill="#E0DCBD"/>
<path d="M94.1993 153.092C74.311 153.092 60.758 153.065 60.3125 153.065V152.683C61.8026 152.693 209.641 152.983 250.709 151.571L250.724 151.953C221.946 152.943 140.744 153.092 94.1993 153.092Z" fill="#E0DCBD"/>
<path d="M95.042 160.39C75.498 160.39 62.1802 160.362 61.7422 160.362V159.98C63.215 159.99 208.832 160.281 249.28 158.883L249.295 159.265C220.931 160.241 140.875 160.39 95.042 160.39Z" fill="#E0DCBD"/>
<path d="M96.8858 168.153C77.9371 168.153 65.0251 168.126 64.6006 168.126V167.744C66.021 167.752 207.204 168.033 246.421 166.683L246.436 167.065C218.939 168.009 141.321 168.153 96.8858 168.153Z" fill="#E0DCBD"/>
<path d="M96.8858 175.141C77.9371 175.141 65.0251 175.113 64.6006 175.113V174.731C66.021 174.739 207.204 175.016 246.421 173.669L246.436 174.051C218.939 174.997 141.321 175.141 96.8858 175.141Z" fill="#E0DCBD"/>
<path d="M96.8858 182.552C77.9371 182.552 65.0251 182.525 64.6006 182.525V182.143C66.021 182.151 207.204 182.429 246.421 181.082L246.436 181.463C218.939 182.408 141.321 182.552 96.8858 182.552Z" fill="#E0DCBD"/>
<path d="M96.8858 189.539C77.9371 189.539 65.0251 189.512 64.6006 189.512V189.131C66.021 189.136 207.204 189.416 246.421 188.069L246.436 188.451C218.939 189.396 141.321 189.539 96.8858 189.539Z" fill="#E0DCBD"/>
<path d="M96.8858 196.633C77.9371 196.633 65.0251 196.606 64.6006 196.606V196.224C66.021 196.231 207.204 196.509 246.421 195.162L246.436 195.544C218.939 196.489 141.321 196.633 96.8858 196.633Z" fill="#E0DCBD"/>
<path d="M100.352 203.693C82.4942 203.693 70.3198 203.668 69.9199 203.668V203.287C71.2625 203.296 204.179 203.56 241.101 202.286L241.116 202.668C215.231 203.559 142.194 203.693 100.352 203.693Z" fill="#E0DCBD"/>
<path d="M182.737 208.937C132.302 208.937 72.0825 208.335 71.1885 208.327L71.1937 207.945C72.5176 207.96 204.182 209.275 241.102 208.002L241.117 208.384C229.102 208.797 207.053 208.937 182.737 208.937Z" fill="#E0DCBD"/>
<path d="M76.8763 208.238L67.4365 124.227L57.7285 116.098L57.9741 115.806L67.7989 124.033L67.8079 124.108L77.256 208.193L76.8763 208.238Z" fill="#E0DCBD"/>
<path d="M83.6258 208.315L74.8988 124.219L65.8984 115.694L66.1613 115.416L75.2634 124.04L75.2709 124.11L84.0055 208.275L83.6258 208.315Z" fill="#E0DCBD"/>
<path d="M90.136 208.392L82.6782 124.213L74.7021 115.605L74.9829 115.347L83.0458 124.049L83.0518 124.113L90.5157 208.358L90.136 208.392Z" fill="#E0DCBD"/>
<path d="M96.726 208.152L89.6642 124.203L83.1094 115.831L83.4089 115.597L90.0341 124.059L90.0393 124.116L97.1063 208.122L96.726 208.152Z" fill="#E0DCBD"/>
<path d="M103.555 208.31L97.2866 124.203L89.542 114.511L89.84 114.272L97.6588 124.059L97.6625 124.116L103.935 208.28L103.555 208.31Z" fill="#E0DCBD"/>
<path d="M110.543 208.308L105.385 124.203L97.7988 114.508L98.0991 114.274L105.758 124.059L105.761 124.118L110.922 208.283L110.543 208.308Z" fill="#E0DCBD"/>
<path d="M117.292 208.305L113.324 124.205L105.64 115.362L105.928 115.113L113.699 124.056L113.702 124.12L117.672 208.286L117.292 208.305Z" fill="#E0DCBD"/>
<path d="M124.119 208.224L121.263 124.198L114.629 115.352L114.934 115.124L121.64 124.064L121.642 124.124L124.501 208.209L124.119 208.224Z" fill="#E0DCBD"/>
<path d="M131.343 208.382L128.567 124.185L123.721 115.863L124.051 115.67L128.946 124.124L131.726 208.367L131.343 208.382Z" fill="#E0DCBD"/>
<path d="M138.411 208.777L136.03 124.175L132.076 115.476L132.424 115.317L136.411 124.126L138.793 208.768L138.411 208.777Z" fill="#E0DCBD"/>
<path d="M145.239 208.775L143.651 124.133L141.276 115.287L141.644 115.188L144.026 124.081L145.622 208.77L145.239 208.775Z" fill="#E0DCBD"/>
<path d="M152.227 208.772L151.909 124.131L150.323 114.635L150.701 114.571L152.289 124.099L152.609 208.772H152.227Z" fill="#E0DCBD"/>
<path d="M235.026 208.315L234.648 208.275L243.867 124.036L243.921 123.986L253.977 115.2L254.231 115.488L244.228 124.224L235.026 208.315Z" fill="#E0DCBD"/>
<path d="M228.117 208.395L227.739 208.355L236.402 124.039L236.454 123.99L245.294 115.942L245.553 116.225L236.764 124.222L228.117 208.395Z" fill="#E0DCBD"/>
<path d="M221.688 208.551L221.306 208.516L228.618 124.041L228.672 123.989L237.99 115.414L238.248 115.697L228.985 124.22L221.688 208.551Z" fill="#E0DCBD"/>
<path d="M214.899 208.588L214.517 208.559L221.631 124.043L221.68 123.994L229.831 115.947L230.099 116.22L221.998 124.218L214.899 208.588Z" fill="#E0DCBD"/>
<path d="M208.069 208.747L207.688 208.717L214.005 124.048L214.052 124.001L222.203 115.215L222.48 115.473L214.377 124.212L208.069 208.747Z" fill="#E0DCBD"/>
<path d="M201.1 208.864L200.718 208.839L205.906 124.059L205.943 124.011L212.454 115.861L212.751 116.099L206.278 124.203L201.1 208.864Z" fill="#E0DCBD"/>
<path d="M194.433 208.92L194.051 208.901L197.963 124.063L198.001 124.016L204.829 114.965L205.132 115.192L198.341 124.197L194.433 208.92Z" fill="#E0DCBD"/>
<path d="M187.545 209.256L187.162 209.241L190.023 124.066L190.058 124.019L195.934 115.92L196.242 116.144L190.401 124.195L187.545 209.256Z" fill="#E0DCBD"/>
<path d="M180.239 209.256L179.857 209.241L182.74 124.036L187.663 115.302L187.996 115.49L183.095 124.182L180.239 209.256Z" fill="#E0DCBD"/>
<path d="M173.253 208.777L172.87 208.767L175.267 124.056L178.92 115.322L179.272 115.471L175.632 124.17L173.253 208.777Z" fill="#E0DCBD"/>
<path d="M166.424 208.775L166.042 208.77L167.63 124.128L170.02 115.188L170.386 115.287L168.005 124.181L166.424 208.775Z" fill="#E0DCBD"/>
<path d="M159.437 208.771H159.055L159.372 124.131L160.645 115.843L161.022 115.902L159.752 124.16L159.437 208.771Z" fill="#E0DCBD"/>
<path d="M261.281 217.722L260.899 217.712L263.229 118.409L263.611 118.418L261.281 217.722Z" fill="#E0DCBD"/>
<path d="M255.67 214.444L255.288 214.429L259.417 119.783L259.799 119.798L255.67 214.444Z" fill="#E0DCBD"/>
<path d="M251.014 211.799L250.632 211.779L254.761 127.296L255.143 127.316L251.014 211.799Z" fill="#E0DCBD"/>
<path d="M266.224 220.768L243.951 208.223L244.14 207.891L266.412 220.436L266.224 220.768Z" fill="#E0DCBD"/>
<path d="M267.361 213.759L245.235 203.279L245.399 202.937L267.524 213.417L267.361 213.759Z" fill="#E0DCBD"/>
<path d="M245.803 196.48L245.664 196.833L267.365 205.408L267.504 205.056L245.803 196.48Z" fill="#E0DCBD"/>
<path d="M266.852 196.197L246.736 189.42L246.86 189.059L266.976 195.834L266.852 196.197Z" fill="#E0DCBD"/>
<path d="M266.329 188.15L247.377 182.222L247.491 181.86L266.442 187.788L266.329 188.15Z" fill="#E0DCBD"/>
<path d="M266.761 179.577L248.446 174.92L248.541 174.552L266.855 179.21L266.761 179.577Z" fill="#E0DCBD"/>
<path d="M267.726 171.113L249.094 167.724L249.163 167.347L267.795 170.736L267.726 171.113Z" fill="#E0DCBD"/>
<path d="M267.419 161.69L249.951 159.681L249.996 159.303L267.464 161.313L267.419 161.69Z" fill="#E0DCBD"/>
<path d="M267.223 153.117L251.768 152.481L251.783 152.1L267.238 152.735L267.223 153.117Z" fill="#E0DCBD"/>
<path d="M252.013 146.023L251.958 145.646L266.675 143.423L266.729 143.8L252.013 146.023Z" fill="#E0DCBD"/>
<path d="M253.526 138.71L253.407 138.348L267.489 133.688L267.608 134.05L253.526 138.71Z" fill="#E0DCBD"/>
<path d="M253.654 131.399L253.495 131.051L268.847 123.958L269.006 124.304L253.654 131.399Z" fill="#E0DCBD"/>
<path d="M247.096 209.891L246.714 209.876L248.302 172.505L248.684 172.52L247.096 209.891Z" fill="#E0DCBD"/>
<path d="M50.0111 217.246L47.6816 118.418L48.0635 118.409L50.3937 217.236L50.0111 217.246Z" fill="#E0DCBD"/>
<path d="M55.6219 214.444L51.4932 119.798L51.8728 119.783L56.0016 214.429L55.6219 214.444Z" fill="#E0DCBD"/>
<path d="M60.2811 211.799L56.1523 127.316L56.532 127.296L60.6608 211.779L60.2811 211.799Z" fill="#E0DCBD"/>
<path d="M45.2115 220.268L45.0303 219.93L66.2028 208.444L66.384 208.782L45.2115 220.268Z" fill="#E0DCBD"/>
<path d="M43.9325 213.759L43.7686 213.417L65.8943 202.937L66.0575 203.279L43.9325 213.759Z" fill="#E0DCBD"/>
<path d="M65.4797 196.49L43.7734 205.056L43.9125 205.409L65.6187 196.842L65.4797 196.49Z" fill="#E0DCBD"/>
<path d="M44.4397 196.197L44.3184 195.834L64.4336 189.059L64.5557 189.42L44.4397 196.197Z" fill="#E0DCBD"/>
<path d="M44.9661 188.15L44.8516 187.787L63.8025 181.859L63.917 182.222L44.9661 188.15Z" fill="#E0DCBD"/>
<path d="M44.5336 179.577L44.4385 179.21L62.7529 174.552L62.8473 174.92L44.5336 179.577Z" fill="#E0DCBD"/>
<path d="M43.5664 171.113L43.499 170.736L62.1309 167.347L62.1983 167.724L43.5664 171.113Z" fill="#E0DCBD"/>
<path d="M43.8721 161.69L43.8271 161.312L61.2955 159.303L61.3404 159.68L43.8721 161.69Z" fill="#E0DCBD"/>
<path d="M44.0697 153.117L44.0547 152.735L59.5118 152.1L59.5267 152.481L44.0697 153.117Z" fill="#E0DCBD"/>
<path d="M44.6243 143.422L44.5674 143.799L59.2827 146.022L59.3397 145.645L44.6243 143.422Z" fill="#E0DCBD"/>
<path d="M57.7661 138.71L43.6846 134.05L43.8036 133.688L57.8852 138.348L57.7661 138.71Z" fill="#E0DCBD"/>
<path d="M57.6388 131.399L42.2881 124.304L42.4468 123.958L57.7976 131.051L57.6388 131.399Z" fill="#E0DCBD"/>
<path d="M64.1985 209.891L62.6104 172.52L62.99 172.505L64.5782 209.876L64.1985 209.891Z" fill="#E0DCBD"/>
<path d="M271.24 221H266.158V117.302C266.158 116.866 265.801 116.509 265.364 116.509H46.0195C45.5814 116.509 45.2258 116.866 45.2258 117.302V220.365H40.1445V117.302C40.1445 114.062 42.781 111.427 46.0202 111.427H265.365C268.606 111.427 271.241 114.062 271.241 117.302V221H271.24Z" fill="#E0DCBD"/>
<path d="M66.5274 208.936L56.1523 127.736C56.1089 127.495 54.6997 120.054 42.7109 117.622L43.721 112.64C59.3713 115.818 61.1197 126.589 61.1871 127.046L71.5675 208.29L66.5274 208.936Z" fill="#E0DCBD"/>
<path d="M244.872 208.936L239.83 208.29L250.207 127.09C250.281 126.589 252.025 115.818 267.677 112.64L268.69 117.622C256.499 120.096 255.253 127.704 255.241 127.781L244.872 208.936Z" fill="#E0DCBD"/>
<path d="M244.872 206.749H67.3252V208.936H244.872V206.749Z" fill="#E0DCBD"/>
<path d="M45.2257 220.364L45.1201 217.255L67.3245 206.749V208.935L45.2257 220.364Z" fill="#E0DCBD"/>
<path d="M266.16 221L266.264 217.89L244.443 206.749V208.935L266.16 221Z" fill="#E0DCBD"/>
<path d="M214.211 147.425C214.211 147.425 214.618 133.863 219.357 126.754C224.096 119.645 224.555 123.929 237.307 106.035C241.096 100.718 243.625 103.794 243.625 103.794L245.473 104.727L244.584 106.021L229.14 148.264C229.14 148.264 228.339 155.128 222.084 156.47C215.828 157.811 214.211 147.425 214.211 147.425Z" fill="#BB744D"/>
<path d="M219.357 126.754C224.096 119.645 224.669 124.01 237.307 106.036C241.879 99.5331 244.326 104.623 244.326 104.623L247.33 106.763L244.583 106.021L231.151 144.297L217.98 129.238C218.395 128.354 218.849 127.516 219.357 126.754Z" fill="#EDEBCC"/>
<path d="M217.981 129.239L231.151 144.299L229.14 148.264C229.14 148.264 229.129 148.343 229.111 148.457L216.39 133.536C216.827 132.046 217.352 130.586 217.981 129.239Z" fill="#54A769"/>
<path d="M257.985 105.581L258.529 105.739C258.64 105.771 258.705 105.889 258.673 106L258.415 106.888C258.383 107 258.265 107.064 258.154 107.032L257.61 106.874C257.498 106.842 257.434 106.724 257.466 106.612L257.724 105.724C257.756 105.613 257.874 105.549 257.985 105.581Z" fill="#F4EFDC"/>
<path d="M254.802 104.682L255.345 104.84C255.457 104.872 255.521 104.99 255.489 105.101L255.232 105.989C255.199 106.101 255.081 106.165 254.97 106.133L254.427 105.975C254.316 105.943 254.251 105.825 254.284 105.713L254.541 104.825C254.573 104.714 254.69 104.649 254.802 104.682Z" fill="#F4EFDC"/>
<path d="M251.338 103.687L251.881 103.844C251.993 103.876 252.057 103.994 252.025 104.105L251.768 104.993C251.735 105.105 251.617 105.169 251.506 105.137L250.963 104.979C250.851 104.947 250.787 104.828 250.819 104.718L251.077 103.83C251.109 103.719 251.227 103.654 251.338 103.687Z" fill="#F4EFDC"/>
<path d="M248.548 102.876L249.091 103.034C249.203 103.066 249.267 103.184 249.235 103.295L248.978 104.183C248.945 104.295 248.828 104.359 248.716 104.327L248.173 104.169C248.061 104.137 247.997 104.019 248.029 103.908L248.286 103.02C248.319 102.908 248.436 102.844 248.548 102.876Z" fill="#F4EFDC"/>
<path d="M242.15 100.982L242.694 101.14C242.806 101.172 242.87 101.29 242.838 101.402L242.58 102.29C242.548 102.401 242.43 102.466 242.319 102.434L241.776 102.276C241.665 102.244 241.6 102.127 241.632 102.015L241.89 101.126C241.921 101.014 242.039 100.949 242.15 100.982Z" fill="#F4EFDC"/>
<path d="M239.383 100.136L239.926 100.294C240.038 100.326 240.102 100.443 240.07 100.555L239.812 101.444C239.78 101.555 239.663 101.62 239.551 101.588L239.008 101.43C238.896 101.397 238.832 101.279 238.864 101.168L239.121 100.28C239.154 100.169 239.272 100.104 239.383 100.136Z" fill="#F4EFDC"/>
<path d="M235.953 106.996C235.953 106.996 236.888 107.642 238.58 106.324L239.364 106.519C239.364 106.519 242.506 107.785 242.121 109.543C241.735 111.302 242.746 111.471 242.746 111.471C242.746 111.471 244.252 109.289 247.213 109.4C250.173 109.511 255.526 109.543 255.526 109.543C255.526 109.543 258.215 109.513 258.793 106.875L247.664 103.67L246.734 103.4L244.909 102.871L243.979 102.602L242.3 102.114L240.105 101.454L238.808 101.028L235.953 106.996Z" fill="#773500"/>
<path d="M250.839 107.318L249.448 104.185L248.518 103.915L250.162 107.619L250.839 107.318Z" fill="#773500"/>
<path d="M248.294 106.993L246.693 103.386L245.763 103.117L247.616 107.293L248.294 106.993Z" fill="#773500"/>
<path d="M245.845 106.618L244.084 102.629L243.154 102.359L245.168 106.918L245.845 106.618Z" fill="#773500"/>
<path d="M251.468 108.079C251.513 107.924 251.674 107.835 251.829 107.88C251.984 107.925 252.073 108.086 252.029 108.241C251.984 108.396 251.822 108.486 251.667 108.441C251.512 108.396 251.423 108.234 251.468 108.079Z" fill="#F4EFDC"/>
<path d="M249.41 107.918C249.455 107.763 249.617 107.674 249.772 107.719C249.927 107.764 250.016 107.926 249.971 108.081C249.926 108.236 249.764 108.325 249.609 108.28C249.454 108.235 249.365 108.073 249.41 107.918Z" fill="#F4EFDC"/>
<path d="M247.286 107.723C247.331 107.568 247.493 107.478 247.648 107.523C247.803 107.568 247.892 107.73 247.847 107.885C247.802 108.04 247.64 108.129 247.485 108.084C247.33 108.039 247.241 107.878 247.286 107.723Z" fill="#F4EFDC"/>
<path d="M245.39 107.655C245.434 107.5 245.596 107.411 245.751 107.456C245.906 107.501 245.995 107.663 245.95 107.818C245.905 107.973 245.744 108.062 245.589 108.017C245.434 107.972 245.345 107.81 245.39 107.655Z" fill="#F4EFDC"/>
<path d="M251.799 107.987C251.821 107.994 251.843 108.005 251.862 108.021C251.94 108.084 251.951 108.197 251.888 108.274L250.753 109.659C250.716 109.704 250.66 109.729 250.601 109.725C250.543 109.72 250.491 109.688 250.461 109.638L249.674 108.321L248.7 109.603C248.664 109.65 248.606 109.677 248.547 109.674C248.488 109.669 248.433 109.637 248.402 109.586L247.585 108.21L246.807 109.546C246.774 109.601 246.716 109.635 246.652 109.635C246.589 109.635 246.53 109.602 246.497 109.547L245.472 107.816C245.421 107.731 245.449 107.62 245.534 107.57C245.621 107.519 245.731 107.548 245.78 107.632L246.649 109.101L247.427 107.765C247.46 107.71 247.518 107.676 247.582 107.676C247.646 107.676 247.705 107.709 247.737 107.763L248.575 109.173L249.548 107.891C249.584 107.844 249.642 107.817 249.701 107.82C249.76 107.823 249.815 107.856 249.845 107.908L250.637 109.234L251.609 108.047C251.657 107.989 251.732 107.969 251.799 107.987Z" fill="#F4EFDC"/>
<path d="M151.456 102.542C151.456 102.542 147.357 117.168 158.965 123.153C165.25 126.394 163.746 123.483 173.416 119.643C183.086 115.803 193.278 110.309 193.278 110.309C193.278 110.309 183.751 76.5762 151.456 102.542Z" fill="#313658"/>
<path d="M236.294 79.0533L183.984 117.086L162.81 99.608C161.782 100.336 183.411 68.4535 222.014 69.8732C222.014 69.8732 227.208 68.2566 230.91 67.7848C234.612 67.3131 236.294 79.0533 236.294 79.0533Z" fill="#BB744D"/>
<path d="M237.411 78.0652C237.411 78.0652 246.468 81.5507 253.759 76.5167C261.051 71.4826 266.957 61.2303 276.401 54.671C285.845 48.1117 287.979 46.6748 287.979 46.6748L285.559 39.4355L282.885 42.0031L231.29 66.7346C231.29 66.7346 224.185 67.6811 222.899 74.1902C222.031 78.5833 225.289 82.1026 229.876 81.7866C232.085 81.6338 237.411 78.0652 237.411 78.0652Z" fill="#BB744D"/>
<path d="M202.587 70.3115L210.755 99.4593L177.858 121.421L167.3 90.7817C167.3 90.7817 176.299 78.2688 202.587 70.3115Z" fill="#291040"/>
<path d="M225.873 145.145L178.302 107.381C175.308 105.004 171.043 105.078 168.154 107.582C162.333 112.63 154.843 121.764 162.638 130.935C174.296 144.654 203.728 158.305 219.999 156.404C228.089 155.459 229.273 151.736 225.873 145.145Z" fill="#BB744D"/>
<path d="M282.885 42.0021L285.831 39.1245L291.506 40.9613C292.715 42.4536 289.695 45.9609 288.062 46.971C285.56 48.5187 281.606 51.0541 276.401 54.67C266.956 61.23 261.05 71.4823 253.759 76.5156C250.32 78.89 246.497 79.361 243.408 79.2038L236.331 64.3165L282.885 42.0021Z" fill="#E8E4BA"/>
<path d="M233.516 65.6662L236.33 64.3169L243.407 79.2041C241.63 79.1143 240.097 78.8223 239.028 78.5512L233.041 66.2824L233.516 65.6662Z" fill="#54A769"/>
<path d="M237.504 76.0208C237.504 76.0208 244.666 63.0009 259.412 64.0627C259.412 64.0627 246.88 58.5831 237.504 76.0208Z" fill="#EDEBCC"/>
<path d="M143.517 109.247C143.517 109.247 150.056 133.843 183.621 147.617L195.266 119.603L166.738 90.0322C166.738 90.0322 150.149 96.9292 143.077 103.229L143.517 109.247Z" fill="#291040"/>
<path d="M296.845 24.0112L296.86 23.6937C296.87 23.4579 296.705 23.2812 296.495 23.3014L295.828 23.365C295.617 23.3852 295.435 23.5949 295.425 23.8308L295.411 24.1482C295.4 24.3841 295.565 24.5608 295.775 24.5406L296.442 24.477C296.654 24.4567 296.835 24.2471 296.845 24.0112Z" fill="#F4EFDC"/>
<path d="M296.691 27.52L296.705 27.2025C296.715 26.9667 296.551 26.79 296.34 26.8102L295.672 26.8738C295.461 26.894 295.28 27.1029 295.27 27.3388L295.255 27.6563C295.245 27.8922 295.409 28.0689 295.62 28.0487L296.287 27.985C296.499 27.9655 296.68 27.7559 296.691 27.52Z" fill="#F4EFDC"/>
<path d="M296.493 31.8076L296.507 31.4901C296.517 31.2543 296.353 31.0776 296.142 31.0978L295.475 31.1614C295.264 31.1816 295.083 31.3913 295.072 31.6271L295.058 31.9446C295.048 32.1805 295.212 32.3572 295.423 32.337L296.09 32.2733C296.301 32.2524 296.482 32.0427 296.493 31.8076Z" fill="#F4EFDC"/>
<path d="M296.34 35.2656L296.355 34.9481C296.365 34.7123 296.2 34.5356 295.989 34.5558L295.322 34.6194C295.111 34.6396 294.93 34.8493 294.919 35.0852L294.906 35.4027C294.895 35.6385 295.059 35.8152 295.27 35.795L295.938 35.7314C296.149 35.7111 296.331 35.5015 296.34 35.2656Z" fill="#F4EFDC"/>
<path d="M296.043 42.2388L296.057 41.9213C296.067 41.6854 295.903 41.5087 295.691 41.5289L295.024 41.5926C294.813 41.6128 294.632 41.8224 294.621 42.0583L294.608 42.3758C294.597 42.6117 294.762 42.7884 294.973 42.7682L295.64 42.7045C295.851 42.6843 296.032 42.4746 296.043 42.2388Z" fill="#F4EFDC"/>
<path d="M295.968 45.0645L295.982 44.747C295.993 44.5111 295.828 44.3344 295.617 44.3546L294.95 44.4183C294.739 44.4385 294.557 44.6481 294.547 44.884L294.533 45.2015C294.522 45.4373 294.686 45.6141 294.898 45.5938L295.565 45.5302C295.776 45.5092 295.958 45.3003 295.968 45.0645Z" fill="#F4EFDC"/>
<path d="M287.456 47.5207C287.456 47.5207 287.129 46.2747 289.044 44.6027L288.515 40.9247C288.515 40.9247 288.294 40.1654 286.388 40.2051C284.481 40.2448 284.662 39.022 284.662 39.022C284.662 39.022 287.979 38.8393 288.895 35.347C289.81 31.8547 291.592 26.0104 291.592 26.0104C291.592 26.0104 292.954 23.0003 295.813 22.9404L295.226 36.292L295.175 37.4436L295.075 39.7041L295.024 40.8558L294.933 42.9359L294.882 44.0883L294.86 45.7064L287.456 47.5207Z" fill="#773500"/>
<path d="M292.251 31.5874L295.325 34.0816L295.274 35.234L291.713 32.31L292.251 31.5874Z" fill="#773500"/>
<path d="M291.696 34.644L295.174 37.4946L295.124 38.6463L291.157 35.3666L291.696 34.644Z" fill="#773500"/>
<path d="M291.224 37.6001L295.032 40.727L294.982 41.8794L290.687 38.3227L291.224 37.6001Z" fill="#773500"/>
<path d="M291.702 30.6727C291.874 30.6563 292.021 30.4878 292.029 30.2953C292.037 30.1037 291.904 29.9614 291.733 29.9779C291.562 29.9943 291.416 30.1628 291.407 30.3545C291.399 30.5469 291.531 30.6885 291.702 30.6727Z" fill="#F4EFDC"/>
<path d="M291.15 33.119C291.321 33.1026 291.467 32.9341 291.476 32.7416C291.485 32.55 291.353 32.4077 291.181 32.4241C291.009 32.4406 290.863 32.6091 290.855 32.8008C290.846 32.9932 290.978 33.1355 291.15 33.119Z" fill="#F4EFDC"/>
<path d="M290.61 35.6539C290.781 35.6374 290.927 35.469 290.936 35.2773C290.945 35.0856 290.813 34.9433 290.641 34.9598C290.469 34.9763 290.323 35.1447 290.315 35.3364C290.307 35.5281 290.438 35.6696 290.61 35.6539Z" fill="#F4EFDC"/>
<path d="M290.02 37.8912C290.192 37.8747 290.338 37.7063 290.346 37.5146C290.354 37.3229 290.223 37.1806 290.05 37.1971C289.879 37.2136 289.733 37.382 289.724 37.5737C289.716 37.7654 289.848 37.9077 290.02 37.8912Z" fill="#F4EFDC"/>
<path d="M291.91 30.3078C291.911 30.2794 291.908 30.2517 291.898 30.2254C291.861 30.1206 291.751 30.0809 291.652 30.1363L289.861 31.1405C289.803 31.1734 289.759 31.2341 289.742 31.3037C289.727 31.3733 289.741 31.4422 289.781 31.4894L290.836 32.7189L289.205 33.559C289.145 33.5905 289.098 33.6511 289.081 33.7215C289.065 33.7919 289.078 33.8638 289.119 33.9109L290.223 35.1906L288.606 35.7889C288.539 35.8136 288.484 35.8742 288.462 35.9491C288.439 36.0225 288.453 36.1004 288.497 36.1513L289.887 37.7567C289.956 37.8361 290.076 37.8286 290.157 37.7402C290.238 37.6511 290.247 37.5156 290.179 37.4377L289 36.0764L290.617 35.4781C290.683 35.4534 290.738 35.3928 290.761 35.3179C290.782 35.2423 290.77 35.1659 290.726 35.1157L289.596 33.8046L291.227 32.9645C291.288 32.933 291.334 32.8724 291.351 32.802C291.369 32.7324 291.354 32.6605 291.313 32.6126L290.251 31.3748L291.785 30.5145C291.86 30.4733 291.906 30.3909 291.91 30.3078Z" fill="#F4EFDC"/>
<path d="M154.33 53.3527C154.33 53.3527 187.589 51.7952 190.652 48.2482C193.714 44.7012 199.564 38.5979 199.564 38.5979C199.564 38.5979 181.84 33.3729 157.094 32.0708C157.094 32.0708 141.622 36.9574 154.33 53.3527Z" fill="#54A769"/>
<path d="M164.989 36.4012C164.989 36.4012 187.845 35.6112 193.677 41.0668C196.886 44.0702 202.872 45.8912 196.662 48.4476C191.59 50.5352 174.33 53.677 174.33 53.677L164.989 36.4012Z" fill="#54A769"/>
<path d="M177.028 34.0035C177.028 34.0035 160.921 30.5531 156.367 31.0218C150.301 31.6463 146.103 33.3033 143.387 36.6264C141.271 39.2165 140.635 53.4208 153.42 55.0929C161.229 56.1135 176.137 53.2763 176.137 53.2763L177.028 34.0035Z" fill="#3E875C"/>
<path d="M127.323 36.6725C127.323 36.6725 143.173 31.6758 149.499 32.8297C150.963 33.097 156.693 50.155 155.506 60.2718C154.535 68.5443 169.348 88.3039 169.348 88.3039L145.391 118.997C145.391 118.997 119.579 102.193 101.354 70.9067C97.9066 64.9891 95.6229 59.7476 94.2227 52.9742L106.865 46.2591L111.142 45.4624L127.323 36.6725Z" fill="#54A769"/>
<path d="M87.3708 62.2944C87.3708 62.2944 57.8658 86.3363 57.5087 90.4785C57.0714 95.5538 56.4521 102.901 56.4521 102.901C56.4521 102.901 67.3649 98.8836 90.7246 85.47C90.7246 85.47 108.647 69.7628 87.3708 62.2944Z" fill="#54A769"/>
<path d="M62.0447 87.5672L17.38 97.3276L12.8955 100.389C12.8955 100.389 48.0096 107.592 60.6647 101.234C60.6647 101.234 65.2503 95.4721 64.8197 90.5062C64.7059 89.2093 63.3386 87.419 62.0447 87.5672Z" fill="#54A769"/>
<path d="M192.254 36.8669L226.849 26.9253L231.816 27.4622C231.816 27.4622 212.331 47.0151 199.308 47.3528C199.308 47.3528 193.088 44.6699 191.281 40.4558C190.808 39.3543 191.141 37.3086 192.254 36.8669Z" fill="#54A769"/>
<path d="M89.9738 85.7366C89.9738 85.7366 99.076 82.2008 103.253 75.3547C105.146 72.2503 101.244 48.7116 92.2314 53.6685C85.7986 57.2058 77.1367 70.8792 77.1367 70.8792L89.9738 85.7366Z" fill="#3E875C"/>
<path d="M109.441 45.8326L125.629 48.2984L126.995 36.7888L128.362 36.1733L127.358 50.8532L106.351 46.3702L109.441 45.8326Z" fill="#FAF6D8"/>
<path d="M115.86 27.316L125.711 37.3489L124.411 46.4436L110.469 45.3878C110.469 45.3878 112.921 33.8229 110.382 23.1221C110.382 23.1221 108.334 32.9221 115.86 27.316Z" fill="#BB744D"/>
<path d="M120.484 12.2925C121.065 12.297 131.592 11.3116 131.094 24.0334C131.094 24.0334 132.076 26.4969 132.928 28.2775C133.632 29.7496 130.149 30.1277 130.149 30.1277L130.263 32.3546L127.948 32.565L129.941 32.9357L130.143 35.6949C130.132 36.3501 129.592 36.872 128.936 36.86L121.554 38.8031C118.414 38.7477 118.155 35.626 115.834 33.5107C115.102 32.8436 114.757 31.8679 114.069 31.2599C109.211 26.9694 107.664 12.1944 120.484 12.2925Z" fill="#BB744D"/>
<path d="M128.828 21.0918C128.828 21.0918 126.214 21.7897 125.33 23.5852C124.446 25.3816 128.395 22.3999 129.531 22.3752C130.668 22.3505 128.828 21.0918 128.828 21.0918Z" fill="#773500"/>
<path d="M126.473 25.0447C126.473 25.0447 127.16 26.9279 128.557 25.5823C129.224 24.9391 128.456 24.1387 128.456 24.1387L126.473 25.0447Z" fill="#1A1A3A"/>
<path d="M25.3122 102.762L25.1542 94.8108L22.6293 94.8925C22.6293 94.8925 19.754 93.0467 16.2227 91.183C12.6922 89.3185 11.1805 90.1602 11.1805 90.1602C11.1805 90.1602 8.52977 90.2126 8.99477 91.6383C9.45976 93.0639 13.5855 93.481 14.9176 94.578C16.2497 95.6749 6.56123 94.7749 4.74619 92.9082C2.93114 91.0415 0.0430916 93.2826 2.66757 95.0707C5.29205 96.8588 9.47698 97.8838 9.47698 97.8838C9.47698 97.8838 3.93451 97.6038 1.56012 95.8726C-0.813514 94.1414 -2.23095 99.7535 10.86 100.773C10.86 100.773 5.41709 101.357 1.92104 99.5798C1.28532 99.2564 0.459413 99.5491 0.297676 100.244C0.0670519 101.238 2.08876 102.95 9.79971 103.959C11.1445 104.135 10.3298 103.949 10.3298 103.949C10.3298 103.949 3.94125 105.059 2.3119 104.685C2.3119 104.685 0.747694 106.042 4.44068 106.624C8.13292 107.205 11.28 107.002 13.784 105.861C16.2879 104.719 19.3212 104.751 20.3575 103.08C20.5462 102.776 22.2961 102.803 22.2961 102.803C22.4833 104.296 25.62 103.279 25.3122 102.762Z" fill="#291040"/>
<path d="M224.415 34.8064L221.467 27.7312L223.726 26.8221C223.726 26.8221 225.545 24.0779 227.936 21.0625C230.327 18.0472 231.987 18.2022 231.987 18.2022C231.987 18.2022 234.346 17.219 234.489 18.6574C234.633 20.0958 231.155 22.0659 230.406 23.5507C229.657 25.0348 237.853 20.48 238.73 18.128C239.606 15.7761 243.023 16.632 241.403 19.2287C239.783 21.8255 236.489 24.3541 236.489 24.3541C236.489 24.3541 241.269 21.9551 242.691 19.5058C244.113 17.0573 247.542 21.4571 236.391 27.4391C236.391 27.4391 241.42 25.8412 243.813 22.9165C244.248 22.3841 245.09 22.322 245.503 22.8723C246.092 23.6593 244.973 25.955 238.564 29.8397C237.446 30.5174 238.092 30.0367 238.092 30.0367C238.092 30.0367 243.363 27.234 244.656 26.2725C244.656 26.2725 246.543 27.2894 243.511 29.2362C240.48 31.183 238.365 32.435 235.788 33.0647C233.241 33.687 230.803 33.2399 228.909 33.1636C228.553 33.1478 224.415 34.8064 224.415 34.8064Z" fill="#291040"/>
<path d="M226.656 33.3738C226.656 33.3738 226.42 34.4977 225.106 34.4041C223.791 34.3113 220.978 27.5558 220.978 27.5558C220.978 27.5558 222.33 26.0186 223.225 28.026C224.119 30.0328 226.656 33.3738 226.656 33.3738Z" fill="#291040"/>
<path d="M23.5696 93.9517C23.5696 93.9517 24.5251 93.0974 25.6452 94.0521C26.7654 95.006 24.8208 102.941 24.8208 102.941C24.8208 102.941 22.5872 103.427 23.1121 101.031C23.637 98.6346 23.5696 93.9517 23.5696 93.9517Z" fill="#291040"/>
<path d="M111.386 31.2618C110.62 31.6616 109.988 31.4557 109.988 31.4557C110.504 29.9589 110.205 30.4523 110.366 28.9915C109.487 31.6077 109.149 29.7073 109.232 28.4261C109.386 26.0615 108.303 25.2123 108.211 24.519C105.714 19.738 109.8 12.0046 117.152 10.7818C118.461 10.564 119.183 10.4359 119.183 10.4359C121.603 10.3723 123.355 10.6815 124.62 11.1735C125.844 11.5321 128.114 11.9732 129.527 9.63022C130.119 8.64857 131.203 12.1132 128.921 13.4445C129.697 13.16 130.487 12.7287 131.237 12.0683C131.237 12.0683 132.489 17.6931 124.757 17.0012C123.196 16.8612 122.166 16.5924 121.515 16.2449C120.432 18.5961 120.548 23.3561 120.372 25.0094C120.095 27.6062 119.4 26.1963 119.4 26.1963C119.4 26.1963 115.934 21.4333 114.808 26.0937C114.316 28.1326 111.078 32.0337 111.386 31.2618Z" fill="#773500"/>
<path d="M272.106 24.2905C278.639 26.2995 285.566 22.6304 287.574 16.0966C289.583 9.56271 285.915 2.63649 279.38 0.627509C272.845 -1.38147 265.92 2.28681 263.911 8.82142C261.903 15.356 265.571 22.2815 272.106 24.2905Z" fill="#F4EFDC"/>
<path d="M270.463 11.0827L274.63 7.92139L278.962 10.8124L277.386 15.9386L272.375 16.2681L270.463 11.0827Z" fill="#291040"/>
<path d="M285.632 4.83643L283.634 5.00116L282.692 10.0891L287.047 12.9083L288.252 12.0315C288.252 12.0315 288.042 7.13593 285.632 4.83643Z" fill="#291040"/>
<path d="M278.549 0.243184C278.549 0.243184 273.39 -0.719746 270.466 1.18665L274.567 4.57788L278.805 1.77669L278.549 0.243184Z" fill="#291040"/>
<path d="M265.515 5.12012L267.284 10.1841L263.38 13.0168C263.38 13.0168 262.833 9.95874 265.515 5.12012Z" fill="#291040"/>
<path d="M265.078 19.2212L269.891 19.4541L271.3 23.9924C271.3 23.9924 268.284 23.3238 265.078 19.2212Z" fill="#291040"/>
<path d="M279.894 19.3594L285.962 19.5623C285.962 19.5623 283.539 24.0647 278.252 24.3612L279.894 19.3594Z" fill="#291040"/>
<path d="M270.673 11.3285C270.72 11.1757 270.637 11.011 270.484 10.9593L267.381 9.90132C267.225 9.84815 267.056 9.93127 267.002 10.087C266.949 10.2517 267.032 10.412 267.188 10.4651L270.292 11.5232C270.448 11.5763 270.617 11.4925 270.67 11.3375C270.671 11.3345 270.672 11.3322 270.673 11.3285Z" fill="#291040"/>
<path d="M274.914 8.00952C274.923 7.98031 274.928 7.94886 274.927 7.91667L274.865 4.57186C274.862 4.40713 274.725 4.27684 274.561 4.27984C274.397 4.28283 274.266 4.41837 274.269 4.5831L274.331 7.92715C274.334 8.09188 274.471 8.22292 274.635 8.21992C274.767 8.21768 274.877 8.13007 274.914 8.00952Z" fill="#291040"/>
<path d="M272.496 16.046C272.534 15.9232 272.489 15.7847 272.376 15.7098C272.239 15.6192 272.054 15.6559 271.963 15.7929L269.642 19.2875C269.55 19.4253 269.588 19.6095 269.725 19.7008C269.862 19.7914 270.047 19.7547 270.138 19.6177L272.459 16.1231C272.476 16.0992 272.488 16.073 272.496 16.046Z" fill="#291040"/>
<path d="M282.977 10.1767C282.991 10.1317 282.994 10.0823 282.985 10.0329C282.953 9.87118 282.797 9.7656 282.635 9.79705L278.905 10.5204C278.744 10.5518 278.639 10.7076 278.669 10.87C278.701 11.0318 278.857 11.1374 279.019 11.1059L282.749 10.3826C282.861 10.3601 282.946 10.2785 282.977 10.1767Z" fill="#291040"/>
<path d="M283.918 5.08934C283.95 4.98451 283.923 4.86546 283.837 4.78534C282.333 3.36565 280.68 2.26119 278.923 1.50343C278.772 1.43828 278.597 1.50792 278.532 1.65917C278.466 1.80519 278.536 1.98565 278.687 2.05079C280.38 2.78085 281.974 3.84712 283.429 5.21888C283.548 5.33195 283.736 5.3267 283.849 5.2069C283.882 5.17171 283.905 5.13127 283.918 5.08934Z" fill="#291040"/>
<path d="M270.965 1.34018C270.986 1.27279 270.983 1.19716 270.951 1.12753C270.881 0.978519 270.705 0.913375 270.556 0.983011C270.433 1.03992 267.531 2.40719 265.381 5.30647C265.283 5.43901 265.311 5.62545 265.443 5.7228C265.575 5.82089 265.762 5.79318 265.859 5.6614C267.92 2.88267 270.777 1.53711 270.807 1.52363C270.886 1.48619 270.941 1.41806 270.965 1.34018Z" fill="#291040"/>
<path d="M285.674 19.6571C285.674 19.6541 285.676 19.6511 285.676 19.6481L287.564 12.7474C287.608 12.5886 287.514 12.4247 287.355 12.3812C287.197 12.3378 287.039 12.4389 286.989 12.5901L285.101 19.4909C285.058 19.6496 285.152 19.8136 285.31 19.8571C285.466 19.899 285.627 19.8099 285.674 19.6571Z" fill="#291040"/>
<path d="M280.203 23.8456C280.228 23.7654 280.219 23.6763 280.171 23.6C280.084 23.4607 279.9 23.4188 279.76 23.5056C276.772 25.3791 272.002 23.7602 271.358 23.4517C271.308 23.3985 271.237 23.3641 271.159 23.3604C271.03 23.3529 270.901 23.4322 270.853 23.5513C270.811 23.6808 270.848 23.8171 270.947 23.898C271.189 24.0979 276.603 26.1878 280.077 24.0095C280.14 23.9706 280.183 23.9115 280.203 23.8456Z" fill="#291040"/>
<path d="M280.339 19.6007C280.366 19.5131 280.352 19.4143 280.293 19.3349L277.625 15.7617C277.527 15.63 277.34 15.603 277.208 15.7011C277.077 15.7999 277.05 15.9864 277.148 16.1182L279.816 19.6921C279.914 19.8239 280.102 19.8508 280.233 19.7527C280.285 19.7123 280.321 19.6591 280.339 19.6007Z" fill="#291040"/>
<path d="M265.614 19.3144C265.635 19.2463 265.632 19.1706 265.6 19.101C264.869 17.5368 264.013 15.4162 263.87 12.8839C263.861 12.7191 263.721 12.5933 263.557 12.6031C263.392 12.6121 263.266 12.7536 263.276 12.9176C263.424 15.5518 264.307 17.7412 265.06 19.3533C265.13 19.5023 265.307 19.5667 265.456 19.4971C265.535 19.4604 265.59 19.3923 265.614 19.3144Z" fill="#291040"/>
</mask>
<g mask="url(#mask0_15417_17575)">
<path d="M253.045 124.099H59.3057V124.481H253.045V124.099Z" fill="#E0DCBD"/>
<path d="M94.1993 131.654C74.311 131.654 60.758 131.627 60.3125 131.627V131.245C61.8026 131.255 209.641 131.545 250.709 130.134L250.724 130.516C221.946 131.505 140.744 131.654 94.1993 131.654Z" fill="#E0DCBD"/>
<path d="M94.1993 138.482C74.311 138.482 60.758 138.454 60.3125 138.454V138.072C61.8026 138.08 209.641 138.373 250.709 136.96L250.724 137.342C221.946 138.334 140.744 138.482 94.1993 138.482Z" fill="#E0DCBD"/>
<path d="M94.1993 145.787C74.311 145.787 60.758 145.76 60.3125 145.76V145.379C61.8026 145.386 209.641 145.681 250.709 144.267L250.724 144.648C221.946 145.638 140.744 145.787 94.1993 145.787Z" fill="#E0DCBD"/>
<path d="M94.1993 153.092C74.311 153.092 60.758 153.065 60.3125 153.065V152.683C61.8026 152.693 209.641 152.983 250.709 151.571L250.724 151.953C221.946 152.943 140.744 153.092 94.1993 153.092Z" fill="#E0DCBD"/>
<path d="M95.042 160.39C75.498 160.39 62.1802 160.362 61.7422 160.362V159.98C63.215 159.99 208.832 160.281 249.28 158.883L249.295 159.265C220.931 160.241 140.875 160.39 95.042 160.39Z" fill="#E0DCBD"/>
<path d="M96.8858 168.153C77.9371 168.153 65.0251 168.126 64.6006 168.126V167.744C66.021 167.752 207.204 168.033 246.421 166.683L246.436 167.065C218.939 168.009 141.321 168.153 96.8858 168.153Z" fill="#E0DCBD"/>
<path d="M96.8858 175.141C77.9371 175.141 65.0251 175.113 64.6006 175.113V174.731C66.021 174.739 207.204 175.016 246.421 173.669L246.436 174.051C218.939 174.997 141.321 175.141 96.8858 175.141Z" fill="#E0DCBD"/>
<path d="M96.8858 182.552C77.9371 182.552 65.0251 182.525 64.6006 182.525V182.143C66.021 182.151 207.204 182.429 246.421 181.082L246.436 181.463C218.939 182.408 141.321 182.552 96.8858 182.552Z" fill="#E0DCBD"/>
<path d="M96.8858 189.539C77.9371 189.539 65.0251 189.512 64.6006 189.512V189.131C66.021 189.136 207.204 189.416 246.421 188.069L246.436 188.451C218.939 189.396 141.321 189.539 96.8858 189.539Z" fill="#E0DCBD"/>
<path d="M96.8858 196.633C77.9371 196.633 65.0251 196.606 64.6006 196.606V196.224C66.021 196.231 207.204 196.509 246.421 195.162L246.436 195.544C218.939 196.489 141.321 196.633 96.8858 196.633Z" fill="#E0DCBD"/>
<path d="M100.352 203.693C82.4942 203.693 70.3198 203.668 69.9199 203.668V203.287C71.2625 203.296 204.179 203.56 241.101 202.286L241.116 202.668C215.231 203.559 142.194 203.693 100.352 203.693Z" fill="#E0DCBD"/>
<path d="M182.737 208.937C132.302 208.937 72.0825 208.335 71.1885 208.327L71.1937 207.945C72.5176 207.96 204.182 209.275 241.102 208.002L241.117 208.384C229.102 208.797 207.053 208.937 182.737 208.937Z" fill="#E0DCBD"/>
<path d="M76.8763 208.238L67.4365 124.227L57.7285 116.098L57.9741 115.806L67.7989 124.033L67.8079 124.108L77.256 208.193L76.8763 208.238Z" fill="#E0DCBD"/>
<path d="M83.6258 208.315L74.8988 124.219L65.8984 115.694L66.1613 115.416L75.2634 124.04L75.2709 124.11L84.0055 208.275L83.6258 208.315Z" fill="#E0DCBD"/>
<path d="M90.136 208.392L82.6782 124.213L74.7021 115.605L74.9829 115.347L83.0458 124.049L83.0518 124.113L90.5157 208.358L90.136 208.392Z" fill="#E0DCBD"/>
<path d="M96.726 208.152L89.6642 124.203L83.1094 115.831L83.4089 115.597L90.0341 124.059L90.0393 124.116L97.1063 208.122L96.726 208.152Z" fill="#E0DCBD"/>
<path d="M103.555 208.31L97.2866 124.203L89.542 114.511L89.84 114.272L97.6588 124.059L97.6625 124.116L103.935 208.28L103.555 208.31Z" fill="#E0DCBD"/>
<path d="M110.543 208.308L105.385 124.203L97.7988 114.508L98.0991 114.274L105.758 124.059L105.761 124.118L110.922 208.283L110.543 208.308Z" fill="#E0DCBD"/>
<path d="M117.292 208.305L113.324 124.205L105.64 115.362L105.928 115.113L113.699 124.056L113.702 124.12L117.672 208.286L117.292 208.305Z" fill="#E0DCBD"/>
<path d="M124.119 208.224L121.263 124.198L114.629 115.352L114.934 115.124L121.64 124.064L121.642 124.124L124.501 208.209L124.119 208.224Z" fill="#E0DCBD"/>
<path d="M131.343 208.382L128.567 124.185L123.721 115.863L124.051 115.67L128.946 124.124L131.726 208.367L131.343 208.382Z" fill="#E0DCBD"/>
<path d="M138.411 208.777L136.03 124.175L132.076 115.476L132.424 115.317L136.411 124.126L138.793 208.768L138.411 208.777Z" fill="#E0DCBD"/>
<path d="M145.239 208.775L143.651 124.133L141.276 115.287L141.644 115.188L144.026 124.081L145.622 208.77L145.239 208.775Z" fill="#E0DCBD"/>
<path d="M152.227 208.772L151.909 124.131L150.323 114.635L150.701 114.571L152.289 124.099L152.609 208.772H152.227Z" fill="#E0DCBD"/>
<path d="M235.026 208.315L234.648 208.275L243.867 124.036L243.921 123.986L253.977 115.2L254.231 115.488L244.228 124.224L235.026 208.315Z" fill="#E0DCBD"/>
<path d="M228.117 208.395L227.739 208.355L236.402 124.039L236.454 123.99L245.294 115.942L245.553 116.225L236.764 124.222L228.117 208.395Z" fill="#E0DCBD"/>
<path d="M221.688 208.551L221.306 208.516L228.618 124.041L228.672 123.989L237.99 115.414L238.248 115.697L228.985 124.22L221.688 208.551Z" fill="#E0DCBD"/>
<path d="M214.899 208.588L214.517 208.559L221.631 124.043L221.68 123.994L229.831 115.947L230.099 116.22L221.998 124.218L214.899 208.588Z" fill="#E0DCBD"/>
<path d="M208.069 208.747L207.688 208.717L214.005 124.048L214.052 124.001L222.203 115.215L222.48 115.473L214.377 124.212L208.069 208.747Z" fill="#E0DCBD"/>
<path d="M201.1 208.864L200.718 208.839L205.906 124.059L205.943 124.011L212.454 115.861L212.751 116.099L206.278 124.203L201.1 208.864Z" fill="#E0DCBD"/>
<path d="M194.433 208.92L194.051 208.901L197.963 124.063L198.001 124.016L204.829 114.965L205.132 115.192L198.341 124.197L194.433 208.92Z" fill="#E0DCBD"/>
<path d="M187.545 209.256L187.162 209.241L190.023 124.066L190.058 124.019L195.934 115.92L196.242 116.144L190.401 124.195L187.545 209.256Z" fill="#E0DCBD"/>
<path d="M180.239 209.256L179.857 209.241L182.74 124.036L187.663 115.302L187.996 115.49L183.095 124.182L180.239 209.256Z" fill="#E0DCBD"/>
<path d="M173.253 208.777L172.87 208.767L175.267 124.056L178.92 115.322L179.272 115.471L175.632 124.17L173.253 208.777Z" fill="#E0DCBD"/>
<path d="M166.424 208.775L166.042 208.77L167.63 124.128L170.02 115.188L170.386 115.287L168.005 124.181L166.424 208.775Z" fill="#E0DCBD"/>
<path d="M159.437 208.771H159.055L159.372 124.131L160.645 115.843L161.022 115.902L159.752 124.16L159.437 208.771Z" fill="#E0DCBD"/>
<path d="M261.281 217.722L260.899 217.712L263.229 118.409L263.611 118.418L261.281 217.722Z" fill="#E0DCBD"/>
<path d="M255.67 214.444L255.288 214.429L259.417 119.783L259.799 119.798L255.67 214.444Z" fill="#E0DCBD"/>
<path d="M251.014 211.799L250.632 211.779L254.761 127.296L255.143 127.316L251.014 211.799Z" fill="#E0DCBD"/>
<path d="M266.224 220.768L243.951 208.223L244.14 207.891L266.412 220.436L266.224 220.768Z" fill="#E0DCBD"/>
<path d="M267.361 213.759L245.235 203.279L245.399 202.937L267.524 213.417L267.361 213.759Z" fill="#E0DCBD"/>
<path d="M245.803 196.48L245.664 196.833L267.365 205.408L267.504 205.056L245.803 196.48Z" fill="#E0DCBD"/>
<path d="M266.852 196.197L246.736 189.42L246.86 189.059L266.976 195.834L266.852 196.197Z" fill="#E0DCBD"/>
<path d="M266.329 188.15L247.377 182.222L247.491 181.86L266.442 187.788L266.329 188.15Z" fill="#E0DCBD"/>
<path d="M266.761 179.577L248.446 174.92L248.541 174.552L266.855 179.21L266.761 179.577Z" fill="#E0DCBD"/>
<path d="M267.726 171.113L249.094 167.724L249.163 167.347L267.795 170.736L267.726 171.113Z" fill="#E0DCBD"/>
<path d="M267.419 161.69L249.951 159.681L249.996 159.303L267.464 161.313L267.419 161.69Z" fill="#E0DCBD"/>
<path d="M267.223 153.117L251.768 152.481L251.783 152.1L267.238 152.735L267.223 153.117Z" fill="#E0DCBD"/>
<path d="M252.013 146.023L251.958 145.646L266.675 143.423L266.729 143.8L252.013 146.023Z" fill="#E0DCBD"/>
<path d="M253.526 138.71L253.407 138.348L267.489 133.688L267.608 134.05L253.526 138.71Z" fill="#E0DCBD"/>
<path d="M253.654 131.399L253.495 131.051L268.847 123.958L269.006 124.304L253.654 131.399Z" fill="#E0DCBD"/>
<path d="M247.096 209.891L246.714 209.876L248.302 172.505L248.684 172.52L247.096 209.891Z" fill="#E0DCBD"/>
<path d="M50.0111 217.246L47.6816 118.418L48.0635 118.409L50.3937 217.236L50.0111 217.246Z" fill="#E0DCBD"/>
<path d="M55.6219 214.444L51.4932 119.798L51.8728 119.783L56.0016 214.429L55.6219 214.444Z" fill="#E0DCBD"/>
<path d="M60.2811 211.799L56.1523 127.316L56.532 127.296L60.6608 211.779L60.2811 211.799Z" fill="#E0DCBD"/>
<path d="M45.2115 220.268L45.0303 219.93L66.2028 208.444L66.384 208.782L45.2115 220.268Z" fill="#E0DCBD"/>
<path d="M43.9325 213.759L43.7686 213.417L65.8943 202.937L66.0575 203.279L43.9325 213.759Z" fill="#E0DCBD"/>
<path d="M65.4797 196.49L43.7734 205.056L43.9125 205.409L65.6187 196.842L65.4797 196.49Z" fill="#E0DCBD"/>
<path d="M44.4397 196.197L44.3184 195.834L64.4336 189.059L64.5557 189.42L44.4397 196.197Z" fill="#E0DCBD"/>
<path d="M44.9661 188.15L44.8516 187.787L63.8025 181.859L63.917 182.222L44.9661 188.15Z" fill="#E0DCBD"/>
<path d="M44.5336 179.577L44.4385 179.21L62.7529 174.552L62.8473 174.92L44.5336 179.577Z" fill="#E0DCBD"/>
<path d="M43.5664 171.113L43.499 170.736L62.1309 167.347L62.1983 167.724L43.5664 171.113Z" fill="#E0DCBD"/>
<path d="M43.8721 161.69L43.8271 161.312L61.2955 159.303L61.3404 159.68L43.8721 161.69Z" fill="#E0DCBD"/>
<path d="M44.0697 153.117L44.0547 152.735L59.5118 152.1L59.5267 152.481L44.0697 153.117Z" fill="#E0DCBD"/>
<path d="M44.6243 143.422L44.5674 143.799L59.2827 146.022L59.3397 145.645L44.6243 143.422Z" fill="#E0DCBD"/>
<path d="M57.7661 138.71L43.6846 134.05L43.8036 133.688L57.8852 138.348L57.7661 138.71Z" fill="#E0DCBD"/>
<path d="M57.6388 131.399L42.2881 124.304L42.4468 123.958L57.7976 131.051L57.6388 131.399Z" fill="#E0DCBD"/>
<path d="M64.1985 209.891L62.6104 172.52L62.99 172.505L64.5782 209.876L64.1985 209.891Z" fill="#E0DCBD"/>
<path d="M271.24 221H266.158V117.302C266.158 116.866 265.801 116.509 265.364 116.509H46.0195C45.5814 116.509 45.2258 116.866 45.2258 117.302V220.365H40.1445V117.302C40.1445 114.062 42.781 111.427 46.0202 111.427H265.365C268.606 111.427 271.241 114.062 271.241 117.302V221H271.24Z" fill="#E0DCBD"/>
<path d="M66.5274 208.936L56.1523 127.736C56.1089 127.495 54.6997 120.054 42.7109 117.622L43.721 112.64C59.3713 115.818 61.1197 126.589 61.1871 127.046L71.5675 208.29L66.5274 208.936Z" fill="#E0DCBD"/>
<path d="M244.872 208.936L239.83 208.29L250.207 127.09C250.281 126.589 252.025 115.818 267.677 112.64L268.69 117.622C256.499 120.096 255.253 127.704 255.241 127.781L244.872 208.936Z" fill="#E0DCBD"/>
<path d="M244.872 206.749H67.3252V208.936H244.872V206.749Z" fill="#E0DCBD"/>
<path d="M45.2257 220.364L45.1201 217.255L67.3245 206.749V208.935L45.2257 220.364Z" fill="#E0DCBD"/>
<path d="M266.16 221L266.264 217.89L244.443 206.749V208.935L266.16 221Z" fill="#E0DCBD"/>
<path d="M214.211 147.425C214.211 147.425 214.618 133.863 219.357 126.754C224.096 119.645 224.555 123.929 237.307 106.035C241.096 100.718 243.625 103.794 243.625 103.794L245.473 104.727L244.584 106.021L229.14 148.264C229.14 148.264 228.339 155.128 222.084 156.47C215.828 157.811 214.211 147.425 214.211 147.425Z" fill="#BB744D"/>
<path d="M219.357 126.754C224.096 119.645 224.669 124.01 237.307 106.036C241.879 99.5331 244.326 104.623 244.326 104.623L247.33 106.763L244.583 106.021L231.151 144.297L217.98 129.238C218.395 128.354 218.849 127.516 219.357 126.754Z" fill="#EDEBCC"/>
<path d="M217.981 129.239L231.151 144.299L229.14 148.264C229.14 148.264 229.129 148.343 229.111 148.457L216.39 133.536C216.827 132.046 217.352 130.586 217.981 129.239Z" fill="#54A769"/>
<path d="M257.985 105.581L258.529 105.739C258.64 105.771 258.705 105.889 258.673 106L258.415 106.888C258.383 107 258.265 107.064 258.154 107.032L257.61 106.874C257.498 106.842 257.434 106.724 257.466 106.612L257.724 105.724C257.756 105.613 257.874 105.549 257.985 105.581Z" fill="#F4EFDC"/>
<path d="M254.802 104.682L255.345 104.84C255.457 104.872 255.521 104.99 255.489 105.101L255.232 105.989C255.199 106.101 255.081 106.165 254.97 106.133L254.427 105.975C254.316 105.943 254.251 105.825 254.284 105.713L254.541 104.825C254.573 104.714 254.69 104.649 254.802 104.682Z" fill="#F4EFDC"/>
<path d="M251.338 103.687L251.881 103.844C251.993 103.876 252.057 103.994 252.025 104.105L251.768 104.993C251.735 105.105 251.617 105.169 251.506 105.137L250.963 104.979C250.851 104.947 250.787 104.828 250.819 104.718L251.077 103.83C251.109 103.719 251.227 103.654 251.338 103.687Z" fill="#F4EFDC"/>
<path d="M248.548 102.876L249.091 103.034C249.203 103.066 249.267 103.184 249.235 103.295L248.978 104.183C248.945 104.295 248.828 104.359 248.716 104.327L248.173 104.169C248.061 104.137 247.997 104.019 248.029 103.908L248.286 103.02C248.319 102.908 248.436 102.844 248.548 102.876Z" fill="#F4EFDC"/>
<path d="M242.15 100.982L242.694 101.14C242.806 101.172 242.87 101.29 242.838 101.402L242.58 102.29C242.548 102.401 242.43 102.466 242.319 102.434L241.776 102.276C241.665 102.244 241.6 102.127 241.632 102.015L241.89 101.126C241.921 101.014 242.039 100.949 242.15 100.982Z" fill="#F4EFDC"/>
<path d="M239.383 100.136L239.926 100.294C240.038 100.326 240.102 100.443 240.07 100.555L239.812 101.444C239.78 101.555 239.663 101.62 239.551 101.588L239.008 101.43C238.896 101.397 238.832 101.279 238.864 101.168L239.121 100.28C239.154 100.169 239.272 100.104 239.383 100.136Z" fill="#F4EFDC"/>
<path d="M235.953 106.996C235.953 106.996 236.888 107.642 238.58 106.324L239.364 106.519C239.364 106.519 242.506 107.785 242.121 109.543C241.735 111.302 242.746 111.471 242.746 111.471C242.746 111.471 244.252 109.289 247.213 109.4C250.173 109.511 255.526 109.543 255.526 109.543C255.526 109.543 258.215 109.513 258.793 106.875L247.664 103.67L246.734 103.4L244.909 102.871L243.979 102.602L242.3 102.114L240.105 101.454L238.808 101.028L235.953 106.996Z" fill="#773500"/>
<path d="M250.839 107.318L249.448 104.185L248.518 103.915L250.162 107.619L250.839 107.318Z" fill="#773500"/>
<path d="M248.294 106.993L246.693 103.386L245.763 103.117L247.616 107.293L248.294 106.993Z" fill="#773500"/>
<path d="M245.845 106.618L244.084 102.629L243.154 102.359L245.168 106.918L245.845 106.618Z" fill="#773500"/>
<path d="M251.468 108.079C251.513 107.924 251.674 107.835 251.829 107.88C251.984 107.925 252.073 108.086 252.029 108.241C251.984 108.396 251.822 108.486 251.667 108.441C251.512 108.396 251.423 108.234 251.468 108.079Z" fill="#F4EFDC"/>
<path d="M249.41 107.918C249.455 107.763 249.617 107.674 249.772 107.719C249.927 107.764 250.016 107.926 249.971 108.081C249.926 108.236 249.764 108.325 249.609 108.28C249.454 108.235 249.365 108.073 249.41 107.918Z" fill="#F4EFDC"/>
<path d="M247.286 107.723C247.331 107.568 247.493 107.478 247.648 107.523C247.803 107.568 247.892 107.73 247.847 107.885C247.802 108.04 247.64 108.129 247.485 108.084C247.33 108.039 247.241 107.878 247.286 107.723Z" fill="#F4EFDC"/>
<path d="M245.39 107.655C245.434 107.5 245.596 107.411 245.751 107.456C245.906 107.501 245.995 107.663 245.95 107.818C245.905 107.973 245.744 108.062 245.589 108.017C245.434 107.972 245.345 107.81 245.39 107.655Z" fill="#F4EFDC"/>
<path d="M251.799 107.987C251.821 107.994 251.843 108.005 251.862 108.021C251.94 108.084 251.951 108.197 251.888 108.274L250.753 109.659C250.716 109.704 250.66 109.729 250.601 109.725C250.543 109.72 250.491 109.688 250.461 109.638L249.674 108.321L248.7 109.603C248.664 109.65 248.606 109.677 248.547 109.674C248.488 109.669 248.433 109.637 248.402 109.586L247.585 108.21L246.807 109.546C246.774 109.601 246.716 109.635 246.652 109.635C246.589 109.635 246.53 109.602 246.497 109.547L245.472 107.816C245.421 107.731 245.449 107.62 245.534 107.57C245.621 107.519 245.731 107.548 245.78 107.632L246.649 109.101L247.427 107.765C247.46 107.71 247.518 107.676 247.582 107.676C247.646 107.676 247.705 107.709 247.737 107.763L248.575 109.173L249.548 107.891C249.584 107.844 249.642 107.817 249.701 107.82C249.76 107.823 249.815 107.856 249.845 107.908L250.637 109.234L251.609 108.047C251.657 107.989 251.732 107.969 251.799 107.987Z" fill="#F4EFDC"/>
<path d="M151.456 102.542C151.456 102.542 147.357 117.168 158.965 123.153C165.25 126.394 163.746 123.483 173.416 119.643C183.086 115.803 193.278 110.309 193.278 110.309C193.278 110.309 183.751 76.5762 151.456 102.542Z" fill="#313658"/>
<path d="M236.294 79.0533L183.984 117.086L162.81 99.608C161.782 100.336 183.411 68.4535 222.014 69.8732C222.014 69.8732 227.208 68.2566 230.91 67.7848C234.612 67.3131 236.294 79.0533 236.294 79.0533Z" fill="#BB744D"/>
<path d="M237.411 78.0652C237.411 78.0652 246.468 81.5507 253.759 76.5167C261.051 71.4826 266.957 61.2303 276.401 54.671C285.845 48.1117 287.979 46.6748 287.979 46.6748L285.559 39.4355L282.885 42.0031L231.29 66.7346C231.29 66.7346 224.185 67.6811 222.899 74.1902C222.031 78.5833 225.289 82.1026 229.876 81.7866C232.085 81.6338 237.411 78.0652 237.411 78.0652Z" fill="#BB744D"/>
<path d="M202.587 70.3115L210.755 99.4593L177.858 121.421L167.3 90.7817C167.3 90.7817 176.299 78.2688 202.587 70.3115Z" fill="#291040"/>
<path d="M225.873 145.145L178.302 107.381C175.308 105.004 171.043 105.078 168.154 107.582C162.333 112.63 154.843 121.764 162.638 130.935C174.296 144.654 203.728 158.305 219.999 156.404C228.089 155.459 229.273 151.736 225.873 145.145Z" fill="#BB744D"/>
<path d="M282.885 42.0021L285.831 39.1245L291.506 40.9613C292.715 42.4536 289.695 45.9609 288.062 46.971C285.56 48.5187 281.606 51.0541 276.401 54.67C266.956 61.23 261.05 71.4823 253.759 76.5156C250.32 78.89 246.497 79.361 243.408 79.2038L236.331 64.3165L282.885 42.0021Z" fill="#E8E4BA"/>
<path d="M233.516 65.6662L236.33 64.3169L243.407 79.2041C241.63 79.1143 240.097 78.8223 239.028 78.5512L233.041 66.2824L233.516 65.6662Z" fill="#54A769"/>
<path d="M237.504 76.0208C237.504 76.0208 244.666 63.0009 259.412 64.0627C259.412 64.0627 246.88 58.5831 237.504 76.0208Z" fill="#EDEBCC"/>
<path d="M143.517 109.247C143.517 109.247 150.056 133.843 183.621 147.617L195.266 119.603L166.738 90.0322C166.738 90.0322 150.149 96.9292 143.077 103.229L143.517 109.247Z" fill="#291040"/>
<path d="M296.845 24.0112L296.86 23.6937C296.87 23.4579 296.705 23.2812 296.495 23.3014L295.828 23.365C295.617 23.3852 295.435 23.5949 295.425 23.8308L295.411 24.1482C295.4 24.3841 295.565 24.5608 295.775 24.5406L296.442 24.477C296.654 24.4567 296.835 24.2471 296.845 24.0112Z" fill="#F4EFDC"/>
<path d="M296.691 27.52L296.705 27.2025C296.715 26.9667 296.551 26.79 296.34 26.8102L295.672 26.8738C295.461 26.894 295.28 27.1029 295.27 27.3388L295.255 27.6563C295.245 27.8922 295.409 28.0689 295.62 28.0487L296.287 27.985C296.499 27.9655 296.68 27.7559 296.691 27.52Z" fill="#F4EFDC"/>
<path d="M296.493 31.8076L296.507 31.4901C296.517 31.2543 296.353 31.0776 296.142 31.0978L295.475 31.1614C295.264 31.1816 295.083 31.3913 295.072 31.6271L295.058 31.9446C295.048 32.1805 295.212 32.3572 295.423 32.337L296.09 32.2733C296.301 32.2524 296.482 32.0427 296.493 31.8076Z" fill="#F4EFDC"/>
<path d="M296.34 35.2656L296.355 34.9481C296.365 34.7123 296.2 34.5356 295.989 34.5558L295.322 34.6194C295.111 34.6396 294.93 34.8493 294.919 35.0852L294.906 35.4027C294.895 35.6385 295.059 35.8152 295.27 35.795L295.938 35.7314C296.149 35.7111 296.331 35.5015 296.34 35.2656Z" fill="#F4EFDC"/>
<path d="M296.043 42.2388L296.057 41.9213C296.067 41.6854 295.903 41.5087 295.691 41.5289L295.024 41.5926C294.813 41.6128 294.632 41.8224 294.621 42.0583L294.608 42.3758C294.597 42.6117 294.762 42.7884 294.973 42.7682L295.64 42.7045C295.851 42.6843 296.032 42.4746 296.043 42.2388Z" fill="#F4EFDC"/>
<path d="M295.968 45.0645L295.982 44.747C295.993 44.5111 295.828 44.3344 295.617 44.3546L294.95 44.4183C294.739 44.4385 294.557 44.6481 294.547 44.884L294.533 45.2015C294.522 45.4373 294.686 45.6141 294.898 45.5938L295.565 45.5302C295.776 45.5092 295.958 45.3003 295.968 45.0645Z" fill="#F4EFDC"/>
<path d="M287.456 47.5207C287.456 47.5207 287.129 46.2747 289.044 44.6027L288.515 40.9247C288.515 40.9247 288.294 40.1654 286.388 40.2051C284.481 40.2448 284.662 39.022 284.662 39.022C284.662 39.022 287.979 38.8393 288.895 35.347C289.81 31.8547 291.592 26.0104 291.592 26.0104C291.592 26.0104 292.954 23.0003 295.813 22.9404L295.226 36.292L295.175 37.4436L295.075 39.7041L295.024 40.8558L294.933 42.9359L294.882 44.0883L294.86 45.7064L287.456 47.5207Z" fill="#773500"/>
<path d="M292.251 31.5874L295.325 34.0816L295.274 35.234L291.713 32.31L292.251 31.5874Z" fill="#773500"/>
<path d="M291.696 34.644L295.174 37.4946L295.124 38.6463L291.157 35.3666L291.696 34.644Z" fill="#773500"/>
<path d="M291.224 37.6001L295.032 40.727L294.982 41.8794L290.687 38.3227L291.224 37.6001Z" fill="#773500"/>
<path d="M291.702 30.6727C291.874 30.6563 292.021 30.4878 292.029 30.2953C292.037 30.1037 291.904 29.9614 291.733 29.9779C291.562 29.9943 291.416 30.1628 291.407 30.3545C291.399 30.5469 291.531 30.6885 291.702 30.6727Z" fill="#F4EFDC"/>
<path d="M291.15 33.119C291.321 33.1026 291.467 32.9341 291.476 32.7416C291.485 32.55 291.353 32.4077 291.181 32.4241C291.009 32.4406 290.863 32.6091 290.855 32.8008C290.846 32.9932 290.978 33.1355 291.15 33.119Z" fill="#F4EFDC"/>
<path d="M290.61 35.6539C290.781 35.6374 290.927 35.469 290.936 35.2773C290.945 35.0856 290.813 34.9433 290.641 34.9598C290.469 34.9763 290.323 35.1447 290.315 35.3364C290.307 35.5281 290.438 35.6696 290.61 35.6539Z" fill="#F4EFDC"/>
<path d="M290.02 37.8912C290.192 37.8747 290.338 37.7063 290.346 37.5146C290.354 37.3229 290.223 37.1806 290.05 37.1971C289.879 37.2136 289.733 37.382 289.724 37.5737C289.716 37.7654 289.848 37.9077 290.02 37.8912Z" fill="#F4EFDC"/>
<path d="M291.91 30.3078C291.911 30.2794 291.908 30.2517 291.898 30.2254C291.861 30.1206 291.751 30.0809 291.652 30.1363L289.861 31.1405C289.803 31.1734 289.759 31.2341 289.742 31.3037C289.727 31.3733 289.741 31.4422 289.781 31.4894L290.836 32.7189L289.205 33.559C289.145 33.5905 289.098 33.6511 289.081 33.7215C289.065 33.7919 289.078 33.8638 289.119 33.9109L290.223 35.1906L288.606 35.7889C288.539 35.8136 288.484 35.8742 288.462 35.9491C288.439 36.0225 288.453 36.1004 288.497 36.1513L289.887 37.7567C289.956 37.8361 290.076 37.8286 290.157 37.7402C290.238 37.6511 290.247 37.5156 290.179 37.4377L289 36.0764L290.617 35.4781C290.683 35.4534 290.738 35.3928 290.761 35.3179C290.782 35.2423 290.77 35.1659 290.726 35.1157L289.596 33.8046L291.227 32.9645C291.288 32.933 291.334 32.8724 291.351 32.802C291.369 32.7324 291.354 32.6605 291.313 32.6126L290.251 31.3748L291.785 30.5145C291.86 30.4733 291.906 30.3909 291.91 30.3078Z" fill="#F4EFDC"/>
<path d="M154.33 53.3527C154.33 53.3527 187.589 51.7952 190.652 48.2482C193.714 44.7012 199.564 38.5979 199.564 38.5979C199.564 38.5979 181.84 33.3729 157.094 32.0708C157.094 32.0708 141.622 36.9574 154.33 53.3527Z" fill="#54A769"/>
<path d="M164.989 36.4012C164.989 36.4012 187.845 35.6112 193.677 41.0668C196.886 44.0702 202.872 45.8912 196.662 48.4476C191.59 50.5352 174.33 53.677 174.33 53.677L164.989 36.4012Z" fill="#54A769"/>
<path d="M177.028 34.0035C177.028 34.0035 160.921 30.5531 156.367 31.0218C150.301 31.6463 146.103 33.3033 143.387 36.6264C141.271 39.2165 140.635 53.4208 153.42 55.0929C161.229 56.1135 176.137 53.2763 176.137 53.2763L177.028 34.0035Z" fill="#3E875C"/>
<path d="M127.323 36.6725C127.323 36.6725 143.173 31.6758 149.499 32.8297C150.963 33.097 156.693 50.155 155.506 60.2718C154.535 68.5443 169.348 88.3039 169.348 88.3039L145.391 118.997C145.391 118.997 119.579 102.193 101.354 70.9067C97.9066 64.9891 95.6229 59.7476 94.2227 52.9742L106.865 46.2591L111.142 45.4624L127.323 36.6725Z" fill="#54A769"/>
<path d="M87.3708 62.2944C87.3708 62.2944 57.8658 86.3363 57.5087 90.4785C57.0714 95.5538 56.4521 102.901 56.4521 102.901C56.4521 102.901 67.3649 98.8836 90.7246 85.47C90.7246 85.47 108.647 69.7628 87.3708 62.2944Z" fill="#54A769"/>
<path d="M62.0447 87.5672L17.38 97.3276L12.8955 100.389C12.8955 100.389 48.0096 107.592 60.6647 101.234C60.6647 101.234 65.2503 95.4721 64.8197 90.5062C64.7059 89.2093 63.3386 87.419 62.0447 87.5672Z" fill="#54A769"/>
<path d="M192.254 36.8669L226.849 26.9253L231.816 27.4622C231.816 27.4622 212.331 47.0151 199.308 47.3528C199.308 47.3528 193.088 44.6699 191.281 40.4558C190.808 39.3543 191.141 37.3086 192.254 36.8669Z" fill="#54A769"/>
<path d="M89.9738 85.7366C89.9738 85.7366 99.076 82.2008 103.253 75.3547C105.146 72.2503 101.244 48.7116 92.2314 53.6685C85.7986 57.2058 77.1367 70.8792 77.1367 70.8792L89.9738 85.7366Z" fill="#3E875C"/>
<path d="M109.441 45.8326L125.629 48.2984L126.995 36.7888L128.362 36.1733L127.358 50.8532L106.351 46.3702L109.441 45.8326Z" fill="#FAF6D8"/>
<path d="M115.86 27.316L125.711 37.3489L124.411 46.4436L110.469 45.3878C110.469 45.3878 112.921 33.8229 110.382 23.1221C110.382 23.1221 108.334 32.9221 115.86 27.316Z" fill="#BB744D"/>
<path d="M120.484 12.2925C121.065 12.297 131.592 11.3116 131.094 24.0334C131.094 24.0334 132.076 26.4969 132.928 28.2775C133.632 29.7496 130.149 30.1277 130.149 30.1277L130.263 32.3546L127.948 32.565L129.941 32.9357L130.143 35.6949C130.132 36.3501 129.592 36.872 128.936 36.86L121.554 38.8031C118.414 38.7477 118.155 35.626 115.834 33.5107C115.102 32.8436 114.757 31.8679 114.069 31.2599C109.211 26.9694 107.664 12.1944 120.484 12.2925Z" fill="#BB744D"/>
<path d="M128.828 21.0918C128.828 21.0918 126.214 21.7897 125.33 23.5852C124.446 25.3816 128.395 22.3999 129.531 22.3752C130.668 22.3505 128.828 21.0918 128.828 21.0918Z" fill="#773500"/>
<path d="M126.473 25.0447C126.473 25.0447 127.16 26.9279 128.557 25.5823C129.224 24.9391 128.456 24.1387 128.456 24.1387L126.473 25.0447Z" fill="#1A1A3A"/>
<path d="M25.3122 102.762L25.1542 94.8108L22.6293 94.8925C22.6293 94.8925 19.754 93.0467 16.2227 91.183C12.6922 89.3185 11.1805 90.1602 11.1805 90.1602C11.1805 90.1602 8.52977 90.2126 8.99477 91.6383C9.45976 93.0639 13.5855 93.481 14.9176 94.578C16.2497 95.6749 6.56123 94.7749 4.74619 92.9082C2.93114 91.0415 0.0430916 93.2826 2.66757 95.0707C5.29205 96.8588 9.47698 97.8838 9.47698 97.8838C9.47698 97.8838 3.93451 97.6038 1.56012 95.8726C-0.813514 94.1414 -2.23095 99.7535 10.86 100.773C10.86 100.773 5.41709 101.357 1.92104 99.5798C1.28532 99.2564 0.459413 99.5491 0.297676 100.244C0.0670519 101.238 2.08876 102.95 9.79971 103.959C11.1445 104.135 10.3298 103.949 10.3298 103.949C10.3298 103.949 3.94125 105.059 2.3119 104.685C2.3119 104.685 0.747694 106.042 4.44068 106.624C8.13292 107.205 11.28 107.002 13.784 105.861C16.2879 104.719 19.3212 104.751 20.3575 103.08C20.5462 102.776 22.2961 102.803 22.2961 102.803C22.4833 104.296 25.62 103.279 25.3122 102.762Z" fill="#291040"/>
<path d="M224.415 34.8064L221.467 27.7312L223.726 26.8221C223.726 26.8221 225.545 24.0779 227.936 21.0625C230.327 18.0472 231.987 18.2022 231.987 18.2022C231.987 18.2022 234.346 17.219 234.489 18.6574C234.633 20.0958 231.155 22.0659 230.406 23.5507C229.657 25.0348 237.853 20.48 238.73 18.128C239.606 15.7761 243.023 16.632 241.403 19.2287C239.783 21.8255 236.489 24.3541 236.489 24.3541C236.489 24.3541 241.269 21.9551 242.691 19.5058C244.113 17.0573 247.542 21.4571 236.391 27.4391C236.391 27.4391 241.42 25.8412 243.813 22.9165C244.248 22.3841 245.09 22.322 245.503 22.8723C246.092 23.6593 244.973 25.955 238.564 29.8397C237.446 30.5174 238.092 30.0367 238.092 30.0367C238.092 30.0367 243.363 27.234 244.656 26.2725C244.656 26.2725 246.543 27.2894 243.511 29.2362C240.48 31.183 238.365 32.435 235.788 33.0647C233.241 33.687 230.803 33.2399 228.909 33.1636C228.553 33.1478 224.415 34.8064 224.415 34.8064Z" fill="#291040"/>
<path d="M226.656 33.3738C226.656 33.3738 226.42 34.4977 225.106 34.4041C223.791 34.3113 220.978 27.5558 220.978 27.5558C220.978 27.5558 222.33 26.0186 223.225 28.026C224.119 30.0328 226.656 33.3738 226.656 33.3738Z" fill="#291040"/>
<path d="M23.5696 93.9517C23.5696 93.9517 24.5251 93.0974 25.6452 94.0521C26.7654 95.006 24.8208 102.941 24.8208 102.941C24.8208 102.941 22.5872 103.427 23.1121 101.031C23.637 98.6346 23.5696 93.9517 23.5696 93.9517Z" fill="#291040"/>
<path d="M111.386 31.2618C110.62 31.6616 109.988 31.4557 109.988 31.4557C110.504 29.9589 110.205 30.4523 110.366 28.9915C109.487 31.6077 109.149 29.7073 109.232 28.4261C109.386 26.0615 108.303 25.2123 108.211 24.519C105.714 19.738 109.8 12.0046 117.152 10.7818C118.461 10.564 119.183 10.4359 119.183 10.4359C121.603 10.3723 123.355 10.6815 124.62 11.1735C125.844 11.5321 128.114 11.9732 129.527 9.63022C130.119 8.64857 131.203 12.1132 128.921 13.4445C129.697 13.16 130.487 12.7287 131.237 12.0683C131.237 12.0683 132.489 17.6931 124.757 17.0012C123.196 16.8612 122.166 16.5924 121.515 16.2449C120.432 18.5961 120.548 23.3561 120.372 25.0094C120.095 27.6062 119.4 26.1963 119.4 26.1963C119.4 26.1963 115.934 21.4333 114.808 26.0937C114.316 28.1326 111.078 32.0337 111.386 31.2618Z" fill="#773500"/>
<path d="M272.106 24.2905C278.639 26.2995 285.566 22.6304 287.574 16.0966C289.583 9.56271 285.915 2.63649 279.38 0.627509C272.845 -1.38147 265.92 2.28681 263.911 8.82142C261.903 15.356 265.571 22.2815 272.106 24.2905Z" fill="#F4EFDC"/>
<path d="M270.463 11.0827L274.63 7.92139L278.962 10.8124L277.386 15.9386L272.375 16.2681L270.463 11.0827Z" fill="#291040"/>
<path d="M285.632 4.83643L283.634 5.00116L282.692 10.0891L287.047 12.9083L288.252 12.0315C288.252 12.0315 288.042 7.13593 285.632 4.83643Z" fill="#291040"/>
<path d="M278.549 0.243184C278.549 0.243184 273.39 -0.719746 270.466 1.18665L274.567 4.57788L278.805 1.77669L278.549 0.243184Z" fill="#291040"/>
<path d="M265.515 5.12012L267.284 10.1841L263.38 13.0168C263.38 13.0168 262.833 9.95874 265.515 5.12012Z" fill="#291040"/>
<path d="M265.078 19.2212L269.891 19.4541L271.3 23.9924C271.3 23.9924 268.284 23.3238 265.078 19.2212Z" fill="#291040"/>
<path d="M279.894 19.3594L285.962 19.5623C285.962 19.5623 283.539 24.0647 278.252 24.3612L279.894 19.3594Z" fill="#291040"/>
<path d="M270.673 11.3285C270.72 11.1757 270.637 11.011 270.484 10.9593L267.381 9.90132C267.225 9.84815 267.056 9.93127 267.002 10.087C266.949 10.2517 267.032 10.412 267.188 10.4651L270.292 11.5232C270.448 11.5763 270.617 11.4925 270.67 11.3375C270.671 11.3345 270.672 11.3322 270.673 11.3285Z" fill="#291040"/>
<path d="M274.914 8.00952C274.923 7.98031 274.928 7.94886 274.927 7.91667L274.865 4.57186C274.862 4.40713 274.725 4.27684 274.561 4.27984C274.397 4.28283 274.266 4.41837 274.269 4.5831L274.331 7.92715C274.334 8.09188 274.471 8.22292 274.635 8.21992C274.767 8.21768 274.877 8.13007 274.914 8.00952Z" fill="#291040"/>
<path d="M272.496 16.046C272.534 15.9232 272.489 15.7847 272.376 15.7098C272.239 15.6192 272.054 15.6559 271.963 15.7929L269.642 19.2875C269.55 19.4253 269.588 19.6095 269.725 19.7008C269.862 19.7914 270.047 19.7547 270.138 19.6177L272.459 16.1231C272.476 16.0992 272.488 16.073 272.496 16.046Z" fill="#291040"/>
<path d="M282.977 10.1767C282.991 10.1317 282.994 10.0823 282.985 10.0329C282.953 9.87118 282.797 9.7656 282.635 9.79705L278.905 10.5204C278.744 10.5518 278.639 10.7076 278.669 10.87C278.701 11.0318 278.857 11.1374 279.019 11.1059L282.749 10.3826C282.861 10.3601 282.946 10.2785 282.977 10.1767Z" fill="#291040"/>
<path d="M283.918 5.08934C283.95 4.98451 283.923 4.86546 283.837 4.78534C282.333 3.36565 280.68 2.26119 278.923 1.50343C278.772 1.43828 278.597 1.50792 278.532 1.65917C278.466 1.80519 278.536 1.98565 278.687 2.05079C280.38 2.78085 281.974 3.84712 283.429 5.21888C283.548 5.33195 283.736 5.3267 283.849 5.2069C283.882 5.17171 283.905 5.13127 283.918 5.08934Z" fill="#291040"/>
<path d="M270.965 1.34018C270.986 1.27279 270.983 1.19716 270.951 1.12753C270.881 0.978519 270.705 0.913375 270.556 0.983011C270.433 1.03992 267.531 2.40719 265.381 5.30647C265.283 5.43901 265.311 5.62545 265.443 5.7228C265.575 5.82089 265.762 5.79318 265.859 5.6614C267.92 2.88267 270.777 1.53711 270.807 1.52363C270.886 1.48619 270.941 1.41806 270.965 1.34018Z" fill="#291040"/>
<path d="M285.674 19.6571C285.674 19.6541 285.676 19.6511 285.676 19.6481L287.564 12.7474C287.608 12.5886 287.514 12.4247 287.355 12.3812C287.197 12.3378 287.039 12.4389 286.989 12.5901L285.101 19.4909C285.058 19.6496 285.152 19.8136 285.31 19.8571C285.466 19.899 285.627 19.8099 285.674 19.6571Z" fill="#291040"/>
<path d="M280.203 23.8456C280.228 23.7654 280.219 23.6763 280.171 23.6C280.084 23.4607 279.9 23.4188 279.76 23.5056C276.772 25.3791 272.002 23.7602 271.358 23.4517C271.308 23.3985 271.237 23.3641 271.159 23.3604C271.03 23.3529 270.901 23.4322 270.853 23.5513C270.811 23.6808 270.848 23.8171 270.947 23.898C271.189 24.0979 276.603 26.1878 280.077 24.0095C280.14 23.9706 280.183 23.9115 280.203 23.8456Z" fill="#291040"/>
<path d="M280.339 19.6007C280.366 19.5131 280.352 19.4143 280.293 19.3349L277.625 15.7617C277.527 15.63 277.34 15.603 277.208 15.7011C277.077 15.7999 277.05 15.9864 277.148 16.1182L279.816 19.6921C279.914 19.8239 280.102 19.8508 280.233 19.7527C280.285 19.7123 280.321 19.6591 280.339 19.6007Z" fill="#291040"/>
<path d="M265.614 19.3144C265.635 19.2463 265.632 19.1706 265.6 19.101C264.869 17.5368 264.013 15.4162 263.87 12.8839C263.861 12.7191 263.721 12.5933 263.557 12.6031C263.392 12.6121 263.266 12.7536 263.276 12.9176C263.424 15.5518 264.307 17.7412 265.06 19.3533C265.13 19.5023 265.307 19.5667 265.456 19.4971C265.535 19.4604 265.59 19.3923 265.614 19.3144Z" fill="#291040"/>
<g style="mix-blend-mode:color">
<path d="M253.045 124.099H59.3057V124.481H253.045V124.099Z" fill="#C8D7F4"/>
<path d="M94.1993 131.654C74.311 131.654 60.758 131.627 60.3125 131.627V131.245C61.8026 131.255 209.641 131.545 250.709 130.134L250.724 130.516C221.946 131.505 140.744 131.654 94.1993 131.654Z" fill="#C8D7F4"/>
<path d="M94.1993 138.482C74.311 138.482 60.758 138.454 60.3125 138.454V138.072C61.8026 138.08 209.641 138.373 250.709 136.96L250.724 137.342C221.946 138.334 140.744 138.482 94.1993 138.482Z" fill="#C8D7F4"/>
<path d="M94.1993 145.787C74.311 145.787 60.758 145.76 60.3125 145.76V145.379C61.8026 145.386 209.641 145.681 250.709 144.267L250.724 144.648C221.946 145.638 140.744 145.787 94.1993 145.787Z" fill="#C8D7F4"/>
<path d="M94.1993 153.092C74.311 153.092 60.758 153.065 60.3125 153.065V152.683C61.8026 152.693 209.641 152.983 250.709 151.571L250.724 151.953C221.946 152.943 140.744 153.092 94.1993 153.092Z" fill="#C8D7F4"/>
<path d="M95.042 160.39C75.498 160.39 62.1802 160.362 61.7422 160.362V159.98C63.215 159.99 208.832 160.281 249.28 158.883L249.295 159.265C220.931 160.241 140.875 160.39 95.042 160.39Z" fill="#C8D7F4"/>
<path d="M96.8858 168.153C77.9371 168.153 65.0251 168.126 64.6006 168.126V167.744C66.021 167.752 207.204 168.033 246.421 166.683L246.436 167.065C218.939 168.009 141.321 168.153 96.8858 168.153Z" fill="#C8D7F4"/>
<path d="M96.8858 175.141C77.9371 175.141 65.0251 175.113 64.6006 175.113V174.731C66.021 174.739 207.204 175.016 246.421 173.669L246.436 174.051C218.939 174.997 141.321 175.141 96.8858 175.141Z" fill="#C8D7F4"/>
<path d="M96.8858 182.552C77.9371 182.552 65.0251 182.525 64.6006 182.525V182.143C66.021 182.151 207.204 182.429 246.421 181.082L246.436 181.463C218.939 182.408 141.321 182.552 96.8858 182.552Z" fill="#C8D7F4"/>
<path d="M96.8858 189.539C77.9371 189.539 65.0251 189.512 64.6006 189.512V189.131C66.021 189.136 207.204 189.416 246.421 188.069L246.436 188.451C218.939 189.396 141.321 189.539 96.8858 189.539Z" fill="#C8D7F4"/>
<path d="M96.8858 196.633C77.9371 196.633 65.0251 196.606 64.6006 196.606V196.224C66.021 196.231 207.204 196.509 246.421 195.162L246.436 195.544C218.939 196.489 141.321 196.633 96.8858 196.633Z" fill="#C8D7F4"/>
<path d="M100.352 203.693C82.4942 203.693 70.3198 203.668 69.9199 203.668V203.287C71.2625 203.296 204.179 203.56 241.101 202.286L241.116 202.668C215.231 203.559 142.194 203.693 100.352 203.693Z" fill="#C8D7F4"/>
<path d="M182.737 208.937C132.302 208.937 72.0825 208.335 71.1885 208.327L71.1937 207.945C72.5176 207.96 204.182 209.275 241.102 208.002L241.117 208.384C229.102 208.797 207.053 208.937 182.737 208.937Z" fill="#C8D7F4"/>
<path d="M76.8763 208.238L67.4365 124.227L57.7285 116.098L57.9741 115.806L67.7989 124.033L67.8079 124.108L77.256 208.193L76.8763 208.238Z" fill="#C8D7F4"/>
<path d="M83.6258 208.315L74.8988 124.219L65.8984 115.694L66.1613 115.416L75.2634 124.04L75.2709 124.11L84.0055 208.275L83.6258 208.315Z" fill="#C8D7F4"/>
<path d="M90.136 208.392L82.6782 124.213L74.7021 115.605L74.9829 115.347L83.0458 124.049L83.0518 124.113L90.5157 208.358L90.136 208.392Z" fill="#C8D7F4"/>
<path d="M96.726 208.152L89.6642 124.203L83.1094 115.831L83.4089 115.597L90.0341 124.059L90.0393 124.116L97.1063 208.122L96.726 208.152Z" fill="#C8D7F4"/>
<path d="M103.555 208.31L97.2866 124.203L89.542 114.511L89.84 114.272L97.6588 124.059L97.6625 124.116L103.935 208.28L103.555 208.31Z" fill="#C8D7F4"/>
<path d="M110.543 208.308L105.385 124.203L97.7988 114.508L98.0991 114.274L105.758 124.059L105.761 124.118L110.922 208.283L110.543 208.308Z" fill="#C8D7F4"/>
<path d="M117.292 208.305L113.324 124.205L105.64 115.362L105.928 115.113L113.699 124.056L113.702 124.12L117.672 208.286L117.292 208.305Z" fill="#C8D7F4"/>
<path d="M124.119 208.224L121.263 124.198L114.629 115.352L114.934 115.124L121.64 124.064L121.642 124.124L124.501 208.209L124.119 208.224Z" fill="#C8D7F4"/>
<path d="M131.343 208.382L128.567 124.185L123.721 115.863L124.051 115.67L128.946 124.124L131.726 208.367L131.343 208.382Z" fill="#C8D7F4"/>
<path d="M138.411 208.777L136.03 124.175L132.076 115.476L132.424 115.317L136.411 124.126L138.793 208.768L138.411 208.777Z" fill="#C8D7F4"/>
<path d="M145.239 208.775L143.651 124.133L141.276 115.287L141.644 115.188L144.026 124.081L145.622 208.77L145.239 208.775Z" fill="#C8D7F4"/>
<path d="M152.227 208.772L151.909 124.131L150.323 114.635L150.701 114.571L152.289 124.099L152.609 208.772H152.227Z" fill="#C8D7F4"/>
<path d="M235.026 208.315L234.648 208.275L243.867 124.036L243.921 123.986L253.977 115.2L254.231 115.488L244.228 124.224L235.026 208.315Z" fill="#C8D7F4"/>
<path d="M228.117 208.395L227.739 208.355L236.402 124.039L236.454 123.99L245.294 115.942L245.553 116.225L236.764 124.222L228.117 208.395Z" fill="#C8D7F4"/>
<path d="M221.688 208.551L221.306 208.516L228.618 124.041L228.672 123.989L237.99 115.414L238.248 115.697L228.985 124.22L221.688 208.551Z" fill="#C8D7F4"/>
<path d="M214.899 208.588L214.517 208.559L221.631 124.043L221.68 123.994L229.831 115.947L230.099 116.22L221.998 124.218L214.899 208.588Z" fill="#C8D7F4"/>
<path d="M208.069 208.747L207.688 208.717L214.005 124.048L214.052 124.001L222.203 115.215L222.48 115.473L214.377 124.212L208.069 208.747Z" fill="#C8D7F4"/>
<path d="M201.1 208.864L200.718 208.839L205.906 124.059L205.943 124.011L212.454 115.861L212.751 116.099L206.278 124.203L201.1 208.864Z" fill="#C8D7F4"/>
<path d="M194.433 208.92L194.051 208.901L197.963 124.063L198.001 124.016L204.829 114.965L205.132 115.192L198.341 124.197L194.433 208.92Z" fill="#C8D7F4"/>
<path d="M187.545 209.256L187.162 209.241L190.023 124.066L190.058 124.019L195.934 115.92L196.242 116.144L190.401 124.195L187.545 209.256Z" fill="#C8D7F4"/>
<path d="M180.239 209.256L179.857 209.241L182.74 124.036L187.663 115.302L187.996 115.49L183.095 124.182L180.239 209.256Z" fill="#C8D7F4"/>
<path d="M173.253 208.777L172.87 208.767L175.267 124.056L178.92 115.322L179.272 115.471L175.632 124.17L173.253 208.777Z" fill="#C8D7F4"/>
<path d="M166.424 208.775L166.042 208.77L167.63 124.128L170.02 115.188L170.386 115.287L168.005 124.181L166.424 208.775Z" fill="#C8D7F4"/>
<path d="M159.437 208.771H159.055L159.372 124.131L160.645 115.843L161.022 115.902L159.752 124.16L159.437 208.771Z" fill="#C8D7F4"/>
<path d="M261.281 217.722L260.899 217.712L263.229 118.409L263.611 118.418L261.281 217.722Z" fill="#C8D7F4"/>
<path d="M255.67 214.444L255.288 214.429L259.417 119.783L259.799 119.798L255.67 214.444Z" fill="#C8D7F4"/>
<path d="M251.014 211.799L250.632 211.779L254.761 127.296L255.143 127.316L251.014 211.799Z" fill="#C8D7F4"/>
<path d="M266.224 220.768L243.951 208.223L244.14 207.891L266.412 220.436L266.224 220.768Z" fill="#C8D7F4"/>
<path d="M267.361 213.759L245.235 203.279L245.399 202.937L267.524 213.417L267.361 213.759Z" fill="#C8D7F4"/>
<path d="M245.803 196.48L245.664 196.833L267.365 205.408L267.504 205.056L245.803 196.48Z" fill="#C8D7F4"/>
<path d="M266.852 196.197L246.736 189.42L246.86 189.059L266.976 195.834L266.852 196.197Z" fill="#C8D7F4"/>
<path d="M266.329 188.15L247.377 182.222L247.491 181.86L266.442 187.788L266.329 188.15Z" fill="#C8D7F4"/>
<path d="M266.761 179.577L248.446 174.92L248.541 174.552L266.855 179.21L266.761 179.577Z" fill="#C8D7F4"/>
<path d="M267.726 171.113L249.094 167.724L249.163 167.347L267.795 170.736L267.726 171.113Z" fill="#C8D7F4"/>
<path d="M267.419 161.69L249.951 159.681L249.996 159.303L267.464 161.313L267.419 161.69Z" fill="#C8D7F4"/>
<path d="M267.223 153.117L251.768 152.481L251.783 152.1L267.238 152.735L267.223 153.117Z" fill="#C8D7F4"/>
<path d="M252.013 146.023L251.958 145.646L266.675 143.423L266.729 143.8L252.013 146.023Z" fill="#C8D7F4"/>
<path d="M253.526 138.71L253.407 138.348L267.489 133.688L267.608 134.05L253.526 138.71Z" fill="#C8D7F4"/>
<path d="M253.654 131.399L253.495 131.051L268.847 123.958L269.006 124.304L253.654 131.399Z" fill="#C8D7F4"/>
<path d="M247.096 209.891L246.714 209.876L248.302 172.505L248.684 172.52L247.096 209.891Z" fill="#C8D7F4"/>
<path d="M50.0111 217.246L47.6816 118.418L48.0635 118.409L50.3937 217.236L50.0111 217.246Z" fill="#C8D7F4"/>
<path d="M55.6219 214.444L51.4932 119.798L51.8728 119.783L56.0016 214.429L55.6219 214.444Z" fill="#C8D7F4"/>
<path d="M60.2811 211.799L56.1523 127.316L56.532 127.296L60.6608 211.779L60.2811 211.799Z" fill="#C8D7F4"/>
<path d="M45.2115 220.268L45.0303 219.93L66.2028 208.444L66.384 208.782L45.2115 220.268Z" fill="#C8D7F4"/>
<path d="M43.9325 213.759L43.7686 213.417L65.8943 202.937L66.0575 203.279L43.9325 213.759Z" fill="#C8D7F4"/>
<path d="M65.4797 196.49L43.7734 205.056L43.9125 205.409L65.6187 196.842L65.4797 196.49Z" fill="#C8D7F4"/>
<path d="M44.4397 196.197L44.3184 195.834L64.4336 189.059L64.5557 189.42L44.4397 196.197Z" fill="#C8D7F4"/>
<path d="M44.9661 188.15L44.8516 187.787L63.8025 181.859L63.917 182.222L44.9661 188.15Z" fill="#C8D7F4"/>
<path d="M44.5336 179.577L44.4385 179.21L62.7529 174.552L62.8473 174.92L44.5336 179.577Z" fill="#C8D7F4"/>
<path d="M43.5664 171.113L43.499 170.736L62.1309 167.347L62.1983 167.724L43.5664 171.113Z" fill="#C8D7F4"/>
<path d="M43.8721 161.69L43.8271 161.312L61.2955 159.303L61.3404 159.68L43.8721 161.69Z" fill="#C8D7F4"/>
<path d="M44.0697 153.117L44.0547 152.735L59.5118 152.1L59.5267 152.481L44.0697 153.117Z" fill="#C8D7F4"/>
<path d="M44.6243 143.422L44.5674 143.799L59.2827 146.022L59.3397 145.645L44.6243 143.422Z" fill="#C8D7F4"/>
<path d="M57.7661 138.71L43.6846 134.05L43.8036 133.688L57.8852 138.348L57.7661 138.71Z" fill="#C8D7F4"/>
<path d="M57.6388 131.399L42.2881 124.304L42.4468 123.958L57.7976 131.051L57.6388 131.399Z" fill="#C8D7F4"/>
<path d="M64.1985 209.891L62.6104 172.52L62.99 172.505L64.5782 209.876L64.1985 209.891Z" fill="#C8D7F4"/>
<path d="M271.24 221H266.158V117.302C266.158 116.866 265.801 116.509 265.364 116.509H46.0195C45.5814 116.509 45.2258 116.866 45.2258 117.302V220.365H40.1445V117.302C40.1445 114.062 42.781 111.427 46.0202 111.427H265.365C268.606 111.427 271.241 114.062 271.241 117.302V221H271.24Z" fill="#C8D7F4"/>
<path d="M66.5274 208.936L56.1523 127.736C56.1089 127.495 54.6997 120.054 42.7109 117.622L43.721 112.64C59.3713 115.818 61.1197 126.589 61.1871 127.046L71.5675 208.29L66.5274 208.936Z" fill="#C8D7F4"/>
<path d="M244.872 208.936L239.83 208.29L250.207 127.09C250.281 126.589 252.025 115.818 267.677 112.64L268.69 117.622C256.499 120.096 255.253 127.704 255.241 127.781L244.872 208.936Z" fill="#C8D7F4"/>
<path d="M244.872 206.749H67.3252V208.936H244.872V206.749Z" fill="#C8D7F4"/>
<path d="M45.2257 220.364L45.1201 217.255L67.3245 206.749V208.935L45.2257 220.364Z" fill="#C8D7F4"/>
<path d="M266.16 221L266.264 217.89L244.443 206.749V208.935L266.16 221Z" fill="#C8D7F4"/>
<path d="M214.211 147.425C214.211 147.425 214.618 133.863 219.357 126.754C224.096 119.645 224.555 123.929 237.307 106.035C241.096 100.718 243.625 103.794 243.625 103.794L245.473 104.727L244.584 106.021L229.14 148.264C229.14 148.264 228.339 155.128 222.084 156.47C215.828 157.811 214.211 147.425 214.211 147.425Z" fill="#C8D7F4"/>
<path d="M219.357 126.754C224.096 119.645 224.669 124.01 237.307 106.036C241.879 99.5331 244.326 104.623 244.326 104.623L247.33 106.763L244.583 106.021L231.151 144.297L217.98 129.238C218.395 128.354 218.849 127.516 219.357 126.754Z" fill="#C8D7F4"/>
<path d="M217.981 129.239L231.151 144.299L229.14 148.264C229.14 148.264 229.129 148.343 229.111 148.457L216.39 133.536C216.827 132.046 217.352 130.586 217.981 129.239Z" fill="#C8D7F4"/>
<path d="M257.985 105.581L258.529 105.739C258.64 105.771 258.705 105.889 258.673 106L258.415 106.888C258.383 107 258.265 107.064 258.154 107.032L257.61 106.874C257.498 106.842 257.434 106.724 257.466 106.612L257.724 105.724C257.756 105.613 257.874 105.549 257.985 105.581Z" fill="#C8D7F4"/>
<path d="M254.802 104.682L255.345 104.84C255.457 104.872 255.521 104.99 255.489 105.101L255.232 105.989C255.199 106.101 255.081 106.165 254.97 106.133L254.427 105.975C254.316 105.943 254.251 105.825 254.284 105.713L254.541 104.825C254.573 104.714 254.69 104.649 254.802 104.682Z" fill="#C8D7F4"/>
<path d="M251.338 103.687L251.881 103.844C251.993 103.876 252.057 103.994 252.025 104.105L251.768 104.993C251.735 105.105 251.617 105.169 251.506 105.137L250.963 104.979C250.851 104.947 250.787 104.828 250.819 104.718L251.077 103.83C251.109 103.719 251.227 103.654 251.338 103.687Z" fill="#C8D7F4"/>
<path d="M248.548 102.876L249.091 103.034C249.203 103.066 249.267 103.184 249.235 103.295L248.978 104.183C248.945 104.295 248.828 104.359 248.716 104.327L248.173 104.169C248.061 104.137 247.997 104.019 248.029 103.908L248.286 103.02C248.319 102.908 248.436 102.844 248.548 102.876Z" fill="#C8D7F4"/>
<path d="M242.15 100.982L242.694 101.14C242.806 101.172 242.87 101.29 242.838 101.402L242.58 102.29C242.548 102.401 242.43 102.466 242.319 102.434L241.776 102.276C241.665 102.244 241.6 102.127 241.632 102.015L241.89 101.126C241.921 101.014 242.039 100.949 242.15 100.982Z" fill="#C8D7F4"/>
<path d="M239.383 100.136L239.926 100.294C240.038 100.326 240.102 100.443 240.07 100.555L239.812 101.444C239.78 101.555 239.663 101.62 239.551 101.588L239.008 101.43C238.896 101.397 238.832 101.279 238.864 101.168L239.121 100.28C239.154 100.169 239.272 100.104 239.383 100.136Z" fill="#C8D7F4"/>
<path d="M235.953 106.996C235.953 106.996 236.888 107.642 238.58 106.324L239.364 106.519C239.364 106.519 242.506 107.785 242.121 109.543C241.735 111.302 242.746 111.471 242.746 111.471C242.746 111.471 244.252 109.289 247.213 109.4C250.173 109.511 255.526 109.543 255.526 109.543C255.526 109.543 258.215 109.513 258.793 106.875L247.664 103.67L246.734 103.4L244.909 102.871L243.979 102.602L242.3 102.114L240.105 101.454L238.808 101.028L235.953 106.996Z" fill="#C8D7F4"/>
<path d="M250.839 107.318L249.448 104.185L248.518 103.915L250.162 107.619L250.839 107.318Z" fill="#C8D7F4"/>
<path d="M248.294 106.993L246.693 103.386L245.763 103.117L247.616 107.293L248.294 106.993Z" fill="#C8D7F4"/>
<path d="M245.845 106.618L244.084 102.629L243.154 102.359L245.168 106.918L245.845 106.618Z" fill="#C8D7F4"/>
<path d="M251.468 108.079C251.513 107.924 251.674 107.835 251.829 107.88C251.984 107.925 252.073 108.086 252.029 108.241C251.984 108.396 251.822 108.486 251.667 108.441C251.512 108.396 251.423 108.234 251.468 108.079Z" fill="#C8D7F4"/>
<path d="M249.41 107.918C249.455 107.763 249.617 107.674 249.772 107.719C249.927 107.764 250.016 107.926 249.971 108.081C249.926 108.236 249.764 108.325 249.609 108.28C249.454 108.235 249.365 108.073 249.41 107.918Z" fill="#C8D7F4"/>
<path d="M247.286 107.723C247.331 107.568 247.493 107.478 247.648 107.523C247.803 107.568 247.892 107.73 247.847 107.885C247.802 108.04 247.64 108.129 247.485 108.084C247.33 108.039 247.241 107.878 247.286 107.723Z" fill="#C8D7F4"/>
<path d="M245.39 107.655C245.434 107.5 245.596 107.411 245.751 107.456C245.906 107.501 245.995 107.663 245.95 107.818C245.905 107.973 245.744 108.062 245.589 108.017C245.434 107.972 245.345 107.81 245.39 107.655Z" fill="#C8D7F4"/>
<path d="M251.799 107.987C251.821 107.994 251.843 108.005 251.862 108.021C251.94 108.084 251.951 108.197 251.888 108.274L250.753 109.659C250.716 109.704 250.66 109.729 250.601 109.725C250.543 109.72 250.491 109.688 250.461 109.638L249.674 108.321L248.7 109.603C248.664 109.65 248.606 109.677 248.547 109.674C248.488 109.669 248.433 109.637 248.402 109.586L247.585 108.21L246.807 109.546C246.774 109.601 246.716 109.635 246.652 109.635C246.589 109.635 246.53 109.602 246.497 109.547L245.472 107.816C245.421 107.731 245.449 107.62 245.534 107.57C245.621 107.519 245.731 107.548 245.78 107.632L246.649 109.101L247.427 107.765C247.46 107.71 247.518 107.676 247.582 107.676C247.646 107.676 247.705 107.709 247.737 107.763L248.575 109.173L249.548 107.891C249.584 107.844 249.642 107.817 249.701 107.82C249.76 107.823 249.815 107.856 249.845 107.908L250.637 109.234L251.609 108.047C251.657 107.989 251.732 107.969 251.799 107.987Z" fill="#C8D7F4"/>
<path d="M151.456 102.542C151.456 102.542 147.357 117.168 158.965 123.153C165.25 126.394 163.746 123.483 173.416 119.643C183.086 115.803 193.278 110.309 193.278 110.309C193.278 110.309 183.751 76.5762 151.456 102.542Z" fill="#C8D7F4"/>
<path d="M236.294 79.0533L183.984 117.086L162.81 99.608C161.782 100.336 183.411 68.4535 222.014 69.8732C222.014 69.8732 227.208 68.2566 230.91 67.7848C234.612 67.3131 236.294 79.0533 236.294 79.0533Z" fill="#C8D7F4"/>
<path d="M237.411 78.0652C237.411 78.0652 246.468 81.5507 253.759 76.5167C261.051 71.4826 266.957 61.2303 276.401 54.671C285.845 48.1117 287.979 46.6748 287.979 46.6748L285.559 39.4355L282.885 42.0031L231.29 66.7346C231.29 66.7346 224.185 67.6811 222.899 74.1902C222.031 78.5833 225.289 82.1026 229.876 81.7866C232.085 81.6338 237.411 78.0652 237.411 78.0652Z" fill="#C8D7F4"/>
<path d="M202.587 70.3115L210.755 99.4593L177.858 121.421L167.3 90.7817C167.3 90.7817 176.299 78.2688 202.587 70.3115Z" fill="#C8D7F4"/>
<path d="M225.873 145.145L178.302 107.381C175.308 105.004 171.043 105.078 168.154 107.582C162.333 112.63 154.843 121.764 162.638 130.935C174.296 144.654 203.728 158.305 219.999 156.404C228.089 155.459 229.273 151.736 225.873 145.145Z" fill="#C8D7F4"/>
<path d="M282.885 42.0021L285.831 39.1245L291.506 40.9613C292.715 42.4536 289.695 45.9609 288.062 46.971C285.56 48.5187 281.606 51.0541 276.401 54.67C266.956 61.23 261.05 71.4823 253.759 76.5156C250.32 78.89 246.497 79.361 243.408 79.2038L236.331 64.3165L282.885 42.0021Z" fill="#C8D7F4"/>
<path d="M233.516 65.6662L236.33 64.3169L243.407 79.2041C241.63 79.1143 240.097 78.8223 239.028 78.5512L233.041 66.2824L233.516 65.6662Z" fill="#C8D7F4"/>
<path d="M237.504 76.0208C237.504 76.0208 244.666 63.0009 259.412 64.0627C259.412 64.0627 246.88 58.5831 237.504 76.0208Z" fill="#C8D7F4"/>
<path d="M143.517 109.247C143.517 109.247 150.056 133.843 183.621 147.617L195.266 119.603L166.738 90.0322C166.738 90.0322 150.149 96.9292 143.077 103.229L143.517 109.247Z" fill="#C8D7F4"/>
<path d="M296.845 24.0112L296.86 23.6937C296.87 23.4579 296.705 23.2812 296.495 23.3014L295.828 23.365C295.617 23.3852 295.435 23.5949 295.425 23.8308L295.411 24.1482C295.4 24.3841 295.565 24.5608 295.775 24.5406L296.442 24.477C296.654 24.4567 296.835 24.2471 296.845 24.0112Z" fill="#C8D7F4"/>
<path d="M296.691 27.52L296.705 27.2025C296.715 26.9667 296.551 26.79 296.34 26.8102L295.672 26.8738C295.461 26.894 295.28 27.1029 295.27 27.3388L295.255 27.6563C295.245 27.8922 295.409 28.0689 295.62 28.0487L296.287 27.985C296.499 27.9655 296.68 27.7559 296.691 27.52Z" fill="#C8D7F4"/>
<path d="M296.493 31.8076L296.507 31.4901C296.517 31.2543 296.353 31.0776 296.142 31.0978L295.475 31.1614C295.264 31.1816 295.083 31.3913 295.072 31.6271L295.058 31.9446C295.048 32.1805 295.212 32.3572 295.423 32.337L296.09 32.2733C296.301 32.2524 296.482 32.0427 296.493 31.8076Z" fill="#C8D7F4"/>
<path d="M296.34 35.2656L296.355 34.9481C296.365 34.7123 296.2 34.5356 295.989 34.5558L295.322 34.6194C295.111 34.6396 294.93 34.8493 294.919 35.0852L294.906 35.4027C294.895 35.6385 295.059 35.8152 295.27 35.795L295.938 35.7314C296.149 35.7111 296.331 35.5015 296.34 35.2656Z" fill="#C8D7F4"/>
<path d="M296.043 42.2388L296.057 41.9213C296.067 41.6854 295.903 41.5087 295.691 41.5289L295.024 41.5926C294.813 41.6128 294.632 41.8224 294.621 42.0583L294.608 42.3758C294.597 42.6117 294.762 42.7884 294.973 42.7682L295.64 42.7045C295.851 42.6843 296.032 42.4746 296.043 42.2388Z" fill="#C8D7F4"/>
<path d="M295.968 45.0645L295.982 44.747C295.993 44.5111 295.828 44.3344 295.617 44.3546L294.95 44.4183C294.739 44.4385 294.557 44.6481 294.547 44.884L294.533 45.2015C294.522 45.4373 294.686 45.6141 294.898 45.5938L295.565 45.5302C295.776 45.5092 295.958 45.3003 295.968 45.0645Z" fill="#C8D7F4"/>
<path d="M287.456 47.5207C287.456 47.5207 287.129 46.2747 289.044 44.6027L288.515 40.9247C288.515 40.9247 288.294 40.1654 286.388 40.2051C284.481 40.2448 284.662 39.022 284.662 39.022C284.662 39.022 287.979 38.8393 288.895 35.347C289.81 31.8547 291.592 26.0104 291.592 26.0104C291.592 26.0104 292.954 23.0003 295.813 22.9404L295.226 36.292L295.175 37.4436L295.075 39.7041L295.024 40.8558L294.933 42.9359L294.882 44.0883L294.86 45.7064L287.456 47.5207Z" fill="#C8D7F4"/>
<path d="M292.251 31.5874L295.325 34.0816L295.274 35.234L291.713 32.31L292.251 31.5874Z" fill="#C8D7F4"/>
<path d="M291.696 34.644L295.174 37.4946L295.124 38.6463L291.157 35.3666L291.696 34.644Z" fill="#C8D7F4"/>
<path d="M291.224 37.6001L295.032 40.727L294.982 41.8794L290.687 38.3227L291.224 37.6001Z" fill="#C8D7F4"/>
<path d="M291.702 30.6727C291.874 30.6563 292.021 30.4878 292.029 30.2953C292.037 30.1037 291.904 29.9614 291.733 29.9779C291.562 29.9943 291.416 30.1628 291.407 30.3545C291.399 30.5469 291.531 30.6885 291.702 30.6727Z" fill="#C8D7F4"/>
<path d="M291.15 33.119C291.321 33.1026 291.467 32.9341 291.476 32.7416C291.485 32.55 291.353 32.4077 291.181 32.4241C291.009 32.4406 290.863 32.6091 290.855 32.8008C290.846 32.9932 290.978 33.1355 291.15 33.119Z" fill="#C8D7F4"/>
<path d="M290.61 35.6539C290.781 35.6374 290.927 35.469 290.936 35.2773C290.945 35.0856 290.813 34.9433 290.641 34.9598C290.469 34.9763 290.323 35.1447 290.315 35.3364C290.307 35.5281 290.438 35.6696 290.61 35.6539Z" fill="#C8D7F4"/>
<path d="M290.02 37.8912C290.192 37.8747 290.338 37.7063 290.346 37.5146C290.354 37.3229 290.223 37.1806 290.05 37.1971C289.879 37.2136 289.733 37.382 289.724 37.5737C289.716 37.7654 289.848 37.9077 290.02 37.8912Z" fill="#C8D7F4"/>
<path d="M291.91 30.3078C291.911 30.2794 291.908 30.2517 291.898 30.2254C291.861 30.1206 291.751 30.0809 291.652 30.1363L289.861 31.1405C289.803 31.1734 289.759 31.2341 289.742 31.3037C289.727 31.3733 289.741 31.4422 289.781 31.4894L290.836 32.7189L289.205 33.559C289.145 33.5905 289.098 33.6511 289.081 33.7215C289.065 33.7919 289.078 33.8638 289.119 33.9109L290.223 35.1906L288.606 35.7889C288.539 35.8136 288.484 35.8742 288.462 35.9491C288.439 36.0225 288.453 36.1004 288.497 36.1513L289.887 37.7567C289.956 37.8361 290.076 37.8286 290.157 37.7402C290.238 37.6511 290.247 37.5156 290.179 37.4377L289 36.0764L290.617 35.4781C290.683 35.4534 290.738 35.3928 290.761 35.3179C290.782 35.2423 290.77 35.1659 290.726 35.1157L289.596 33.8046L291.227 32.9645C291.288 32.933 291.334 32.8724 291.351 32.802C291.369 32.7324 291.354 32.6605 291.313 32.6126L290.251 31.3748L291.785 30.5145C291.86 30.4733 291.906 30.3909 291.91 30.3078Z" fill="#C8D7F4"/>
<path d="M154.33 53.3527C154.33 53.3527 187.589 51.7952 190.652 48.2482C193.714 44.7012 199.564 38.5979 199.564 38.5979C199.564 38.5979 181.84 33.3729 157.094 32.0708C157.094 32.0708 141.622 36.9574 154.33 53.3527Z" fill="#C8D7F4"/>
<path d="M164.989 36.4012C164.989 36.4012 187.845 35.6112 193.677 41.0668C196.886 44.0702 202.872 45.8912 196.662 48.4476C191.59 50.5352 174.33 53.677 174.33 53.677L164.989 36.4012Z" fill="#C8D7F4"/>
<path d="M177.028 34.0035C177.028 34.0035 160.921 30.5531 156.367 31.0218C150.301 31.6463 146.103 33.3033 143.387 36.6264C141.271 39.2165 140.635 53.4208 153.42 55.0929C161.229 56.1135 176.137 53.2763 176.137 53.2763L177.028 34.0035Z" fill="#C8D7F4"/>
<path d="M127.323 36.6725C127.323 36.6725 143.173 31.6758 149.499 32.8297C150.963 33.097 156.693 50.155 155.506 60.2718C154.535 68.5443 169.348 88.3039 169.348 88.3039L145.391 118.997C145.391 118.997 119.579 102.193 101.354 70.9067C97.9066 64.9891 95.6229 59.7476 94.2227 52.9742L106.865 46.2591L111.142 45.4624L127.323 36.6725Z" fill="#C8D7F4"/>
<path d="M87.3708 62.2944C87.3708 62.2944 57.8658 86.3363 57.5087 90.4785C57.0714 95.5538 56.4521 102.901 56.4521 102.901C56.4521 102.901 67.3649 98.8836 90.7246 85.47C90.7246 85.47 108.647 69.7628 87.3708 62.2944Z" fill="#C8D7F4"/>
<path d="M62.0447 87.5672L17.38 97.3276L12.8955 100.389C12.8955 100.389 48.0096 107.592 60.6647 101.234C60.6647 101.234 65.2503 95.4721 64.8197 90.5062C64.7059 89.2093 63.3386 87.419 62.0447 87.5672Z" fill="#C8D7F4"/>
<path d="M192.254 36.8669L226.849 26.9253L231.816 27.4622C231.816 27.4622 212.331 47.0151 199.308 47.3528C199.308 47.3528 193.088 44.6699 191.281 40.4558C190.808 39.3543 191.141 37.3086 192.254 36.8669Z" fill="#C8D7F4"/>
<path d="M89.9738 85.7366C89.9738 85.7366 99.076 82.2008 103.253 75.3547C105.146 72.2503 101.244 48.7116 92.2314 53.6685C85.7986 57.2058 77.1367 70.8792 77.1367 70.8792L89.9738 85.7366Z" fill="#C8D7F4"/>
<path d="M109.441 45.8326L125.629 48.2984L126.995 36.7888L128.362 36.1733L127.358 50.8532L106.351 46.3702L109.441 45.8326Z" fill="#C8D7F4"/>
<path d="M115.86 27.316L125.711 37.3489L124.411 46.4436L110.469 45.3878C110.469 45.3878 112.921 33.8229 110.382 23.1221C110.382 23.1221 108.334 32.9221 115.86 27.316Z" fill="#C8D7F4"/>
<path d="M120.484 12.2925C121.065 12.297 131.592 11.3116 131.094 24.0334C131.094 24.0334 132.076 26.4969 132.928 28.2775C133.632 29.7496 130.149 30.1277 130.149 30.1277L130.263 32.3546L127.948 32.565L129.941 32.9357L130.143 35.6949C130.132 36.3501 129.592 36.872 128.936 36.86L121.554 38.8031C118.414 38.7477 118.155 35.626 115.834 33.5107C115.102 32.8436 114.757 31.8679 114.069 31.2599C109.211 26.9694 107.664 12.1944 120.484 12.2925Z" fill="#C8D7F4"/>
<path d="M128.828 21.0918C128.828 21.0918 126.214 21.7897 125.33 23.5852C124.446 25.3816 128.395 22.3999 129.531 22.3752C130.668 22.3505 128.828 21.0918 128.828 21.0918Z" fill="#C8D7F4"/>
<path d="M126.473 25.0447C126.473 25.0447 127.16 26.9279 128.557 25.5823C129.224 24.9391 128.456 24.1387 128.456 24.1387L126.473 25.0447Z" fill="#C8D7F4"/>
<path d="M25.3122 102.762L25.1542 94.8108L22.6293 94.8925C22.6293 94.8925 19.754 93.0467 16.2227 91.183C12.6922 89.3185 11.1805 90.1602 11.1805 90.1602C11.1805 90.1602 8.52977 90.2126 8.99477 91.6383C9.45976 93.0639 13.5855 93.481 14.9176 94.578C16.2497 95.6749 6.56123 94.7749 4.74619 92.9082C2.93114 91.0415 0.0430916 93.2826 2.66757 95.0707C5.29205 96.8588 9.47698 97.8838 9.47698 97.8838C9.47698 97.8838 3.93451 97.6038 1.56012 95.8726C-0.813514 94.1414 -2.23095 99.7535 10.86 100.773C10.86 100.773 5.41709 101.357 1.92104 99.5798C1.28532 99.2564 0.459413 99.5491 0.297676 100.244C0.0670519 101.238 2.08876 102.95 9.79971 103.959C11.1445 104.135 10.3298 103.949 10.3298 103.949C10.3298 103.949 3.94125 105.059 2.3119 104.685C2.3119 104.685 0.747694 106.042 4.44068 106.624C8.13292 107.205 11.28 107.002 13.784 105.861C16.2879 104.719 19.3212 104.751 20.3575 103.08C20.5462 102.776 22.2961 102.803 22.2961 102.803C22.4833 104.296 25.62 103.279 25.3122 102.762Z" fill="#C8D7F4"/>
<path d="M224.415 34.8064L221.467 27.7312L223.726 26.8221C223.726 26.8221 225.545 24.0779 227.936 21.0625C230.327 18.0472 231.987 18.2022 231.987 18.2022C231.987 18.2022 234.346 17.219 234.489 18.6574C234.633 20.0958 231.155 22.0659 230.406 23.5507C229.657 25.0348 237.853 20.48 238.73 18.128C239.606 15.7761 243.023 16.632 241.403 19.2287C239.783 21.8255 236.489 24.3541 236.489 24.3541C236.489 24.3541 241.269 21.9551 242.691 19.5058C244.113 17.0573 247.542 21.4571 236.391 27.4391C236.391 27.4391 241.42 25.8412 243.813 22.9165C244.248 22.3841 245.09 22.322 245.503 22.8723C246.092 23.6593 244.973 25.955 238.564 29.8397C237.446 30.5174 238.092 30.0367 238.092 30.0367C238.092 30.0367 243.363 27.234 244.656 26.2725C244.656 26.2725 246.543 27.2894 243.511 29.2362C240.48 31.183 238.365 32.435 235.788 33.0647C233.241 33.687 230.803 33.2399 228.909 33.1636C228.553 33.1478 224.415 34.8064 224.415 34.8064Z" fill="#C8D7F4"/>
<path d="M226.656 33.3738C226.656 33.3738 226.42 34.4977 225.106 34.4041C223.791 34.3113 220.978 27.5558 220.978 27.5558C220.978 27.5558 222.33 26.0186 223.225 28.026C224.119 30.0328 226.656 33.3738 226.656 33.3738Z" fill="#C8D7F4"/>
<path d="M23.5696 93.9517C23.5696 93.9517 24.5251 93.0974 25.6452 94.0521C26.7654 95.006 24.8208 102.941 24.8208 102.941C24.8208 102.941 22.5872 103.427 23.1121 101.031C23.637 98.6346 23.5696 93.9517 23.5696 93.9517Z" fill="#C8D7F4"/>
<path d="M111.386 31.2618C110.62 31.6616 109.988 31.4557 109.988 31.4557C110.504 29.9589 110.205 30.4523 110.366 28.9915C109.487 31.6077 109.149 29.7073 109.232 28.4261C109.386 26.0615 108.303 25.2123 108.211 24.519C105.714 19.738 109.8 12.0046 117.152 10.7818C118.461 10.564 119.183 10.4359 119.183 10.4359C121.603 10.3723 123.355 10.6815 124.62 11.1735C125.844 11.5321 128.114 11.9732 129.527 9.63022C130.119 8.64857 131.203 12.1132 128.921 13.4445C129.697 13.16 130.487 12.7287 131.237 12.0683C131.237 12.0683 132.489 17.6931 124.757 17.0012C123.196 16.8612 122.166 16.5924 121.515 16.2449C120.432 18.5961 120.548 23.3561 120.372 25.0094C120.095 27.6062 119.4 26.1963 119.4 26.1963C119.4 26.1963 115.934 21.4333 114.808 26.0937C114.316 28.1326 111.078 32.0337 111.386 31.2618Z" fill="#C8D7F4"/>
<path d="M272.106 24.2905C278.639 26.2995 285.566 22.6304 287.574 16.0966C289.583 9.56271 285.915 2.63649 279.38 0.627509C272.845 -1.38147 265.92 2.28681 263.911 8.82142C261.903 15.356 265.571 22.2815 272.106 24.2905Z" fill="#C8D7F4"/>
<path d="M270.463 11.0827L274.63 7.92139L278.962 10.8124L277.386 15.9386L272.375 16.2681L270.463 11.0827Z" fill="#C8D7F4"/>
<path d="M285.632 4.83643L283.634 5.00116L282.692 10.0891L287.047 12.9083L288.252 12.0315C288.252 12.0315 288.042 7.13593 285.632 4.83643Z" fill="#C8D7F4"/>
<path d="M278.549 0.243184C278.549 0.243184 273.39 -0.719746 270.466 1.18665L274.567 4.57788L278.805 1.77669L278.549 0.243184Z" fill="#C8D7F4"/>
<path d="M265.515 5.12012L267.284 10.1841L263.38 13.0168C263.38 13.0168 262.833 9.95874 265.515 5.12012Z" fill="#C8D7F4"/>
<path d="M265.078 19.2212L269.891 19.4541L271.3 23.9924C271.3 23.9924 268.284 23.3238 265.078 19.2212Z" fill="#C8D7F4"/>
<path d="M279.894 19.3594L285.962 19.5623C285.962 19.5623 283.539 24.0647 278.252 24.3612L279.894 19.3594Z" fill="#C8D7F4"/>
<path d="M270.673 11.3285C270.72 11.1757 270.637 11.011 270.484 10.9593L267.381 9.90132C267.225 9.84815 267.056 9.93127 267.002 10.087C266.949 10.2517 267.032 10.412 267.188 10.4651L270.292 11.5232C270.448 11.5763 270.617 11.4925 270.67 11.3375C270.671 11.3345 270.672 11.3322 270.673 11.3285Z" fill="#C8D7F4"/>
<path d="M274.914 8.00952C274.923 7.98031 274.928 7.94886 274.927 7.91667L274.865 4.57186C274.862 4.40713 274.725 4.27684 274.561 4.27984C274.397 4.28283 274.266 4.41837 274.269 4.5831L274.331 7.92715C274.334 8.09188 274.471 8.22292 274.635 8.21992C274.767 8.21768 274.877 8.13007 274.914 8.00952Z" fill="#C8D7F4"/>
<path d="M272.496 16.046C272.534 15.9232 272.489 15.7847 272.376 15.7098C272.239 15.6192 272.054 15.6559 271.963 15.7929L269.642 19.2875C269.55 19.4253 269.588 19.6095 269.725 19.7008C269.862 19.7914 270.047 19.7547 270.138 19.6177L272.459 16.1231C272.476 16.0992 272.488 16.073 272.496 16.046Z" fill="#C8D7F4"/>
<path d="M282.977 10.1767C282.991 10.1317 282.994 10.0823 282.985 10.0329C282.953 9.87118 282.797 9.7656 282.635 9.79705L278.905 10.5204C278.744 10.5518 278.639 10.7076 278.669 10.87C278.701 11.0318 278.857 11.1374 279.019 11.1059L282.749 10.3826C282.861 10.3601 282.946 10.2785 282.977 10.1767Z" fill="#C8D7F4"/>
<path d="M283.918 5.08934C283.95 4.98451 283.923 4.86546 283.837 4.78534C282.333 3.36565 280.68 2.26119 278.923 1.50343C278.772 1.43828 278.597 1.50792 278.532 1.65917C278.466 1.80519 278.536 1.98565 278.687 2.05079C280.38 2.78085 281.974 3.84712 283.429 5.21888C283.548 5.33195 283.736 5.3267 283.849 5.2069C283.882 5.17171 283.905 5.13127 283.918 5.08934Z" fill="#C8D7F4"/>
<path d="M270.965 1.34018C270.986 1.27279 270.983 1.19716 270.951 1.12753C270.881 0.978519 270.705 0.913375 270.556 0.983011C270.433 1.03992 267.531 2.40719 265.381 5.30647C265.283 5.43901 265.311 5.62545 265.443 5.7228C265.575 5.82089 265.762 5.79318 265.859 5.6614C267.92 2.88267 270.777 1.53711 270.807 1.52363C270.886 1.48619 270.941 1.41806 270.965 1.34018Z" fill="#C8D7F4"/>
<path d="M285.674 19.6571C285.674 19.6541 285.676 19.6511 285.676 19.6481L287.564 12.7474C287.608 12.5886 287.514 12.4247 287.355 12.3812C287.197 12.3378 287.039 12.4389 286.989 12.5901L285.101 19.4909C285.058 19.6496 285.152 19.8136 285.31 19.8571C285.466 19.899 285.627 19.8099 285.674 19.6571Z" fill="#C8D7F4"/>
<path d="M280.203 23.8456C280.228 23.7654 280.219 23.6763 280.171 23.6C280.084 23.4607 279.9 23.4188 279.76 23.5056C276.772 25.3791 272.002 23.7602 271.358 23.4517C271.308 23.3985 271.237 23.3641 271.159 23.3604C271.03 23.3529 270.901 23.4322 270.853 23.5513C270.811 23.6808 270.848 23.8171 270.947 23.898C271.189 24.0979 276.603 26.1878 280.077 24.0095C280.14 23.9706 280.183 23.9115 280.203 23.8456Z" fill="#C8D7F4"/>
<path d="M280.339 19.6007C280.366 19.5131 280.352 19.4143 280.293 19.3349L277.625 15.7617C277.527 15.63 277.34 15.603 277.208 15.7011C277.077 15.7999 277.05 15.9864 277.148 16.1182L279.816 19.6921C279.914 19.8239 280.102 19.8508 280.233 19.7527C280.285 19.7123 280.321 19.6591 280.339 19.6007Z" fill="#C8D7F4"/>
<path d="M265.614 19.3144C265.635 19.2463 265.632 19.1706 265.6 19.101C264.869 17.5368 264.013 15.4162 263.87 12.8839C263.861 12.7191 263.721 12.5933 263.557 12.6031C263.392 12.6121 263.266 12.7536 263.276 12.9176C263.424 15.5518 264.307 17.7412 265.06 19.3533C265.13 19.5023 265.307 19.5667 265.456 19.4971C265.535 19.4604 265.59 19.3923 265.614 19.3144Z" fill="#C8D7F4"/>
</g>
</g>
</g>
</svg>
