<svg width="19" height="23" viewBox="0 0 19 23" fill="none" xmlns="http://www.w3.org/2000/svg">
<path d="M13.5 14.3436C13.5 14.5674 13.4111 14.782 13.2529 14.9402C13.0946 15.0985 12.88 15.1873 12.6562 15.1873H5.90625C5.68247 15.1873 5.46786 15.0985 5.30963 14.9402C5.15139 14.782 5.0625 14.5674 5.0625 14.3436C5.0625 14.1198 5.15139 13.9052 5.30963 13.747C5.46786 13.5887 5.68247 13.4998 5.90625 13.4998H12.6562C12.88 13.4998 13.0946 13.5887 13.2529 13.747C13.4111 13.9052 13.5 14.1198 13.5 14.3436ZM12.6562 10.1248H5.90625C5.68247 10.1248 5.46786 10.2137 5.30963 10.372C5.15139 10.5302 5.0625 10.7448 5.0625 10.9686C5.0625 11.1924 5.15139 11.407 5.30963 11.5652C5.46786 11.7235 5.68247 11.8123 5.90625 11.8123H12.6562C12.88 11.8123 13.0946 11.7235 13.2529 11.5652C13.4111 11.407 13.5 11.1924 13.5 10.9686C13.5 10.7448 13.4111 10.5302 13.2529 10.372C13.0946 10.2137 12.88 10.1248 12.6562 10.1248ZM18.5625 3.37485V21.0936C18.5625 21.5411 18.3847 21.9704 18.0682 22.2868C17.7518 22.6033 17.3226 22.7811 16.875 22.7811H1.6875C1.23995 22.7811 0.810725 22.6033 0.494257 22.2868C0.17779 21.9704 0 21.5411 0 21.0936V3.37485C0 2.92729 0.17779 2.49807 0.494257 2.1816C0.810725 1.86514 1.23995 1.68735 1.6875 1.68735H5.5118C5.98588 1.15655 6.56673 0.731861 7.21631 0.441084C7.86589 0.150308 8.56956 0 9.28125 0C9.99294 0 10.6966 0.150308 11.3462 0.441084C11.9958 0.731861 12.5766 1.15655 13.0507 1.68735H16.875C17.3226 1.68735 17.7518 1.86514 18.0682 2.1816C18.3847 2.49807 18.5625 2.92729 18.5625 3.37485ZM5.90625 5.06235H12.6562C12.6562 4.16724 12.3007 3.3088 11.6677 2.67586C11.0348 2.04293 10.1764 1.68735 9.28125 1.68735C8.38614 1.68735 7.5277 2.04293 6.89476 2.67586C6.26183 3.3088 5.90625 4.16724 5.90625 5.06235ZM16.875 3.37485H14.0537C14.2456 3.91676 14.3437 4.48745 14.3438 5.06235V5.9061C14.3438 6.12987 14.2549 6.34448 14.0966 6.50272C13.9384 6.66095 13.7238 6.74985 13.5 6.74985H5.0625C4.83872 6.74985 4.62411 6.66095 4.46588 6.50272C4.30764 6.34448 4.21875 6.12987 4.21875 5.9061V5.06235C4.21877 4.48745 4.31686 3.91676 4.50879 3.37485H1.6875V21.0936H16.875V3.37485Z" fill="#F53A53"/>
</svg>
