<svg width="18" height="18" viewBox="0 0 18 18" fill="none" xmlns="http://www.w3.org/2000/svg">
<g clip-path="url(#clip0_14636_7367)">
<mask id="mask0_14636_7367" style="mask-type:luminance" maskUnits="userSpaceOnUse" x="0" y="-1" width="18" height="19">
<path d="M0 -0.000974655H18V17.999H0V-0.000974655Z" fill="white"/>
</mask>
<g mask="url(#mask0_14636_7367)">
<path d="M9 17.4722C4.63004 16.2236 1.61719 12.1942 1.61719 7.64941V2.67139L9 0.526857L16.3828 2.67139V7.64941C16.3828 12.1942 13.37 16.2236 9 17.4722Z" stroke="white" stroke-width="1.05469" stroke-miterlimit="10" stroke-linecap="round" stroke-linejoin="round"/>
</g>
<path d="M11.9983 11.3067C13.6919 9.61315 13.6919 6.86732 11.9983 5.17374C10.3047 3.48017 7.5589 3.48017 5.86532 5.17374C4.17174 6.86732 4.17174 9.61315 5.86532 11.3067C7.5589 13.0003 10.3047 13.0003 11.9983 11.3067Z" stroke="white" stroke-width="0.616777" stroke-miterlimit="2.6131" stroke-linecap="round" stroke-linejoin="round"/>
<path fill-rule="evenodd" clip-rule="evenodd" d="M8.93301 6.7749L10.327 7.78765L9.7945 9.42634H8.07152L7.53906 7.78765L8.93301 6.7749Z" stroke="white" stroke-width="0.616777" stroke-miterlimit="2.6131" stroke-linecap="round" stroke-linejoin="round"/>
<path d="M8.93164 6.77445V5.29736" stroke="white" stroke-width="0.616777" stroke-miterlimit="2.6131" stroke-linecap="round" stroke-linejoin="round"/>
<path d="M7.53906 4.28491L8.93301 5.29769L10.327 4.28491" stroke="white" stroke-width="0.616777" stroke-miterlimit="2.6131" stroke-linecap="round" stroke-linejoin="round"/>
<path d="M7.5376 7.78749L6.13281 7.33105" stroke="white" stroke-width="0.616777" stroke-miterlimit="2.6131" stroke-linecap="round" stroke-linejoin="round"/>
<path d="M4.74023 8.34382L6.13418 7.33107L5.60172 5.69238" stroke="white" stroke-width="0.616777" stroke-miterlimit="2.6131" stroke-linecap="round" stroke-linejoin="round"/>
<path d="M8.06935 9.42578L7.20117 10.6208" stroke="white" stroke-width="0.616777" stroke-miterlimit="2.6131" stroke-linecap="round" stroke-linejoin="round"/>
<path d="M7.73593 12.2598L7.20351 10.6211H5.48047" stroke="white" stroke-width="0.616777" stroke-miterlimit="2.6131" stroke-linecap="round" stroke-linejoin="round"/>
<path d="M9.79492 9.42578L10.6631 10.6208" stroke="white" stroke-width="0.616777" stroke-miterlimit="2.6131" stroke-linecap="round" stroke-linejoin="round"/>
<path d="M12.3843 10.6211H10.6613L10.1289 12.2598" stroke="white" stroke-width="0.616777" stroke-miterlimit="2.6131" stroke-linecap="round" stroke-linejoin="round"/>
<path d="M10.3262 7.78749L11.731 7.33105" stroke="white" stroke-width="0.616777" stroke-miterlimit="2.6131" stroke-linecap="round" stroke-linejoin="round"/>
<path d="M12.2629 5.69238L11.7305 7.33107L13.1244 8.34382" stroke="white" stroke-width="0.616777" stroke-miterlimit="2.6131" stroke-linecap="round" stroke-linejoin="round"/>
</g>
<defs>
<clipPath id="clip0_14636_7367">
<rect width="18" height="18" fill="white"/>
</clipPath>
</defs>
</svg>
