<svg width="20" height="20" viewBox="0 0 20 20" fill="none" xmlns="http://www.w3.org/2000/svg">
<g clip-path="url(#clip0_14636_7333)">
<path d="M6.87695 16.094H17.5412" stroke="white" stroke-width="1.17187" stroke-miterlimit="10"/>
<path d="M14.2598 12.584L12.21 13.5706L10.1602 12.584" stroke="white" stroke-width="1.17187" stroke-miterlimit="10"/>
<path d="M14.2598 9.83058L12.21 10.8171L10.1602 9.83058" stroke="white" stroke-width="1.17187" stroke-miterlimit="10"/>
<mask id="mask0_14636_7333" style="mask-type:luminance" maskUnits="userSpaceOnUse" x="0" y="0" width="20" height="21">
<path d="M0 0.00122261H20V20.0012H0V0.00122261Z" fill="white"/>
</mask>
<g mask="url(#mask0_14636_7333)">
<path d="M9.54297 7.30762V1.92016C9.54297 1.18391 10.1398 0.587109 10.876 0.587109C11.6122 0.587109 12.209 1.18391 12.209 1.92016V7.30762" stroke="white" stroke-width="1.17187" stroke-miterlimit="10"/>
<path d="M12.2109 7.30762V2.58664C12.2109 1.85043 12.8077 1.25363 13.544 1.25363C14.2802 1.25363 14.877 1.85043 14.877 2.58664V7.30762" stroke="white" stroke-width="1.17187" stroke-miterlimit="10"/>
<path d="M14.875 7.30791V4.46658C14.875 3.73041 15.4717 3.13358 16.208 3.13358C16.9442 3.13358 17.541 3.73041 17.541 4.46658V8.66193V16.0951V19.4155H6.87679V16.0951L2.98296 12.2012C2.28433 11.5026 2.28433 10.3698 2.98296 9.67115C3.68163 8.97248 4.8144 8.97248 5.51308 9.67115L6.87679 11.0349V8.66193V3.88678C6.87679 3.15057 7.47362 2.55373 8.20983 2.55373C8.94605 2.55373 9.54284 3.15057 9.54284 3.88678V7.30791" stroke="white" stroke-width="1.17187" stroke-miterlimit="10"/>
</g>
</g>
<defs>
<clipPath id="clip0_14636_7333">
<rect width="20" height="20" fill="white"/>
</clipPath>
</defs>
</svg>
