<svg width="25" height="24" viewBox="0 0 25 24" fill="none" xmlns="http://www.w3.org/2000/svg">
<path d="M22.7432 8.22607C23.5101 8.22608 24.1338 8.84977 24.1338 9.6167V9.61865C24.0642 11.4585 21.4224 11.4591 21.3525 9.61865V9.6167C21.3525 8.84975 21.9762 8.22607 22.7432 8.22607ZM23.3779 9.46631C23.2145 8.75318 22.1198 8.80385 22.0889 9.61865C22.0899 9.97851 22.383 10.271 22.7432 10.271C23.1033 10.271 23.3964 9.97851 23.3975 9.61865L23.3779 9.46631Z" fill="white" stroke="white" stroke-width="0.1"/>
<path d="M21.3643 0.687012C22.05 -0.16247 23.4357 -0.162073 24.1211 0.687012L24.2402 0.846191C24.496 1.22907 24.5959 1.69582 24.5156 2.15479L23.7051 6.79053H23.7041C23.5052 7.86018 21.9795 7.86054 21.7803 6.79053V6.78662C21.7799 6.7844 21.779 6.78102 21.7783 6.77686C21.7768 6.76816 21.7744 6.7554 21.7715 6.73877C21.7655 6.70482 21.7562 6.65468 21.7451 6.59131C21.7229 6.46457 21.6913 6.28318 21.6533 6.06592C21.5773 5.63149 21.4763 5.0523 21.375 4.47314C21.2736 3.89375 21.1717 3.31394 21.0957 2.87939C21.0577 2.6622 21.0261 2.48071 21.0039 2.354C20.9929 2.29098 20.9844 2.24138 20.9785 2.20752C20.9755 2.19055 20.9732 2.17723 20.9717 2.16846C20.9709 2.16414 20.9701 2.1609 20.9697 2.15869V2.15576V2.15479C20.878 1.63009 21.0215 1.09502 21.3643 0.687012ZM23.5566 1.15967C23.1532 0.659307 22.332 0.659731 21.9287 1.15967L21.9277 1.16064C21.7253 1.40167 21.6402 1.71788 21.6943 2.02783L22.5059 6.6626L22.5186 6.70947C22.6004 6.92554 22.9335 6.90966 22.9795 6.6626L23.79 2.02783C23.8442 1.71786 23.7601 1.40175 23.5576 1.16064L23.5566 1.15967ZM21.8252 6.7583C21.8106 6.7597 21.7943 6.76535 21.7793 6.78174L21.8291 6.77686C21.8284 6.77293 21.8267 6.76678 21.8252 6.7583Z" fill="white" stroke="white" stroke-width="0.1"/>
<path d="M10.041 23.3247C15.2413 23.3247 19.457 19.109 19.457 13.9087C19.457 8.70837 15.2413 4.49268 10.041 4.49268C4.84069 4.49268 0.625 8.70837 0.625 13.9087C0.625 19.109 4.84069 23.3247 10.041 23.3247Z" stroke="white" stroke-width="1.25358" stroke-miterlimit="10"/>
<path d="M10.0391 10.3531V7.42285" stroke="white" stroke-width="1.25358" stroke-miterlimit="10"/>
<path d="M6.65796 12.8113L3.87109 11.9058" stroke="white" stroke-width="1.25358" stroke-miterlimit="10"/>
<path d="M7.94895 16.7856L6.22656 19.1563" stroke="white" stroke-width="1.25358" stroke-miterlimit="10"/>
<path d="M6.66016 12.8102L10.0416 10.3535" stroke="white" stroke-width="1.25358" stroke-miterlimit="10"/>
<path d="M10.0391 10.3535L13.4205 12.8102" stroke="white" stroke-width="1.25358" stroke-miterlimit="10"/>
<path d="M10.0445 7.42356L6.80078 5.06689" stroke="white" stroke-width="1.25358" stroke-miterlimit="10"/>
<path d="M2.63281 8.09375L3.871 11.9045" stroke="white" stroke-width="1.25358" stroke-miterlimit="10"/>
<path d="M3.87415 11.9058L0.632812 14.2607" stroke="white" stroke-width="1.25358" stroke-miterlimit="10"/>
<path d="M2.21875 19.1562H6.22626" stroke="white" stroke-width="1.25358" stroke-miterlimit="10"/>
<path d="M6.22656 19.1562L7.46549 22.9693" stroke="white" stroke-width="1.25358" stroke-miterlimit="10"/>
<path d="M13.4219 12.8113L16.2087 11.9058" stroke="white" stroke-width="1.25358" stroke-miterlimit="10"/>
<path d="M12.1367 16.7856L13.8591 19.1563" stroke="white" stroke-width="1.25358" stroke-miterlimit="10"/>
<path d="M10.0391 7.42356L13.2827 5.06689" stroke="white" stroke-width="1.25358" stroke-miterlimit="10"/>
<path d="M17.4491 8.09375L16.2109 11.9045" stroke="white" stroke-width="1.25358" stroke-miterlimit="10"/>
<path d="M16.2109 11.9058L19.4523 14.2607" stroke="white" stroke-width="1.25358" stroke-miterlimit="10"/>
<path d="M17.863 19.1562H13.8555" stroke="white" stroke-width="1.25358" stroke-miterlimit="10"/>
<path d="M13.8522 19.1562L12.6133 22.9693" stroke="white" stroke-width="1.25358" stroke-miterlimit="10"/>
<path d="M13.4166 12.8105L12.125 16.7857" stroke="white" stroke-width="1.25358" stroke-miterlimit="10"/>
<path d="M12.1366 16.7856H7.95703" stroke="white" stroke-width="1.25358" stroke-miterlimit="10"/>
<path d="M7.95175 16.7857L6.66016 12.8105" stroke="white" stroke-width="1.25358" stroke-miterlimit="10"/>
</svg>
