<svg width="40" height="140" viewBox="0 0 40 140" fill="none" xmlns="http://www.w3.org/2000/svg">
<path d="M34.5079 136.932C34.5079 138.405 35.7018 139.599 37.1746 139.599C38.6474 139.599 39.8413 138.405 39.8413 136.932C39.8413 135.46 38.6474 134.266 37.1746 134.266C35.7018 134.266 34.5079 135.46 34.5079 136.932ZM0.001302 2.66675C0.001302 4.13951 1.19521 5.33341 2.66797 5.33341C4.14073 5.33341 5.33464 4.13951 5.33464 2.66675C5.33464 1.19399 4.14073 8.13007e-05 2.66797 8.13007e-05C1.19521 8.13007e-05 0.001302 1.19399 0.001302 2.66675ZM37.1746 136.932H37.6746V12.6667H37.1746H36.6746V136.932H37.1746ZM27.1746 2.66675V2.16675H2.66797V2.66675V3.16675H27.1746V2.66675ZM37.1746 12.6667H37.6746C37.6746 6.86776 32.9736 2.16675 27.1746 2.16675V2.66675V3.16675C32.4213 3.16675 36.6746 7.42004 36.6746 12.6667H37.1746Z" fill="white"/>
</svg>
