<?xml version="1.0" encoding="utf-8"?>
<svg width="40" height="56" viewBox="0 0 40 56" fill="none" xmlns="http://www.w3.org/2000/svg">
  <path d="M 0.001 2.667 C 0.001 1.194 1.195 0 2.668 0 C 4.141 0 5.335 1.194 5.335 2.667 C 5.335 4.139 4.141 5.333 2.668 5.333 C 1.195 5.333 0.001 4.139 0.001 2.667 Z M 37.187 12.645 L 36.687 12.645 L 37.187 12.645 Z M 27.185 2.661 L 27.185 2.161 L 27.185 2.661 Z M 37.209 52.629 L 36.709 52.629 C 36.702 40.505 36.693 23.371 36.687 12.645 L 37.187 12.645 L 37.687 12.644 C 37.693 23.37 37.702 40.504 37.709 52.628 L 37.209 52.629 Z M 27.185 2.661 L 27.185 3.161 L 2.668 3.167 L 2.668 2.667 L 2.668 2.167 L 27.185 2.161 L 27.185 2.661 Z M 37.187 12.645 L 36.687 12.645 C 36.684 7.4 32.431 3.16 27.185 3.161 L 27.185 2.661 L 27.185 2.161 C 32.982 2.16 37.684 6.846 37.687 12.644 L 37.187 12.645 Z" fill="white"/>
</svg>