<svg width="40" height="56" viewBox="0 0 40 56" fill="none" xmlns="http://www.w3.org/2000/svg">
<path d="M34.5427 52.6287C34.5427 51.1559 35.7366 49.962 37.2093 49.962C38.6821 49.962 39.876 51.1559 39.876 52.6287C39.876 54.1014 38.6821 55.2953 37.2093 55.2953C35.7366 55.2953 34.5427 54.1014 34.5427 52.6287ZM0.00130637 2.66666C0.0013065 1.1939 1.19521 -1.15728e-05 2.66797 -1.14441e-05C4.14073 -1.13153e-05 5.33464 1.1939 5.33464 2.66666C5.33464 4.13942 4.14073 5.33332 2.66797 5.33332C1.19521 5.33332 0.00130624 4.13942 0.00130637 2.66666ZM37.187 12.6446L36.687 12.6448L37.187 12.6446ZM27.1848 2.66136L27.1847 2.16136L27.1848 2.66136ZM37.2093 52.6287L36.7093 52.629C36.7024 40.5049 36.6929 23.3707 36.687 12.6448L37.187 12.6446L37.687 12.6443C37.6929 23.3702 37.7024 40.5043 37.7093 52.6284L37.2093 52.6287ZM27.1848 2.66136L27.1849 3.16136L2.66808 3.16666L2.66797 2.66666L2.66787 2.16666L27.1847 2.16136L27.1848 2.66136ZM37.187 12.6446L36.687 12.6448C36.6841 7.4001 32.4312 3.16023 27.1849 3.16136L27.1848 2.66136L27.1847 2.16136C32.9816 2.16011 37.6838 6.84592 37.687 12.6443L37.187 12.6446Z" fill="white"/>
</svg>
