<svg width="24" height="25" viewBox="0 0 24 25" fill="none" xmlns="http://www.w3.org/2000/svg">
<path d="M4.75023 12.1457L0.777772 10.6112C0.579081 10.535 0.480298 10.3116 0.557537 10.1133L3.49413 2.57436C3.52598 2.49258 3.587 2.42545 3.66546 2.38603L7.30165 0.557358C7.36008 0.527996 7.42769 0.52272 7.48994 0.542653L8.25285 0.787071C8.25285 0.787071 9.61154 1.51935 11.533 1.51935C13.7172 1.51935 15.0862 0.787071 15.0862 0.787071L15.8491 0.542653C15.9114 0.52272 15.9789 0.527996 16.0374 0.557358L19.6736 2.38603C19.752 2.42545 19.813 2.49258 19.8449 2.57436L22.7815 10.1133C22.8587 10.3116 22.7599 10.535 22.5612 10.6112L18.6394 12.1158" stroke="white" stroke-width="1.0613" stroke-miterlimit="10" stroke-linecap="round" stroke-linejoin="round"/>
<path d="M4.75 7.71826V24.2278C4.75 24.3614 4.85826 24.4696 4.99183 24.4696H18.3965C18.5301 24.4696 18.6383 24.3613 18.6383 24.2278V7.71826" stroke="white" stroke-width="1.0613" stroke-miterlimit="10" stroke-linecap="round" stroke-linejoin="round"/>
<path d="M15.8513 0.542725L15.8466 0.684842C15.7744 2.64987 14.1638 4.3054 12.1851 4.3054H11.1584C9.16111 4.3054 7.53679 2.7082 7.49312 0.721337L7.49219 0.542725" stroke="white" stroke-width="1.0613" stroke-miterlimit="10" stroke-linecap="round" stroke-linejoin="round"/>
</svg>
