<svg width="24" height="24" viewBox="0 0 24 24" fill="none" xmlns="http://www.w3.org/2000/svg">
<mask id="mask0_15684_3275" style="mask-type:luminance" maskUnits="userSpaceOnUse" x="0" y="0" width="24" height="24">
<path d="M0 1.90735e-06H24V24H0V1.90735e-06Z" fill="white"/>
</mask>
<g mask="url(#mask0_15684_3275)">
<path d="M11.1037 3.72386C11.4715 2.98395 12.527 2.98395 12.8947 3.72386L15.0733 8.10731C15.2188 8.40004 15.4982 8.60318 15.8215 8.65133L20.5651 9.35789C21.3755 9.47859 21.7048 10.4691 21.128 11.051L17.71 14.4992C17.4833 14.7278 17.3806 15.0517 17.4341 15.3692L18.2697 20.3327C18.4084 21.156 17.5367 21.7767 16.804 21.3762L12.4788 19.0123C12.1799 18.849 11.8185 18.849 11.5196 19.0123L7.1944 21.3762C6.46178 21.7767 5.59007 21.156 5.72869 20.3327L6.56436 15.3692C6.61782 15.0517 6.51512 14.7278 6.28845 14.4992L2.87042 11.051C2.29365 10.4691 2.62296 9.47859 3.4333 9.35789L8.17695 8.65133C8.50026 8.60318 8.77964 8.40004 8.92512 8.10731L11.1037 3.72386Z" stroke="white" stroke-width="1.40625" stroke-miterlimit="10"/>
</g>
</svg>
