<svg width="558" height="236" viewBox="0 0 558 236" fill="none" xmlns="http://www.w3.org/2000/svg">
<g opacity="0.14">
<mask id="mask0_15419_503" style="mask-type:alpha" maskUnits="userSpaceOnUse" x="0" y="0" width="558" height="236">
<path d="M363.336 94.6978C362.152 98.5277 360.97 110.274 360.866 113.607C359.195 113.697 357.477 113.932 355.781 114.385C346.912 116.747 330.324 129.033 331.802 130.923C333.279 132.813 352.168 128.245 358.573 126.041C363.629 124.301 369.061 120.796 372.18 117.77C375.656 114.798 377.988 108.824 379.104 103.833C380.581 97.2177 363.336 94.6978 363.336 94.6978Z" fill="#FFB18D"/>
<path d="M372.18 117.769C375.655 114.797 377.988 108.823 379.104 103.832C380.582 97.2177 363.337 94.6978 363.337 94.6978C363.337 94.6978 370.342 98.9181 372.032 100.842C374.124 103.225 375.937 104.762 375.937 104.762L372.18 117.769Z" fill="#E3854D"/>
<path d="M400.24 171.325C401.104 176.304 402.836 187.922 405.605 187.589C408.375 187.258 408.547 167.342 407.682 165.35C406.818 163.359 402.317 163.856 400.933 166.014C399.549 168.172 400.24 171.325 400.24 171.325Z" fill="#353A4B"/>
<path d="M373.24 221.612C368.2 224.512 357.572 231.721 360.336 234.638C363.1 237.554 379.023 228.841 380.681 224.599C382.339 220.358 377.387 219.226 373.24 221.612Z" fill="#353A4B"/>
<path d="M361.523 173.284C368.695 174.811 373.471 154.181 373.471 154.181C373.471 154.181 400.091 164.372 401.941 167.344C403.79 170.316 405.638 171.545 397.654 172.841C389.671 174.138 383.189 173.571 378.9 173.844C374.611 174.117 361.523 173.284 361.523 173.284Z" fill="#CAC2BF"/>
<path d="M342.946 165.286C344.303 167.77 354.685 172.154 361.523 173.284C368.761 174.481 373.47 154.181 373.47 154.181C373.47 154.181 364.825 148.783 360.911 149.896C356.998 151.01 342.946 165.286 342.946 165.286Z" fill="#E3854D"/>
<path d="M358.077 143.658C353.722 144.994 344.49 150.841 340.657 158.358C338.294 162.992 340.989 165.64 347.277 167.545C353.896 169.55 367.891 163.864 375.556 156.848C383.22 149.833 358.077 143.658 358.077 143.658Z" fill="#FFB18D"/>
<path d="M355.948 144.011C355.991 147.03 365.841 157.456 368.035 158.859C370.229 160.262 370.595 161.139 370.595 161.139L375.554 156.849L355.948 144.011Z" fill="#E3854D"/>
<path d="M355.948 144.011C357.181 149.752 367.512 157.441 375.948 160.018L396.083 132.205C396.083 132.205 392.387 132.138 385.062 133.179C370.745 135.214 355.948 144.011 355.948 144.011Z" fill="#FF7754"/>
<path d="M365.089 154.56C368.496 156.935 372.39 158.931 375.948 160.017L396.083 132.205C396.083 132.205 381.949 140.956 373.639 147.753C369.332 151.276 364.641 154.247 365.089 154.56Z" fill="#C15545"/>
<path d="M363.337 94.6977L377.782 100.715L372.469 76.395C372.469 76.395 367.627 80.8254 365.464 86.3546C364.013 90.0607 363.337 94.6977 363.337 94.6977Z" fill="#ECE9E8"/>
<path d="M374.517 76.0327C371.204 81.5051 371.572 98.2743 371.572 98.2743L378.935 101.451L374.517 76.0327Z" fill="#CAC2BF"/>
<path d="M333.103 129.057C329.801 127.79 328.619 126.383 326.477 127.069C324.067 127.84 319.509 128.12 320.169 133.346C320.83 138.571 321.491 140.314 324.462 139.364C327.434 138.413 336.405 131.275 335.744 130.166C335.084 129.058 335.084 129.058 335.084 129.058H333.103V129.057Z" fill="#FFB18D"/>
<path d="M370.535 78.4801L385.027 133.373C385.027 133.373 389.883 133.547 403.384 131.058C415.945 128.742 419.399 125.491 419.399 125.491C419.399 125.491 410.389 63.425 405.318 62.0356C400.245 60.6462 380.439 70.3742 375.126 74.0793C372.623 75.8239 370.535 78.4801 370.535 78.4801Z" fill="#ECE9E8"/>
<path d="M402.04 76.2168C400.442 81.0717 409.367 87.2184 413.097 89.0073L411.386 77.7617L402.04 76.2168Z" fill="#CAC2BF"/>
<path d="M376.968 66.4502L380.088 72.5923C380.088 72.5923 376.645 76.5834 380.751 77.529C384.857 78.4734 393.884 64.8758 393.884 64.8758L387.807 57.0015L376.968 66.4502Z" fill="#FFB18D"/>
<path d="M387.808 57.0005L376.968 66.4504L380.088 72.5925L382.1 68.2405L387.808 57.0005Z" fill="#E3854D"/>
<path d="M420.429 84.9151C428.402 87.3578 441.281 92.299 443.157 92.4931C446.59 92.8484 445.837 86.1228 443.157 81.4688C441.593 78.7525 434.168 71.7023 429.57 69.9701C424.971 68.2367 420.429 84.9151 420.429 84.9151Z" fill="#FFB18D"/>
<path d="M442.665 84.933C441.575 84.8059 438.496 85.9308 437.081 88.2408C434.467 92.5066 433.41 102.576 433.304 108.401C433.139 117.378 432.811 122.418 434.946 123.52C437.081 124.623 440.202 118.48 441.844 113.598C443.487 108.716 449.399 85.7197 442.665 84.933Z" fill="#FFB18D"/>
<path d="M435.275 120.055C431.662 121.945 426.899 126.355 426.57 130.293C426.241 134.231 427.884 134.073 429.525 135.017C431.168 135.962 435.109 138.009 436.423 136.119C437.738 134.229 440.037 130.607 439.873 127.457C439.709 124.307 438.395 120.37 438.395 120.37L435.275 120.055Z" fill="#FFB18D"/>
<path d="M373.928 161.698C370.618 168.046 361.936 183.306 362.981 184.809C364.027 186.312 380.242 189.209 392.742 174.225C398.315 167.545 373.928 161.698 373.928 161.698Z" fill="#FFB18D"/>
<path d="M362.981 184.81C362.7 185.817 364.783 191.984 365.47 194.91C366.492 199.261 368.219 204.81 369.574 208.804C371.838 215.486 373.929 224.34 376.367 224.172C378.806 224.004 383.858 211.476 383.858 201.454C383.858 197.343 382.891 193.681 381.75 190.792C380.11 186.639 378.11 184.083 378.11 184.083L362.981 184.81Z" fill="#FFB18D"/>
<path d="M381.75 190.792C382.89 193.681 383.858 197.343 383.858 201.454C383.858 211.476 378.806 224.004 376.367 224.171C373.928 224.338 371.838 215.485 369.573 208.804C368.219 204.808 366.491 199.261 365.47 194.91L381.75 190.792Z" fill="#ECE9E8"/>
<path d="M371.167 158.949C371.338 161.081 383.995 171.086 394.599 172.233C394.599 172.233 411.617 158.663 418 147.899C426.317 133.873 419.399 125.49 419.399 125.49L385.37 133.545L390.192 138.684L371.167 158.949Z" fill="#FF7754"/>
<path d="M410.837 62.7833C408.59 62.0648 405.292 61.7776 403.794 62.6392C402.295 63.5019 394.364 74.2946 405.292 80.4594C407.839 81.8965 421.628 85.4892 421.628 85.4892C421.628 85.4892 431.819 77.8725 430.169 70.8314C429.349 67.3261 410.837 62.7833 410.837 62.7833Z" fill="#ECE9E8"/>
<path d="M366.258 197.428C365.51 197.873 365.853 200.545 366.986 200.249C368.486 199.855 382.897 195.284 382.897 194.581C382.897 193.879 366.258 197.428 366.258 197.428Z" fill="#FF7754"/>
<path d="M377.954 67.8682C376.476 68.656 374.834 69.1282 372.041 68.4982C369.249 67.8682 366.128 64.7182 366.95 54.7961C367.771 44.874 369.413 43.9285 377.626 43.7718C385.839 43.6141 387.48 47.394 388.302 54.6395C389.123 61.8827 377.954 67.8682 377.954 67.8682Z" fill="#FFB18D"/>
<path d="M374.109 39.8687C385.677 40.1412 390.077 42.2116 390.795 47.4877C391.512 52.7637 387.402 62.6892 385.01 62.2295C382.618 61.7697 380.124 50.439 380.124 50.439C380.124 50.439 373.571 49.322 368.071 49.0927C362.57 48.8634 360.288 43.5091 364.018 40.9267C366.409 39.2717 370.658 39.787 374.109 39.8687Z" fill="#7D4733"/>
<path d="M379.562 54.2064C380.404 50.977 384.613 47.2095 385.735 50.1699C386.858 53.1303 382.087 57.9739 381.245 57.7048C380.404 57.4358 379.562 54.2064 379.562 54.2064Z" fill="#FFB18D"/>
<path d="M388.953 172.318C388.953 172.318 421.48 148.212 414.937 129.389" stroke="#C15545" stroke-width="0.611489" stroke-miterlimit="10" stroke-linecap="round" stroke-linejoin="round"/>
<path d="M406.813 130.255C406.813 131.337 407.49 138.909 414.935 139.342" stroke="#C15545" stroke-width="0.611489" stroke-miterlimit="10" stroke-linecap="round" stroke-linejoin="round"/>
<path d="M339.008 162.73C341.301 164.929 343.746 166.688 345.58 165.809C347.414 164.93 339.008 162.73 339.008 162.73Z" fill="#E3854D"/>
<path d="M360.865 183.691C362.241 185.89 364.686 186.769 366.674 185.597C368.66 184.423 360.865 183.691 360.865 183.691Z" fill="#E3854D"/>
<path d="M442.03 87.6896C442.03 87.0449 445.85 83.207 445.85 83.207C445.85 83.207 445.951 84.2207 444.949 85.5454C443.871 86.9677 442.03 87.6896 442.03 87.6896Z" fill="#E3854D"/>
<path d="M366.734 117.455C366.734 117.455 368.082 120.038 371.225 118.962L366.734 117.455Z" fill="#E3854D"/>
<path d="M405.777 83.0024C405.777 83.0024 411.924 111.631 413.68 120.473" stroke="#CAC2BF" stroke-width="0.611489" stroke-miterlimit="10" stroke-linecap="round" stroke-linejoin="round"/>
<path d="M402.019 63.896C399.264 66.3342 396.297 73.8544 402.443 78.3256" stroke="#CAC2BF" stroke-width="0.611489" stroke-miterlimit="10" stroke-linecap="round" stroke-linejoin="round"/>
<path d="M393.966 67.5549C393.966 67.5549 396.721 66.7421 399.476 67.758" stroke="#CAC2BF" stroke-width="0.611489" stroke-miterlimit="10" stroke-linecap="round" stroke-linejoin="round"/>
<path d="M239.352 200.776C241.007 201.517 242.848 201.925 244.799 201.803C244.799 201.803 244.36 200.205 246.19 198.12C247.827 196.255 249.754 196.601 251.89 198.726C253.215 197.484 254.222 195.958 254.78 194.231C252.317 193.367 250.791 192.196 250.661 190.918C250.553 189.86 252.343 187.236 253.642 185.487C252.038 182.957 249.41 181.143 246.326 180.535C244.88 183.018 243.022 184.429 240.813 183.641C239.876 183.308 239.108 182.555 238.5 181.734C236.281 182.958 234.556 184.863 233.625 187.154C235.114 189.075 235.849 191.565 233.198 193.711C233.47 194.736 233.918 195.678 234.467 196.558C234.818 196.505 235.182 196.469 235.568 196.487C237.725 196.576 238.542 197.132 239.352 200.776ZM237.475 190.142C237.61 189.591 240.571 186.528 241.863 186.785C244.753 187.358 246.774 189.599 246.505 190.702C246.236 191.804 244.989 194.568 243.991 194.856C242.993 195.145 240.693 194.628 239.397 194.097C238.101 193.566 237.341 190.693 237.475 190.142Z" fill="#ECE9E8"/>
<path d="M244.799 201.805C244.799 201.805 246.117 201.556 247.672 201.216C246.757 201.513 245.808 201.743 244.799 201.805Z" fill="#ECE9E8"/>
<path d="M240.812 183.641C239.876 183.308 239.107 182.555 238.5 181.734C239.944 180.938 241.572 180.404 243.346 180.294C244.374 180.23 245.363 180.345 246.326 180.535C244.879 183.018 243.021 184.429 240.812 183.641Z" fill="#353A4B"/>
<path d="M234.466 196.557C234.817 196.503 235.181 196.468 235.567 196.485C237.725 196.576 238.541 197.132 239.35 200.777C237.317 199.867 235.621 198.405 234.466 196.557Z" fill="#353A4B"/>
<path d="M233.197 193.71C233.029 193.075 232.902 192.423 232.856 191.745C232.745 190.122 233.045 188.575 233.623 187.152C235.113 189.075 235.848 191.565 233.197 193.71Z" fill="#353A4B"/>
<path d="M250.662 190.917C250.554 189.859 252.344 187.236 253.643 185.487C254.553 186.924 255.167 188.558 255.289 190.353C255.381 191.707 255.177 193.008 254.781 194.232C252.317 193.368 250.792 192.195 250.662 190.917Z" fill="#353A4B"/>
<path d="M246.189 198.121C247.825 196.256 249.753 196.602 251.889 198.727C250.708 199.835 249.281 200.692 247.67 201.217C246.115 201.557 244.797 201.806 244.797 201.806C244.797 201.806 244.359 200.206 246.189 198.121Z" fill="#353A4B"/>
<path d="M237.474 190.142C237.609 189.591 240.57 186.528 241.861 186.785C244.751 187.358 246.773 189.599 246.504 190.702C246.235 191.804 244.988 194.568 243.99 194.857C242.992 195.145 240.692 194.628 239.396 194.097C238.1 193.566 237.34 190.693 237.474 190.142Z" fill="#353A4B"/>
<path d="M132.021 200.852C128.784 200.601 126.705 199.531 124.934 202.174C123.163 204.816 116.198 222.639 118.758 223.393C121.318 224.148 131.43 204.816 131.824 203.495C131.824 203.495 133.219 200.945 132.021 200.852Z" fill="#353A4B"/>
<path d="M170.297 191.961C170.297 191.961 191.121 182.57 192.695 177.708C194.268 172.846 189.723 164.967 183.079 162.62C176.435 160.273 160.79 174.517 161.575 185.084C161.83 188.495 170.297 191.961 170.297 191.961Z" fill="#E3854D"/>
<path d="M190.002 99.2056C192.689 100.648 198.017 103.224 203.169 104.74C208.445 106.293 213.536 106.738 215.421 103.721C219.144 97.7595 208.151 89.1553 199.85 83.2481C191.533 77.3319 190.002 99.2056 190.002 99.2056Z" fill="#FFB18D"/>
<path d="M199.849 83.2489C191.533 77.3316 190.002 99.2053 190.002 99.2053C192.689 100.648 198.017 103.224 203.169 104.74C203.169 104.74 197.646 97.1519 197.94 94.7976C198.234 92.4434 199.849 83.2489 199.849 83.2489Z" fill="#E3854D"/>
<path d="M120.942 95.2056C115.279 98.5144 108.546 109.317 108.108 112.482C107.67 115.647 113.681 118.814 132.561 111.249L120.942 95.2056Z" fill="#FFB18D"/>
<path d="M170.295 191.961C168.373 193.106 166.038 194.208 163.477 195.254C150.346 200.612 131.276 204.434 131.276 204.434L130.26 201.9C130.26 201.9 143.063 184.361 154.037 182.022C165.011 179.683 170.295 191.961 170.295 191.961Z" fill="#E3854D"/>
<path d="M163.477 195.254C150.346 200.611 131.276 204.433 131.276 204.433L130.26 201.9C130.26 201.9 143.063 184.361 154.037 182.021L163.477 195.254Z" fill="#CAC2BF"/>
<path d="M189.509 136.349C189.509 136.349 197.865 158.543 193.503 169.635C192.636 171.841 178.696 160.111 178.696 160.111L180.929 145.126L189.509 136.349Z" fill="#FF7754"/>
<path d="M187.684 142.195L181.55 146.613L179.317 161.597C180.91 163.358 192.965 167.45 194.53 169.336C194.53 169.336 194.743 165.972 194.197 161.26C193.767 157.554 187.684 142.195 187.684 142.195Z" fill="#C15545"/>
<path d="M165.065 178.599C172.32 186.988 188.701 204.306 206.501 193.475L193.296 167.027L165.065 178.599Z" fill="#FFB18D"/>
<path d="M175.067 74.0737C184.123 75.4052 194.798 80.4713 199.631 83.1456C199.631 83.1456 201.537 92.0336 192.429 100.411L183.359 98.7059L175.067 74.0737Z" fill="#ECE9E8"/>
<path d="M175.067 74.0737L183.359 98.7059L189.286 99.8205C189.286 99.8205 189.678 96.2108 187.861 88.7451C186.635 83.7018 175.067 74.0737 175.067 74.0737Z" fill="#CAC2BF"/>
<path d="M149.823 142.943C149.933 152.315 149.659 169.58 160.749 181.545L195.646 171.444C193.523 165.99 186.529 153.834 184.232 150.111C185.734 148.98 187.405 147.278 189.279 145.233C191.759 142.526 190.479 139.975 190.131 137.835L149.823 142.943Z" fill="#FF7754"/>
<path d="M134.001 85.6851C132.83 82.2604 169.039 74.5984 175.067 74.0728C181.094 73.5472 190.953 103.157 190.131 137.835C190.131 137.835 182.972 142.417 149.823 142.942C149.823 142.942 148.823 135.356 144.409 119.197C142.044 110.54 138.699 99.4201 134.001 85.6851Z" fill="#ECE9E8"/>
<path d="M144.408 119.198C142.042 110.54 138.697 99.4189 134.001 85.6851C134.001 85.6851 141.148 89.4911 146.857 96.2099C152.567 102.93 144.408 119.198 144.408 119.198Z" fill="#CAC2BF"/>
<path d="M137.664 83.0234C131.135 85.1575 120.443 95.4099 120.443 95.4099C120.443 95.4099 118.373 110.624 130.1 112.608L146.311 105.662C151.53 103.676 150.304 95.9422 148.155 91.2326C145.21 84.7761 138.396 83.1824 137.664 83.0234Z" fill="#ECE9E8"/>
<path d="M202.532 186.527C202.532 186.527 192.523 194.259 194.192 202.79C194.616 204.959 195.22 207.191 196.37 209.456C198.15 212.964 201.236 216.555 206.981 220.12C215.442 225.37 229.07 228.663 229.07 228.663L232.004 227.319L211.867 200.227L202.532 186.527Z" fill="#FFB18D"/>
<path d="M211.868 200.228L232.005 227.32L229.072 228.664C229.072 228.664 215.443 225.371 206.982 220.121C201.237 216.557 198.151 212.966 196.371 209.457L211.868 200.228Z" fill="#ECE9E8"/>
<path d="M111.544 106.861C104.274 111.808 99.0506 138.611 99.4513 144.282L103.408 145.669C103.408 145.669 120.947 126.875 121.28 113.593C121.468 106.039 111.544 106.861 111.544 106.861Z" fill="#FFB18D"/>
<path d="M214.65 97.898C207.882 93.6436 187.714 102.399 177.571 114.722L178.385 117.499C178.385 117.499 187.89 117.935 201.947 113.429C216.004 108.922 218.788 100.5 214.65 97.898Z" fill="#FFB18D"/>
<path d="M150.207 79.5181C149.838 79.3671 147.368 67.7662 143.325 59.0927C139.891 51.7281 152.228 41.0353 160.303 50.3262C168.377 59.6172 169.704 69.7561 163.514 72.3373L164.389 75.4555C164.389 75.4555 172.976 79.6384 168.703 81.0244C168.562 81.0709 158.868 83.0733 150.207 79.5181Z" fill="#FFB18D"/>
<path d="M99.4518 144.281C99.4518 144.281 94.1519 148.066 93.3414 149.329C92.5309 150.593 93.8182 154.634 94.3256 155.799C94.8318 156.966 101.786 159.714 102.747 159.324C104.447 158.63 105.151 156.474 105.291 155.665C105.421 154.916 103.409 145.669 103.409 145.669L99.4518 144.281Z" fill="#FFB18D"/>
<path d="M177.571 114.722C177.571 114.722 169.092 113.574 166.274 114.587C163.455 115.601 158.874 120.5 158.698 121.683C158.522 122.866 162.398 124.893 165.745 124.724C168.425 124.589 174.729 121.345 174.729 121.345L178.383 117.5L177.571 114.722Z" fill="#FFB18D"/>
<path d="M198.29 212.295C198.29 213.206 198.527 214.116 199.713 214.116C200.9 214.116 213.951 202.966 213.951 202.966L198.29 212.295Z" fill="#FF7754"/>
<path d="M149.023 184.158C146.935 185.797 156.135 197.25 156.135 197.25C156.135 197.25 152.152 181.703 149.023 184.158Z" fill="#C15545"/>
<path d="M228.101 226.539C225.643 227.063 225.188 231.998 231.373 232.773C237.559 233.548 248.919 229.771 251.358 227.789C253.798 225.807 248.095 224.676 240.092 224.505C233.852 224.372 228.101 226.539 228.101 226.539Z" fill="#353A4B"/>
<path d="M200.655 192.36C202.499 190.914 205.826 188.35 205.826 188.35C205.826 188.35 206.315 189.606 204.71 191.064C203.506 192.16 200.655 192.36 200.655 192.36Z" fill="#E3854D"/>
<path d="M212.635 101.11C212.635 101.11 217.635 98.169 218.827 98.1724C220.019 98.1758 217.418 100.527 216.78 100.819C214.417 101.906 212.635 101.11 212.635 101.11Z" fill="#E3854D"/>
<path d="M113.158 108.277C111.756 107.493 107.683 108.264 107.215 110.728L113.158 108.277Z" fill="#E3854D"/>
<path d="M145.853 72.0015C147.452 75.0663 149.05 74.6826 149.848 72.7677C150.647 70.8527 148.25 64.3394 148.25 64.3394C150.647 60.5084 151.446 57.4436 148.25 55.1449C148.25 55.1449 156.203 52.9371 160.302 50.3264C166.709 46.2456 164.246 43.2035 158.492 43.1354C155.359 43.0979 149.7 44.8494 145.045 46.896C140.39 48.9427 136.704 53.9644 139.032 56.1961C139.032 56.1961 136.704 56.9396 137.481 59.3585C138.257 61.7775 145.853 72.0015 145.853 72.0015Z" fill="#7D4733"/>
<path d="M148.841 63.041C146.514 61.2963 144.815 60.4812 144.087 61.9932C143.36 63.5052 147.605 69.4374 150.88 67.5769C154.156 65.7153 148.841 63.041 148.841 63.041Z" fill="#FFB18D"/>
<path d="M145.9 107.703C145.9 107.703 150.867 120.257 154.479 140.387" stroke="#CAC2BF" stroke-width="0.663932" stroke-miterlimit="10" stroke-linecap="round" stroke-linejoin="round"/>
<path d="M139.128 84.542C146.351 86.4899 149.06 90.8192 149.737 95.1486C150.414 99.4779 149.285 102.292 149.285 102.292" stroke="#CAC2BF" stroke-width="0.663932" stroke-miterlimit="10" stroke-linecap="round" stroke-linejoin="round"/>
<path d="M154.847 144.682C154.847 144.682 154.545 164.765 168.305 181.609" stroke="#C15545" stroke-width="0.663932" stroke-miterlimit="10" stroke-linecap="round" stroke-linejoin="round"/>
<path d="M156.727 154.45C156.727 154.45 163.013 152.882 162.636 144.082" stroke="#C15545" stroke-width="0.663932" stroke-miterlimit="10" stroke-linecap="round" stroke-linejoin="round"/>
<path d="M280.403 84.054C278.51 84.054 276.97 82.5139 276.97 80.621C276.97 78.7281 278.51 77.188 280.403 77.188C282.296 77.188 283.836 78.7281 283.836 80.621C283.836 82.5139 282.296 84.054 280.403 84.054ZM280.403 77.7332C278.81 77.7332 277.514 79.029 277.514 80.6215C277.514 82.214 278.81 83.5093 280.403 83.5093C281.995 83.5093 283.29 82.2135 283.29 80.6215C283.291 79.0285 281.995 77.7332 280.403 77.7332Z" fill="#FF7754"/>
<path d="M530.129 40.9197C528.236 40.9197 526.696 39.3796 526.696 37.4867C526.696 35.5938 528.236 34.0537 530.129 34.0537C532.022 34.0537 533.562 35.5938 533.562 37.4867C533.562 39.3796 532.022 40.9197 530.129 40.9197ZM530.129 34.599C528.537 34.599 527.241 35.8948 527.241 37.4872C527.241 39.0797 528.537 40.375 530.129 40.375C531.722 40.375 533.017 39.0792 533.017 37.4872C533.018 35.8942 531.722 34.599 530.129 34.599Z" fill="#FF7754"/>
<path d="M222.512 6.86603C220.619 6.86603 219.079 5.32593 219.079 3.43301C219.079 1.5401 220.619 0 222.512 0C224.405 0 225.945 1.5401 225.945 3.43301C225.945 5.32593 224.405 6.86603 222.512 6.86603ZM222.512 0.545257C220.92 0.545257 219.624 1.84105 219.624 3.43354C219.624 5.02602 220.92 6.32129 222.512 6.32129C224.105 6.32129 225.4 5.02549 225.4 3.43354C225.4 1.84051 224.105 0.545257 222.512 0.545257Z" fill="#FF7754"/>
<path d="M72.6762 44.325C70.7833 44.325 69.2432 42.7849 69.2432 40.892C69.2432 38.9991 70.7833 37.459 72.6762 37.459C74.5691 37.459 76.1092 38.9991 76.1092 40.892C76.1092 42.7849 74.5691 44.325 72.6762 44.325ZM72.6762 38.0042C71.0837 38.0042 69.7879 39.3 69.7879 40.8925C69.7879 42.485 71.0837 43.7803 72.6762 43.7803C74.2687 43.7803 75.5639 42.4845 75.5639 40.8925C75.5645 39.2995 74.2687 38.0042 72.6762 38.0042Z" fill="#FF7754"/>
<path d="M3.43301 175.999C1.5401 175.999 0 174.459 0 172.566C0 170.673 1.5401 169.133 3.43301 169.133C5.32593 169.133 6.86603 170.673 6.86603 172.566C6.86603 174.459 5.32593 175.999 3.43301 175.999ZM3.43301 169.678C1.84053 169.678 0.544727 170.974 0.544727 172.566C0.544727 174.159 1.84053 175.454 3.43301 175.454C5.0255 175.454 6.32077 174.158 6.32077 172.566C6.32131 170.973 5.0255 169.678 3.43301 169.678Z" fill="#FF7754"/>
<path d="M553.967 185.08C552.074 185.08 550.534 183.54 550.534 181.647C550.534 179.754 552.074 178.214 553.967 178.214C555.86 178.214 557.4 179.754 557.4 181.647C557.4 183.54 555.86 185.08 553.967 185.08ZM553.967 178.759C552.375 178.759 551.079 180.055 551.079 181.647C551.079 183.24 552.375 184.535 553.967 184.535C555.56 184.535 556.855 183.239 556.855 181.647C556.855 180.054 555.56 178.759 553.967 178.759Z" fill="#FF7754"/>
</mask>
<g mask="url(#mask0_15419_503)">
<path d="M363.336 94.6978C362.152 98.5277 360.97 110.274 360.866 113.607C359.195 113.697 357.477 113.932 355.781 114.385C346.912 116.747 330.324 129.033 331.802 130.923C333.279 132.813 352.168 128.245 358.573 126.041C363.629 124.301 369.061 120.796 372.18 117.77C375.656 114.798 377.988 108.824 379.104 103.833C380.581 97.2177 363.336 94.6978 363.336 94.6978Z" fill="#BA7B1F"/>
<path d="M372.18 117.769C375.655 114.797 377.988 108.823 379.104 103.832C380.582 97.2177 363.337 94.6978 363.337 94.6978C363.337 94.6978 370.342 98.9181 372.032 100.842C374.124 103.225 375.937 104.762 375.937 104.762L372.18 117.769Z" fill="#E3854D"/>
<path d="M400.24 171.325C401.104 176.304 402.836 187.922 405.605 187.589C408.375 187.258 408.547 167.342 407.682 165.35C406.818 163.359 402.317 163.856 400.933 166.014C399.549 168.172 400.24 171.325 400.24 171.325Z" fill="#353A4B"/>
<path d="M373.24 221.612C368.2 224.512 357.572 231.721 360.336 234.638C363.1 237.554 379.023 228.841 380.681 224.599C382.339 220.358 377.387 219.226 373.24 221.612Z" fill="#353A4B"/>
<path d="M361.523 173.284C368.695 174.811 373.471 154.181 373.471 154.181C373.471 154.181 400.091 164.372 401.941 167.344C403.79 170.316 405.638 171.545 397.654 172.841C389.671 174.138 383.189 173.571 378.9 173.844C374.611 174.117 361.523 173.284 361.523 173.284Z" fill="#CAC2BF"/>
<path d="M342.946 165.286C344.303 167.77 354.685 172.154 361.523 173.284C368.761 174.481 373.47 154.181 373.47 154.181C373.47 154.181 364.825 148.783 360.911 149.896C356.998 151.01 342.946 165.286 342.946 165.286Z" fill="#E3854D"/>
<path d="M358.077 143.658C353.722 144.994 344.49 150.841 340.657 158.358C338.294 162.992 340.989 165.64 347.277 167.545C353.896 169.55 367.891 163.864 375.556 156.848C383.22 149.833 358.077 143.658 358.077 143.658Z" fill="#BA7B1F"/>
<path d="M355.948 144.011C355.991 147.03 365.841 157.456 368.035 158.859C370.229 160.262 370.595 161.139 370.595 161.139L375.554 156.849L355.948 144.011Z" fill="#E3854D"/>
<path d="M355.948 144.011C357.181 149.752 367.512 157.441 375.948 160.018L396.083 132.205C396.083 132.205 392.387 132.138 385.062 133.179C370.745 135.214 355.948 144.011 355.948 144.011Z" fill="#BA7B1F"/>
<path d="M365.089 154.56C368.496 156.935 372.39 158.931 375.948 160.017L396.083 132.205C396.083 132.205 381.949 140.956 373.639 147.753C369.332 151.276 364.641 154.247 365.089 154.56Z" fill="#BA7B1F"/>
<path d="M363.337 94.6977L377.782 100.715L372.469 76.395C372.469 76.395 367.627 80.8254 365.464 86.3546C364.013 90.0607 363.337 94.6977 363.337 94.6977Z" fill="#ECE9E8"/>
<path d="M374.517 76.0327C371.204 81.5051 371.572 98.2743 371.572 98.2743L378.935 101.451L374.517 76.0327Z" fill="#CAC2BF"/>
<path d="M333.103 129.057C329.801 127.79 328.619 126.383 326.477 127.069C324.067 127.84 319.509 128.12 320.169 133.346C320.83 138.571 321.491 140.314 324.462 139.364C327.434 138.413 336.405 131.275 335.744 130.166C335.084 129.058 335.084 129.058 335.084 129.058H333.103V129.057Z" fill="#BA7B1F"/>
<path d="M370.535 78.4801L385.027 133.373C385.027 133.373 389.883 133.547 403.384 131.058C415.945 128.742 419.399 125.491 419.399 125.491C419.399 125.491 410.389 63.425 405.318 62.0356C400.245 60.6462 380.439 70.3742 375.126 74.0793C372.623 75.8239 370.535 78.4801 370.535 78.4801Z" fill="#ECE9E8"/>
<path d="M402.04 76.2168C400.442 81.0717 409.367 87.2184 413.097 89.0073L411.386 77.7617L402.04 76.2168Z" fill="#CAC2BF"/>
<path d="M376.968 66.4502L380.088 72.5923C380.088 72.5923 376.645 76.5834 380.751 77.529C384.857 78.4734 393.884 64.8758 393.884 64.8758L387.807 57.0015L376.968 66.4502Z" fill="#BA7B1F"/>
<path d="M387.808 57.0005L376.968 66.4504L380.088 72.5925L382.1 68.2405L387.808 57.0005Z" fill="#E3854D"/>
<path d="M420.429 84.9151C428.402 87.3578 441.281 92.299 443.157 92.4931C446.59 92.8484 445.837 86.1228 443.157 81.4688C441.593 78.7525 434.168 71.7023 429.57 69.9701C424.971 68.2367 420.429 84.9151 420.429 84.9151Z" fill="#BA7B1F"/>
<path d="M442.665 84.933C441.575 84.8059 438.496 85.9308 437.081 88.2408C434.467 92.5066 433.41 102.576 433.304 108.401C433.139 117.378 432.811 122.418 434.946 123.52C437.081 124.623 440.202 118.48 441.844 113.598C443.487 108.716 449.399 85.7197 442.665 84.933Z" fill="#BA7B1F"/>
<path d="M435.275 120.055C431.662 121.945 426.899 126.355 426.57 130.293C426.241 134.231 427.884 134.073 429.525 135.017C431.168 135.962 435.109 138.009 436.423 136.119C437.738 134.229 440.037 130.607 439.873 127.457C439.709 124.307 438.395 120.37 438.395 120.37L435.275 120.055Z" fill="#BA7B1F"/>
<path d="M373.928 161.698C370.618 168.046 361.936 183.306 362.981 184.809C364.027 186.312 380.242 189.209 392.742 174.225C398.315 167.545 373.928 161.698 373.928 161.698Z" fill="#BA7B1F"/>
<path d="M362.981 184.81C362.7 185.817 364.783 191.984 365.47 194.91C366.492 199.261 368.219 204.81 369.574 208.804C371.838 215.486 373.929 224.34 376.367 224.172C378.806 224.004 383.858 211.476 383.858 201.454C383.858 197.343 382.891 193.681 381.75 190.792C380.11 186.639 378.11 184.083 378.11 184.083L362.981 184.81Z" fill="#BA7B1F"/>
<path d="M381.75 190.792C382.89 193.681 383.858 197.343 383.858 201.454C383.858 211.476 378.806 224.004 376.367 224.171C373.928 224.338 371.838 215.485 369.573 208.804C368.219 204.808 366.491 199.261 365.47 194.91L381.75 190.792Z" fill="#ECE9E8"/>
<path d="M371.167 158.949C371.338 161.081 383.995 171.086 394.599 172.233C394.599 172.233 411.617 158.663 418 147.899C426.317 133.873 419.399 125.49 419.399 125.49L385.37 133.545L390.192 138.684L371.167 158.949Z" fill="#BA7B1F"/>
<path d="M410.837 62.7833C408.59 62.0648 405.292 61.7776 403.794 62.6392C402.295 63.5019 394.364 74.2946 405.292 80.4594C407.839 81.8965 421.628 85.4892 421.628 85.4892C421.628 85.4892 431.819 77.8725 430.169 70.8314C429.349 67.3261 410.837 62.7833 410.837 62.7833Z" fill="#ECE9E8"/>
<path d="M366.258 197.428C365.51 197.873 365.853 200.545 366.986 200.249C368.486 199.855 382.897 195.284 382.897 194.581C382.897 193.879 366.258 197.428 366.258 197.428Z" fill="#BA7B1F"/>
<path d="M377.954 67.8682C376.476 68.656 374.834 69.1282 372.041 68.4982C369.249 67.8682 366.128 64.7182 366.95 54.7961C367.771 44.874 369.413 43.9285 377.626 43.7718C385.839 43.6141 387.48 47.394 388.302 54.6395C389.123 61.8827 377.954 67.8682 377.954 67.8682Z" fill="#BA7B1F"/>
<path d="M374.109 39.8687C385.677 40.1412 390.077 42.2116 390.795 47.4877C391.512 52.7637 387.402 62.6892 385.01 62.2295C382.618 61.7697 380.124 50.439 380.124 50.439C380.124 50.439 373.571 49.322 368.071 49.0927C362.57 48.8634 360.288 43.5091 364.018 40.9267C366.409 39.2717 370.658 39.787 374.109 39.8687Z" fill="#7D4733"/>
<path d="M379.562 54.2064C380.404 50.977 384.613 47.2095 385.735 50.1699C386.858 53.1303 382.087 57.9739 381.245 57.7048C380.404 57.4358 379.562 54.2064 379.562 54.2064Z" fill="#BA7B1F"/>
<path d="M388.953 172.318C388.953 172.318 421.48 148.212 414.937 129.389" stroke="#BA7B1F" stroke-width="0.611489" stroke-miterlimit="10" stroke-linecap="round" stroke-linejoin="round"/>
<path d="M406.813 130.255C406.813 131.337 407.49 138.909 414.935 139.342" stroke="#BA7B1F" stroke-width="0.611489" stroke-miterlimit="10" stroke-linecap="round" stroke-linejoin="round"/>
<path d="M339.008 162.73C341.301 164.929 343.746 166.688 345.58 165.809C347.414 164.93 339.008 162.73 339.008 162.73Z" fill="#E3854D"/>
<path d="M360.865 183.691C362.241 185.89 364.686 186.769 366.674 185.597C368.66 184.423 360.865 183.691 360.865 183.691Z" fill="#E3854D"/>
<path d="M442.03 87.6896C442.03 87.0449 445.85 83.207 445.85 83.207C445.85 83.207 445.951 84.2207 444.949 85.5454C443.871 86.9677 442.03 87.6896 442.03 87.6896Z" fill="#E3854D"/>
<path d="M366.734 117.455C366.734 117.455 368.082 120.038 371.225 118.962L366.734 117.455Z" fill="#E3854D"/>
<path d="M405.777 83.0024C405.777 83.0024 411.924 111.631 413.68 120.473" stroke="#CAC2BF" stroke-width="0.611489" stroke-miterlimit="10" stroke-linecap="round" stroke-linejoin="round"/>
<path d="M402.019 63.896C399.264 66.3342 396.297 73.8544 402.443 78.3256" stroke="#CAC2BF" stroke-width="0.611489" stroke-miterlimit="10" stroke-linecap="round" stroke-linejoin="round"/>
<path d="M393.966 67.5549C393.966 67.5549 396.721 66.7421 399.476 67.758" stroke="#CAC2BF" stroke-width="0.611489" stroke-miterlimit="10" stroke-linecap="round" stroke-linejoin="round"/>
<path d="M239.352 200.776C241.007 201.517 242.848 201.925 244.799 201.803C244.799 201.803 244.36 200.205 246.19 198.12C247.827 196.255 249.754 196.601 251.89 198.726C253.215 197.484 254.222 195.958 254.78 194.231C252.317 193.367 250.791 192.196 250.661 190.918C250.553 189.86 252.343 187.236 253.642 185.487C252.038 182.957 249.41 181.143 246.326 180.535C244.88 183.018 243.022 184.429 240.813 183.641C239.876 183.308 239.108 182.555 238.5 181.734C236.281 182.958 234.556 184.863 233.625 187.154C235.114 189.075 235.849 191.565 233.198 193.711C233.47 194.736 233.918 195.678 234.467 196.558C234.818 196.505 235.182 196.469 235.568 196.487C237.725 196.576 238.542 197.132 239.352 200.776ZM237.475 190.142C237.61 189.591 240.571 186.528 241.863 186.785C244.753 187.358 246.774 189.599 246.505 190.702C246.236 191.804 244.989 194.568 243.991 194.856C242.993 195.145 240.693 194.628 239.397 194.097C238.101 193.566 237.341 190.693 237.475 190.142Z" fill="#ECE9E8"/>
<path d="M244.799 201.805C244.799 201.805 246.117 201.556 247.672 201.216C246.757 201.513 245.808 201.743 244.799 201.805Z" fill="#ECE9E8"/>
<path d="M240.812 183.641C239.876 183.308 239.107 182.555 238.5 181.734C239.944 180.938 241.572 180.404 243.346 180.294C244.374 180.23 245.363 180.345 246.326 180.535C244.879 183.018 243.021 184.429 240.812 183.641Z" fill="#353A4B"/>
<path d="M234.466 196.557C234.817 196.503 235.181 196.468 235.567 196.485C237.725 196.576 238.541 197.132 239.35 200.777C237.317 199.867 235.621 198.405 234.466 196.557Z" fill="#353A4B"/>
<path d="M233.197 193.71C233.029 193.075 232.902 192.423 232.856 191.745C232.745 190.122 233.045 188.575 233.623 187.152C235.113 189.075 235.848 191.565 233.197 193.71Z" fill="#353A4B"/>
<path d="M250.662 190.917C250.554 189.859 252.344 187.236 253.643 185.487C254.553 186.924 255.167 188.558 255.289 190.353C255.381 191.707 255.177 193.008 254.781 194.232C252.317 193.368 250.792 192.195 250.662 190.917Z" fill="#353A4B"/>
<path d="M246.189 198.121C247.825 196.256 249.753 196.602 251.889 198.727C250.708 199.835 249.281 200.692 247.67 201.217C246.115 201.557 244.797 201.806 244.797 201.806C244.797 201.806 244.359 200.206 246.189 198.121Z" fill="#353A4B"/>
<path d="M237.474 190.142C237.609 189.591 240.57 186.528 241.861 186.785C244.751 187.358 246.773 189.599 246.504 190.702C246.235 191.804 244.988 194.568 243.99 194.857C242.992 195.145 240.692 194.628 239.396 194.097C238.1 193.566 237.34 190.693 237.474 190.142Z" fill="#353A4B"/>
<path d="M132.021 200.852C128.784 200.601 126.705 199.531 124.934 202.174C123.163 204.816 116.198 222.639 118.758 223.393C121.318 224.148 131.43 204.816 131.824 203.495C131.824 203.495 133.219 200.945 132.021 200.852Z" fill="#353A4B"/>
<path d="M170.297 191.961C170.297 191.961 191.121 182.57 192.695 177.708C194.268 172.846 189.723 164.967 183.079 162.62C176.435 160.273 160.79 174.517 161.575 185.084C161.83 188.495 170.297 191.961 170.297 191.961Z" fill="#E3854D"/>
<path d="M190.002 99.2056C192.689 100.648 198.017 103.224 203.169 104.74C208.445 106.293 213.536 106.738 215.421 103.721C219.144 97.7595 208.151 89.1553 199.85 83.2481C191.533 77.3319 190.002 99.2056 190.002 99.2056Z" fill="#BA7B1F"/>
<path d="M199.849 83.2489C191.533 77.3316 190.002 99.2053 190.002 99.2053C192.689 100.648 198.017 103.224 203.169 104.74C203.169 104.74 197.646 97.1519 197.94 94.7976C198.234 92.4434 199.849 83.2489 199.849 83.2489Z" fill="#E3854D"/>
<path d="M120.942 95.2056C115.279 98.5144 108.546 109.317 108.108 112.482C107.67 115.647 113.681 118.814 132.561 111.249L120.942 95.2056Z" fill="#BA7B1F"/>
<path d="M170.295 191.961C168.373 193.106 166.038 194.208 163.477 195.254C150.346 200.612 131.276 204.434 131.276 204.434L130.26 201.9C130.26 201.9 143.063 184.361 154.037 182.022C165.011 179.683 170.295 191.961 170.295 191.961Z" fill="#E3854D"/>
<path d="M163.477 195.254C150.346 200.611 131.276 204.433 131.276 204.433L130.26 201.9C130.26 201.9 143.063 184.361 154.037 182.021L163.477 195.254Z" fill="#CAC2BF"/>
<path d="M189.509 136.349C189.509 136.349 197.865 158.543 193.503 169.635C192.636 171.841 178.696 160.111 178.696 160.111L180.929 145.126L189.509 136.349Z" fill="#BA7B1F"/>
<path d="M187.684 142.195L181.55 146.613L179.317 161.597C180.91 163.358 192.965 167.45 194.53 169.336C194.53 169.336 194.743 165.972 194.197 161.26C193.767 157.554 187.684 142.195 187.684 142.195Z" fill="#BA7B1F"/>
<path d="M165.065 178.599C172.32 186.988 188.701 204.306 206.501 193.475L193.296 167.027L165.065 178.599Z" fill="#BA7B1F"/>
<path d="M175.067 74.0737C184.123 75.4052 194.798 80.4713 199.631 83.1456C199.631 83.1456 201.537 92.0336 192.429 100.411L183.359 98.7059L175.067 74.0737Z" fill="#ECE9E8"/>
<path d="M175.067 74.0737L183.359 98.7059L189.286 99.8205C189.286 99.8205 189.678 96.2108 187.861 88.7451C186.635 83.7018 175.067 74.0737 175.067 74.0737Z" fill="#CAC2BF"/>
<path d="M149.823 142.943C149.933 152.315 149.659 169.58 160.749 181.545L195.646 171.444C193.523 165.99 186.529 153.834 184.232 150.111C185.734 148.98 187.405 147.278 189.279 145.233C191.759 142.526 190.479 139.975 190.131 137.835L149.823 142.943Z" fill="#BA7B1F"/>
<path d="M134.001 85.6851C132.83 82.2604 169.039 74.5984 175.067 74.0728C181.094 73.5472 190.953 103.157 190.131 137.835C190.131 137.835 182.972 142.417 149.823 142.942C149.823 142.942 148.823 135.356 144.409 119.197C142.044 110.54 138.699 99.4201 134.001 85.6851Z" fill="#ECE9E8"/>
<path d="M144.408 119.198C142.042 110.54 138.697 99.4189 134.001 85.6851C134.001 85.6851 141.148 89.4911 146.857 96.2099C152.567 102.93 144.408 119.198 144.408 119.198Z" fill="#CAC2BF"/>
<path d="M137.664 83.0234C131.135 85.1575 120.443 95.4099 120.443 95.4099C120.443 95.4099 118.373 110.624 130.1 112.608L146.311 105.662C151.53 103.676 150.304 95.9422 148.155 91.2326C145.21 84.7761 138.396 83.1824 137.664 83.0234Z" fill="#ECE9E8"/>
<path d="M202.532 186.527C202.532 186.527 192.523 194.259 194.192 202.79C194.616 204.959 195.22 207.191 196.37 209.456C198.15 212.964 201.236 216.555 206.981 220.12C215.442 225.37 229.07 228.663 229.07 228.663L232.004 227.319L211.867 200.227L202.532 186.527Z" fill="#BA7B1F"/>
<path d="M211.868 200.228L232.005 227.32L229.072 228.664C229.072 228.664 215.443 225.371 206.982 220.121C201.237 216.557 198.151 212.966 196.371 209.457L211.868 200.228Z" fill="#ECE9E8"/>
<path d="M111.544 106.861C104.274 111.808 99.0506 138.611 99.4513 144.282L103.408 145.669C103.408 145.669 120.947 126.875 121.28 113.593C121.468 106.039 111.544 106.861 111.544 106.861Z" fill="#BA7B1F"/>
<path d="M214.65 97.898C207.882 93.6436 187.714 102.399 177.571 114.722L178.385 117.499C178.385 117.499 187.89 117.935 201.947 113.429C216.004 108.922 218.788 100.5 214.65 97.898Z" fill="#BA7B1F"/>
<path d="M150.207 79.5181C149.838 79.3671 147.368 67.7662 143.325 59.0927C139.891 51.7281 152.228 41.0353 160.303 50.3262C168.377 59.6172 169.704 69.7561 163.514 72.3373L164.389 75.4555C164.389 75.4555 172.976 79.6384 168.703 81.0244C168.562 81.0709 158.868 83.0733 150.207 79.5181Z" fill="#BA7B1F"/>
<path d="M99.4518 144.281C99.4518 144.281 94.1519 148.066 93.3414 149.329C92.5309 150.593 93.8182 154.634 94.3256 155.799C94.8318 156.966 101.786 159.714 102.747 159.324C104.447 158.63 105.151 156.474 105.291 155.665C105.421 154.916 103.409 145.669 103.409 145.669L99.4518 144.281Z" fill="#BA7B1F"/>
<path d="M177.571 114.722C177.571 114.722 169.092 113.574 166.274 114.587C163.455 115.601 158.874 120.5 158.698 121.683C158.522 122.866 162.398 124.893 165.745 124.724C168.425 124.589 174.729 121.345 174.729 121.345L178.383 117.5L177.571 114.722Z" fill="#BA7B1F"/>
<path d="M198.29 212.295C198.29 213.206 198.527 214.116 199.713 214.116C200.9 214.116 213.951 202.966 213.951 202.966L198.29 212.295Z" fill="#BA7B1F"/>
<path d="M149.023 184.158C146.935 185.797 156.135 197.25 156.135 197.25C156.135 197.25 152.152 181.703 149.023 184.158Z" fill="#BA7B1F"/>
<path d="M228.101 226.539C225.643 227.063 225.188 231.998 231.373 232.773C237.559 233.548 248.919 229.771 251.358 227.789C253.798 225.807 248.095 224.676 240.092 224.505C233.852 224.372 228.101 226.539 228.101 226.539Z" fill="#353A4B"/>
<path d="M200.655 192.36C202.499 190.914 205.826 188.35 205.826 188.35C205.826 188.35 206.315 189.606 204.71 191.064C203.506 192.16 200.655 192.36 200.655 192.36Z" fill="#E3854D"/>
<path d="M212.635 101.11C212.635 101.11 217.635 98.169 218.827 98.1724C220.019 98.1758 217.418 100.527 216.78 100.819C214.417 101.906 212.635 101.11 212.635 101.11Z" fill="#E3854D"/>
<path d="M113.158 108.277C111.756 107.493 107.683 108.264 107.215 110.728L113.158 108.277Z" fill="#E3854D"/>
<path d="M145.853 72.0015C147.452 75.0663 149.05 74.6826 149.848 72.7677C150.647 70.8527 148.25 64.3394 148.25 64.3394C150.647 60.5084 151.446 57.4436 148.25 55.1449C148.25 55.1449 156.203 52.9371 160.302 50.3264C166.709 46.2456 164.246 43.2035 158.492 43.1354C155.359 43.0979 149.7 44.8494 145.045 46.896C140.39 48.9427 136.704 53.9644 139.032 56.1961C139.032 56.1961 136.704 56.9396 137.481 59.3585C138.257 61.7775 145.853 72.0015 145.853 72.0015Z" fill="#7D4733"/>
<path d="M148.841 63.041C146.514 61.2963 144.815 60.4812 144.087 61.9932C143.36 63.5052 147.605 69.4374 150.88 67.5769C154.156 65.7153 148.841 63.041 148.841 63.041Z" fill="#BA7B1F"/>
<path d="M145.9 107.703C145.9 107.703 150.867 120.257 154.479 140.387" stroke="#CAC2BF" stroke-width="0.663932" stroke-miterlimit="10" stroke-linecap="round" stroke-linejoin="round"/>
<path d="M139.128 84.542C146.351 86.4899 149.06 90.8192 149.737 95.1486C150.414 99.4779 149.285 102.292 149.285 102.292" stroke="#CAC2BF" stroke-width="0.663932" stroke-miterlimit="10" stroke-linecap="round" stroke-linejoin="round"/>
<path d="M154.847 144.682C154.847 144.682 154.545 164.765 168.305 181.609" stroke="#BA7B1F" stroke-width="0.663932" stroke-miterlimit="10" stroke-linecap="round" stroke-linejoin="round"/>
<path d="M156.727 154.45C156.727 154.45 163.013 152.882 162.636 144.082" stroke="#BA7B1F" stroke-width="0.663932" stroke-miterlimit="10" stroke-linecap="round" stroke-linejoin="round"/>
<path d="M280.403 84.054C278.51 84.054 276.97 82.5139 276.97 80.621C276.97 78.7281 278.51 77.188 280.403 77.188C282.296 77.188 283.836 78.7281 283.836 80.621C283.836 82.5139 282.296 84.054 280.403 84.054ZM280.403 77.7332C278.81 77.7332 277.514 79.029 277.514 80.6215C277.514 82.214 278.81 83.5093 280.403 83.5093C281.995 83.5093 283.29 82.2135 283.29 80.6215C283.291 79.0285 281.995 77.7332 280.403 77.7332Z" fill="#BA7B1F"/>
<path d="M530.129 40.9197C528.236 40.9197 526.696 39.3796 526.696 37.4867C526.696 35.5938 528.236 34.0537 530.129 34.0537C532.022 34.0537 533.562 35.5938 533.562 37.4867C533.562 39.3796 532.022 40.9197 530.129 40.9197ZM530.129 34.599C528.537 34.599 527.241 35.8948 527.241 37.4872C527.241 39.0797 528.537 40.375 530.129 40.375C531.722 40.375 533.017 39.0792 533.017 37.4872C533.018 35.8942 531.722 34.599 530.129 34.599Z" fill="#BA7B1F"/>
<path d="M222.512 6.86603C220.619 6.86603 219.079 5.32593 219.079 3.43301C219.079 1.5401 220.619 0 222.512 0C224.405 0 225.945 1.5401 225.945 3.43301C225.945 5.32593 224.405 6.86603 222.512 6.86603ZM222.512 0.545257C220.92 0.545257 219.624 1.84105 219.624 3.43354C219.624 5.02602 220.92 6.32129 222.512 6.32129C224.105 6.32129 225.4 5.02549 225.4 3.43354C225.4 1.84051 224.105 0.545257 222.512 0.545257Z" fill="#BA7B1F"/>
<path d="M72.6762 44.325C70.7833 44.325 69.2432 42.7849 69.2432 40.892C69.2432 38.9991 70.7833 37.459 72.6762 37.459C74.5691 37.459 76.1092 38.9991 76.1092 40.892C76.1092 42.7849 74.5691 44.325 72.6762 44.325ZM72.6762 38.0042C71.0837 38.0042 69.7879 39.3 69.7879 40.8925C69.7879 42.485 71.0837 43.7803 72.6762 43.7803C74.2687 43.7803 75.5639 42.4845 75.5639 40.8925C75.5645 39.2995 74.2687 38.0042 72.6762 38.0042Z" fill="#BA7B1F"/>
<path d="M3.43301 175.999C1.5401 175.999 0 174.459 0 172.566C0 170.673 1.5401 169.133 3.43301 169.133C5.32593 169.133 6.86603 170.673 6.86603 172.566C6.86603 174.459 5.32593 175.999 3.43301 175.999ZM3.43301 169.678C1.84053 169.678 0.544727 170.974 0.544727 172.566C0.544727 174.159 1.84053 175.454 3.43301 175.454C5.0255 175.454 6.32077 174.158 6.32077 172.566C6.32131 170.973 5.0255 169.678 3.43301 169.678Z" fill="#BA7B1F"/>
<path d="M553.967 185.08C552.074 185.08 550.534 183.54 550.534 181.647C550.534 179.754 552.074 178.214 553.967 178.214C555.86 178.214 557.4 179.754 557.4 181.647C557.4 183.54 555.86 185.08 553.967 185.08ZM553.967 178.759C552.375 178.759 551.079 180.055 551.079 181.647C551.079 183.24 552.375 184.535 553.967 184.535C555.56 184.535 556.855 183.239 556.855 181.647C556.855 180.054 555.56 178.759 553.967 178.759Z" fill="#BA7B1F"/>
<g style="mix-blend-mode:color">
<path d="M363.336 94.6978C362.152 98.5277 360.97 110.274 360.866 113.607C359.195 113.697 357.477 113.932 355.781 114.385C346.912 116.747 330.324 129.033 331.802 130.923C333.279 132.813 352.168 128.245 358.573 126.041C363.629 124.301 369.061 120.796 372.18 117.77C375.656 114.798 377.988 108.824 379.104 103.833C380.581 97.2177 363.336 94.6978 363.336 94.6978Z" fill="#C8D7F4"/>
<path d="M372.18 117.769C375.655 114.797 377.988 108.823 379.104 103.832C380.582 97.2177 363.337 94.6978 363.337 94.6978C363.337 94.6978 370.342 98.9181 372.032 100.842C374.124 103.225 375.937 104.762 375.937 104.762L372.18 117.769Z" fill="#C8D7F4"/>
<path d="M400.24 171.325C401.104 176.304 402.836 187.922 405.605 187.589C408.375 187.258 408.547 167.342 407.682 165.35C406.818 163.359 402.317 163.856 400.933 166.014C399.549 168.172 400.24 171.325 400.24 171.325Z" fill="#C8D7F4"/>
<path d="M373.24 221.612C368.2 224.512 357.572 231.721 360.336 234.638C363.1 237.554 379.023 228.841 380.681 224.599C382.339 220.358 377.387 219.226 373.24 221.612Z" fill="#C8D7F4"/>
<path d="M361.523 173.284C368.695 174.811 373.471 154.181 373.471 154.181C373.471 154.181 400.091 164.372 401.941 167.344C403.79 170.316 405.638 171.545 397.654 172.841C389.671 174.138 383.189 173.571 378.9 173.844C374.611 174.117 361.523 173.284 361.523 173.284Z" fill="#C8D7F4"/>
<path d="M342.946 165.286C344.303 167.77 354.685 172.154 361.523 173.284C368.761 174.481 373.47 154.181 373.47 154.181C373.47 154.181 364.825 148.783 360.911 149.896C356.998 151.01 342.946 165.286 342.946 165.286Z" fill="#C8D7F4"/>
<path d="M358.077 143.658C353.722 144.994 344.49 150.841 340.657 158.358C338.294 162.992 340.989 165.64 347.277 167.545C353.896 169.55 367.891 163.864 375.556 156.848C383.22 149.833 358.077 143.658 358.077 143.658Z" fill="#C8D7F4"/>
<path d="M355.948 144.011C355.991 147.03 365.841 157.456 368.035 158.859C370.229 160.262 370.595 161.139 370.595 161.139L375.554 156.849L355.948 144.011Z" fill="#C8D7F4"/>
<path d="M355.948 144.011C357.181 149.752 367.512 157.441 375.948 160.018L396.083 132.205C396.083 132.205 392.387 132.138 385.062 133.179C370.745 135.214 355.948 144.011 355.948 144.011Z" fill="#C8D7F4"/>
<path d="M365.089 154.56C368.496 156.935 372.39 158.931 375.948 160.017L396.083 132.205C396.083 132.205 381.949 140.956 373.639 147.753C369.332 151.276 364.641 154.247 365.089 154.56Z" fill="#C8D7F4"/>
<path d="M363.337 94.6977L377.782 100.715L372.469 76.395C372.469 76.395 367.627 80.8254 365.464 86.3546C364.013 90.0607 363.337 94.6977 363.337 94.6977Z" fill="#C8D7F4"/>
<path d="M374.517 76.0327C371.204 81.5051 371.572 98.2743 371.572 98.2743L378.935 101.451L374.517 76.0327Z" fill="#C8D7F4"/>
<path d="M333.103 129.057C329.801 127.79 328.619 126.383 326.477 127.069C324.067 127.84 319.509 128.12 320.169 133.346C320.83 138.571 321.491 140.314 324.462 139.364C327.434 138.413 336.405 131.275 335.744 130.166C335.084 129.058 335.084 129.058 335.084 129.058H333.103V129.057Z" fill="#C8D7F4"/>
<path d="M370.535 78.4801L385.027 133.373C385.027 133.373 389.883 133.547 403.384 131.058C415.945 128.742 419.399 125.491 419.399 125.491C419.399 125.491 410.389 63.425 405.318 62.0356C400.245 60.6462 380.439 70.3742 375.126 74.0793C372.623 75.8239 370.535 78.4801 370.535 78.4801Z" fill="#C8D7F4"/>
<path d="M402.04 76.2168C400.442 81.0717 409.367 87.2184 413.097 89.0073L411.386 77.7617L402.04 76.2168Z" fill="#C8D7F4"/>
<path d="M376.968 66.4502L380.088 72.5923C380.088 72.5923 376.645 76.5834 380.751 77.529C384.857 78.4734 393.884 64.8758 393.884 64.8758L387.807 57.0015L376.968 66.4502Z" fill="#C8D7F4"/>
<path d="M387.808 57.0005L376.968 66.4504L380.088 72.5925L382.1 68.2405L387.808 57.0005Z" fill="#C8D7F4"/>
<path d="M420.429 84.9151C428.402 87.3578 441.281 92.299 443.157 92.4931C446.59 92.8484 445.837 86.1228 443.157 81.4688C441.593 78.7525 434.168 71.7023 429.57 69.9701C424.971 68.2367 420.429 84.9151 420.429 84.9151Z" fill="#C8D7F4"/>
<path d="M442.665 84.933C441.575 84.8059 438.496 85.9308 437.081 88.2408C434.467 92.5066 433.41 102.576 433.304 108.401C433.139 117.378 432.811 122.418 434.946 123.52C437.081 124.623 440.202 118.48 441.844 113.598C443.487 108.716 449.399 85.7197 442.665 84.933Z" fill="#C8D7F4"/>
<path d="M435.275 120.055C431.662 121.945 426.899 126.355 426.57 130.293C426.241 134.231 427.884 134.073 429.525 135.017C431.168 135.962 435.109 138.009 436.423 136.119C437.738 134.229 440.037 130.607 439.873 127.457C439.709 124.307 438.395 120.37 438.395 120.37L435.275 120.055Z" fill="#C8D7F4"/>
<path d="M373.928 161.698C370.618 168.046 361.936 183.306 362.981 184.809C364.027 186.312 380.242 189.209 392.742 174.225C398.315 167.545 373.928 161.698 373.928 161.698Z" fill="#C8D7F4"/>
<path d="M362.981 184.81C362.7 185.817 364.783 191.984 365.47 194.91C366.492 199.261 368.219 204.81 369.574 208.804C371.838 215.486 373.929 224.34 376.367 224.172C378.806 224.004 383.858 211.476 383.858 201.454C383.858 197.343 382.891 193.681 381.75 190.792C380.11 186.639 378.11 184.083 378.11 184.083L362.981 184.81Z" fill="#C8D7F4"/>
<path d="M381.75 190.792C382.89 193.681 383.858 197.343 383.858 201.454C383.858 211.476 378.806 224.004 376.367 224.171C373.928 224.338 371.838 215.485 369.573 208.804C368.219 204.808 366.491 199.261 365.47 194.91L381.75 190.792Z" fill="#C8D7F4"/>
<path d="M371.167 158.949C371.338 161.081 383.995 171.086 394.599 172.233C394.599 172.233 411.617 158.663 418 147.899C426.317 133.873 419.399 125.49 419.399 125.49L385.37 133.545L390.192 138.684L371.167 158.949Z" fill="#C8D7F4"/>
<path d="M410.837 62.7833C408.59 62.0648 405.292 61.7776 403.794 62.6392C402.295 63.5019 394.364 74.2946 405.292 80.4594C407.839 81.8965 421.628 85.4892 421.628 85.4892C421.628 85.4892 431.819 77.8725 430.169 70.8314C429.349 67.3261 410.837 62.7833 410.837 62.7833Z" fill="#C8D7F4"/>
<path d="M366.258 197.428C365.51 197.873 365.853 200.545 366.986 200.249C368.486 199.855 382.897 195.284 382.897 194.581C382.897 193.879 366.258 197.428 366.258 197.428Z" fill="#C8D7F4"/>
<path d="M377.954 67.8682C376.476 68.656 374.834 69.1282 372.041 68.4982C369.249 67.8682 366.128 64.7182 366.95 54.7961C367.771 44.874 369.413 43.9285 377.626 43.7718C385.839 43.6141 387.48 47.394 388.302 54.6395C389.123 61.8827 377.954 67.8682 377.954 67.8682Z" fill="#C8D7F4"/>
<path d="M374.109 39.8687C385.677 40.1412 390.077 42.2116 390.795 47.4877C391.512 52.7637 387.402 62.6892 385.01 62.2295C382.618 61.7697 380.124 50.439 380.124 50.439C380.124 50.439 373.571 49.322 368.071 49.0927C362.57 48.8634 360.288 43.5091 364.018 40.9267C366.409 39.2717 370.658 39.787 374.109 39.8687Z" fill="#C8D7F4"/>
<path d="M379.562 54.2064C380.404 50.977 384.613 47.2095 385.735 50.1699C386.858 53.1303 382.087 57.9739 381.245 57.7048C380.404 57.4358 379.562 54.2064 379.562 54.2064Z" fill="#C8D7F4"/>
<path d="M388.953 172.318C388.953 172.318 421.48 148.212 414.937 129.389L388.953 172.318Z" fill="#C8D7F4"/>
<path d="M388.953 172.318C388.953 172.318 421.48 148.212 414.937 129.389" stroke="#54A2FE" stroke-width="0.611489" stroke-miterlimit="10" stroke-linecap="round" stroke-linejoin="round"/>
<path d="M406.813 130.255C406.813 131.337 407.49 138.909 414.935 139.342L406.813 130.255Z" fill="#C8D7F4"/>
<path d="M406.813 130.255C406.813 131.337 407.49 138.909 414.935 139.342" stroke="#54A2FE" stroke-width="0.611489" stroke-miterlimit="10" stroke-linecap="round" stroke-linejoin="round"/>
<path d="M339.008 162.73C341.301 164.929 343.746 166.688 345.58 165.809C347.414 164.93 339.008 162.73 339.008 162.73Z" fill="#C8D7F4"/>
<path d="M360.865 183.691C362.241 185.89 364.686 186.769 366.674 185.597C368.66 184.423 360.865 183.691 360.865 183.691Z" fill="#C8D7F4"/>
<path d="M442.03 87.6896C442.03 87.0449 445.85 83.207 445.85 83.207C445.85 83.207 445.951 84.2207 444.949 85.5454C443.871 86.9677 442.03 87.6896 442.03 87.6896Z" fill="#C8D7F4"/>
<path d="M366.734 117.455C366.734 117.455 368.082 120.038 371.225 118.962L366.734 117.455Z" fill="#C8D7F4"/>
<path d="M405.777 83.0024C405.777 83.0024 411.924 111.631 413.68 120.473L405.777 83.0024Z" fill="#C8D7F4"/>
<path d="M405.777 83.0024C405.777 83.0024 411.924 111.631 413.68 120.473" stroke="#CAC2BF" stroke-width="0.611489" stroke-miterlimit="10" stroke-linecap="round" stroke-linejoin="round"/>
<path d="M402.019 63.896C399.264 66.3342 396.297 73.8544 402.443 78.3256L402.019 63.896Z" fill="#C8D7F4"/>
<path d="M402.019 63.896C399.264 66.3342 396.297 73.8544 402.443 78.3256" stroke="#CAC2BF" stroke-width="0.611489" stroke-miterlimit="10" stroke-linecap="round" stroke-linejoin="round"/>
<path d="M393.966 67.5549C393.966 67.5549 396.721 66.7421 399.476 67.758L393.966 67.5549Z" fill="#C8D7F4"/>
<path d="M393.966 67.5549C393.966 67.5549 396.721 66.7421 399.476 67.758" stroke="#CAC2BF" stroke-width="0.611489" stroke-miterlimit="10" stroke-linecap="round" stroke-linejoin="round"/>
<path d="M239.352 200.776C241.007 201.517 242.848 201.925 244.799 201.803C244.799 201.803 244.36 200.205 246.19 198.12C247.827 196.255 249.754 196.601 251.89 198.726C253.215 197.484 254.222 195.958 254.78 194.231C252.317 193.367 250.791 192.196 250.661 190.918C250.553 189.86 252.343 187.236 253.642 185.487C252.038 182.957 249.41 181.143 246.326 180.535C244.88 183.018 243.022 184.429 240.813 183.641C239.876 183.308 239.108 182.555 238.5 181.734C236.281 182.958 234.556 184.863 233.625 187.154C235.114 189.075 235.849 191.565 233.198 193.711C233.47 194.736 233.918 195.678 234.467 196.558C234.818 196.505 235.182 196.469 235.568 196.487C237.725 196.576 238.542 197.132 239.352 200.776ZM237.475 190.142C237.61 189.591 240.571 186.528 241.863 186.785C244.753 187.358 246.774 189.599 246.505 190.702C246.236 191.804 244.989 194.568 243.991 194.856C242.993 195.145 240.693 194.628 239.397 194.097C238.101 193.566 237.341 190.693 237.475 190.142Z" fill="#C8D7F4"/>
<path d="M244.799 201.805C244.799 201.805 246.117 201.556 247.672 201.216C246.757 201.513 245.808 201.743 244.799 201.805Z" fill="#C8D7F4"/>
<path d="M240.812 183.641C239.876 183.308 239.107 182.555 238.5 181.734C239.944 180.938 241.572 180.404 243.346 180.294C244.374 180.23 245.363 180.345 246.326 180.535C244.879 183.018 243.021 184.429 240.812 183.641Z" fill="#C8D7F4"/>
<path d="M234.466 196.557C234.817 196.503 235.181 196.468 235.567 196.485C237.725 196.576 238.541 197.132 239.35 200.777C237.317 199.867 235.621 198.405 234.466 196.557Z" fill="#C8D7F4"/>
<path d="M233.197 193.71C233.029 193.075 232.902 192.423 232.856 191.745C232.745 190.122 233.045 188.575 233.623 187.152C235.113 189.075 235.848 191.565 233.197 193.71Z" fill="#C8D7F4"/>
<path d="M250.662 190.917C250.554 189.859 252.344 187.236 253.643 185.487C254.553 186.924 255.167 188.558 255.289 190.353C255.381 191.707 255.177 193.008 254.781 194.232C252.317 193.368 250.792 192.195 250.662 190.917Z" fill="#C8D7F4"/>
<path d="M246.189 198.121C247.825 196.256 249.753 196.602 251.889 198.727C250.708 199.835 249.281 200.692 247.67 201.217C246.115 201.557 244.797 201.806 244.797 201.806C244.797 201.806 244.359 200.206 246.189 198.121Z" fill="#C8D7F4"/>
<path d="M237.474 190.142C237.609 189.591 240.57 186.528 241.861 186.785C244.751 187.358 246.773 189.599 246.504 190.702C246.235 191.804 244.988 194.568 243.99 194.857C242.992 195.145 240.692 194.628 239.396 194.097C238.1 193.566 237.34 190.693 237.474 190.142Z" fill="#C8D7F4"/>
<path d="M132.021 200.852C128.784 200.601 126.705 199.531 124.934 202.174C123.163 204.816 116.198 222.639 118.758 223.393C121.318 224.148 131.43 204.816 131.824 203.495C131.824 203.495 133.219 200.945 132.021 200.852Z" fill="#C8D7F4"/>
<path d="M170.297 191.961C170.297 191.961 191.121 182.57 192.695 177.708C194.268 172.846 189.723 164.967 183.079 162.62C176.435 160.273 160.79 174.517 161.575 185.084C161.83 188.495 170.297 191.961 170.297 191.961Z" fill="#C8D7F4"/>
<path d="M190.002 99.2056C192.689 100.648 198.017 103.224 203.169 104.74C208.445 106.293 213.536 106.738 215.421 103.721C219.144 97.7595 208.151 89.1553 199.85 83.2481C191.533 77.3319 190.002 99.2056 190.002 99.2056Z" fill="#C8D7F4"/>
<path d="M199.849 83.2489C191.533 77.3316 190.002 99.2053 190.002 99.2053C192.689 100.648 198.017 103.224 203.169 104.74C203.169 104.74 197.646 97.1519 197.94 94.7976C198.234 92.4434 199.849 83.2489 199.849 83.2489Z" fill="#C8D7F4"/>
<path d="M120.942 95.2056C115.279 98.5144 108.546 109.317 108.108 112.482C107.67 115.647 113.681 118.814 132.561 111.249L120.942 95.2056Z" fill="#C8D7F4"/>
<path d="M170.295 191.961C168.373 193.106 166.038 194.208 163.477 195.254C150.346 200.612 131.276 204.434 131.276 204.434L130.26 201.9C130.26 201.9 143.063 184.361 154.037 182.022C165.011 179.683 170.295 191.961 170.295 191.961Z" fill="#C8D7F4"/>
<path d="M163.477 195.254C150.346 200.611 131.276 204.433 131.276 204.433L130.26 201.9C130.26 201.9 143.063 184.361 154.037 182.021L163.477 195.254Z" fill="#C8D7F4"/>
<path d="M189.509 136.349C189.509 136.349 197.865 158.543 193.503 169.635C192.636 171.841 178.696 160.111 178.696 160.111L180.929 145.126L189.509 136.349Z" fill="#C8D7F4"/>
<path d="M187.684 142.195L181.55 146.613L179.317 161.597C180.91 163.358 192.965 167.45 194.53 169.336C194.53 169.336 194.743 165.972 194.197 161.26C193.767 157.554 187.684 142.195 187.684 142.195Z" fill="#C8D7F4"/>
<path d="M165.065 178.599C172.32 186.988 188.701 204.306 206.501 193.475L193.296 167.027L165.065 178.599Z" fill="#C8D7F4"/>
<path d="M175.067 74.0737C184.123 75.4052 194.798 80.4713 199.631 83.1456C199.631 83.1456 201.537 92.0336 192.429 100.411L183.359 98.7059L175.067 74.0737Z" fill="#C8D7F4"/>
<path d="M175.067 74.0737L183.359 98.7059L189.286 99.8205C189.286 99.8205 189.678 96.2108 187.861 88.7451C186.635 83.7018 175.067 74.0737 175.067 74.0737Z" fill="#C8D7F4"/>
<path d="M149.823 142.943C149.933 152.315 149.659 169.58 160.749 181.545L195.646 171.444C193.523 165.99 186.529 153.834 184.232 150.111C185.734 148.98 187.405 147.278 189.279 145.233C191.759 142.526 190.479 139.975 190.131 137.835L149.823 142.943Z" fill="#C8D7F4"/>
<path d="M134.001 85.6851C132.83 82.2604 169.039 74.5984 175.067 74.0728C181.094 73.5472 190.953 103.157 190.131 137.835C190.131 137.835 182.972 142.417 149.823 142.942C149.823 142.942 148.823 135.356 144.409 119.197C142.044 110.54 138.699 99.4201 134.001 85.6851Z" fill="#C8D7F4"/>
<path d="M144.408 119.198C142.042 110.54 138.697 99.4189 134.001 85.6851C134.001 85.6851 141.148 89.4911 146.857 96.2099C152.567 102.93 144.408 119.198 144.408 119.198Z" fill="#C8D7F4"/>
<path d="M137.664 83.0234C131.135 85.1575 120.443 95.4099 120.443 95.4099C120.443 95.4099 118.373 110.624 130.1 112.608L146.311 105.662C151.53 103.676 150.304 95.9422 148.155 91.2326C145.21 84.7761 138.396 83.1824 137.664 83.0234Z" fill="#C8D7F4"/>
<path d="M202.532 186.527C202.532 186.527 192.523 194.259 194.192 202.79C194.616 204.959 195.22 207.191 196.37 209.456C198.15 212.964 201.236 216.555 206.981 220.12C215.442 225.37 229.07 228.663 229.07 228.663L232.004 227.319L211.867 200.227L202.532 186.527Z" fill="#C8D7F4"/>
<path d="M211.868 200.228L232.005 227.32L229.072 228.664C229.072 228.664 215.443 225.371 206.982 220.121C201.237 216.557 198.151 212.966 196.371 209.457L211.868 200.228Z" fill="#C8D7F4"/>
<path d="M111.544 106.861C104.274 111.808 99.0506 138.611 99.4513 144.282L103.408 145.669C103.408 145.669 120.947 126.875 121.28 113.593C121.468 106.039 111.544 106.861 111.544 106.861Z" fill="#C8D7F4"/>
<path d="M214.65 97.898C207.882 93.6436 187.714 102.399 177.571 114.722L178.385 117.499C178.385 117.499 187.89 117.935 201.947 113.429C216.004 108.922 218.788 100.5 214.65 97.898Z" fill="#C8D7F4"/>
<path d="M150.207 79.5181C149.838 79.3671 147.368 67.7662 143.325 59.0927C139.891 51.7281 152.228 41.0353 160.303 50.3262C168.377 59.6172 169.704 69.7561 163.514 72.3373L164.389 75.4555C164.389 75.4555 172.976 79.6384 168.703 81.0244C168.562 81.0709 158.868 83.0733 150.207 79.5181Z" fill="#C8D7F4"/>
<path d="M99.4518 144.281C99.4518 144.281 94.1519 148.066 93.3414 149.329C92.5309 150.593 93.8182 154.634 94.3256 155.799C94.8318 156.966 101.786 159.714 102.747 159.324C104.447 158.63 105.151 156.474 105.291 155.665C105.421 154.916 103.409 145.669 103.409 145.669L99.4518 144.281Z" fill="#C8D7F4"/>
<path d="M177.571 114.722C177.571 114.722 169.092 113.574 166.274 114.587C163.455 115.601 158.874 120.5 158.698 121.683C158.522 122.866 162.398 124.893 165.745 124.724C168.425 124.589 174.729 121.345 174.729 121.345L178.383 117.5L177.571 114.722Z" fill="#C8D7F4"/>
<path d="M198.29 212.295C198.29 213.206 198.527 214.116 199.713 214.116C200.9 214.116 213.951 202.966 213.951 202.966L198.29 212.295Z" fill="#C8D7F4"/>
<path d="M149.023 184.158C146.935 185.797 156.135 197.25 156.135 197.25C156.135 197.25 152.152 181.703 149.023 184.158Z" fill="#C8D7F4"/>
<path d="M228.101 226.539C225.643 227.063 225.188 231.998 231.373 232.773C237.559 233.548 248.919 229.771 251.358 227.789C253.798 225.807 248.095 224.676 240.092 224.505C233.852 224.372 228.101 226.539 228.101 226.539Z" fill="#C8D7F4"/>
<path d="M200.655 192.36C202.499 190.914 205.826 188.35 205.826 188.35C205.826 188.35 206.315 189.606 204.71 191.064C203.506 192.16 200.655 192.36 200.655 192.36Z" fill="#C8D7F4"/>
<path d="M212.635 101.11C212.635 101.11 217.635 98.169 218.827 98.1724C220.019 98.1758 217.418 100.527 216.78 100.819C214.417 101.906 212.635 101.11 212.635 101.11Z" fill="#C8D7F4"/>
<path d="M113.158 108.277C111.756 107.493 107.683 108.264 107.215 110.728L113.158 108.277Z" fill="#C8D7F4"/>
<path d="M145.853 72.0015C147.452 75.0663 149.05 74.6826 149.848 72.7677C150.647 70.8527 148.25 64.3394 148.25 64.3394C150.647 60.5084 151.446 57.4436 148.25 55.1449C148.25 55.1449 156.203 52.9371 160.302 50.3264C166.709 46.2456 164.246 43.2035 158.492 43.1354C155.359 43.0979 149.7 44.8494 145.045 46.896C140.39 48.9427 136.704 53.9644 139.032 56.1961C139.032 56.1961 136.704 56.9396 137.481 59.3585C138.257 61.7775 145.853 72.0015 145.853 72.0015Z" fill="#C8D7F4"/>
<path d="M148.841 63.041C146.514 61.2963 144.815 60.4812 144.087 61.9932C143.36 63.5052 147.605 69.4374 150.88 67.5769C154.156 65.7153 148.841 63.041 148.841 63.041Z" fill="#C8D7F4"/>
<path d="M145.9 107.703C145.9 107.703 150.867 120.257 154.479 140.387L145.9 107.703Z" fill="#C8D7F4"/>
<path d="M145.9 107.703C145.9 107.703 150.867 120.257 154.479 140.387" stroke="#CAC2BF" stroke-width="0.663932" stroke-miterlimit="10" stroke-linecap="round" stroke-linejoin="round"/>
<path d="M139.128 84.542C146.351 86.4899 149.06 90.8192 149.737 95.1486C150.414 99.4779 149.285 102.292 149.285 102.292" fill="#C8D7F4"/>
<path d="M139.128 84.542C146.351 86.4899 149.06 90.8192 149.737 95.1486C150.414 99.4779 149.285 102.292 149.285 102.292" stroke="#CAC2BF" stroke-width="0.663932" stroke-miterlimit="10" stroke-linecap="round" stroke-linejoin="round"/>
<path d="M154.847 144.682C154.847 144.682 154.545 164.765 168.305 181.609L154.847 144.682Z" fill="#C8D7F4"/>
<path d="M154.847 144.682C154.847 144.682 154.545 164.765 168.305 181.609" stroke="#54A2FE" stroke-width="0.663932" stroke-miterlimit="10" stroke-linecap="round" stroke-linejoin="round"/>
<path d="M156.727 154.45C156.727 154.45 163.013 152.882 162.636 144.082L156.727 154.45Z" fill="#C8D7F4"/>
<path d="M156.727 154.45C156.727 154.45 163.013 152.882 162.636 144.082" stroke="#54A2FE" stroke-width="0.663932" stroke-miterlimit="10" stroke-linecap="round" stroke-linejoin="round"/>
<path d="M280.403 84.054C278.51 84.054 276.97 82.5139 276.97 80.621C276.97 78.7281 278.51 77.188 280.403 77.188C282.296 77.188 283.836 78.7281 283.836 80.621C283.836 82.5139 282.296 84.054 280.403 84.054ZM280.403 77.7332C278.81 77.7332 277.514 79.029 277.514 80.6215C277.514 82.214 278.81 83.5093 280.403 83.5093C281.995 83.5093 283.29 82.2135 283.29 80.6215C283.291 79.0285 281.995 77.7332 280.403 77.7332Z" fill="#C8D7F4"/>
<path d="M530.129 40.9197C528.236 40.9197 526.696 39.3796 526.696 37.4867C526.696 35.5938 528.236 34.0537 530.129 34.0537C532.022 34.0537 533.562 35.5938 533.562 37.4867C533.562 39.3796 532.022 40.9197 530.129 40.9197ZM530.129 34.599C528.537 34.599 527.241 35.8948 527.241 37.4872C527.241 39.0797 528.537 40.375 530.129 40.375C531.722 40.375 533.017 39.0792 533.017 37.4872C533.018 35.8942 531.722 34.599 530.129 34.599Z" fill="#C8D7F4"/>
<path d="M222.512 6.86603C220.619 6.86603 219.079 5.32593 219.079 3.43301C219.079 1.5401 220.619 0 222.512 0C224.405 0 225.945 1.5401 225.945 3.43301C225.945 5.32593 224.405 6.86603 222.512 6.86603ZM222.512 0.545257C220.92 0.545257 219.624 1.84105 219.624 3.43354C219.624 5.02602 220.92 6.32129 222.512 6.32129C224.105 6.32129 225.4 5.02549 225.4 3.43354C225.4 1.84051 224.105 0.545257 222.512 0.545257Z" fill="#C8D7F4"/>
<path d="M72.6762 44.325C70.7833 44.325 69.2432 42.7849 69.2432 40.892C69.2432 38.9991 70.7833 37.459 72.6762 37.459C74.5691 37.459 76.1092 38.9991 76.1092 40.892C76.1092 42.7849 74.5691 44.325 72.6762 44.325ZM72.6762 38.0042C71.0837 38.0042 69.7879 39.3 69.7879 40.8925C69.7879 42.485 71.0837 43.7803 72.6762 43.7803C74.2687 43.7803 75.5639 42.4845 75.5639 40.8925C75.5645 39.2995 74.2687 38.0042 72.6762 38.0042Z" fill="#C8D7F4"/>
<path d="M3.43301 175.999C1.5401 175.999 0 174.459 0 172.566C0 170.673 1.5401 169.133 3.43301 169.133C5.32593 169.133 6.86603 170.673 6.86603 172.566C6.86603 174.459 5.32593 175.999 3.43301 175.999ZM3.43301 169.678C1.84053 169.678 0.544727 170.974 0.544727 172.566C0.544727 174.159 1.84053 175.454 3.43301 175.454C5.0255 175.454 6.32077 174.158 6.32077 172.566C6.32131 170.973 5.0255 169.678 3.43301 169.678Z" fill="#C8D7F4"/>
<path d="M553.967 185.08C552.074 185.08 550.534 183.54 550.534 181.647C550.534 179.754 552.074 178.214 553.967 178.214C555.86 178.214 557.4 179.754 557.4 181.647C557.4 183.54 555.86 185.08 553.967 185.08ZM553.967 178.759C552.375 178.759 551.079 180.055 551.079 181.647C551.079 183.24 552.375 184.535 553.967 184.535C555.56 184.535 556.855 183.239 556.855 181.647C556.855 180.054 555.56 178.759 553.967 178.759Z" fill="#C8D7F4"/>
</g>
</g>
</g>
</svg>
