<svg width="17" height="18" viewBox="0 0 17 18" fill="none" xmlns="http://www.w3.org/2000/svg">
<path d="M3.42048 8.74482L0.560309 7.63997C0.417251 7.5851 0.346127 7.42431 0.401739 7.28154L2.51609 1.85347C2.53902 1.79459 2.58295 1.74626 2.63945 1.71787L5.2575 0.401229C5.29957 0.380089 5.34825 0.37629 5.39307 0.390642L5.94236 0.566623C5.94236 0.566623 6.92062 1.09386 8.30406 1.09386C9.87667 1.09386 10.8624 0.566623 10.8624 0.566623L11.4117 0.390642C11.4565 0.37629 11.5051 0.380089 11.5472 0.401229L14.1653 1.71787C14.2217 1.74626 14.2657 1.79459 14.2886 1.85347L16.403 7.28154C16.4586 7.42431 16.3875 7.5851 16.2444 7.63997L13.4207 8.7233" stroke="white" stroke-width="0.764139" stroke-miterlimit="10" stroke-linecap="round" stroke-linejoin="round"/>
<path d="M3.42188 5.55688V17.4437C3.42188 17.5399 3.49982 17.6178 3.59599 17.6178H13.2474C13.3435 17.6178 13.4215 17.5399 13.4215 17.4437V5.55688" stroke="white" stroke-width="0.764139" stroke-miterlimit="10" stroke-linecap="round" stroke-linejoin="round"/>
<path d="M11.4131 0.390381L11.4097 0.492706C11.3577 1.90752 10.1981 3.09951 8.77346 3.09951H8.03422C6.59615 3.09951 5.42665 1.94952 5.3952 0.518981L5.39453 0.390381" stroke="white" stroke-width="0.764139" stroke-miterlimit="10" stroke-linecap="round" stroke-linejoin="round"/>
</svg>
