<svg width="45" height="17" viewBox="0 0 45 17" fill="none" xmlns="http://www.w3.org/2000/svg">
<rect x="0.25" y="0.25" width="43.7668" height="16.044" rx="3.75" fill="#171B20" stroke="#F53A53" stroke-width="0.5"/>
<path d="M13.3664 11.772L10.8532 5.01593H11.9617L14.0735 10.9119L16.1758 5.01593H17.2652L14.7711 11.772H13.3664ZM20.313 11.8484C19.8734 11.8484 19.4593 11.7847 19.0707 11.6573C18.6821 11.5299 18.354 11.3228 18.0865 11.0362C17.8189 10.7495 17.6405 10.3704 17.5513 9.89901H18.5929C18.6758 10.1666 18.8095 10.3768 18.9943 10.5297C19.179 10.6762 19.3925 10.7782 19.6345 10.8355C19.883 10.8928 20.1314 10.9215 20.3799 10.9215C20.6156 10.9215 20.8354 10.8896 21.0393 10.8259C21.2495 10.7622 21.4215 10.6571 21.5553 10.5106C21.6891 10.3641 21.756 10.1729 21.756 9.93723C21.756 9.75886 21.7209 9.61233 21.6508 9.49766C21.5808 9.38299 21.482 9.29062 21.3546 9.22054C21.2336 9.14409 21.087 9.08357 20.915 9.03898C20.7175 8.97527 20.5041 8.92112 20.2748 8.87653C20.0518 8.83193 19.8288 8.78097 19.6059 8.72363C19.3893 8.6663 19.1854 8.59303 18.9943 8.50384C18.835 8.44014 18.6789 8.36369 18.5261 8.2745C18.3795 8.17894 18.2521 8.06746 18.1438 7.94004C18.0355 7.80626 17.9463 7.65018 17.8762 7.4718C17.8125 7.29343 17.7807 7.08957 17.7807 6.86022C17.7807 6.55443 17.8285 6.29324 17.924 6.07664C18.026 5.86004 18.1566 5.67847 18.3158 5.53195C18.4815 5.38543 18.6694 5.27075 18.8796 5.18794C19.0962 5.09875 19.3224 5.03504 19.5581 4.99682C19.7938 4.95859 20.0231 4.93948 20.2461 4.93948C20.6538 4.93948 21.0297 5.00319 21.3737 5.1306C21.7177 5.25801 22.0012 5.46187 22.2242 5.74218C22.4535 6.01612 22.5778 6.37924 22.5969 6.83156H21.6126C21.5871 6.58947 21.5043 6.39835 21.3642 6.2582C21.2304 6.11168 21.0616 6.00975 20.8577 5.95241C20.6538 5.8887 20.4372 5.85685 20.2079 5.85685C20.0423 5.85685 19.8766 5.87278 19.711 5.90463C19.5454 5.93011 19.3925 5.98108 19.2523 6.05753C19.1185 6.1276 19.0102 6.22316 18.9274 6.3442C18.851 6.46525 18.8127 6.61496 18.8127 6.79333C18.8127 6.94623 18.8446 7.0832 18.9083 7.20424C18.972 7.31891 19.0612 7.41765 19.1759 7.50047C19.2969 7.57692 19.4307 7.64381 19.5772 7.70115C19.8448 7.80308 20.1378 7.88271 20.4563 7.94004C20.7749 7.99101 21.0743 8.06427 21.3546 8.15983C21.5585 8.22354 21.7496 8.30317 21.928 8.39873C22.1063 8.48792 22.2592 8.5994 22.3866 8.73319C22.5141 8.8606 22.6128 9.01349 22.6829 9.19187C22.753 9.36388 22.788 9.56455 22.788 9.79389C22.788 10.1698 22.7211 10.4915 22.5873 10.759C22.4535 11.0202 22.272 11.2305 22.0426 11.3897C21.8133 11.549 21.5489 11.6669 21.2495 11.7433C20.9501 11.8134 20.6379 11.8484 20.313 11.8484Z" fill="#F53A53"/>
</svg>
