<svg width="92" height="43" viewBox="0 0 92 43" fill="none" xmlns="http://www.w3.org/2000/svg">
<g opacity="0.3" filter="url(#filter0_f_15279_1657)">
<path d="M10.1758 13.4273L79.6824 10.1797C81.2406 10.1069 82.2982 11.7419 81.5928 13.1333L73.3258 29.4407C72.4129 31.2416 70.5216 32.3323 68.5056 32.2206L10.1758 28.9885L10.1758 13.4273Z" fill="#F5B03A"/>
</g>
<path d="M10.1758 13.3906L74.4994 13.3906C75.251 13.3906 75.7433 14.1773 75.4147 14.8533L69.9212 26.1541C69.0695 27.906 67.2925 29.018 65.3446 29.018L10.1758 29.018L10.1758 13.3906Z" fill="#F5B03A"/>
<path d="M21.6582 25.1023L20.048 18.5126L21.5279 18.5126L22.682 23.641L23.8455 18.5126L25.6046 18.5126L26.7494 23.641L27.8756 18.5126H29.281L27.6894 25.1023L25.8466 25.1023L24.6924 20.1135L23.5569 25.1023L21.6582 25.1023ZM30.7786 25.1023L30.7786 18.5126L32.1096 18.5126L32.1096 25.1023L30.7786 25.1023ZM34.25 25.1023L34.25 18.5126L35.6089 18.5126L38.6524 22.9709L38.6524 18.5126L39.9834 18.5126L39.9834 25.1023L38.6617 25.1023L35.5809 20.6906L35.5809 25.1023L34.25 25.1023ZM42.1206 25.1023L42.1206 18.5126H43.4795L46.523 22.9709L46.523 18.5126H47.8539L47.8539 25.1023L46.5323 25.1023L43.4515 20.6906L43.4515 25.1023H42.1206ZM49.9912 25.1023L49.9912 18.5126L54.7379 18.5126V19.7505L51.3221 19.7505L51.3221 21.2397L54.254 21.2397V22.4311L51.3221 22.4311L51.3221 23.8737L54.7379 23.8737L54.7379 25.1023L49.9912 25.1023ZM56.5165 25.1023L56.5165 18.5126L59.1691 18.5126C59.498 18.5126 59.8114 18.5468 60.1092 18.615C60.4132 18.6771 60.6862 18.7857 60.9282 18.9408C61.1702 19.0959 61.3595 19.3131 61.496 19.5923C61.6387 19.8653 61.7101 20.2159 61.7101 20.644C61.7101 20.9605 61.6573 21.2459 61.5518 21.5003C61.4464 21.7547 61.2912 21.9719 61.0865 22.1518C60.8817 22.3318 60.6366 22.4714 60.3512 22.5707L61.8124 25.1023H60.314L59.0295 22.7847L57.8475 22.7847L57.8475 25.1023H56.5165ZM57.8475 21.6027L59.0761 21.6027C59.2684 21.6027 59.4422 21.5872 59.5973 21.5562C59.7586 21.5189 59.8951 21.4631 60.0068 21.3886C60.1247 21.3142 60.2147 21.2149 60.2767 21.0908C60.345 20.9667 60.3791 20.8147 60.3791 20.6347C60.3853 20.4052 60.3357 20.2283 60.2302 20.1042C60.1309 19.9739 59.9882 19.8839 59.802 19.8343C59.6221 19.7785 59.408 19.7505 59.1598 19.7505L57.8475 19.7505L57.8475 21.6027Z" fill="black"/>
<defs>
<filter id="filter0_f_15279_1657" x="-0.00150299" y="-3.8147e-05" width="91.9952" height="42.4058" filterUnits="userSpaceOnUse" color-interpolation-filters="sRGB">
<feFlood flood-opacity="0" result="BackgroundImageFix"/>
<feBlend mode="normal" in="SourceGraphic" in2="BackgroundImageFix" result="shape"/>
<feGaussianBlur stdDeviation="5.08864" result="effect1_foregroundBlur_15279_1657"/>
</filter>
</defs>
</svg>
