<svg width="82" height="33" viewBox="0 0 82 33" fill="none" xmlns="http://www.w3.org/2000/svg">
<g opacity="0.3" filter="url(#filter0_f_15372_1353)">
<path d="M81.8174 13.4273L12.3108 10.1797C10.7526 10.1069 9.69497 11.7419 10.4003 13.1333L18.6673 29.4407C19.5803 31.2416 21.4716 32.3323 23.4876 32.2206L81.8174 28.9885L81.8174 13.4273Z" fill="#F5B03A"/>
</g>
<path d="M81.8174 13.3911L17.4938 13.3911C16.7422 13.3911 16.2499 14.1778 16.5785 14.8538L22.072 26.1546C22.9236 27.9065 24.7006 29.0185 26.6486 29.0185L81.8174 29.0185L81.8174 13.3911Z" fill="#F5B03A"/>
<path d="M30.667 25.1025L29.0568 18.5129L30.5367 18.5129L31.6908 23.6413L32.8542 18.5129L34.6133 18.5129L35.7582 23.6413L36.8844 18.5129H38.2898L36.6982 25.1025L34.8553 25.1025L33.7012 20.1138L32.5657 25.1025L30.667 25.1025ZM39.7874 25.1025L39.7874 18.5129L41.1184 18.5129L41.1184 25.1025L39.7874 25.1025ZM43.2588 25.1025L43.2588 18.5129L44.6177 18.5129L47.6612 22.9711L47.6612 18.5129L48.9921 18.5129L48.9921 25.1025L47.6705 25.1025L44.5897 20.6908L44.5897 25.1025L43.2588 25.1025ZM51.1294 25.1025L51.1294 18.5129H52.4882L55.5318 22.9711L55.5318 18.5129H56.8627L56.8627 25.1025L55.5411 25.1025L52.4603 20.6908L52.4603 25.1025H51.1294ZM58.9999 25.1025L58.9999 18.5129L63.7467 18.5129V19.7508L60.3309 19.7508L60.3309 21.24L63.2627 21.24V22.4313L60.3309 22.4313L60.3309 23.874L63.7467 23.874L63.7467 25.1025L58.9999 25.1025ZM65.5253 25.1025L65.5253 18.5129L68.1779 18.5129C68.5068 18.5129 68.8201 18.547 69.118 18.6153C69.422 18.6773 69.695 18.7859 69.937 18.941C70.179 19.0962 70.3683 19.3133 70.5048 19.5925C70.6475 19.8656 70.7189 20.2161 70.7189 20.6443C70.7189 20.9607 70.6661 21.2462 70.5606 21.5006C70.4551 21.755 70.3 21.9721 70.0953 22.1521C69.8905 22.332 69.6454 22.4716 69.36 22.5709L70.8212 25.1025H69.3227L68.0383 22.785L66.8563 22.785L66.8563 25.1025H65.5253ZM66.8563 21.603L68.0849 21.603C68.2772 21.603 68.4509 21.5874 68.6061 21.5564C68.7674 21.5192 68.9039 21.4633 69.0156 21.3889C69.1335 21.3144 69.2235 21.2151 69.2855 21.091C69.3538 20.9669 69.3879 20.8149 69.3879 20.635C69.3941 20.4054 69.3445 20.2286 69.239 20.1045C69.1397 19.9742 68.997 19.8842 68.8108 19.8345C68.6309 19.7787 68.4168 19.7508 68.1686 19.7508L66.8563 19.7508V21.603Z" fill="black"/>
<defs>
<filter id="filter0_f_15372_1353" x="0.000450134" y="-3.8147e-05" width="91.9942" height="42.4058" filterUnits="userSpaceOnUse" color-interpolation-filters="sRGB">
<feFlood flood-opacity="0" result="BackgroundImageFix"/>
<feBlend mode="normal" in="SourceGraphic" in2="BackgroundImageFix" result="shape"/>
<feGaussianBlur stdDeviation="5.08864" result="effect1_foregroundBlur_15372_1353"/>
</filter>
</defs>
</svg>
