<svg width="92" height="43" viewBox="0 0 92 43" fill="none" xmlns="http://www.w3.org/2000/svg">
<g opacity="0.3" filter="url(#filter0_f_15372_2599)">
<path d="M10.1777 13.4273L79.6843 10.1797C81.2425 10.1069 82.3001 11.7419 81.5948 13.1333L73.3278 29.4407C72.4148 31.2416 70.5235 32.3323 68.5075 32.2206L10.1777 28.9885L10.1777 13.4273Z" fill="#F5B03A"/>
</g>
<path d="M10.1777 13.3911L74.5013 13.3911C75.2529 13.3911 75.7452 14.1778 75.4166 14.8538L69.9231 26.1546C69.0715 27.9065 67.2945 29.0185 65.3466 29.0185L10.1777 29.0185L10.1777 13.3911Z" fill="#F5B03A"/>
<path d="M21.6602 25.1023L20.05 18.5126L21.5299 18.5126L22.684 23.641L23.8474 18.5126L25.6065 18.5126L26.7513 23.641L27.8775 18.5126H29.2829L27.6914 25.1023L25.8485 25.1023L24.6944 20.1135L23.5589 25.1023L21.6602 25.1023ZM30.7806 25.1023L30.7806 18.5126L32.1115 18.5126L32.1115 25.1023L30.7806 25.1023ZM34.2519 25.1023L34.2519 18.5126L35.6108 18.5126L38.6543 22.9709L38.6543 18.5126L39.9853 18.5126L39.9853 25.1023L38.6637 25.1023L35.5829 20.6906L35.5829 25.1023L34.2519 25.1023ZM42.1225 25.1023L42.1225 18.5126H43.4814L46.5249 22.9709L46.5249 18.5126H47.8559L47.8559 25.1023L46.5342 25.1023L43.4535 20.6906L43.4535 25.1023H42.1225ZM49.9931 25.1023L49.9931 18.5126L54.7399 18.5126V19.7505L51.3241 19.7505L51.3241 21.2397L54.2559 21.2397V22.4311L51.3241 22.4311L51.3241 23.8737L54.7399 23.8737L54.7399 25.1023L49.9931 25.1023ZM56.5185 25.1023L56.5185 18.5126L59.1711 18.5126C59.5 18.5126 59.8133 18.5468 60.1111 18.615C60.4152 18.6771 60.6882 18.7857 60.9302 18.9408C61.1722 19.0959 61.3614 19.3131 61.4979 19.5923C61.6407 19.8653 61.712 20.2159 61.712 20.644C61.712 20.9605 61.6593 21.2459 61.5538 21.5003C61.4483 21.7547 61.2932 21.9719 61.0884 22.1518C60.8837 22.3318 60.6386 22.4714 60.3531 22.5707L61.8144 25.1023H60.3159L59.0315 22.7847L57.8494 22.7847L57.8494 25.1023H56.5185ZM57.8494 21.6027L59.078 21.6027C59.2704 21.6027 59.4441 21.5872 59.5992 21.5562C59.7606 21.5189 59.8971 21.4631 60.0088 21.3886C60.1267 21.3142 60.2166 21.2149 60.2787 21.0908C60.3469 20.9667 60.3811 20.8147 60.3811 20.6347C60.3873 20.4052 60.3376 20.2283 60.2321 20.1042C60.1329 19.9739 59.9901 19.8839 59.804 19.8343C59.6241 19.7785 59.41 19.7505 59.1618 19.7505L57.8494 19.7505L57.8494 21.6027Z" fill="black"/>
<defs>
<filter id="filter0_f_15372_2599" x="0.000450134" y="-3.8147e-05" width="91.9942" height="42.4058" filterUnits="userSpaceOnUse" color-interpolation-filters="sRGB">
<feFlood flood-opacity="0" result="BackgroundImageFix"/>
<feBlend mode="normal" in="SourceGraphic" in2="BackgroundImageFix" result="shape"/>
<feGaussianBlur stdDeviation="5.08864" result="effect1_foregroundBlur_15372_2599"/>
</filter>
</defs>
</svg>
