<?xml version="1.0" standalone="no"?>
<!DOCTYPE svg PUBLIC "-//W3C//DTD SVG 20010904//EN"
 "http://www.w3.org/TR/2001/REC-SVG-20010904/DTD/svg10.dtd">
<svg version="1.0" xmlns="http://www.w3.org/2000/svg"
 width="80.000000pt" height="80.000000pt" viewBox="0 0 80.000000 80.000000"
 preserveAspectRatio="xMidYMid meet">

<g transform="translate(0.000000,80.000000) scale(0.100000,-0.100000)"
fill="#FF0000" stroke="none">
<path d="M309 715 c-149 -48 -251 -197 -236 -343 7 -71 57 -171 104 -213 130
-113 316 -113 446 0 20 18 51 63 69 99 81 163 16 353 -147 433 -77 38 -166 47
-236 24z m192 -22 c76 -24 168 -116 192 -192 22 -68 22 -134 0 -202 -24 -76
-116 -168 -192 -192 -68 -22 -134 -22 -202 0 -76 24 -168 116 -192 192 -39
122 -13 225 78 316 90 91 195 117 316 78z"/>
<path d="M390 670 c0 -5 5 -10 10 -10 6 0 10 5 10 10 0 6 -4 10 -10 10 -5 0
-10 -4 -10 -10z"/>
<path d="M200 589 c0 -5 5 -7 10 -4 6 3 10 8 10 11 0 2 -4 4 -10 4 -5 0 -10
-5 -10 -11z"/>
<path d="M585 590 c3 -5 8 -10 11 -10 2 0 4 5 4 10 0 6 -5 10 -11 10 -5 0 -7
-4 -4 -10z"/>
<path d="M287 513 l-27 -27 42 -43 42 -43 -42 -43 -42 -43 27 -27 27 -27 43
42 43 42 43 -42 43 -42 27 27 27 27 -42 43 -42 43 42 43 42 43 -27 27 -27 27
-43 -42 -43 -42 -43 42 -43 42 -27 -27z m156 -45 c34 33 46 39 55 30 9 -9 3
-21 -30 -55 l-42 -43 42 -43 c33 -34 39 -46 30 -55 -9 -9 -21 -3 -55 30 l-43
42 -43 -42 c-34 -33 -46 -39 -55 -30 -9 9 -3 21 30 55 l42 43 -42 43 c-33 34
-39 46 -30 55 9 9 21 3 55 -30 l43 -42 43 42z"/>
<path d="M120 400 c0 -5 5 -10 10 -10 6 0 10 5 10 10 0 6 -4 10 -10 10 -5 0
-10 -4 -10 -10z"/>
<path d="M660 400 c0 -5 5 -10 10 -10 6 0 10 5 10 10 0 6 -4 10 -10 10 -5 0
-10 -4 -10 -10z"/>
<path d="M200 210 c0 -5 5 -10 11 -10 5 0 7 5 4 10 -3 6 -8 10 -11 10 -2 0 -4
-4 -4 -10z"/>
<path d="M585 210 c-3 -5 -1 -10 4 -10 6 0 11 5 11 10 0 6 -2 10 -4 10 -3 0
-8 -4 -11 -10z"/>
<path d="M390 130 c0 -5 5 -10 10 -10 6 0 10 5 10 10 0 6 -4 10 -10 10 -5 0
-10 -4 -10 -10z"/>
</g>
</svg>
