<?xml version="1.0" standalone="no"?>
<!DOCTYPE svg PUBLIC "-//W3C//DTD SVG 20010904//EN"
 "http://www.w3.org/TR/2001/REC-SVG-20010904/DTD/svg10.dtd">
<svg version="1.0" xmlns="http://www.w3.org/2000/svg"
 width="48.000000pt" height="48.000000pt" viewBox="0 0 48.000000 48.000000"
 preserveAspectRatio="xMidYMid meet">

<g transform="translate(0.000000,48.000000) scale(0.100000,-0.100000)"
fill="#FF0000" stroke="none">
<path d="M170 437 c-52 -17 -114 -84 -129 -140 -43 -152 97 -298 246 -259 160
43 214 232 99 347 -60 59 -135 78 -216 52z m172 -37 c102 -69 118 -197 37
-285 -48 -51 -93 -69 -160 -63 -118 12 -198 136 -160 250 14 41 64 95 106 115
45 20 136 12 177 -17z"/>
<path d="M225 357 c-4 -8 -5 -45 -3 -83 2 -53 6 -69 18 -69 12 0 15 15 15 79
0 55 -4 81 -12 83 -7 3 -15 -2 -18 -10z"/>
<path d="M222 133 c2 -10 10 -18 18 -18 8 0 16 8 18 18 2 12 -3 17 -18 17 -15
0 -20 -5 -18 -17z"/>
</g>
</svg>
