<?xml version="1.0" standalone="no"?>
<!DOCTYPE svg PUBLIC "-//W3C//DTD SVG 20010904//EN"
 "http://www.w3.org/TR/2001/REC-SVG-20010904/DTD/svg10.dtd">
<svg version="1.0" xmlns="http://www.w3.org/2000/svg"
 width="50.000000pt" height="50.000000pt" viewBox="0 0 50.000000 50.000000"
 preserveAspectRatio="xMidYMid meet">

<g transform="translate(0.000000,50.000000) scale(0.100000,-0.100000)"
fill="#FF0000" stroke="none">
<path d="M55 449 c-27 -18 -51 -32 -52 -33 -2 -2 5 -21 14 -44 13 -33 20 -41
35 -36 17 5 18 -2 18 -90 l0 -96 121 0 c108 0 120 -2 109 -15 -23 -28 0 -29
28 -2 l27 27 -27 27 c-28 27 -51 26 -28 -2 11 -13 0 -15 -99 -15 l-111 0 0
100 0 100 -25 -6 c-20 -5 -27 -2 -34 17 -8 21 -3 27 37 53 l46 29 28 -34 28
-33 28 33 28 34 45 -29 c26 -16 44 -35 42 -41 -7 -19 14 -16 21 3 4 9 5 18 4
19 -2 2 -26 17 -54 34 -43 26 -61 31 -115 31 -54 0 -72 -5 -114 -31z m132 -6
c-16 -16 -18 -16 -34 0 -16 16 -15 17 17 17 32 0 33 -1 17 -17z"/>
<path d="M215 329 c-27 -18 -52 -33 -53 -35 -6 -4 32 -64 40 -64 12 0 10 14
-6 36 -13 18 -11 21 32 48 l46 29 28 -34 28 -33 28 33 28 34 46 -29 c40 -26
45 -32 37 -53 -7 -19 -14 -22 -34 -17 l-25 6 0 -90 0 -90 -121 0 c-108 0 -120
2 -109 15 23 28 0 29 -28 2 l-27 -27 27 -27 c28 -27 51 -26 28 2 -11 13 2 15
119 15 l131 0 0 86 c0 78 2 85 18 80 15 -5 22 3 35 36 9 23 16 42 14 44 -1 1
-25 16 -53 33 -43 26 -61 31 -115 31 -54 0 -72 -5 -114 -31z m132 -6 c-16 -16
-18 -16 -34 0 -16 16 -15 17 17 17 32 0 33 -1 17 -17z"/>
</g>
</svg>
